<svg width="500" height="400" viewBox="0 0 500 400" fill="none" xmlns="http://www.w3.org/2000/svg">
<rect x="0.5" y="0.5" width="499" height="399" rx="29.5" stroke="white"/>
<path d="M58.696 46V64H57.352V47.2H43.672V64H42.328V46H58.696ZM65.2262 50.56H66.5222V55.072C66.7782 54.56 67.0662 54.072 67.3862 53.608C68.1382 52.568 69.0342 51.752 70.0742 51.16C71.1142 50.568 72.2502 50.272 73.4823 50.272C74.7943 50.272 75.9623 50.568 76.9863 51.16C78.0103 51.752 78.8182 52.576 79.4102 53.632C80.0022 54.672 80.2982 55.888 80.2982 57.28C80.2982 58.656 80.0022 59.872 79.4102 60.928C78.8182 61.984 78.0103 62.808 76.9863 63.4C75.9623 63.992 74.7943 64.288 73.4823 64.288C72.2502 64.288 71.1142 64 70.0742 63.424C69.0342 62.832 68.1382 62.008 67.3862 60.952C67.0662 60.504 66.7782 60.024 66.5222 59.512V67.96H65.2262V50.56ZM78.9542 57.28C78.9542 56.128 78.7143 55.12 78.2343 54.256C77.7703 53.392 77.1223 52.72 76.2902 52.24C75.4742 51.744 74.5382 51.496 73.4823 51.496C72.4262 51.496 71.4582 51.744 70.5782 52.24C69.6982 52.72 68.9142 53.392 68.2262 54.256C67.5382 55.12 66.9622 56.128 66.4982 57.28C66.9622 58.416 67.5382 59.424 68.2262 60.304C68.9142 61.168 69.6982 61.848 70.5782 62.344C71.4582 62.824 72.4262 63.064 73.4823 63.064C74.5382 63.064 75.4742 62.824 76.2902 62.344C77.1223 61.848 77.7703 61.168 78.2343 60.304C78.7143 59.424 78.9542 58.416 78.9542 57.28ZM92.6086 64.288C91.0726 64.288 89.7206 63.992 88.5526 63.4C87.3846 62.808 86.4726 61.984 85.8166 60.928C85.1606 59.872 84.8326 58.656 84.8326 57.28C84.8326 55.888 85.1606 54.672 85.8166 53.632C86.4726 52.576 87.3846 51.752 88.5526 51.16C89.7206 50.568 91.0726 50.272 92.6086 50.272C94.1446 50.272 95.4966 50.568 96.6646 51.16C97.8326 51.752 98.7446 52.576 99.4006 53.632C100.057 54.672 100.385 55.888 100.385 57.28C100.385 58.656 100.057 59.872 99.4006 60.928C98.7446 61.984 97.8326 62.808 96.6646 63.4C95.4966 63.992 94.1446 64.288 92.6086 64.288ZM92.6086 63.064C93.9206 63.064 95.0566 62.824 96.0166 62.344C96.9766 61.864 97.7206 61.192 98.2486 60.328C98.7766 59.464 99.0406 58.448 99.0406 57.28C99.0406 56.112 98.7766 55.096 98.2486 54.232C97.7206 53.368 96.9766 52.696 96.0166 52.216C95.0566 51.736 93.9206 51.496 92.6086 51.496C91.3126 51.496 90.1766 51.736 89.2006 52.216C88.2406 52.696 87.4966 53.368 86.9686 54.232C86.4406 55.096 86.1766 56.112 86.1766 57.28C86.1766 58.448 86.4406 59.464 86.9686 60.328C87.4966 61.192 88.2406 61.864 89.2006 62.344C90.1766 62.824 91.3126 63.064 92.6086 63.064ZM105.768 64V50.56H107.064V62.68L117.744 50.56H119.424V64H118.128V51.88L107.448 64H105.768ZM131.197 64.288C129.933 64.288 128.813 64.104 127.837 63.736C126.861 63.368 126.085 62.848 125.509 62.176C124.949 61.488 124.629 60.68 124.549 59.752H125.845C125.989 60.824 126.525 61.648 127.453 62.224C128.381 62.784 129.629 63.064 131.197 63.064C132.717 63.064 133.909 62.832 134.773 62.368C135.653 61.904 136.093 61.184 136.093 60.208C136.093 59.408 135.741 58.816 135.037 58.432C134.349 58.032 133.245 57.832 131.725 57.832H128.773V56.68H131.653C133.013 56.68 134.021 56.432 134.677 55.936C135.333 55.44 135.661 54.848 135.661 54.16C135.661 53.296 135.253 52.64 134.437 52.192C133.637 51.728 132.589 51.496 131.293 51.496C129.885 51.496 128.725 51.752 127.813 52.264C126.901 52.776 126.357 53.536 126.181 54.544H124.885C124.997 53.712 125.317 52.976 125.845 52.336C126.389 51.696 127.125 51.192 128.053 50.824C128.997 50.456 130.093 50.272 131.341 50.272C132.509 50.272 133.517 50.44 134.365 50.776C135.213 51.096 135.861 51.544 136.309 52.12C136.773 52.68 137.005 53.32 137.005 54.04C137.005 54.664 136.813 55.24 136.429 55.768C136.061 56.28 135.517 56.688 134.797 56.992C134.605 57.072 134.413 57.136 134.221 57.184C134.909 57.312 135.501 57.52 135.997 57.808C136.957 58.384 137.437 59.192 137.437 60.232C137.437 61.032 137.189 61.744 136.693 62.368C136.213 62.976 135.509 63.448 134.581 63.784C133.653 64.12 132.525 64.288 131.197 64.288ZM142.601 64V50.56H151.121C152.433 50.56 153.441 50.864 154.145 51.472C154.849 52.064 155.201 52.904 155.201 53.992C155.201 54.984 154.849 55.768 154.145 56.344C153.761 56.664 153.297 56.904 152.753 57.064C153.633 57.208 154.345 57.472 154.889 57.856C155.673 58.448 156.065 59.296 156.065 60.4C156.065 61.552 155.665 62.44 154.865 63.064C154.065 63.688 152.929 64 151.457 64H142.601ZM143.921 56.608H150.833C151.777 56.608 152.513 56.376 153.041 55.912C153.585 55.432 153.857 54.792 153.857 53.992C153.857 53.256 153.609 52.696 153.113 52.312C152.633 51.928 151.929 51.736 151.001 51.736H143.921V56.608ZM143.921 62.824H151.553C152.593 62.824 153.377 62.616 153.905 62.2C154.449 61.784 154.721 61.184 154.721 60.4C154.721 59.536 154.377 58.88 153.689 58.432C153.001 57.984 151.993 57.76 150.665 57.76H143.921V62.824ZM168.349 64.288C166.813 64.288 165.461 63.992 164.293 63.4C163.125 62.808 162.213 61.984 161.557 60.928C160.901 59.872 160.573 58.656 160.573 57.28C160.573 55.888 160.901 54.672 161.557 53.632C162.213 52.576 163.125 51.752 164.293 51.16C165.461 50.568 166.813 50.272 168.349 50.272C169.885 50.272 171.237 50.568 172.405 51.16C173.573 51.752 174.485 52.576 175.141 53.632C175.797 54.672 176.125 55.888 176.125 57.28C176.125 58.656 175.797 59.872 175.141 60.928C174.485 61.984 173.573 62.808 172.405 63.4C171.237 63.992 169.885 64.288 168.349 64.288ZM168.349 63.064C169.661 63.064 170.797 62.824 171.757 62.344C172.717 61.864 173.461 61.192 173.989 60.328C174.517 59.464 174.781 58.448 174.781 57.28C174.781 56.112 174.517 55.096 173.989 54.232C173.461 53.368 172.717 52.696 171.757 52.216C170.797 51.736 169.661 51.496 168.349 51.496C167.053 51.496 165.917 51.736 164.941 52.216C163.981 52.696 163.237 53.368 162.709 54.232C162.181 55.096 161.917 56.112 161.917 57.28C161.917 58.448 162.181 59.464 162.709 60.328C163.237 61.192 163.981 61.864 164.941 62.344C165.917 62.824 167.053 63.064 168.349 63.064ZM196.691 62.824V67.576H195.491V64H180.275V67.576H179.075V62.824H180.827C181.963 61.624 182.531 59.16 182.531 55.432C182.531 54.664 182.507 53.856 182.459 53.008C182.427 52.16 182.371 51.344 182.291 50.56H194.147V62.824H196.691ZM192.851 62.824V51.736H183.611C183.659 52.344 183.699 52.952 183.731 53.56C183.763 54.312 183.779 55.016 183.779 55.672C183.779 58.136 183.531 60.08 183.035 61.504C182.843 62.048 182.635 62.488 182.411 62.824H192.851ZM214.793 59.08C214.601 60.104 214.169 61.008 213.497 61.792C212.825 62.576 211.977 63.192 210.953 63.64C209.945 64.072 208.825 64.288 207.593 64.288C206.153 64.288 204.881 63.992 203.777 63.4C202.673 62.808 201.809 61.984 201.185 60.928C200.561 59.872 200.249 58.656 200.249 57.28C200.249 55.888 200.561 54.672 201.185 53.632C201.809 52.576 202.673 51.752 203.777 51.16C204.881 50.568 206.153 50.272 207.593 50.272C208.825 50.272 209.945 50.496 210.953 50.944C211.977 51.376 212.825 51.984 213.497 52.768C214.169 53.536 214.601 54.44 214.793 55.48H213.401C213.129 54.264 212.465 53.296 211.409 52.576C210.353 51.856 209.081 51.496 207.593 51.496C206.377 51.496 205.321 51.736 204.425 52.216C203.529 52.696 202.833 53.368 202.337 54.232C201.841 55.096 201.593 56.112 201.593 57.28C201.593 58.448 201.841 59.464 202.337 60.328C202.833 61.192 203.529 61.864 204.425 62.344C205.321 62.824 206.377 63.064 207.593 63.064C209.097 63.064 210.377 62.704 211.433 61.984C212.489 61.264 213.145 60.296 213.401 59.08H214.793ZM217.677 50.56H231.117V51.736H225.045V64H223.749V51.736H217.677V50.56ZM235.461 64V50.56H243.981C245.293 50.56 246.301 50.864 247.005 51.472C247.709 52.064 248.061 52.904 248.061 53.992C248.061 54.984 247.709 55.768 247.005 56.344C246.621 56.664 246.157 56.904 245.613 57.064C246.493 57.208 247.205 57.472 247.749 57.856C248.533 58.448 248.925 59.296 248.925 60.4C248.925 61.552 248.525 62.44 247.725 63.064C246.925 63.688 245.789 64 244.317 64H235.461ZM236.781 56.608H243.693C244.637 56.608 245.373 56.376 245.901 55.912C246.445 55.432 246.717 54.792 246.717 53.992C246.717 53.256 246.469 52.696 245.973 52.312C245.493 51.928 244.789 51.736 243.861 51.736H236.781V56.608ZM236.781 62.824H244.413C245.453 62.824 246.237 62.616 246.765 62.2C247.309 61.784 247.581 61.184 247.581 60.4C247.581 59.536 247.237 58.88 246.549 58.432C245.861 57.984 244.853 57.76 243.525 57.76H236.781V62.824ZM261.209 64.288C259.673 64.288 258.321 63.992 257.153 63.4C255.985 62.808 255.073 61.984 254.417 60.928C253.761 59.872 253.433 58.656 253.433 57.28C253.433 55.888 253.761 54.672 254.417 53.632C255.073 52.576 255.985 51.752 257.153 51.16C258.321 50.568 259.673 50.272 261.209 50.272C262.745 50.272 264.097 50.568 265.265 51.16C266.433 51.752 267.345 52.576 268.001 53.632C268.657 54.672 268.985 55.888 268.985 57.28C268.985 58.656 268.657 59.872 268.001 60.928C267.345 61.984 266.433 62.808 265.265 63.4C264.097 63.992 262.745 64.288 261.209 64.288ZM261.209 63.064C262.521 63.064 263.657 62.824 264.617 62.344C265.577 61.864 266.321 61.192 266.849 60.328C267.377 59.464 267.641 58.448 267.641 57.28C267.641 56.112 267.377 55.096 266.849 54.232C266.321 53.368 265.577 52.696 264.617 52.216C263.657 51.736 262.521 51.496 261.209 51.496C259.913 51.496 258.777 51.736 257.801 52.216C256.841 52.696 256.097 53.368 255.569 54.232C255.041 55.096 254.777 56.112 254.777 57.28C254.777 58.448 255.041 59.464 255.569 60.328C256.097 61.192 256.841 61.864 257.801 62.344C258.777 62.824 259.913 63.064 261.209 63.064ZM283.636 50.56H284.932V55.072C285.188 54.56 285.476 54.072 285.796 53.608C286.548 52.568 287.444 51.752 288.484 51.16C289.524 50.568 290.66 50.272 291.892 50.272C293.204 50.272 294.372 50.568 295.396 51.16C296.42 51.752 297.228 52.576 297.82 53.632C298.412 54.672 298.708 55.888 298.708 57.28C298.708 58.656 298.412 59.872 297.82 60.928C297.228 61.984 296.42 62.808 295.396 63.4C294.372 63.992 293.204 64.288 291.892 64.288C290.66 64.288 289.524 64 288.484 63.424C287.444 62.832 286.548 62.008 285.796 60.952C285.476 60.504 285.188 60.024 284.932 59.512V67.96H283.636V50.56ZM297.364 57.28C297.364 56.128 297.124 55.12 296.644 54.256C296.18 53.392 295.532 52.72 294.7 52.24C293.884 51.744 292.948 51.496 291.892 51.496C290.836 51.496 289.868 51.744 288.988 52.24C288.108 52.72 287.324 53.392 286.636 54.256C285.948 55.12 285.372 56.128 284.908 57.28C285.372 58.416 285.948 59.424 286.636 60.304C287.324 61.168 288.108 61.848 288.988 62.344C289.868 62.824 290.836 63.064 291.892 63.064C292.948 63.064 293.884 62.824 294.7 62.344C295.532 61.848 296.18 61.168 296.644 60.304C297.124 59.424 297.364 58.416 297.364 57.28ZM308.561 55.36C308.865 55.36 309.153 55.36 309.425 55.36C311.025 55.36 312.313 55.472 313.289 55.696C313.945 55.856 314.433 56 314.753 56.128C314.753 54.704 314.273 53.568 313.313 52.72C312.337 51.872 310.945 51.448 309.137 51.448C308.289 51.448 307.425 51.568 306.545 51.808C305.665 52.032 304.801 52.448 303.953 53.056V51.856C304.721 51.296 305.537 50.896 306.401 50.656C307.281 50.4 308.225 50.272 309.233 50.272C310.497 50.272 311.641 50.496 312.665 50.944C313.705 51.376 314.529 52.04 315.137 52.936C315.745 53.832 316.049 54.984 316.049 56.392V64H314.753V61.336C314.433 61.8 314.009 62.24 313.481 62.656C312.889 63.12 312.177 63.512 311.345 63.832C310.513 64.136 309.585 64.288 308.561 64.288C307.441 64.288 306.433 64.112 305.537 63.76C304.657 63.408 303.961 62.904 303.449 62.248C302.937 61.576 302.681 60.776 302.681 59.848C302.681 58.936 302.937 58.16 303.449 57.52C303.977 56.864 304.681 56.352 305.561 55.984C306.457 55.6 307.457 55.392 308.561 55.36ZM314.753 57.352C313.857 56.824 312.825 56.552 311.657 56.536C310.505 56.52 309.889 56.512 309.809 56.512C307.697 56.512 306.233 56.824 305.417 57.448C304.601 58.056 304.193 58.84 304.193 59.8C304.193 60.824 304.585 61.64 305.369 62.248C306.169 62.84 307.233 63.136 308.561 63.136C308.657 63.136 308.761 63.136 308.873 63.136C310.569 63.072 311.969 62.552 313.073 61.576C314.193 60.584 314.753 59.176 314.753 57.352ZM329.533 64.288C327.853 64.288 326.413 63.936 325.213 63.232C324.013 62.512 323.085 61.488 322.429 60.16C321.789 58.816 321.469 57.208 321.469 55.336C321.469 52.536 322.157 50.328 323.533 48.712C324.925 47.096 326.901 46.184 329.461 45.976C330.469 45.896 331.301 45.824 331.957 45.76C332.629 45.68 333.181 45.608 333.613 45.544C334.045 45.48 334.405 45.408 334.693 45.328C334.997 45.248 335.293 45.152 335.581 45.04V46.384C335.325 46.512 334.949 46.624 334.453 46.72C333.973 46.816 333.349 46.904 332.581 46.984C331.813 47.064 330.877 47.136 329.773 47.2C327.501 47.328 325.757 48.088 324.541 49.48C323.325 50.872 322.717 52.824 322.717 55.336V55.84C323.101 54.976 323.589 54.232 324.181 53.608C324.885 52.872 325.709 52.312 326.653 51.928C327.597 51.528 328.637 51.328 329.773 51.328C331.165 51.328 332.381 51.6 333.421 52.144C334.461 52.688 335.269 53.448 335.845 54.424C336.437 55.384 336.733 56.504 336.733 57.784C336.733 59.096 336.429 60.24 335.821 61.216C335.229 62.192 334.397 62.952 333.325 63.496C332.253 64.024 330.989 64.288 329.533 64.288ZM329.581 63.064C330.749 63.064 331.765 62.848 332.629 62.416C333.509 61.968 334.189 61.352 334.669 60.568C335.149 59.784 335.389 58.864 335.389 57.808C335.389 56.752 335.149 55.832 334.669 55.048C334.189 54.248 333.509 53.632 332.629 53.2C331.765 52.768 330.749 52.552 329.581 52.552C328.013 52.552 326.653 52.984 325.501 53.848C324.365 54.712 323.517 55.952 322.957 57.568C323.277 59.312 324.021 60.664 325.189 61.624C326.357 62.584 327.821 63.064 329.581 63.064ZM349.076 64.288C347.54 64.288 346.188 63.992 345.02 63.4C343.852 62.808 342.94 61.984 342.284 60.928C341.628 59.872 341.3 58.656 341.3 57.28C341.3 55.888 341.628 54.672 342.284 53.632C342.94 52.576 343.852 51.752 345.02 51.16C346.188 50.568 347.54 50.272 349.076 50.272C350.612 50.272 351.964 50.568 353.132 51.16C354.3 51.752 355.212 52.576 355.868 53.632C356.524 54.672 356.852 55.888 356.852 57.28C356.852 58.656 356.524 59.872 355.868 60.928C355.212 61.984 354.3 62.808 353.132 63.4C351.964 63.992 350.612 64.288 349.076 64.288ZM349.076 63.064C350.388 63.064 351.524 62.824 352.484 62.344C353.444 61.864 354.188 61.192 354.716 60.328C355.244 59.464 355.508 58.448 355.508 57.28C355.508 56.112 355.244 55.096 354.716 54.232C354.188 53.368 353.444 52.696 352.484 52.216C351.524 51.736 350.388 51.496 349.076 51.496C347.78 51.496 346.644 51.736 345.668 52.216C344.708 52.696 343.964 53.368 343.436 54.232C342.908 55.096 342.644 56.112 342.644 57.28C342.644 58.448 342.908 59.464 343.436 60.328C343.964 61.192 344.708 61.864 345.668 62.344C346.644 62.824 347.78 63.064 349.076 63.064ZM359.69 50.56H373.13V51.736H367.058V64H365.762V51.736H359.69V50.56ZM399.166 50.56V64H397.87V51.736H387.55V64H386.254V50.56H399.166ZM412.324 64.288C410.788 64.288 409.436 63.992 408.268 63.4C407.1 62.808 406.188 61.984 405.532 60.928C404.876 59.872 404.548 58.656 404.548 57.28C404.548 55.888 404.876 54.672 405.532 53.632C406.188 52.576 407.1 51.752 408.268 51.16C409.436 50.568 410.788 50.272 412.324 50.272C413.86 50.272 415.212 50.568 416.38 51.16C417.548 51.752 418.46 52.576 419.116 53.632C419.772 54.672 420.1 55.888 420.1 57.28C420.1 58.656 419.772 59.872 419.116 60.928C418.46 61.984 417.548 62.808 416.38 63.4C415.212 63.992 413.86 64.288 412.324 64.288ZM412.324 63.064C413.636 63.064 414.772 62.824 415.732 62.344C416.692 61.864 417.436 61.192 417.964 60.328C418.492 59.464 418.756 58.448 418.756 57.28C418.756 56.112 418.492 55.096 417.964 54.232C417.436 53.368 416.692 52.696 415.732 52.216C414.772 51.736 413.636 51.496 412.324 51.496C411.028 51.496 409.892 51.736 408.916 52.216C407.956 52.696 407.212 53.368 406.684 54.232C406.156 55.096 405.892 56.112 405.892 57.28C405.892 58.448 406.156 59.464 406.684 60.328C407.212 61.192 407.956 61.864 408.916 62.344C409.892 62.824 411.028 63.064 412.324 63.064ZM41.656 94V80.56H50.176C51.488 80.56 52.496 80.864 53.2 81.472C53.904 82.064 54.256 82.904 54.256 83.992C54.256 84.984 53.904 85.768 53.2 86.344C52.816 86.664 52.352 86.904 51.808 87.064C52.688 87.208 53.4 87.472 53.944 87.856C54.728 88.448 55.12 89.296 55.12 90.4C55.12 91.552 54.72 92.44 53.92 93.064C53.12 93.688 51.984 94 50.512 94H41.656ZM42.976 86.608H49.888C50.832 86.608 51.568 86.376 52.096 85.912C52.64 85.432 52.912 84.792 52.912 83.992C52.912 83.256 52.664 82.696 52.168 82.312C51.688 81.928 50.984 81.736 50.056 81.736H42.976V86.608ZM42.976 92.824H50.608C51.648 92.824 52.432 92.616 52.96 92.2C53.504 91.784 53.776 91.184 53.776 90.4C53.776 89.536 53.432 88.88 52.744 88.432C52.056 87.984 51.048 87.76 49.72 87.76H42.976V92.824ZM67.4039 94.288C65.8679 94.288 64.5159 93.992 63.3479 93.4C62.1799 92.808 61.2679 91.984 60.6119 90.928C59.9559 89.872 59.6279 88.656 59.6279 87.28C59.6279 85.888 59.9559 84.672 60.6119 83.632C61.2679 82.576 62.1799 81.752 63.3479 81.16C64.5159 80.568 65.8679 80.272 67.4039 80.272C68.9399 80.272 70.2919 80.568 71.4599 81.16C72.6279 81.752 73.5399 82.576 74.1959 83.632C74.8519 84.672 75.1799 85.888 75.1799 87.28C75.1799 88.656 74.8519 89.872 74.1959 90.928C73.5399 91.984 72.6279 92.808 71.4599 93.4C70.2919 93.992 68.9399 94.288 67.4039 94.288ZM67.4039 93.064C68.7159 93.064 69.8519 92.824 70.8119 92.344C71.7719 91.864 72.5159 91.192 73.0439 90.328C73.5719 89.464 73.8359 88.448 73.8359 87.28C73.8359 86.112 73.5719 85.096 73.0439 84.232C72.5159 83.368 71.7719 82.696 70.8119 82.216C69.8519 81.736 68.7159 81.496 67.4039 81.496C66.1079 81.496 64.9719 81.736 63.9959 82.216C63.0359 82.696 62.2919 83.368 61.7639 84.232C61.2359 85.096 60.9719 86.112 60.9719 87.28C60.9719 88.448 61.2359 89.464 61.7639 90.328C62.2919 91.192 63.0359 91.864 63.9959 92.344C64.9719 92.824 66.1079 93.064 67.4039 93.064ZM86.1077 94.288C84.8437 94.288 83.7237 94.104 82.7477 93.736C81.7717 93.368 80.9957 92.848 80.4197 92.176C79.8597 91.488 79.5397 90.68 79.4597 89.752H80.7557C80.8997 90.824 81.4357 91.648 82.3637 92.224C83.2917 92.784 84.5397 93.064 86.1077 93.064C87.6277 93.064 88.8197 92.832 89.6837 92.368C90.5638 91.904 91.0038 91.184 91.0038 90.208C91.0038 89.408 90.6518 88.816 89.9477 88.432C89.2597 88.032 88.1557 87.832 86.6357 87.832H83.6837V86.68H86.5637C87.9237 86.68 88.9317 86.432 89.5877 85.936C90.2437 85.44 90.5717 84.848 90.5717 84.16C90.5717 83.296 90.1637 82.64 89.3477 82.192C88.5477 81.728 87.4997 81.496 86.2037 81.496C84.7957 81.496 83.6357 81.752 82.7237 82.264C81.8117 82.776 81.2677 83.536 81.0917 84.544H79.7957C79.9077 83.712 80.2277 82.976 80.7557 82.336C81.2997 81.696 82.0357 81.192 82.9637 80.824C83.9077 80.456 85.0037 80.272 86.2517 80.272C87.4197 80.272 88.4277 80.44 89.2757 80.776C90.1237 81.096 90.7717 81.544 91.2198 82.12C91.6838 82.68 91.9158 83.32 91.9158 84.04C91.9158 84.664 91.7238 85.24 91.3398 85.768C90.9718 86.28 90.4278 86.688 89.7077 86.992C89.5157 87.072 89.3237 87.136 89.1317 87.184C89.8197 87.312 90.4117 87.52 90.9078 87.808C91.8678 88.384 92.3478 89.192 92.3478 90.232C92.3478 91.032 92.0998 91.744 91.6037 92.368C91.1238 92.976 90.4198 93.448 89.4917 93.784C88.5637 94.12 87.4357 94.288 86.1077 94.288ZM97.5123 94V80.56H106.032C107.344 80.56 108.352 80.864 109.056 81.472C109.76 82.064 110.112 82.904 110.112 83.992C110.112 84.984 109.76 85.768 109.056 86.344C108.672 86.664 108.208 86.904 107.664 87.064C108.544 87.208 109.256 87.472 109.8 87.856C110.584 88.448 110.976 89.296 110.976 90.4C110.976 91.552 110.576 92.44 109.776 93.064C108.976 93.688 107.84 94 106.368 94H97.5123ZM98.8323 86.608H105.744C106.688 86.608 107.424 86.376 107.952 85.912C108.496 85.432 108.768 84.792 108.768 83.992C108.768 83.256 108.52 82.696 108.024 82.312C107.544 81.928 106.84 81.736 105.912 81.736H98.8323V86.608ZM98.8323 92.824H106.464C107.504 92.824 108.288 92.616 108.816 92.2C109.36 91.784 109.632 91.184 109.632 90.4C109.632 89.536 109.288 88.88 108.6 88.432C107.912 87.984 106.904 87.76 105.576 87.76H98.8323V92.824ZM123.212 94.288C121.692 94.288 120.348 93.992 119.18 93.4C118.028 92.808 117.124 91.984 116.468 90.928C115.828 89.872 115.508 88.656 115.508 87.28C115.508 85.888 115.812 84.672 116.42 83.632C117.044 82.576 117.9 81.752 118.988 81.16C120.076 80.568 121.34 80.272 122.78 80.272C124.172 80.272 125.396 80.576 126.452 81.184C127.508 81.792 128.332 82.64 128.924 83.728C129.516 84.8 129.812 86.048 129.812 87.472H116.852C116.884 88.56 117.148 89.512 117.644 90.328C118.172 91.192 118.908 91.864 119.852 92.344C120.812 92.824 121.932 93.064 123.212 93.064C124.396 93.064 125.508 92.856 126.548 92.44C127.588 92.024 128.54 91.472 129.404 90.784V92.008C128.572 92.712 127.596 93.272 126.476 93.688C125.356 94.088 124.268 94.288 123.212 94.288ZM128.396 86.32C128.284 85.504 128.044 84.768 127.676 84.112C127.196 83.28 126.532 82.64 125.684 82.192C124.852 81.728 123.884 81.496 122.78 81.496C121.58 81.496 120.532 81.736 119.636 82.216C118.756 82.696 118.076 83.368 117.596 84.232C117.244 84.856 117.02 85.552 116.924 86.32H128.396ZM150.665 92.824V97.576H149.465V94H134.249V97.576H133.049V92.824H134.801C135.937 91.624 136.505 89.16 136.505 85.432C136.505 84.664 136.481 83.856 136.433 83.008C136.401 82.16 136.345 81.344 136.265 80.56H148.121V92.824H150.665ZM146.825 92.824V81.736H137.585C137.633 82.344 137.673 82.952 137.705 83.56C137.737 84.312 137.753 85.016 137.753 85.672C137.753 88.136 137.505 90.08 137.009 91.504C136.817 92.048 136.609 92.488 136.385 92.824H146.825ZM161.926 94.288C160.406 94.288 159.062 93.992 157.894 93.4C156.742 92.808 155.838 91.984 155.182 90.928C154.542 89.872 154.222 88.656 154.222 87.28C154.222 85.888 154.526 84.672 155.134 83.632C155.758 82.576 156.614 81.752 157.702 81.16C158.79 80.568 160.054 80.272 161.494 80.272C162.886 80.272 164.11 80.576 165.166 81.184C166.222 81.792 167.046 82.64 167.638 83.728C168.23 84.8 168.526 86.048 168.526 87.472H155.566C155.598 88.56 155.862 89.512 156.358 90.328C156.886 91.192 157.622 91.864 158.566 92.344C159.526 92.824 160.646 93.064 161.926 93.064C163.11 93.064 164.222 92.856 165.262 92.44C166.302 92.024 167.254 91.472 168.118 90.784V92.008C167.286 92.712 166.31 93.272 165.19 93.688C164.07 94.088 162.982 94.288 161.926 94.288ZM167.11 86.32C166.998 85.504 166.758 84.768 166.39 84.112C165.91 83.28 165.246 82.64 164.398 82.192C163.566 81.728 162.598 81.496 161.494 81.496C160.294 81.496 159.246 81.736 158.35 82.216C157.47 82.696 156.79 83.368 156.31 84.232C155.958 84.856 155.734 85.552 155.638 86.32H167.11ZM173.822 80.56H175.118V86.656H185.534V80.56H186.83V94H185.534V87.832H175.118V94H173.822V80.56ZM193.073 94V80.56H194.369V92.68L205.049 80.56H206.729V94H205.433V81.88L194.753 94H193.073ZM225.39 94.288C223.87 94.288 222.534 93.992 221.382 93.4C220.23 92.808 219.334 91.984 218.694 90.928C218.134 90.016 217.814 88.984 217.734 87.832H214.254V94H212.958V80.56H214.254V86.656H217.734C217.814 85.52 218.134 84.504 218.694 83.608C219.334 82.568 220.23 81.752 221.382 81.16C222.534 80.568 223.87 80.272 225.39 80.272C226.91 80.272 228.246 80.568 229.398 81.16C230.55 81.752 231.446 82.576 232.086 83.632C232.742 84.672 233.07 85.888 233.07 87.28C233.07 88.656 232.742 89.872 232.086 90.928C231.446 91.984 230.55 92.808 229.398 93.4C228.246 93.992 226.91 94.288 225.39 94.288ZM225.39 93.064C226.686 93.064 227.806 92.824 228.75 92.344C229.694 91.864 230.422 91.192 230.934 90.328C231.462 89.464 231.726 88.448 231.726 87.28C231.726 86.112 231.462 85.096 230.934 84.232C230.422 83.368 229.694 82.696 228.75 82.216C227.806 81.736 226.686 81.496 225.39 81.496C224.11 81.496 222.99 81.736 222.03 82.216C221.086 82.696 220.35 83.368 219.822 84.232C219.31 85.096 219.054 86.112 219.054 87.28C219.054 88.448 219.31 89.464 219.822 90.328C220.35 91.192 221.086 91.864 222.03 92.344C222.99 92.824 224.11 93.064 225.39 93.064ZM261.415 89.08C261.223 90.104 260.791 91.008 260.119 91.792C259.447 92.576 258.599 93.192 257.575 93.64C256.567 94.072 255.447 94.288 254.215 94.288C252.775 94.288 251.503 93.992 250.399 93.4C249.295 92.808 248.431 91.984 247.807 90.928C247.183 89.872 246.871 88.656 246.871 87.28C246.871 85.888 247.183 84.672 247.807 83.632C248.431 82.576 249.295 81.752 250.399 81.16C251.503 80.568 252.775 80.272 254.215 80.272C255.447 80.272 256.567 80.496 257.575 80.944C258.599 81.376 259.447 81.984 260.119 82.768C260.791 83.536 261.223 84.44 261.415 85.48H260.023C259.751 84.264 259.087 83.296 258.031 82.576C256.975 81.856 255.703 81.496 254.215 81.496C252.999 81.496 251.943 81.736 251.047 82.216C250.151 82.696 249.455 83.368 248.959 84.232C248.463 85.096 248.215 86.112 248.215 87.28C248.215 88.448 248.463 89.464 248.959 90.328C249.455 91.192 250.151 91.864 251.047 92.344C251.943 92.824 252.999 93.064 254.215 93.064C255.719 93.064 256.999 92.704 258.055 91.984C259.111 91.264 259.767 90.296 260.023 89.08H261.415ZM264.299 80.56H277.739V81.736H271.667V94H270.371V81.736H264.299V80.56ZM288.296 94.288C286.776 94.288 285.432 93.992 284.264 93.4C283.112 92.808 282.208 91.984 281.552 90.928C280.912 89.872 280.592 88.656 280.592 87.28C280.592 85.888 280.896 84.672 281.504 83.632C282.128 82.576 282.984 81.752 284.072 81.16C285.16 80.568 286.424 80.272 287.864 80.272C289.256 80.272 290.48 80.576 291.536 81.184C292.592 81.792 293.416 82.64 294.008 83.728C294.6 84.8 294.896 86.048 294.896 87.472H281.936C281.968 88.56 282.232 89.512 282.728 90.328C283.256 91.192 283.992 91.864 284.936 92.344C285.896 92.824 287.016 93.064 288.296 93.064C289.48 93.064 290.592 92.856 291.632 92.44C292.672 92.024 293.624 91.472 294.488 90.784V92.008C293.656 92.712 292.68 93.272 291.56 93.688C290.44 94.088 289.352 94.288 288.296 94.288ZM293.48 86.32C293.368 85.504 293.128 84.768 292.76 84.112C292.28 83.28 291.616 82.64 290.768 82.192C289.936 81.728 288.968 81.496 287.864 81.496C286.664 81.496 285.616 81.736 284.72 82.216C283.84 82.696 283.16 83.368 282.68 84.232C282.328 84.856 282.104 85.552 282.008 86.32H293.48ZM300.192 80.56H301.488V86.656H311.904V80.56H313.2V94H311.904V87.832H301.488V94H300.192V80.56ZM328.711 94V80.56H330.007V92.68L340.687 80.56H342.367V94H341.071V81.88L330.391 94H328.711ZM54.832 110.56V124H53.536V111.736H43.216V124H41.92V110.56H54.832ZM67.9418 124.288C66.4218 124.288 65.0778 123.992 63.9098 123.4C62.7578 122.808 61.8538 121.984 61.1978 120.928C60.5578 119.872 60.2378 118.656 60.2378 117.28C60.2378 115.888 60.5418 114.672 61.1498 113.632C61.7738 112.576 62.6298 111.752 63.7178 111.16C64.8058 110.568 66.0698 110.272 67.5098 110.272C68.9018 110.272 70.1258 110.576 71.1818 111.184C72.2378 111.792 73.0618 112.64 73.6538 113.728C74.2458 114.8 74.5418 116.048 74.5418 117.472H61.5818C61.6138 118.56 61.8778 119.512 62.3738 120.328C62.9018 121.192 63.6378 121.864 64.5818 122.344C65.5418 122.824 66.6618 123.064 67.9418 123.064C69.1258 123.064 70.2378 122.856 71.2778 122.44C72.3178 122.024 73.2698 121.472 74.1338 120.784V122.008C73.3018 122.712 72.3258 123.272 71.2058 123.688C70.0858 124.088 68.9978 124.288 67.9418 124.288ZM73.1258 116.32C73.0138 115.504 72.7738 114.768 72.4058 114.112C71.9258 113.28 71.2618 112.64 70.4138 112.192C69.5818 111.728 68.6138 111.496 67.5098 111.496C66.3098 111.496 65.2618 111.736 64.3658 112.216C63.4858 112.696 62.8058 113.368 62.3258 114.232C61.9738 114.856 61.7498 115.552 61.6538 116.32H73.1258ZM79.8372 110.56H81.1332V115.072C81.3892 114.56 81.6772 114.072 81.9972 113.608C82.7492 112.568 83.6452 111.752 84.6852 111.16C85.7252 110.568 86.8612 110.272 88.0932 110.272C89.4052 110.272 90.5732 110.568 91.5972 111.16C92.6212 111.752 93.4292 112.576 94.0212 113.632C94.6132 114.672 94.9092 115.888 94.9092 117.28C94.9092 118.656 94.6132 119.872 94.0212 120.928C93.4292 121.984 92.6212 122.808 91.5972 123.4C90.5732 123.992 89.4052 124.288 88.0932 124.288C86.8612 124.288 85.7252 124 84.6852 123.424C83.6452 122.832 82.7492 122.008 81.9972 120.952C81.6772 120.504 81.3892 120.024 81.1332 119.512V127.96H79.8372V110.56ZM93.5652 117.28C93.5652 116.128 93.3252 115.12 92.8452 114.256C92.3812 113.392 91.7332 112.72 90.9012 112.24C90.0852 111.744 89.1492 111.496 88.0932 111.496C87.0372 111.496 86.0692 111.744 85.1892 112.24C84.3092 112.72 83.5252 113.392 82.8372 114.256C82.1492 115.12 81.5732 116.128 81.1092 117.28C81.5732 118.416 82.1492 119.424 82.8372 120.304C83.5252 121.168 84.3092 121.848 85.1892 122.344C86.0692 122.824 87.0372 123.064 88.0932 123.064C89.1492 123.064 90.0852 122.824 90.9012 122.344C91.7332 121.848 92.3812 121.168 92.8452 120.304C93.3252 119.424 93.5652 118.416 93.5652 117.28ZM107.172 124.288C105.652 124.288 104.308 123.992 103.14 123.4C101.988 122.808 101.084 121.984 100.428 120.928C99.7875 119.872 99.4675 118.656 99.4675 117.28C99.4675 115.888 99.7715 114.672 100.38 113.632C101.004 112.576 101.86 111.752 102.948 111.16C104.036 110.568 105.3 110.272 106.74 110.272C108.132 110.272 109.356 110.576 110.412 111.184C111.468 111.792 112.292 112.64 112.884 113.728C113.476 114.8 113.772 116.048 113.772 117.472H100.812C100.844 118.56 101.108 119.512 101.604 120.328C102.132 121.192 102.868 121.864 103.812 122.344C104.772 122.824 105.892 123.064 107.172 123.064C108.356 123.064 109.468 122.856 110.508 122.44C111.548 122.024 112.5 121.472 113.364 120.784V122.008C112.532 122.712 111.556 123.272 110.436 123.688C109.316 124.088 108.228 124.288 107.172 124.288ZM112.356 116.32C112.244 115.504 112.004 114.768 111.636 114.112C111.156 113.28 110.492 112.64 109.644 112.192C108.812 111.728 107.844 111.496 106.74 111.496C105.54 111.496 104.492 111.736 103.596 112.216C102.716 112.696 102.036 113.368 101.556 114.232C101.204 114.856 100.98 115.552 100.884 116.32H112.356ZM128.595 110.56V111.736H120.363V124H119.067V110.56H128.595ZM139.113 124.288C137.577 124.288 136.225 123.992 135.057 123.4C133.889 122.808 132.977 121.984 132.321 120.928C131.665 119.872 131.337 118.656 131.337 117.28C131.337 115.888 131.665 114.672 132.321 113.632C132.977 112.576 133.889 111.752 135.057 111.16C136.225 110.568 137.577 110.272 139.113 110.272C140.649 110.272 142.001 110.568 143.169 111.16C144.337 111.752 145.249 112.576 145.905 113.632C146.561 114.672 146.889 115.888 146.889 117.28C146.889 118.656 146.561 119.872 145.905 120.928C145.249 121.984 144.337 122.808 143.169 123.4C142.001 123.992 140.649 124.288 139.113 124.288ZM139.113 123.064C140.425 123.064 141.561 122.824 142.521 122.344C143.481 121.864 144.225 121.192 144.753 120.328C145.281 119.464 145.545 118.448 145.545 117.28C145.545 116.112 145.281 115.096 144.753 114.232C144.225 113.368 143.481 112.696 142.521 112.216C141.561 111.736 140.425 111.496 139.113 111.496C137.817 111.496 136.681 111.736 135.705 112.216C134.745 112.696 134.001 113.368 133.473 114.232C132.945 115.096 132.681 116.112 132.681 117.28C132.681 118.448 132.945 119.464 133.473 120.328C134.001 121.192 134.745 121.864 135.705 122.344C136.681 122.824 137.817 123.064 139.113 123.064ZM152.273 110.56H153.569V115.072C153.825 114.56 154.113 114.072 154.433 113.608C155.185 112.568 156.081 111.752 157.121 111.16C158.161 110.568 159.297 110.272 160.529 110.272C161.841 110.272 163.009 110.568 164.033 111.16C165.057 111.752 165.865 112.576 166.457 113.632C167.049 114.672 167.345 115.888 167.345 117.28C167.345 118.656 167.049 119.872 166.457 120.928C165.865 121.984 165.057 122.808 164.033 123.4C163.009 123.992 161.841 124.288 160.529 124.288C159.297 124.288 158.161 124 157.121 123.424C156.081 122.832 155.185 122.008 154.433 120.952C154.113 120.504 153.825 120.024 153.569 119.512V127.96H152.273V110.56ZM166.001 117.28C166.001 116.128 165.761 115.12 165.281 114.256C164.817 113.392 164.169 112.72 163.337 112.24C162.521 111.744 161.585 111.496 160.529 111.496C159.473 111.496 158.505 111.744 157.625 112.24C156.745 112.72 155.961 113.392 155.273 114.256C154.585 115.12 154.009 116.128 153.545 117.28C154.009 118.416 154.585 119.424 155.273 120.304C155.961 121.168 156.745 121.848 157.625 122.344C158.505 122.824 159.473 123.064 160.529 123.064C161.585 123.064 162.521 122.824 163.337 122.344C164.169 121.848 164.817 121.168 165.281 120.304C165.761 119.424 166.001 118.416 166.001 117.28ZM179.655 124.288C178.119 124.288 176.767 123.992 175.599 123.4C174.431 122.808 173.519 121.984 172.863 120.928C172.207 119.872 171.879 118.656 171.879 117.28C171.879 115.888 172.207 114.672 172.863 113.632C173.519 112.576 174.431 111.752 175.599 111.16C176.767 110.568 178.119 110.272 179.655 110.272C181.191 110.272 182.543 110.568 183.711 111.16C184.879 111.752 185.791 112.576 186.447 113.632C187.103 114.672 187.431 115.888 187.431 117.28C187.431 118.656 187.103 119.872 186.447 120.928C185.791 121.984 184.879 122.808 183.711 123.4C182.543 123.992 181.191 124.288 179.655 124.288ZM179.655 123.064C180.967 123.064 182.103 122.824 183.063 122.344C184.023 121.864 184.767 121.192 185.295 120.328C185.823 119.464 186.087 118.448 186.087 117.28C186.087 116.112 185.823 115.096 185.295 114.232C184.767 113.368 184.023 112.696 183.063 112.216C182.103 111.736 180.967 111.496 179.655 111.496C178.359 111.496 177.223 111.736 176.247 112.216C175.287 112.696 174.543 113.368 174.015 114.232C173.487 115.096 173.223 116.112 173.223 117.28C173.223 118.448 173.487 119.464 174.015 120.328C174.543 121.192 175.287 121.864 176.247 122.344C177.223 122.824 178.359 123.064 179.655 123.064ZM207.997 122.824V127.576H206.797V124H191.581V127.576H190.381V122.824H192.133C193.269 121.624 193.837 119.16 193.837 115.432C193.837 114.664 193.813 113.856 193.765 113.008C193.733 112.16 193.677 111.344 193.597 110.56H205.453V122.824H207.997ZM204.157 122.824V111.736H194.917C194.965 112.344 195.005 112.952 195.037 113.56C195.069 114.312 195.085 115.016 195.085 115.672C195.085 118.136 194.837 120.08 194.341 121.504C194.149 122.048 193.941 122.488 193.717 122.824H204.157ZM219.307 124.288C217.771 124.288 216.419 123.992 215.251 123.4C214.083 122.808 213.171 121.984 212.515 120.928C211.859 119.872 211.531 118.656 211.531 117.28C211.531 115.888 211.859 114.672 212.515 113.632C213.171 112.576 214.083 111.752 215.251 111.16C216.419 110.568 217.771 110.272 219.307 110.272C220.843 110.272 222.195 110.568 223.363 111.16C224.531 111.752 225.443 112.576 226.099 113.632C226.755 114.672 227.083 115.888 227.083 117.28C227.083 118.656 226.755 119.872 226.099 120.928C225.443 121.984 224.531 122.808 223.363 123.4C222.195 123.992 220.843 124.288 219.307 124.288ZM219.307 123.064C220.619 123.064 221.755 122.824 222.715 122.344C223.675 121.864 224.419 121.192 224.947 120.328C225.475 119.464 225.739 118.448 225.739 117.28C225.739 116.112 225.475 115.096 224.947 114.232C224.419 113.368 223.675 112.696 222.715 112.216C221.755 111.736 220.619 111.496 219.307 111.496C218.011 111.496 216.875 111.736 215.899 112.216C214.939 112.696 214.195 113.368 213.667 114.232C213.139 115.096 212.875 116.112 212.875 117.28C212.875 118.448 213.139 119.464 213.667 120.328C214.195 121.192 214.939 121.864 215.899 122.344C216.875 122.824 218.011 123.064 219.307 123.064ZM232.467 124V110.56H233.763V116.656H238.059L243.411 110.56H245.067L239.235 117.184L245.547 124H243.843L238.155 117.832H233.763V124H232.467Z" fill="white"/>
<path d="M460 290.031C459.999 289.982 459.978 289.935 459.942 289.901C459.906 289.867 459.858 289.848 459.807 289.848C454.195 289.81 448.014 289.77 441.373 289.732L441.769 255.261V255.255C441.768 255.22 441.761 255.186 441.747 255.154C441.732 255.122 441.712 255.093 441.686 255.069C441.661 255.045 441.63 255.026 441.597 255.013C441.564 255 441.528 254.993 441.492 254.994C427.735 254.876 409.426 254.776 389.472 254.776H388.842C388.772 254.777 388.704 254.793 388.641 254.823C388.578 254.852 388.523 254.895 388.479 254.947C383.728 254.906 378.978 254.872 374.227 254.848C374.256 252.555 374.388 239.964 374.593 220.485C374.593 220.423 374.567 220.362 374.522 220.318C374.476 220.274 374.414 220.249 374.349 220.249C358.245 220.118 336.427 220 312.474 220H311.783C311.658 220.002 311.538 220.05 311.449 220.134L280.977 220H280.501C280.435 220 280.37 220.013 280.309 220.037C280.248 220.062 280.192 220.098 280.146 220.143C280.099 220.189 280.062 220.243 280.037 220.302C280.012 220.361 280 220.424 280 220.488C280 233.384 280.084 245.421 280.19 254.9C280.132 254.943 280.085 254.997 280.052 255.06C280.019 255.122 280.002 255.191 280 255.261L280.084 289.841C280.051 289.904 280 289.96 280 290.034L280.112 324.546C280.058 324.624 280 324.708 280 324.813L280.074 359.586C280.074 359.813 280.267 360.003 280.501 360C304.535 359.913 328.569 359.737 352.601 359.471V359.589C352.601 359.795 352.778 359.963 352.987 359.963C381.038 359.798 401.04 359.508 403.625 359.465V359.592C403.628 359.748 403.76 359.866 403.914 359.866L431.737 359.462V359.583L431.74 359.462C431.772 358.22 432.068 344.678 432.241 324.932C448.4 324.813 458.489 324.704 459.682 324.689L460 290.031ZM281.003 255.747H281.951L347.143 255.591L347.288 289.574C342.418 289.558 337.369 289.549 332.174 289.549H331.618C331.451 289.549 331.329 289.642 331.236 289.76C317.877 289.645 300.276 289.549 281.115 289.549H280.945L281.003 255.747ZM281.003 290.523H281.729L331.123 290.392L331.261 324.459C316.476 324.381 299.434 324.328 281.266 324.328H280.926L281.003 290.523ZM332.03 324.421L332.123 290.523H332.727L373.851 290.408L373.909 324.362C367.139 324.337 360.37 324.325 353.601 324.325H352.99C352.816 324.325 352.688 324.424 352.598 324.552L332.03 324.421ZM388.456 289.558C384.104 289.552 379.691 289.549 375.207 289.549H374.352C374.28 289.551 374.209 289.568 374.144 289.6C374.08 289.632 374.023 289.677 373.979 289.732C366.532 289.664 357.689 289.608 348.053 289.577L348.149 255.75H348.734L388.35 255.638L388.456 289.558ZM390.096 255.75L441.132 255.616L441.367 289.736C426.131 289.652 408.42 289.58 389.276 289.558L389.347 255.747L390.096 255.75ZM313.168 220.974L374.005 220.821L374.22 254.848C366.236 254.801 357.423 254.773 348.185 254.773H347.638C347.465 254.773 347.336 254.876 347.249 255.006L336.931 254.956C329.436 254.91 321.12 254.863 312.22 254.832L312.284 220.974H313.168ZM311.285 220.887L311.371 254.829C301.889 254.798 291.761 254.776 281.228 254.776H280.884L281.003 220.974H281.446L311.285 220.887ZM280.952 359.154L281.003 325.299H282.028L352.485 325.137L352.601 359.462L280.952 359.154ZM353.411 359.179L353.488 325.299H354.208L403.413 325.168C403.416 338.126 403.509 350.163 403.622 359.462L353.411 359.179ZM404.287 359.232L404.415 325.299H404.814L431.448 325.221L431.737 359.462L404.287 359.232ZM432.148 324.586C432.116 324.543 432.073 324.508 432.024 324.484C431.975 324.459 431.921 324.447 431.865 324.446L404.367 324.328H403.917C403.85 324.329 403.784 324.342 403.723 324.369C403.661 324.395 403.606 324.433 403.56 324.48L384.95 324.412C381.681 324.393 378.312 324.381 374.808 324.368C374.821 316.062 374.841 303.648 374.854 290.526H376.062L459.492 290.348L459.685 324.695C458.502 324.686 448.538 324.648 432.148 324.586Z" fill="white"/>
</svg>
