<svg width="19" height="19" viewBox="0 0 19 19" fill="none" xmlns="http://www.w3.org/2000/svg">
<path d="M18.5312 0.500065C18.5312 0.223923 18.3073 6.56918e-05 18.0312 6.4891e-05L13.5312 6.46171e-05C13.255 6.51228e-05 13.0312 0.223922 13.0312 0.500065C13.0312 0.776208 13.255 1.00007 13.5312 1.00007L17.5312 1.00007L17.5312 5.00007C17.5312 5.27621 17.755 5.50007 18.0312 5.50007C18.3073 5.50006 18.5312 5.27621 18.5312 5.00006L18.5312 0.500065ZM0.353516 18.1777L0.707069 18.5313L18.3847 0.853619L18.0312 0.500065L17.6776 0.146512L-3.77595e-05 17.8242L0.353516 18.1777Z" fill="white"/>
</svg>
