<svg width="1440" height="7137" viewBox="0 0 1440 7137" fill="none" xmlns="http://www.w3.org/2000/svg">
<path fill-rule="evenodd" clip-rule="evenodd" d="M693.465 10.2433C683.95 -4.64727 672.423 -3.23485 663.395 14.0413C659.316 21.8667 655.929 32.6897 653.611 45.3164L642.677 105.037C636.878 105.08 631.101 109.933 626.127 119.434C621.565 128.206 617.899 140.426 615.504 154.899L606.444 209.794C600.302 209.491 594.18 214.533 588.853 224.706L588.868 224.674C583.797 234.381 579.832 248.106 577.402 264.407L569.941 314.572C563.5 314.097 557.065 319.281 551.546 329.845L551.535 329.801C545.966 340.486 541.728 355.729 539.285 373.946L533.243 419.061C526.589 418.483 519.984 423.853 514.232 434.863C508.123 446.547 503.623 463.352 501.194 483.498L496.369 523.571C489.537 523.064 482.757 528.587 476.881 539.824C470.35 552.327 465.454 571.179 463.092 593.005L459.318 627.937C452.36 627.582 445.456 633.286 439.524 644.665C432.469 658.134 427.317 678.669 425.005 702.48L422.127 732.263C415.096 732.172 408.122 738.071 402.14 749.492C394.542 764.036 389.149 786.222 386.929 811.999L384.822 836.46C377.749 836.586 370.836 842.639 364.761 854.244L364.776 854.212C356.622 869.786 350.96 893.687 348.842 921.475L347.376 940.652C340.309 941.132 333.417 947.342 327.36 958.907C318.662 975.556 312.77 1001.15 310.755 1030.95L309.821 1044.81C302.791 1045.7 295.948 1052.07 289.947 1063.52C280.828 1080.99 274.518 1109.02 272.668 1140.42L272.163 1148.98C265.204 1150.26 258.438 1156.77 252.524 1168.1C242.834 1186.63 236.302 1216.47 234.596 1249.87L234.426 1253.19C227.558 1254.89 220.895 1261.52 215.075 1272.66L215.085 1272.7C205.026 1291.91 198.32 1322.74 196.599 1357.43C189.868 1359.54 183.35 1366.26 177.64 1377.19C167.531 1396.53 160.752 1427.01 158.789 1461.58C152.186 1463.98 145.874 1470.73 140.184 1481.63C130.01 1501.13 123.15 1531.31 120.949 1565.82C114.481 1568.57 108.307 1575.38 102.729 1586.07L102.733 1585.99C92.4722 1605.64 85.5384 1635.62 83.1158 1670.02C76.7777 1673.05 70.7264 1679.93 65.2504 1690.42L65.2613 1690.47C55.0962 1709.88 47.9803 1740.21 45.3101 1774.31C39.0934 1777.65 33.1596 1784.56 27.7833 1794.82L27.7724 1794.77C17.5598 1814.36 10.3537 1844.51 7.47905 1878.58C1.38458 1882.14 -4.42536 1889.08 -9.69484 1899.17C-19.9993 1918.86 -27.2664 1948.82 -30.3258 1982.83C-36.305 1986.61 -42.0075 1993.56 -47.1837 2003.47L-47.1946 2003.43C-57.5655 2023.28 -64.9197 2053.15 -68.1601 2087.14C-74.0149 2091.11 -79.5964 2098.06 -84.6726 2107.78C-95.1179 2127.76 -102.559 2157.47 -105.977 2191.39C-111.719 2195.55 -117.2 2202.5 -122.198 2212.03L-122.183 2212C-137.488 2241.31 -146.441 2290.68 -146.148 2344.09L-120.42 7072.68C-120.196 7114.1 -114.476 7152.88 -104.28 7181.79C-94.0991 7210.72 -80.6877 7226.33 -66.5056 7225.76L1551.29 7162.1C1561.38 7161.69 1571.16 7152.97 1579.56 7136.93C1594.86 7107.69 1603.83 7058.29 1603.54 7004.88L1577.81 2276.29C1577.68 2252.44 1575.73 2229.48 1572.14 2208.76C1571.32 2192.64 1569.62 2177.15 1567.11 2162.77C1566.29 2146.45 1564.55 2130.98 1562.06 2116.81C1561.28 2100.63 1559.58 2085.07 1557.03 2070.68C1556.28 2054.57 1554.59 2039.06 1552.02 2024.74C1551.29 2008.46 1549.58 1993.01 1547.04 1978.96C1546.36 1962.64 1544.66 1946.91 1542 1932.45C1541.35 1916.46 1539.68 1901.04 1537.07 1886.84C1536.45 1870.6 1534.76 1854.91 1532.07 1840.52C1531.48 1824.44 1529.81 1808.89 1527.12 1794.62C1526.56 1778.22 1524.84 1762.59 1522.17 1748.58C1521.66 1732.18 1519.95 1716.52 1517.26 1702.54C1516.8 1686.37 1515.14 1670.65 1512.34 1656.29C1511.91 1639.95 1510.21 1624.3 1507.48 1610.41C1507.12 1594.26 1505.49 1578.46 1502.62 1564.08C1502.31 1548.79 1500.81 1533.78 1498.18 1520.01C1498.04 1519.28 1497.9 1518.56 1497.75 1517.84C1497.46 1501.47 1495.78 1485.67 1492.95 1471.82C1492.72 1455.38 1491.05 1439.48 1488.18 1425.6C1488 1409.17 1486.34 1393.21 1483.44 1379.34C1483.31 1362.95 1481.67 1346.97 1478.74 1333.13C1478.67 1316.76 1477.05 1300.73 1474.09 1286.91C1474.09 1256.15 1468.44 1226.32 1458.53 1210.76L693.465 10.2433ZM1469.09 1269.16C1467.44 1249.56 1463.06 1231.98 1456.51 1221.69L691.465 21.2563C683.325 8.47191 673.46 9.69613 665.74 24.4959C662.25 31.1505 659.355 40.4027 657.379 51.2309L647.342 106.048C650.291 107.357 653.191 109.942 655.936 113.824L1461.6 1254.16C1464.41 1258.14 1466.92 1263.23 1469.09 1269.16ZM645.211 117.681C648.237 118.549 651.241 120.991 654.1 125.033L1459.76 1265.25C1463.93 1271.18 1467.33 1279.94 1469.8 1290.35C1469.72 1295.06 1469.49 1299.78 1469.1 1304.43C1467.71 1301.83 1466.24 1299.52 1464.69 1297.53L625.328 226.27L645.211 117.681ZM640.371 117.634C636.21 118.746 632.132 122.837 628.461 129.844C624.534 137.349 621.379 147.89 619.313 160.323L610.952 210.983C613.488 212.202 615.995 214.353 618.418 217.45L621.4 221.256L640.371 117.634ZM619.395 232.206L616.735 228.81C614.241 225.623 611.641 223.594 609.018 222.703L590.887 332.56L599.259 342.188L619.395 232.206ZM597.252 353.152L589.046 343.715L570.975 453.206L577.666 460.129L597.252 353.152ZM581.737 464.341L601.253 357.754L1462.05 1347.68L1457.82 1370.81L581.737 464.341ZM575.642 471.186L569.121 464.439L551.581 570.714L556.571 575.351L575.642 471.186ZM560.707 579.193L579.712 475.398L1455.79 1381.9L1451.26 1406.63L560.707 579.193ZM554.534 586.479L549.718 582.005L532.657 685.377L535.929 688.099L554.534 586.479ZM540.127 691.592L558.669 590.322L1449.22 1417.76L1444.41 1444.02L540.127 691.592ZM533.882 699.281L530.787 696.706L514.172 797.375L515.713 798.519L533.882 699.281ZM519.969 801.679L538.079 702.773L1442.37 1455.2L1437.31 1482.79L519.969 801.679ZM513.651 809.781L512.292 808.772L498.16 894.395L513.651 809.781ZM500.198 909.656L517.907 812.941L1435.25 1494.08L1429.97 1522.9L500.198 909.656ZM480.796 1015.62L498.127 920.971L1427.9 1534.19L1422.4 1564.24L480.796 1015.62ZM461.739 1119.7L478.71 1027.01L1420.3 1575.7L1414.63 1606.68L461.739 1119.7ZM453.998 1161.98L459.626 1131.24L1412.51 1618.25L1406.65 1650.26L443.997 1222.57L453.998 1161.98ZM395.751 1480.08L400.212 1455.72L394.823 1491.96L391.315 1513.21L395.751 1480.08ZM391.758 1475.57L383.82 1518.92L381.139 1518.21L391.758 1430.01L397.605 1431.9L391.758 1475.57ZM417.871 1332.94L408.883 1382.03L415.575 1332.06L417.871 1332.94ZM421.088 1315.37L420.016 1321.22L417.172 1320.13L429.422 1228.67L433.7 1230.57L421.088 1315.37ZM450.342 1155.58L445.783 1180.48L453.567 1128.14L454.769 1128.76L450.342 1155.58ZM381.649 1530.78L375.736 1563.08L379.688 1530.26L381.649 1530.78ZM370.735 1616.71L378.634 1573.57L372.797 1617.16L370.735 1616.71ZM366.483 1639.93L368.542 1628.68L371.176 1629.25L366.938 1660.9L358.355 1712.91L357.71 1712.8L366.483 1639.93ZM362.531 1635.2L363.449 1627.58L355.969 1625.96L346.787 1710.97L348.605 1711.27L362.531 1635.2ZM346.395 1723.34L345.467 1723.18L344.091 1735.93L346.395 1723.34ZM337.164 1800.05L351.067 1724.12L351.811 1724.25L341.857 1806.92L336.492 1806.27L337.164 1800.05ZM333.201 1795.41L331.327 1805.64L322.919 1804.62L331.023 1720.76L341.083 1722.45L333.201 1795.41ZM329.093 1817.84L314.242 1898.96L313.805 1898.93L321.728 1816.95L329.093 1817.84ZM318.985 1899.33L326.275 1859.52L321.949 1899.56L318.985 1899.33ZM307.932 1959.7L316.741 1911.59L320.617 1911.9L311.99 1991.76L304.86 1991.49L307.932 1959.7ZM303.951 1955.17L297.352 1991.21L289.744 1990.93L296.713 1910.03L308.227 1910.93L303.951 1955.17ZM295.096 2003.54L282.938 2069.95L288.678 2003.3L295.096 2003.54ZM285.453 2082.47L298.575 2010.8L291.651 2082.45L285.453 2082.47ZM278.667 2119.53L283.182 2094.87L290.453 2094.86L283.586 2165.91L282.574 2172.05L274.114 2172.38L278.667 2119.53ZM274.681 2115.04L276.418 2094.89L263.524 2094.91L257.554 2173.03L264.112 2172.77L274.681 2115.04ZM268.952 2172.58L270.411 2164.62L269.728 2172.55L268.952 2172.58ZM261.817 2185.31L256.6 2185.52L252.89 2234.07L261.817 2185.31ZM249.448 2279.1L266.657 2185.12L268.651 2185.04L255.795 2334.3L250.838 2364.32C248.031 2353.74 246.271 2341.14 245.711 2328L249.448 2279.1ZM245.412 2274.91L244.76 2278.47C241.918 2293.96 240.875 2310.89 241.416 2327.2L228.009 2502.64L227.321 2506.81C225.01 2520.82 224.079 2535.74 224.369 2550.27L210.583 2730.67L209.903 2735.24C208.057 2747.63 207.234 2760.59 207.324 2773.31L193.18 2958.4L192.495 2963.52C191.056 2974.25 190.344 2985.3 190.29 2996.21L175.728 3186.76L175.103 3191.96C174.027 3200.87 173.428 3209.96 173.267 3218.96L158.39 3413.64L157.683 3420.19C156.901 3427.44 156.42 3434.77 156.218 3442.06L140.918 3642.28L140.307 3648.59C139.804 3653.82 139.449 3659.07 139.235 3664.3L125.321 3846.36L237.221 2186.28L252.231 2185.69L245.412 2274.91ZM243.759 2353.55C245.004 2361.88 246.702 2369.68 248.815 2376.58L236.122 2453.49L243.759 2353.55ZM255.179 2392.21L247.273 2483.99L259.812 2399.68L256.843 2395.02C256.274 2394.13 255.72 2393.19 255.179 2392.21ZM264.675 2407.31L258.698 2469.16L266.58 2410.3L264.675 2407.31ZM268.048 2398.54L265.855 2395.1L267.197 2381.22L277.143 2314.35L268.048 2398.54ZM272.592 2419.73L249.595 2610.73L248.458 2621.26L1048.96 3754.25C1057.29 3766.03 1066.85 3764.23 1074.59 3749.44L1074.58 3749.4C1078.51 3741.89 1081.67 3731.35 1083.72 3718.95L1343.87 2142.77L1321.16 2143.66L1061.75 3560.5C1059.43 3573.13 1056.04 3583.95 1051.98 3591.74C1042.95 3609.02 1031.42 3610.51 1021.9 3595.5L272.592 2419.73ZM1316.27 2143.85L1057.98 3554.51C1056.01 3565.34 1053.12 3574.63 1049.63 3581.29L1049.63 3581.36C1041.9 3596.12 1032.03 3597.34 1023.88 3584.59L274.017 2407.9L296.472 2221.41L301.514 2183.75L1316.27 2143.85ZM1323.46 2131.1L1345.94 2130.22L1352.17 2092.52L1330.52 2092.56L1323.46 2131.1ZM1325.66 2092.57L1318.57 2131.29L303.19 2171.24L313.426 2094.8L1325.66 2092.57ZM1332.79 2080.16L1354.21 2080.11L1360.36 2042.87L1339.76 2042.11L1332.79 2080.16ZM1334.93 2041.94L1327.93 2080.17L315.087 2082.4L325.498 2004.66L1334.93 2041.94ZM1342.01 2029.79L1362.4 2030.54L1368.46 1993.82L1348.88 1992.29L1342.01 2029.79ZM1344.09 1991.91L1337.19 2029.61L327.152 1992.31L337.743 1913.23L1344.09 1991.91ZM1351.13 1979.99L1370.49 1981.51L1376.47 1945.29L1357.9 1943.03L1351.13 1979.99ZM1353.15 1942.46L1346.34 1979.62L339.391 1900.93L346.268 1849.57L350.598 1820.46L1353.15 1942.46ZM1360.12 1930.88L1378.48 1933.11L1384.36 1897.45L1366.78 1894.5L1360.12 1930.88ZM1362.07 1893.71L1355.37 1930.3L352.42 1808.21L364.589 1726.39L1362.07 1893.71ZM1368.99 1882.43L1386.36 1885.34L1392.13 1850.36L1375.52 1846.76L1368.99 1882.43ZM1370.86 1845.75L1364.28 1881.64L366.394 1714.26L378.791 1630.9L1370.86 1845.75ZM1377.73 1834.73L1394.13 1838.28L1399.8 1803.91L1384.14 1799.71L1377.73 1834.73ZM1379.51 1798.47L1373.06 1833.72L380.585 1618.84L393.22 1533.89L1379.51 1798.47ZM1386.32 1787.82L1401.77 1791.97L1407.34 1758.25L1392.6 1753.48L1386.32 1787.82ZM1388.02 1752L1381.69 1786.58L395 1521.92L398.726 1496.87L408.848 1435.54L1388.02 1752ZM1394.75 1741.73L1409.29 1746.43L1414.73 1713.49L1400.89 1708.21L1394.75 1741.73ZM1396.36 1706.48L1390.17 1740.25L410.803 1423.69L425.313 1335.78L1396.36 1706.48ZM1403.03 1696.52L1416.67 1701.73L1421.97 1669.6L1409.01 1663.84L1403.03 1696.52ZM1404.53 1661.85L1398.5 1694.79L427.26 1323.98L442.064 1234.28L1404.53 1661.85ZM1411.14 1652.25L1423.9 1657.92L1429.05 1626.71L1416.95 1620.52L1411.14 1652.25ZM1419.07 1608.95L1430.98 1615.04L1435.96 1584.82L1424.69 1578.25L1419.07 1608.95ZM1426.78 1566.8L1437.87 1573.26L1442.71 1543.95L1432.23 1537.04L1426.78 1566.8ZM1434.3 1525.76L1444.59 1532.55L1449.23 1504.46L1439.52 1497.25L1434.3 1525.76ZM1441.58 1485.96L1451.11 1493.03L1455.55 1466.17L1446.58 1458.7L1441.58 1485.96ZM1448.62 1447.52L1457.42 1454.84L1461.63 1429.3L1453.37 1421.62L1448.62 1447.52ZM1455.4 1410.49L1463.5 1418.01L1467.46 1393.98L1459.86 1386.12L1455.4 1410.49ZM1461.89 1375.03L1469.32 1382.72L1471.91 1367C1472.15 1365.58 1472.37 1364.14 1472.57 1362.7C1470.66 1358.59 1468.54 1355.14 1466.24 1352.49L1466.06 1352.29L1461.89 1375.03ZM1468.08 1341.26C1470.16 1343.72 1472.1 1346.75 1473.9 1350.26C1474.23 1345.76 1474.43 1341.22 1474.48 1336.69C1473.49 1332.44 1472.35 1328.44 1471.07 1324.79C1470.93 1325.65 1470.78 1326.5 1470.62 1327.35L1468.08 1341.26ZM1467.68 1316.55C1466.23 1313.6 1464.67 1311.03 1463 1308.89L623.324 237.22L603.261 346.79L1464.07 1336.65L1466.86 1321.44C1467.15 1319.83 1467.43 1318.19 1467.68 1316.55ZM1472.76 1312.49C1473.06 1313.26 1473.36 1314.06 1473.65 1314.87C1473.49 1312.98 1473.29 1311.12 1473.08 1309.28C1472.98 1310.36 1472.87 1311.42 1472.76 1312.49ZM261.509 2388.28L258.839 2384.09C257.943 2382.68 257.089 2381.14 256.276 2379.47L259.787 2338.71L276.919 2234.91L263.191 2376.97L261.509 2388.28ZM591.176 235.072C595.193 227.38 599.746 223.088 604.378 222.308L586.932 328.013L580.9 321.076C578.778 318.63 576.594 316.877 574.386 315.807L581.289 269.397C583.381 255.289 586.797 243.46 591.176 235.072ZM579.369 332.588L585.091 339.167L566.955 449.047L556.221 437.94L572.635 327.579C574.919 328.412 577.182 330.076 579.369 332.588ZM554.526 449.337L565.101 460.28L547.5 566.922L538.308 558.382L554.526 449.337ZM536.606 569.822L545.636 578.213L528.517 681.932L520.878 675.576L536.606 569.822ZM519.172 687.042L526.648 693.261L509.978 794.261L503.897 789.746L519.172 687.042ZM502.184 801.266L508.097 805.657L491.841 904.144L487.326 901.165L502.184 801.266ZM485.608 912.714L489.954 915.58L474.087 1011.71L471.139 1009.99L485.608 912.714ZM469.414 1021.6L472.189 1023.21L456.69 1117.12L455.312 1116.41L469.414 1021.6ZM345.424 1819.83L343.201 1833.3L339.579 1863.38L342.025 1846.94L345.651 1819.86L345.424 1819.83ZM327.476 1900L339.213 1828.88L340.377 1819.22L335.162 1818.58L326.378 1899.91L327.476 1900ZM355.921 1727.65L356.357 1725.01L356.241 1724.99L355.921 1727.65ZM324.271 1919.41L325.449 1912.27L325.046 1912.24L324.271 1919.41ZM326.493 1934.54L317.018 1991.94L319.57 1992.03L326.493 1934.54ZM303.665 2003.86L310.293 2004.1L297.363 2082.44L296.07 2082.44L303.665 2003.86ZM302.406 2080.48L302.084 2082.43L302.195 2082.43L302.406 2080.48ZM294.872 2094.85L295.316 2094.84L294.244 2101.34L294.872 2094.85ZM300.037 2094.83L287.577 2170.33L287.429 2171.86L292.557 2171.65L300.856 2094.83L300.037 2094.83ZM264.94 2278.88L280.506 2184.58L273.038 2184.87L264.94 2278.88ZM250.64 2394.13L232.05 2506.77L228.65 2551.27C228.974 2563.05 230.231 2574.48 232.308 2584.6L236.881 2553.86L250.64 2394.13ZM230.3 2598.11C228.772 2592.07 227.518 2585.51 226.56 2578.61L219.544 2670.42L230.3 2598.11ZM230.257 2681.54L235.975 2615.15C236.768 2616.96 237.597 2618.67 238.462 2620.27L230.257 2681.54ZM224.882 2839.52L247.168 2633.21L1047.11 3765.42C1056.64 3778.86 1068.06 3776.73 1076.92 3759.81C1081.49 3751.08 1085.16 3738.86 1087.55 3724.39L1348.63 2142.58L1368.51 2141.8L1109.48 3883.33C1107.39 3897.44 1103.96 3909.3 1099.59 3917.65L1099.61 3917.62C1091.96 3932.26 1082.42 3934.62 1074.06 3923.93L227.792 2843.84C226.781 2842.56 225.81 2841.11 224.882 2839.52ZM1370.38 2129.26L1350.7 2130.03L1356.89 2092.51L1375.85 2092.46L1370.38 2129.26ZM1377.69 2080.06L1358.94 2080.1L1365.06 2043.05L1383.1 2043.71L1377.69 2080.06ZM1384.93 2031.37L1367.09 2030.71L1373.12 1994.18L1390.27 1995.52L1384.93 2031.37ZM1392.1 1983.19L1375.15 1981.87L1381.1 1945.86L1397.36 1947.84L1392.1 1983.19ZM1399.17 1935.63L1383.11 1933.67L1388.96 1898.22L1404.35 1900.8L1399.17 1935.63ZM1406.16 1888.66L1390.96 1886.11L1396.7 1851.35L1411.24 1854.5L1406.16 1888.66ZM1413.04 1842.38L1398.69 1839.27L1404.33 1805.12L1418.04 1808.8L1413.04 1842.38ZM1419.82 1796.81L1406.3 1793.18L1411.82 1759.7L1424.72 1763.87L1419.82 1796.81ZM1426.49 1751.99L1413.77 1747.88L1419.17 1715.19L1431.28 1719.81L1426.49 1751.99ZM1433.04 1707.98L1421.11 1703.42L1426.37 1671.55L1437.7 1676.59L1433.04 1707.98ZM1439.45 1664.83L1428.3 1659.88L1433.41 1628.93L1443.99 1634.34L1439.45 1664.83ZM1445.74 1622.58L1435.33 1617.26L1440.27 1587.33L1450.13 1593.07L1445.74 1622.58ZM1451.86 1581.41L1442.18 1575.77L1446.97 1546.76L1456.12 1552.8L1451.86 1581.41ZM1457.83 1541.28L1448.85 1535.36L1453.43 1507.58L1461.91 1513.87L1457.83 1541.28ZM1463.62 1502.32L1455.32 1496.16L1459.7 1469.62L1467.52 1476.13L1463.62 1502.32ZM1469.23 1464.66L1461.57 1458.29L1465.73 1433.1L1472.67 1439.55C1472.76 1439.63 1472.84 1439.71 1472.92 1439.79L1469.23 1464.66ZM1473.96 1427.73L1467.59 1421.81L1471.46 1398.36C1473.65 1401.17 1475.67 1404.71 1477.49 1408.83C1477.33 1410.08 1477.16 1411.33 1476.97 1412.57L1474.62 1428.37C1474.4 1428.15 1474.18 1427.94 1473.96 1427.73ZM1478.72 1396.07C1477.04 1392.66 1475.23 1389.67 1473.31 1387.17L1475.73 1372.47C1475.8 1372.06 1475.87 1371.65 1475.94 1371.23C1477.15 1374.85 1478.24 1378.77 1479.19 1382.93C1479.16 1387.3 1479.01 1391.7 1478.72 1396.07ZM1478.23 1360.44C1478.01 1359.82 1477.79 1359.2 1477.56 1358.6C1477.64 1357.78 1477.71 1356.97 1477.79 1356.15C1477.95 1357.57 1478.1 1359 1478.23 1360.44ZM237.126 2601.79C238.033 2604.19 239.005 2606.43 240.041 2608.48L242.836 2587.61L254.588 2465.99L240.89 2558.09L237.126 2601.79ZM568.091 327.01C563.097 327.573 558.175 332.038 553.895 340.223C549.064 349.495 545.394 362.733 543.276 378.515L537.676 420.33C539.6 421.268 541.514 422.713 543.397 424.671L552.209 433.789L568.091 327.01ZM550.514 445.186L541.978 436.353C540.041 434.348 538.069 432.963 536.088 432.19L521.304 542.582L534.24 554.602L550.514 445.186ZM532.538 566.043L519.753 554.163L505.236 662.561L516.757 672.147L532.538 566.043ZM515.052 683.613L503.683 674.154L489.622 779.147L499.726 786.649L515.052 683.613ZM498.013 798.169L488.064 790.782L474.421 892.654L483.108 898.383L498.013 798.169ZM481.39 909.932L472.861 904.307L459.607 1003.27L466.877 1007.51L481.39 909.932ZM465.151 1019.11L458.04 1014.97L445.151 1111.22L451.007 1114.21L465.151 1019.11ZM449.262 1125.94L443.568 1123.03L431.01 1216.8L435.454 1218.78L449.262 1125.94ZM293.466 2204.59L296.156 2186.51L292.646 2215.66L290.705 2230.15L293.466 2204.59ZM315.858 2022.87L307 2082.42L306.663 2082.42L315.104 2004.28L318.083 2004.39L315.858 2022.87ZM289.449 2200.42L275.8 2292.19L286.222 2184.35L291.206 2184.16L289.449 2200.42ZM214.641 2734.58L230.496 2627.97L217.995 2773.1L213.917 2803.55C212.526 2794.4 211.729 2784.49 211.599 2774.38L214.641 2734.58ZM209.35 2803.81C210.028 2809.04 210.868 2814.1 211.862 2818.9L203.327 2882.63L209.35 2803.81ZM216.848 2837.21L214.419 2865.4L217.574 2839.2C217.438 2838.84 217.303 2838.47 217.17 2838.11C217.062 2837.81 216.954 2837.51 216.848 2837.21ZM223.569 2851.67L206.125 3013.16L202.198 3053.8C204.932 3062.29 208.332 3069.19 212.282 3073.73L1099.15 4093.63C1107.56 4103.29 1117.07 4100.45 1124.62 4086L1124.61 4086.03C1129.45 4076.8 1133.12 4063.56 1135.24 4047.71L1390.6 2140.93L1373.17 2141.61L1113.37 3888.32C1110.94 3904.62 1106.98 3918.39 1101.91 3928.1C1093.08 3944.96 1082.02 3947.69 1072.35 3935.35L226.078 2855.27C225.216 2854.17 224.379 2852.97 223.569 2851.67ZM1375.03 2129.07L1392.28 2128.39L1397.1 2092.42L1380.48 2092.45L1375.03 2129.07ZM1382.32 2080.05L1398.76 2080.01L1403.52 2044.47L1387.7 2043.88L1382.32 2080.05ZM1389.54 2031.54L1405.17 2032.12L1409.87 1997.06L1394.84 1995.88L1389.54 2031.54ZM1396.68 1983.55L1411.52 1984.71L1416.16 1950.12L1401.91 1948.39L1396.68 1983.55ZM1403.72 1936.18L1417.79 1937.9L1422.36 1903.82L1408.87 1901.56L1403.72 1936.18ZM1410.68 1889.42L1423.99 1891.65L1428.46 1858.23L1415.73 1855.47L1410.68 1889.42ZM1417.53 1843.35L1430.09 1846.07L1434.49 1813.22L1422.49 1810L1417.53 1843.35ZM1424.27 1798L1436.1 1801.17L1440.42 1768.94L1429.14 1765.29L1424.27 1798ZM1430.91 1753.42L1442.02 1757.01L1446.23 1725.52L1435.66 1721.48L1430.91 1753.42ZM1437.42 1709.65L1447.83 1713.62L1451.94 1682.91L1442.05 1678.52L1437.42 1709.65ZM1443.79 1666.76L1453.53 1671.08L1457.52 1641.26L1448.29 1636.54L1443.79 1666.76ZM1450.04 1624.78L1459.11 1629.41L1462.97 1600.56L1454.39 1595.56L1450.04 1624.78ZM1456.12 1583.89L1464.54 1588.8L1468.29 1560.82L1460.33 1555.58L1456.12 1583.89ZM1462.04 1544.06L1469.85 1549.21L1473.43 1522.43L1466.07 1516.97L1462.04 1544.06ZM1467.79 1505.42L1475 1510.76L1478.38 1485.49C1477.58 1484.61 1476.75 1483.81 1475.92 1483.12L1471.64 1479.56L1467.79 1505.42ZM1473.34 1468.09L1477.07 1471.19C1478.04 1472 1478.99 1472.92 1479.93 1473.95L1482.05 1458.1C1482.19 1457.06 1482.32 1456.01 1482.44 1454.95C1480.74 1450.92 1478.88 1447.39 1476.86 1444.48L1473.34 1468.09ZM1478.55 1433.08C1480.33 1435.61 1482.01 1438.56 1483.58 1441.88C1483.83 1437.67 1483.95 1433.45 1483.96 1429.26C1483.04 1425.17 1482 1421.3 1480.84 1417.71L1478.55 1433.08ZM1482.39 1404.74C1482.56 1405.19 1482.72 1405.63 1482.88 1406.09C1482.77 1405.04 1482.67 1404.01 1482.55 1402.98C1482.5 1403.57 1482.45 1404.15 1482.39 1404.74ZM219.132 2826.25C218.77 2825.15 218.42 2824.03 218.083 2822.87L221.977 2777.65L230.932 2710.79L222.384 2799.25L219.132 2826.25ZM516.566 445.273C521.134 436.532 526.313 431.868 531.58 431.479L517.211 538.78L505.894 528.265C504.199 526.692 502.482 525.516 500.757 524.73L505.221 487.653C507.333 470.063 511.256 455.415 516.566 445.273ZM504.602 540.086L515.66 550.36L501.096 659.116L486.081 646.622L499.32 536.664C501.094 537.332 502.862 538.47 504.602 540.086ZM484.67 658.334L499.543 670.709L485.437 776.04L471.724 765.858L484.67 658.334ZM470.31 777.6L483.879 787.675L470.194 889.866L457.779 881.677L470.31 777.6ZM456.364 893.427L468.634 901.519L455.34 1000.79L444.218 994.308L456.364 893.427ZM442.8 1006.09L453.773 1012.48L440.846 1109.02L431.012 1103.99L442.8 1006.09ZM429.58 1115.88L439.263 1120.83L426.669 1214.88L418.118 1211.08L429.58 1115.88ZM416.682 1223.01L425.081 1226.74L412.797 1318.46L405.523 1315.69L416.682 1223.01ZM404.08 1327.67L411.2 1330.39L399.207 1419.95L393.203 1418.01L404.08 1327.67ZM248.433 2580.11L246.79 2592.38L244.755 2613.44L245.513 2607.14L248.433 2580.11ZM209.715 2869.22L197.224 2962.49L194.56 2997.35C194.55 3005.34 194.946 3013.23 195.711 3020.79L199.041 2993.13L209.715 2869.22ZM193.545 3038.78C193.015 3035.6 192.547 3032.33 192.142 3028.99L187.656 3087.69L193.545 3038.78ZM181.571 3267.24L200.882 3067.42C203.685 3074.86 206.986 3080.97 210.71 3085.26L1097.59 4105.13C1107.27 4116.3 1118.25 4113.01 1126.95 4096.36C1132.53 4085.72 1136.75 4070.44 1139.2 4052.22L1395.18 2140.75L1410.48 2140.15L1161.02 4212.13C1158.91 4229.64 1154.97 4244.32 1149.66 4254.46L1149.67 4254.43C1142.08 4268.98 1132.81 4272.25 1124.25 4263.38L196.767 3303.69C190.148 3296.84 184.909 3283.63 181.571 3267.24ZM1411.98 2127.62L1396.85 2128.21L1401.65 2092.41L1416.23 2092.38L1411.98 2127.62ZM1417.72 2079.97L1403.31 2080L1408.05 2044.64L1421.91 2045.15L1417.72 2079.97ZM1423.4 2032.79L1409.7 2032.29L1414.37 1997.41L1427.54 1998.44L1423.4 2032.79ZM1429.03 1986.08L1416.03 1985.06L1420.63 1950.67L1433.11 1952.19L1429.03 1986.08ZM1434.58 1939.94L1422.27 1938.44L1426.8 1904.57L1438.6 1906.55L1434.58 1939.94ZM1440.07 1894.35L1428.43 1892.4L1432.88 1859.19L1444.01 1861.6L1440.07 1894.35ZM1445.48 1849.4L1434.51 1847.03L1438.88 1814.39L1449.36 1817.2L1445.48 1849.4ZM1450.81 1805.12L1440.49 1802.35L1444.78 1770.35L1454.62 1773.53L1450.81 1805.12ZM1456.06 1761.55L1446.38 1758.42L1450.56 1727.17L1459.77 1730.69L1456.06 1761.55ZM1461.21 1718.73L1452.15 1715.28L1456.23 1684.82L1464.84 1688.64L1461.21 1718.73ZM1466.27 1676.74L1457.82 1672.99L1461.78 1643.43L1469.79 1647.53L1466.27 1676.74ZM1471.22 1635.61L1463.36 1631.59L1467.19 1603.02L1474.62 1607.35L1471.22 1635.61ZM1476.05 1595.5L1468.76 1591.26L1472.47 1563.58L1479.35 1568.12L1476.05 1595.5ZM1480.76 1556.4L1474.03 1551.96L1477.57 1525.5L1479.14 1526.67C1480.74 1527.86 1482.29 1529.38 1483.79 1531.23L1480.76 1556.4ZM1480.17 1514.6L1479.13 1513.83L1482.24 1490.64C1484.09 1493.56 1485.82 1497.03 1487.41 1500.97C1487.32 1501.87 1487.21 1502.77 1487.11 1503.67L1485.2 1519.51C1483.58 1517.54 1481.9 1515.9 1480.17 1514.6ZM1488.46 1487.56C1486.99 1484.37 1485.43 1481.51 1483.79 1479.01L1485.78 1464.19C1486.87 1467.73 1487.86 1471.51 1488.74 1475.5C1488.75 1479.5 1488.66 1483.53 1488.46 1487.56ZM1487.53 1451.61C1487.49 1451.5 1487.45 1451.39 1487.41 1451.27C1487.36 1451.14 1487.32 1451 1487.27 1450.87L1487.29 1450.61L1487.31 1450.34C1487.32 1450.2 1487.34 1450.05 1487.35 1449.9C1487.39 1450.27 1487.43 1450.64 1487.47 1451.01C1487.49 1451.21 1487.51 1451.41 1487.53 1451.61ZM494.876 535.968C489.366 536.309 483.945 541.125 479.204 550.19C473.487 561.119 469.218 577.642 467.14 596.778L463.665 628.951C465.246 629.611 466.82 630.589 468.376 631.891L481.966 643.199L494.876 535.968ZM480.556 654.91L467.225 643.818C465.621 642.485 463.996 641.541 462.366 640.979L450.573 750.154L467.57 762.773L480.556 654.91ZM466.156 774.515L449.294 761.995L437.79 868.493L453.587 878.912L466.156 774.515ZM452.172 890.662L436.511 880.333L425.385 983.335L439.99 991.845L452.172 890.662ZM438.572 1003.62L424.104 995.194L413.328 1094.95L426.75 1101.81L438.572 1003.62ZM425.318 1113.7L412.036 1106.92L401.578 1203.73L413.825 1209.17L425.318 1113.7ZM412.388 1221.1L400.283 1215.72L390.12 1309.8L401.199 1314.03L412.388 1221.1ZM399.756 1326.02L388.819 1321.85L378.931 1413.39L388.851 1416.6L399.756 1326.02ZM387.405 1428.61L377.628 1425.45L367.99 1514.68L376.759 1517.03L387.405 1428.61ZM375.308 1529.08L366.684 1526.77L357.283 1613.8L364.91 1615.45L375.308 1529.08ZM203.073 2997.12L204.032 2989.15L202.221 3007.9L201.845 3011.38L203.073 2997.12ZM179.816 3190.28L187.695 3124.84L180.243 3211.35L177.718 3234.72C177.511 3230.05 177.437 3225.3 177.504 3220.53L179.816 3190.28ZM174.914 3254.42C175.027 3255.42 175.146 3256.41 175.269 3257.39L173.281 3275.8L174.914 3254.42ZM180.059 3282.89L165.324 3435.37L161.763 3476.7C164.614 3502.84 171.617 3524.72 181.226 3533.64L1149.32 4433.12C1157.92 4441.1 1167.17 4437.39 1174.71 4422.97L1174.72 4423.02C1180.44 4412.09 1184.72 4395.53 1186.79 4376.47L1428.41 2139.44L1415 2139.97L1165.02 4216.27C1162.59 4236.42 1158.09 4253.22 1151.99 4264.87C1143.28 4281.55 1132.65 4285.28 1122.82 4275.14L195.333 3315.41C189.04 3308.89 183.835 3297.36 180.059 3282.89ZM1416.51 2127.44L1429.77 2126.92L1433.5 2092.34L1420.73 2092.37L1416.51 2127.44ZM1422.22 2079.96L1434.84 2079.93L1438.53 2045.76L1426.39 2045.31L1422.22 2079.96ZM1427.88 2032.96L1439.87 2033.4L1443.51 1999.69L1432 1998.79L1427.88 2032.96ZM1433.48 1986.43L1444.84 1987.32L1448.44 1954.05L1437.54 1952.73L1433.48 1986.43ZM1439.02 1940.48L1449.76 1941.79L1453.3 1909.02L1443.01 1907.29L1439.02 1940.48ZM1444.48 1895.09L1454.62 1896.79L1458.09 1864.65L1448.4 1862.55L1444.48 1895.09ZM1449.87 1850.35L1459.41 1852.42L1462.83 1820.82L1453.72 1818.37L1449.87 1850.35ZM1455.17 1806.29L1464.14 1808.69L1467.49 1777.69L1458.95 1774.93L1455.17 1806.29ZM1460.39 1762.95L1468.78 1765.66L1472.06 1735.38L1464.08 1732.33L1460.39 1762.95ZM1465.52 1720.38L1473.35 1723.37L1476.54 1693.84L1469.11 1690.54L1465.52 1720.38ZM1470.54 1678.64L1477.83 1681.88L1480.93 1653.22L1474.02 1649.69L1470.54 1678.64ZM1475.46 1637.77L1482.22 1641.23L1485.22 1613.52L1478.83 1609.8L1475.46 1637.77ZM1480.25 1597.95L1486.38 1601.52L1486.51 1601.6L1489.17 1576.94C1487.38 1574.48 1485.49 1572.45 1483.51 1570.93L1480.25 1597.95ZM1484.91 1559.26C1486.83 1560.79 1488.68 1562.75 1490.45 1565.08L1492.17 1549.16C1492.25 1548.44 1492.32 1547.73 1492.39 1547.01C1490.91 1543.2 1489.31 1539.8 1487.61 1536.86L1484.91 1559.26ZM1489.04 1524.97C1490.55 1527.43 1491.98 1530.2 1493.35 1533.25C1493.51 1529.34 1493.57 1525.43 1493.55 1521.56C1492.71 1517.69 1491.78 1514.05 1490.77 1510.64L1489.04 1524.97ZM1492.18 1496.91L1492.19 1496.92L1492.18 1496.89L1492.18 1496.91ZM441.858 655.075C446.718 645.784 452.3 640.8 457.973 640.385L446.446 747.09L430.858 735.516C429.408 734.436 427.943 733.627 426.472 733.086L429.101 705.883C431.131 684.959 435.658 666.951 441.858 655.075ZM429.823 747.538L445.167 758.931L433.628 865.748L414.849 853.361L425.302 745.194C426.819 745.654 428.33 746.433 429.823 747.538ZM413.696 865.286L432.349 877.588L421.19 980.891L403.519 970.595L413.696 865.286ZM402.366 982.527L419.909 992.749L409.101 1092.79L392.528 1084.32L402.366 982.527ZM391.366 1096.35L407.809 1104.76L397.322 1201.84L381.837 1194.96L391.366 1096.35ZM380.672 1207.01L396.026 1213.83L385.835 1308.17L371.428 1302.67L380.672 1207.01ZM370.259 1314.76L384.535 1320.21L374.619 1412L361.279 1407.69L370.259 1314.76ZM360.109 1419.79L373.317 1424.05L363.653 1513.52L351.37 1510.22L360.109 1419.79ZM350.198 1522.35L362.346 1525.61L352.922 1612.85L341.687 1610.42L350.198 1522.35ZM340.508 1622.61L351.608 1625.02L342.402 1710.23L332.206 1708.52L340.508 1622.61ZM162.623 3415.89L162.458 3417.42L162.195 3420.86L162.623 3415.89ZM143.511 3688.6L160.054 3496.54C164.097 3519.03 171.045 3537.07 179.953 3545.36L1148.03 4444.87C1157.86 4453.98 1168.42 4449.8 1177.05 4433.31C1183.57 4420.88 1188.47 4401.95 1190.82 4380.16L1432.88 2139.27L1444.66 2138.8L1212.55 4540.73C1210.54 4561.62 1205.99 4579.66 1199.79 4591.54L1199.8 4591.58C1192.31 4605.9 1183.07 4610.01 1174.44 4602.84L165.742 3763.54C153.542 3753.41 145.126 3723.14 143.511 3688.6ZM1445.87 2126.29L1434.23 2126.74L1437.95 2092.33L1449.16 2092.3L1445.87 2126.29ZM1450.35 2079.9L1439.29 2079.92L1442.96 2045.93L1453.6 2046.32L1450.35 2079.9ZM1454.79 2033.95L1444.3 2033.57L1447.92 2000.03L1458 2000.82L1454.79 2033.95ZM1459.19 1988.44L1449.26 1987.66L1452.83 1954.59L1462.35 1955.74L1459.19 1988.44ZM1463.54 1943.47L1454.16 1942.32L1457.67 1909.75L1466.65 1911.25L1463.54 1943.47ZM1467.84 1899.01L1458.99 1897.52L1462.44 1865.59L1470.89 1867.42L1467.84 1899.01ZM1472.07 1855.16L1463.77 1853.36L1467.16 1821.98L1475.07 1824.1L1472.07 1855.16ZM1476.25 1811.94L1468.46 1809.85L1471.79 1779.08L1479.19 1781.47L1476.25 1811.94ZM1480.36 1769.4L1473.09 1767.05L1476.33 1737.01L1483.24 1739.64L1480.36 1769.4ZM1484.4 1727.59L1477.63 1725L1480.79 1695.73L1487.2 1698.58L1484.4 1727.59ZM1488.37 1686.56L1482.08 1683.77L1485.15 1655.38L1488.79 1657.24C1489.56 1657.63 1490.32 1658.09 1491.06 1658.62L1488.37 1686.56ZM1489.5 1644.95L1486.45 1643.39L1489.34 1616.57C1491.14 1618.24 1492.87 1620.33 1494.53 1622.8L1492.22 1646.63C1491.33 1645.98 1490.42 1645.42 1489.5 1644.95ZM1495.7 1610.65C1494.07 1608.34 1492.37 1606.36 1490.62 1604.73L1492.96 1583.09C1494.54 1586.06 1496.02 1589.41 1497.39 1593.08C1497.34 1593.62 1497.29 1594.16 1497.24 1594.69L1495.7 1610.65ZM1498.26 1579.03C1497 1576.1 1495.67 1573.4 1494.27 1570.94L1495.77 1557.12C1496.72 1560.45 1497.6 1564 1498.41 1567.74C1498.44 1571.5 1498.39 1575.27 1498.26 1579.03ZM420.92 744.746C415.118 745.315 409.407 750.477 404.474 759.902C397.765 772.712 393.002 792.295 391.031 815.052L389.131 837.114C390.547 837.57 391.964 838.264 393.377 839.199L410.689 850.618L420.92 744.746ZM409.537 862.543L392.447 851.271C390.996 850.315 389.539 849.645 388.085 849.257L378.87 956.234L399.331 968.155L409.537 862.543ZM398.178 980.086L377.837 968.233L368.878 1072.24L388.313 1082.17L398.178 980.086ZM387.151 1094.2L367.837 1084.33L359.175 1184.89L377.596 1193.07L387.151 1094.2ZM376.432 1205.13L358.132 1197L349.742 1294.39L367.163 1301.04L376.432 1205.13ZM365.994 1313.13L348.697 1306.53L340.56 1400.99L356.991 1406.3L365.994 1313.13ZM355.822 1418.4L339.514 1413.13L331.608 1504.92L347.06 1509.06L355.822 1418.4ZM345.889 1521.19L330.56 1517.08L322.871 1606.35L337.357 1609.48L345.889 1521.19ZM336.178 1621.68L321.819 1618.57L314.328 1705.52L327.857 1707.79L336.178 1621.68ZM326.674 1720.03L313.272 1717.78L305.97 1802.55L318.551 1804.09L326.674 1720.03ZM317.36 1816.42L304.907 1814.9L297.777 1897.68L309.419 1898.59L317.36 1816.42ZM141.367 3713.48C145.226 3742.61 153.543 3766.32 164.577 3775.5L1173.3 4614.81C1183.09 4622.97 1193.61 4618.29 1202.14 4601.99C1209.19 4588.52 1214.34 4567.99 1216.64 4544.21L1449.1 2138.63L1459.43 2138.22L1238.31 4705.11C1236.36 4727.83 1231.58 4747.45 1224.87 4760.26L1224.85 4760.29C1217.4 4774.59 1208.16 4779.09 1199.51 4772.65L150.213 3993.53C134.214 3981.65 124.074 3936.21 126.382 3889.5L127.766 3871.38L141.367 3713.48ZM1450.31 2126.11L1460.51 2125.71L1463.39 2092.27L1453.58 2092.29L1450.31 2126.11ZM1454.78 2079.89L1464.46 2079.87L1467.3 2046.82L1458.01 2046.48L1454.78 2079.89ZM1459.2 2034.12L1468.37 2034.45L1471.18 2001.85L1462.39 2001.16L1459.2 2034.12ZM1463.59 1988.78L1472.25 1989.46L1475.02 1957.29L1466.73 1956.28L1463.59 1988.78ZM1467.91 1944L1476.08 1944.99L1478.81 1913.29L1471.01 1911.99L1467.91 1944ZM1472.19 1899.74L1479.86 1901.02L1482.54 1869.94L1475.22 1868.36L1472.19 1899.74ZM1476.41 1856.1L1483.6 1857.66L1486.23 1827.1L1479.39 1825.26L1476.41 1856.1ZM1480.56 1813.1L1487.28 1814.9L1489.87 1784.92L1483.48 1782.86L1480.56 1813.1ZM1484.65 1770.79L1490.91 1772.81L1493.43 1743.54L1487.5 1741.27L1484.65 1770.79ZM1488.67 1729.22L1494.47 1731.43L1496.85 1703.86C1495.28 1702.51 1493.65 1701.45 1491.99 1700.7L1491.45 1700.46L1488.67 1729.22ZM1492.61 1688.45L1492.62 1688.45C1494.42 1689.25 1496.18 1690.39 1497.88 1691.84L1499.88 1668.69C1498.37 1666.23 1496.78 1664.08 1495.14 1662.28L1492.61 1688.45ZM1496.3 1650.26C1497.9 1651.98 1499.46 1653.99 1500.95 1656.26L1502.33 1640.19C1502.34 1640.06 1502.36 1639.92 1502.37 1639.78C1502.39 1639.57 1502.4 1639.35 1502.42 1639.14C1501.14 1635.57 1499.76 1632.32 1498.31 1629.4L1496.3 1650.26ZM1499.52 1616.88C1500.81 1619.25 1502.04 1621.85 1503.21 1624.66C1503.31 1621.1 1503.34 1617.54 1503.29 1614C1502.54 1610.41 1501.71 1606.96 1500.8 1603.68L1499.52 1616.88ZM367.095 864.654C372.161 854.964 377.877 849.642 383.747 848.939L374.713 953.811L355.859 942.826C354.475 942.019 353.087 941.435 351.701 941.072L352.988 924.234C354.873 899.632 359.888 878.443 367.095 864.654ZM355.06 954.96L373.679 965.81L364.695 1070.1L342.7 1058.86L350.77 953.26C352.199 953.562 353.631 954.128 355.06 954.96ZM341.771 1071L363.654 1082.19L354.968 1183.02L333.926 1173.67L341.771 1071ZM332.996 1185.83L353.925 1195.13L345.514 1292.77L325.41 1285.1L332.996 1185.83ZM324.479 1297.28L344.468 1304.91L336.31 1399.62L317.133 1393.42L324.479 1297.28ZM316.202 1405.6L335.264 1411.76L327.338 1503.77L309.073 1498.88L316.202 1405.6ZM308.142 1511.07L326.29 1515.93L318.582 1605.42L301.219 1601.66L308.142 1511.07ZM300.283 1613.9L317.529 1617.64L310.021 1704.8L293.548 1702.04L300.283 1613.9ZM292.609 1714.32L308.965 1717.06L301.645 1802.03L286.052 1800.13L292.609 1714.32ZM285.107 1812.49L300.582 1814.38L293.435 1897.34L278.711 1896.19L285.107 1812.49ZM277.766 1908.55L292.371 1909.69L285.386 1990.77L271.522 1990.26L277.766 1908.55ZM270.576 2002.63L284.321 2003.14L277.486 2082.48L264.472 2082.51L270.576 2002.63ZM109.683 4108.01L123.182 3931.37C126.598 3966.65 136.181 3995.87 149.193 4005.52L1198.49 4784.64C1208.29 4791.91 1218.78 4786.82 1227.22 4770.64C1234.8 4756.12 1240.21 4733.91 1242.43 4708.13L1463.82 2138.05L1472.87 2137.7L1264.11 4869.42C1262.23 4894.07 1257.22 4915.18 1250 4929L1250.01 4929.05C1242.48 4943.51 1233.46 4948.23 1224.66 4942.43L134.751 4223.52C116.946 4211.74 105.716 4159.98 109.683 4108.01ZM1473.82 2125.19L1464.9 2125.54L1467.77 2092.26L1476.34 2092.24L1473.82 2125.19ZM1477.29 2079.84L1468.84 2079.86L1471.67 2046.98L1479.77 2047.28L1477.29 2079.84ZM1480.72 2034.91L1472.73 2034.62L1475.53 2002.19L1483.17 2002.79L1480.72 2034.91ZM1484.12 1990.39L1476.59 1989.8L1479.35 1957.81L1486.54 1958.69L1484.12 1990.39ZM1487.49 1946.38L1480.41 1945.52L1483.12 1914.02L1489.87 1915.15L1487.49 1946.38ZM1490.81 1902.86L1484.18 1901.75L1486.84 1870.87L1493.15 1872.24L1490.81 1902.86ZM1494.09 1859.93L1487.9 1858.59L1490.51 1828.24L1496.39 1829.82L1494.09 1859.93ZM1497.33 1817.6L1491.56 1816.05L1494.12 1786.3L1498.4 1787.68C1498.8 1787.81 1499.19 1787.95 1499.58 1788.11L1497.33 1817.6ZM1498.86 1775.38L1495.17 1774.19L1497.65 1745.39C1499.32 1746.35 1500.96 1747.64 1502.55 1749.23L1500.51 1776C1499.96 1775.77 1499.41 1775.56 1498.86 1775.38ZM1503.48 1737.05C1501.92 1735.55 1500.32 1734.31 1498.69 1733.35L1500.86 1708.09C1502.37 1709.97 1503.82 1712.13 1505.2 1714.56L1503.48 1737.05ZM1506.17 1701.88C1504.8 1699.67 1503.38 1697.68 1501.91 1695.93L1503.65 1675.77C1504.99 1678.66 1506.26 1681.82 1507.44 1685.22C1507.43 1685.36 1507.42 1685.51 1507.41 1685.65L1506.17 1701.88ZM1508.15 1670.34C1507.07 1667.69 1505.94 1665.19 1504.76 1662.87L1505.85 1650.18C1506.37 1652.13 1506.87 1654.15 1507.35 1656.24C1507.63 1657.48 1507.91 1658.73 1508.17 1660C1508.23 1663.42 1508.22 1666.87 1508.15 1670.34ZM346.421 953.153C340.511 954.115 334.775 959.599 329.694 969.317C321.973 984.117 316.712 1006.84 314.933 1033.37L314.153 1044.95C315.562 1045.22 316.974 1045.72 318.382 1046.43L338.507 1056.72L346.421 953.153ZM337.579 1068.86L317.657 1058.68C316.214 1057.94 314.767 1057.47 313.324 1057.25L306.303 1161.4L329.712 1171.8L337.579 1068.86ZM328.783 1183.96L305.481 1173.61L298.654 1274.88L321.177 1283.48L328.783 1183.96ZM320.246 1295.67L297.83 1287.11L291.228 1385.05L312.881 1392.04L320.246 1295.67ZM311.95 1404.22L290.405 1397.26L284.009 1492.15L304.804 1497.73L311.95 1404.22ZM303.873 1509.92L283.185 1504.37L276.981 1596.41L296.933 1600.73L303.873 1509.92ZM295.997 1612.97L276.154 1608.68L270.126 1698.11L289.246 1701.31L295.997 1612.97ZM288.308 1713.6L269.297 1710.41L263.435 1797.38L281.735 1799.6L288.308 1713.6ZM280.79 1811.97L262.601 1809.75L256.89 1894.48L274.38 1895.85L280.79 1811.97ZM273.436 1908.21L256.056 1906.85L250.486 1989.48L267.177 1990.1L273.436 1908.21ZM266.232 2002.47L249.651 2001.86L244.212 2082.56L260.115 2082.52L266.232 2002.47ZM259.167 2094.92L243.376 2094.96L238.062 2173.8L253.185 2173.2L259.167 2094.92ZM105.111 4146.2L92.3178 4335.99C88.6826 4389.97 100.761 4442.64 119.252 4453.45L1249.77 5112.15C1258.6 5117.29 1267.6 5112.21 1275.12 5097.83L1275.1 5097.81C1282.83 5082.98 1288.08 5060.29 1289.87 5033.72L1485.12 2137.21L1477.23 2137.52L1268.25 4872.18C1266.12 4899.92 1260.49 4923.84 1252.33 4939.41C1243.82 4955.68 1233.66 4961.04 1223.73 4954.5L133.805 4235.63C118.485 4225.51 107.469 4189 105.111 4146.2ZM1478.19 2125.01L1485.96 2124.71L1488.15 2092.22L1480.7 2092.23L1478.19 2125.01ZM1481.64 2079.83L1488.98 2079.81L1491.15 2047.7L1484.12 2047.44L1481.64 2079.83ZM1485.06 2035.07L1491.98 2035.33L1494.12 2003.64L1487.51 2003.13L1485.06 2035.07ZM1488.45 1990.72L1494.96 1991.23L1497.06 1959.97L1490.86 1959.21L1488.45 1990.72ZM1491.8 1946.91L1497.89 1947.65L1499.97 1916.84L1494.17 1915.87L1491.8 1946.91ZM1495.11 1903.58L1500.8 1904.54L1502.84 1874.34L1497.44 1873.17L1495.11 1903.58ZM1498.38 1860.86L1503.67 1862L1505.63 1832.89C1504.3 1832.14 1502.96 1831.58 1501.6 1831.22L1500.66 1830.97L1498.38 1860.86ZM1501.6 1818.74L1501.97 1818.84C1503.48 1819.25 1504.98 1819.88 1506.45 1820.71L1508.21 1794.66C1506.76 1793.02 1505.27 1791.64 1503.75 1790.51L1501.6 1818.74ZM1504.68 1778.42C1506.16 1779.51 1507.61 1780.81 1509.04 1782.34L1510.52 1760.4C1509.24 1758.03 1507.91 1755.89 1506.55 1753.98L1504.68 1778.42ZM1507.49 1741.58C1508.83 1743.33 1510.13 1745.28 1511.39 1747.42L1512.48 1731.26C1511.38 1728.01 1510.21 1724.96 1508.98 1722.14L1507.49 1741.58ZM1509.99 1708.88C1511.07 1711.12 1512.11 1713.5 1513.11 1716.01C1513.16 1712.73 1513.15 1709.45 1513.09 1706.19C1512.42 1702.94 1511.7 1699.79 1510.92 1696.77L1509.99 1708.88ZM292.281 1073.93C297.333 1064.28 303.065 1058.66 308.973 1057.39L302.088 1159.53L280.875 1150.1C279.42 1149.46 277.961 1149.04 276.504 1148.85L276.874 1142.59C278.536 1114.54 284.154 1089.52 292.281 1073.93ZM280.255 1162.4L301.265 1171.73L294.421 1273.27L269.718 1263.84L275.774 1161.22C277.267 1161.35 278.763 1161.74 280.255 1162.4ZM268.994 1276.1L293.597 1285.49L286.978 1383.67L263.101 1375.95L268.994 1276.1ZM262.378 1388.2L286.155 1395.88L279.743 1491.01L256.675 1484.82L262.378 1388.2ZM255.952 1497.07L278.919 1503.23L272.7 1595.48L250.428 1590.66L255.952 1497.07ZM249.703 1602.95L271.873 1607.75L265.831 1697.39L244.342 1693.78L249.703 1602.95ZM243.615 1706.1L265.002 1709.69L259.126 1796.85L238.407 1794.33L243.615 1706.1ZM237.676 1806.72L258.292 1809.23L252.568 1894.14L232.608 1892.58L237.676 1806.72ZM231.878 1904.96L251.734 1906.51L246.152 1989.32L226.94 1988.61L231.878 1904.96ZM226.209 2001L245.317 2001.7L239.866 2082.57L221.393 2082.61L226.209 2001ZM220.661 2095.01L239.03 2094.97L233.705 2173.97L215.959 2174.67L220.661 2095.01ZM215.223 2187.14L232.863 2186.45L91.4284 4284.59L215.223 2187.14ZM74.937 4564L87.4082 4352.7C86.9828 4406.25 99.8172 4454.82 118.396 4465.64L1248.92 5124.34C1258.85 5130.13 1268.96 5124.39 1277.43 5108.22C1286.13 5091.57 1292.03 5066.02 1294.04 5036.18L1489.47 2137.04L1496.34 2136.77L1315.67 5198.04C1314 5226.08 1308.4 5251.07 1300.25 5266.64L1300.26 5266.69C1292.75 5281.04 1283.74 5286.48 1274.88 5281.94L103.763 4683.43C84.5568 4673.65 71.6289 4620.06 74.937 4564ZM1497.07 2124.27L1490.31 2124.54L1492.49 2092.21L1498.97 2092.19L1497.07 2124.27ZM1499.7 2079.79L1493.33 2079.81L1495.48 2047.86L1501.57 2048.09L1499.7 2079.79ZM1502.3 2035.71L1496.31 2035.49L1498.44 2003.98L1504.15 2004.43L1502.3 2035.71ZM1504.88 1992.01L1499.27 1991.57L1501.37 1960.49L1506.7 1961.14L1504.88 1992.01ZM1507.43 1948.81L1502.2 1948.17L1504.26 1917.56L1508.01 1918.19C1508.42 1918.26 1508.82 1918.34 1509.22 1918.45L1507.43 1948.81ZM1508.23 1905.78L1505.09 1905.26L1507.1 1875.44C1508.63 1876.02 1510.14 1876.84 1511.61 1877.89L1509.95 1906.16C1509.38 1906 1508.81 1905.88 1508.23 1905.78ZM1512.34 1865.58C1510.89 1864.58 1509.42 1863.77 1507.93 1863.18L1509.77 1835.9C1511.15 1837.14 1512.51 1838.6 1513.83 1840.27L1512.34 1865.58ZM1514.57 1827.74C1513.27 1826.2 1511.94 1824.85 1510.59 1823.68L1512.19 1799.94C1513.45 1801.86 1514.66 1803.98 1515.84 1806.29L1514.57 1827.74ZM1516.62 1793.04C1515.46 1790.96 1514.27 1789.05 1513.04 1787.31L1514.31 1768.47C1515.44 1771.21 1516.53 1774.16 1517.55 1777.29L1516.62 1793.04ZM1518.09 1761.6C1517.17 1759.21 1516.22 1756.94 1515.23 1754.81L1516 1743.37C1516.73 1746.28 1517.41 1749.29 1518.03 1752.39C1518.1 1755.44 1518.12 1758.51 1518.09 1761.6ZM271.417 1161.63C265.547 1163.21 259.86 1168.95 254.858 1178.51C246.176 1195.13 240.333 1221.77 238.804 1251.76L238.752 1252.78C240.298 1252.86 241.848 1253.2 243.394 1253.79L265.481 1262.22L271.417 1161.63ZM264.757 1274.48L242.852 1266.12C241.275 1265.52 239.693 1265.21 238.117 1265.19L232.945 1366.21L258.85 1374.58L264.757 1274.48ZM258.127 1386.83L232.317 1378.48L227.277 1476.94L252.412 1483.68L258.127 1386.83ZM251.689 1495.92L226.649 1489.2L221.773 1584.46L246.153 1589.74L251.689 1495.92ZM245.428 1602.02L221.142 1596.76L216.416 1689.1L240.055 1693.06L245.428 1602.02ZM239.328 1705.38L215.784 1701.43L211.198 1791.02L234.11 1793.81L239.328 1705.38ZM233.378 1806.2L210.563 1803.42L206.105 1890.51L228.3 1892.25L233.378 1806.2ZM227.57 1904.62L205.471 1902.89L201.131 1987.66L222.623 1988.46L227.57 1904.62ZM221.892 2000.84L200.497 2000.05L196.268 2082.66L217.066 2082.62L221.892 2000.84ZM216.334 2095.02L195.633 2095.06L191.509 2175.63L211.624 2174.84L216.334 2095.02ZM210.887 2187.31L190.87 2188.1L57.5711 4791.98C54.6057 4850.09 68.3717 4904.55 88.2487 4913.39L1299.98 5451.69C1308.86 5455.65 1317.89 5449.91 1325.4 5435.55L1325.37 5435.54C1334.04 5418.96 1339.89 5392.29 1341.43 5362.34L1506.58 2136.37L1500.64 2136.6L1319.83 5200.22C1317.98 5231.62 1311.69 5259.62 1302.57 5277.09C1294.15 5293.2 1284.05 5299.26 1274.13 5294.18L103.012 4695.66C81.5216 4684.68 67.0469 4624.62 70.7569 4561.85L210.887 2187.31ZM1501.38 2124.1L1507.22 2123.87L1508.84 2092.17L1503.26 2092.18L1501.38 2124.1ZM1503.99 2079.78L1509.48 2079.77L1511.08 2048.44L1505.85 2048.25L1503.99 2079.78ZM1506.58 2035.87L1511.71 2036.05L1513.3 2005.14L1508.42 2004.76L1506.58 2035.87ZM1509.15 1992.34L1513.93 1992.71L1515.46 1962.81C1514.06 1962.24 1512.63 1961.87 1511.2 1961.69L1510.96 1961.66L1509.15 1992.34ZM1511.69 1949.33C1513.17 1949.54 1514.64 1949.94 1516.09 1950.54L1517.5 1922.96C1516.17 1921.82 1514.8 1920.87 1513.42 1920.11L1511.69 1949.33ZM1514.14 1907.87C1515.49 1908.6 1516.83 1909.51 1518.14 1910.58L1519.4 1885.91C1518.19 1884.25 1516.96 1882.76 1515.7 1881.45L1514.14 1907.87ZM1516.43 1869.01C1517.66 1870.23 1518.87 1871.6 1520.06 1873.11L1521.12 1852.24C1520.05 1850 1518.93 1847.93 1517.79 1846.02L1516.43 1869.01ZM1518.55 1833.12C1519.67 1834.83 1520.76 1836.69 1521.82 1838.68L1522.61 1823.23C1521.66 1820.26 1520.67 1817.44 1519.63 1814.8L1518.55 1833.12ZM1520.46 1800.76C1521.35 1802.78 1522.22 1804.91 1523.07 1807.14C1523.08 1804.18 1523.04 1801.23 1522.96 1798.31C1522.39 1795.43 1521.77 1792.62 1521.1 1789.87L1520.46 1800.76ZM217.409 1283.07C222.36 1273.6 227.974 1267.76 233.777 1265.87L228.711 1364.84L205.913 1357.47C204.254 1356.93 202.592 1356.69 200.935 1356.72C202.675 1326.56 208.623 1299.91 217.409 1283.07ZM205.439 1369.8L228.083 1377.12L223.031 1475.8L196 1468.55L200.36 1369.14C202.05 1369.03 203.746 1369.25 205.439 1369.8ZM195.46 1480.84L222.403 1488.07L217.516 1583.54L191.205 1577.84L195.46 1480.84ZM190.665 1590.16L216.886 1595.84L212.149 1688.38L186.544 1684.09L190.665 1590.16ZM186.002 1696.44L211.518 1700.72L206.922 1790.5L182.009 1787.46L186.002 1696.44ZM181.465 1799.88L206.287 1802.9L201.82 1890.18L177.586 1888.28L181.465 1799.88ZM177.043 1900.67L201.186 1902.56L196.838 1987.5L173.272 1986.63L177.043 1900.67ZM172.729 1999.02L196.204 1999.89L191.966 2082.67L169.057 2082.72L172.729 1999.02ZM168.513 2095.12L191.331 2095.07L187.199 2175.8L164.935 2176.67L168.513 2095.12ZM164.388 2189.14L186.561 2188.27L53.3698 4790.22C50.0394 4855.09 65.4131 4915.89 87.6132 4925.72L1299.35 5464.02C1309.26 5468.43 1319.35 5462.02 1327.71 5446C1337.4 5427.47 1343.92 5397.66 1345.64 5364.23L1510.88 2136.2L1515.97 2136L1367.23 5526.65C1365.82 5558.55 1359.73 5586.91 1350.54 5604.54C1343.03 5618.89 1334 5624.91 1325.09 5621.49L72.7454 5143.4C52.1675 5135.55 37.5522 5080.18 40.2014 5020.04L164.388 2189.14ZM1516.52 2123.51L1511.52 2123.7L1513.13 2092.16L1517.89 2092.15L1516.52 2123.51ZM1518.44 2079.75L1513.77 2079.76L1515.36 2048.6L1517.57 2048.68C1518.31 2048.71 1519.05 2048.79 1519.79 2048.92L1518.44 2079.75ZM1517.63 2036.27L1516 2036.21L1517.56 2005.79C1518.92 2006.18 1520.27 2006.74 1521.61 2007.47L1520.33 2036.58C1519.44 2036.41 1518.54 2036.31 1517.63 2036.27ZM1522.15 1995.09C1520.84 1994.39 1519.52 1993.85 1518.19 1993.45L1519.64 1965.11C1520.89 1965.98 1522.12 1967.01 1523.33 1968.2L1522.15 1995.09ZM1523.88 1955.67C1522.69 1954.57 1521.49 1953.61 1520.27 1952.79L1521.58 1927.12C1522.73 1928.48 1523.85 1929.98 1524.94 1931.61L1523.88 1955.67ZM1525.51 1918.61C1524.44 1917.13 1523.34 1915.76 1522.23 1914.52L1523.37 1892.18C1524.41 1894.05 1525.42 1896.05 1526.4 1898.18L1525.51 1918.61ZM1527.01 1884.24C1526.05 1882.35 1525.06 1880.58 1524.05 1878.93L1524.95 1861.27C1525.9 1863.79 1526.8 1866.45 1527.67 1869.25L1527.01 1884.24ZM1528.06 1852.8C1527.29 1850.72 1526.5 1848.73 1525.69 1846.83L1526.23 1836.42C1526.83 1838.99 1527.4 1841.62 1527.93 1844.3C1528.01 1847.12 1528.05 1849.96 1528.06 1852.8ZM196.037 1370.12C190.328 1372.35 184.819 1378.27 179.963 1387.55C171.135 1404.45 165.132 1430.73 163.141 1460.64C164.892 1460.51 166.657 1460.68 168.432 1461.15L191.769 1467.41L196.037 1370.12ZM191.23 1479.7L168.052 1473.49C166.2 1473 164.36 1472.87 162.54 1473.1L158.922 1570.85L186.965 1576.92L191.23 1479.7ZM186.424 1589.24L158.465 1583.19L154.927 1678.78L182.295 1683.38L186.424 1589.24ZM181.753 1695.72L154.469 1691.15L151.044 1783.7L177.751 1786.95L181.753 1695.72ZM177.207 1799.36L150.584 1796.12L147.261 1885.91L173.321 1887.95L177.207 1799.36ZM172.777 1900.34L146.802 1898.31L143.573 1985.54L168.998 1986.48L172.777 1900.34ZM168.455 1998.86L143.115 1997.93L139.974 2082.79L164.776 2082.73L168.455 1998.86ZM164.232 2095.13L139.515 2095.19L136.457 2177.79L160.647 2176.84L164.232 2095.13ZM160.1 2189.31L135.996 2190.26L22.8204 5248.06C21.715 5278.17 24.6689 5307.78 31.1783 5331.48C37.6768 5355.14 46.9361 5370.02 57.2571 5373.37L1350.2 5791.28C1359.14 5794.17 1368.2 5787.89 1375.68 5773.53L1375.71 5773.54C1385.46 5754.88 1391.76 5724.77 1393.02 5690.97L1524.6 2135.67C1524.39 2135.67 1524.18 2135.68 1523.97 2135.69L1520.26 2135.83L1371.44 5528.27C1369.88 5563.78 1363.12 5595.32 1352.87 5614.95C1344.54 5630.91 1334.47 5637.61 1324.55 5633.83L72.2188 5155.7C49.3136 5146.95 33.056 5085.37 35.9916 5018.43L160.1 2189.31ZM1520.81 2123.34L1523.9 2123.22C1524.28 2123.2 1524.67 2123.2 1525.06 2123.21L1526.18 2093.01C1524.85 2092.58 1523.52 2092.31 1522.17 2092.2L1520.81 2123.34ZM1522.71 2079.84C1524.03 2079.98 1525.34 2080.26 1526.63 2080.68L1527.68 2052.33C1526.48 2051.49 1525.25 2050.79 1524.01 2050.23L1522.71 2079.84ZM1524.55 2037.91C1525.76 2038.45 1526.96 2039.11 1528.14 2039.89L1529.11 2013.61C1528.01 2012.4 1526.9 2011.31 1525.76 2010.35L1524.55 2037.91ZM1526.31 1997.87C1527.42 1998.76 1528.51 1999.76 1529.59 2000.87L1530.46 1977.31C1529.46 1975.71 1528.44 1974.23 1527.41 1972.86L1526.31 1997.87ZM1527.97 1960.04C1528.98 1961.28 1529.97 1962.61 1530.95 1964.05L1531.68 1944.2C1530.79 1942.16 1529.87 1940.23 1528.92 1938.4L1527.97 1960.04ZM1529.51 1924.86C1530.43 1926.47 1531.33 1928.16 1532.21 1929.95L1532.75 1915.29C1531.96 1912.65 1531.13 1910.13 1530.26 1907.72L1529.51 1924.86ZM1530.92 1892.78C1531.65 1894.56 1532.37 1896.42 1533.06 1898.35C1533.05 1895.69 1533 1893.04 1532.92 1890.41C1532.43 1887.89 1531.9 1885.42 1531.35 1883L1530.92 1892.78ZM142.518 1492.04C147.353 1482.78 152.676 1476.83 158.247 1474.33L154.708 1569.94L130.941 1564.79C129.069 1564.4 127.209 1564.33 125.366 1564.58C127.589 1534.9 133.655 1508.97 142.518 1492.04ZM130.639 1577.16L154.251 1582.28L150.704 1678.08L121.72 1673.21L124.591 1579.34C124.613 1578.6 124.639 1577.85 124.666 1577.11C126.637 1576.72 128.631 1576.73 130.639 1577.16ZM121.342 1685.59L150.247 1690.44L146.813 1783.18L118.463 1779.73L121.342 1685.59ZM118.083 1792.17L146.353 1795.61L143.023 1885.58L115.293 1883.41L118.083 1792.17ZM114.914 1895.81L142.564 1897.97L139.328 1985.38L112.206 1984.38L114.914 1895.81ZM111.827 1996.77L138.869 1997.77L135.722 2082.8L109.194 2082.85L111.827 1996.77ZM108.815 2095.26L135.263 2095.2L132.199 2177.96L106.255 2178.98L108.815 2095.26ZM105.874 2191.44L131.738 2190.43L18.5979 5246.67C17.3612 5280.1 20.6568 5312.97 27.869 5339.24C35.1074 5365.52 45.3802 5381.99 56.8091 5385.71L1349.76 5803.63C1359.67 5806.82 1369.71 5799.83 1378.03 5783.91C1388.85 5763.21 1395.85 5729.82 1397.23 5692.31L1528.86 2136.19C1530.07 2136.49 1531.27 2136.92 1532.46 2137.47L1418.79 5855.27C1417.69 5891.03 1411.16 5922.88 1400.86 5942.57L1400.83 5942.56C1393.25 5957.15 1384.4 5963.52 1375.32 5961.08L41.7534 5603.38C31.0992 5600.46 21.4563 5585.7 14.6041 5561.65C7.75202 5537.59 4.49214 5507.2 5.43936 5476.07L105.874 2191.44ZM1532.84 2125.02C1531.67 2124.5 1530.5 2124.09 1529.32 2123.79L1530.39 2094.95C1531.5 2095.61 1532.6 2096.38 1533.68 2097.27L1532.84 2125.02ZM1534.07 2084.72C1533 2083.91 1531.93 2083.19 1530.85 2082.57L1531.84 2055.82C1532.86 2056.83 1533.86 2057.95 1534.85 2059.16L1534.07 2084.72ZM1535.25 2046.22C1534.28 2045.13 1533.3 2044.11 1532.31 2043.19L1533.21 2018.81C1534.14 2020.16 1535.05 2021.6 1535.95 2023.14L1535.25 2046.22ZM1536.37 2009.58C1535.49 2008.21 1534.6 2006.92 1533.69 2005.71L1534.47 1984.62C1535.32 1986.36 1536.15 1988.19 1536.96 1990.11L1536.37 2009.58ZM1537.41 1975.5C1536.62 1973.84 1535.81 1972.24 1534.99 1970.73L1535.6 1954.28C1536.38 1956.54 1537.12 1958.9 1537.84 1961.33L1537.41 1975.5ZM1538.07 1944.03C1537.45 1942.28 1536.82 1940.58 1536.16 1938.93L1536.51 1929.73C1537 1931.95 1537.47 1934.21 1537.91 1936.51C1537.99 1939 1538.04 1941.51 1538.07 1944.03ZM120.353 1578.65C114.939 1581.43 109.77 1587.4 105.067 1596.4C96.1784 1613.41 90.0367 1639.05 87.6048 1668.52C89.5393 1668.15 91.4935 1668.14 93.4595 1668.47L117.483 1672.5L120.353 1578.65ZM117.105 1684.88L93.2101 1680.87C91.0545 1680.51 88.9137 1680.62 86.8007 1681.19C86.6917 1683.61 86.6071 1686.06 86.5475 1688.52L84.413 1775.58L114.22 1779.21L117.105 1684.88ZM113.839 1791.65L84.1078 1788.03L81.8334 1880.8L111.043 1883.08L113.839 1791.65ZM110.664 1895.48L81.5293 1893.2L79.3238 1983.16L107.951 1984.22L110.664 1895.48ZM107.572 1996.62L79.0198 1995.56L76.878 2082.93L104.934 2082.86L107.572 1996.62ZM104.555 2095.26L76.5739 2095.33L74.4922 2180.23L101.99 2179.15L104.555 2095.26ZM101.609 2191.61L74.1868 2192.69L-11.9038 5704.14C-13.5296 5770.49 3.60455 5828.4 26.307 5833.33L1400.47 6130.86C1409.58 6132.84 1418.43 6126.19 1426.06 6111.58L1426.04 6111.62C1436.89 6090.85 1443.64 6057.31 1444.57 6019.54L1539.62 2142.48C1538.63 2141.54 1537.63 2140.7 1536.61 2139.96L1422.99 5856.29C1421.78 5895.93 1414.55 5931.09 1403.17 5952.89C1394.75 5968.96 1385 5976.09 1374.93 5973.41L41.3772 5615.64C29.5915 5612.53 18.9132 5596.11 11.3276 5569.54C3.75743 5542.94 0.140648 5509.32 1.20402 5474.91L101.609 2191.61ZM1537 2127.4C1537.98 2128.09 1538.97 2128.86 1539.94 2129.71L1540.55 2104.59C1539.65 2103.38 1538.73 2102.26 1537.8 2101.22L1537 2127.4ZM1538.19 2088.44C1539.09 2089.38 1539.99 2090.39 1540.87 2091.48L1541.42 2069.09C1540.6 2067.59 1539.76 2066.17 1538.91 2064.82L1538.19 2088.44ZM1539.32 2051.46C1540.15 2052.65 1540.96 2053.91 1541.76 2055.23L1542.23 2036.13C1541.49 2034.3 1540.73 2032.54 1539.95 2030.85L1539.32 2051.46ZM1540.38 2016.58C1541.13 2018.04 1541.87 2019.56 1542.6 2021.14L1542.94 2007.28C1542.51 2005.79 1542.07 2004.33 1541.61 2002.9C1541.37 2002.12 1541.12 2001.36 1540.87 2000.6L1540.38 2016.58ZM1541.36 1984.79C1541.94 1986.33 1542.52 1987.91 1543.09 1989.54C1543.05 1987.23 1542.99 1984.93 1542.91 1982.64C1542.5 1980.47 1542.07 1978.33 1541.62 1976.24L1541.36 1984.79ZM67.5844 1700.83C72.1567 1692.08 77.1724 1686.1 82.4237 1683.04C82.3685 1684.56 82.322 1686.09 82.2841 1687.63L80.1408 1775.06L55.9939 1772.12C53.9243 1771.88 51.8681 1772.02 49.8342 1772.53C52.5209 1743.39 58.808 1717.63 67.5844 1700.83ZM55.8078 1784.59L79.8356 1787.51L77.557 1880.47L46.9368 1878.07L48.447 1797.76C48.5259 1793.57 48.678 1789.43 48.9002 1785.32C51.1744 1784.56 53.4822 1784.31 55.8078 1784.59ZM46.7035 1890.48L77.253 1892.87L75.0434 1983.01L44.9844 1981.9L46.7035 1890.48ZM44.7512 1994.3L74.7395 1995.4L72.5937 2082.93L43.0831 2083L44.7512 1994.3ZM42.8499 2095.4L72.2897 2095.34L70.2045 2180.4L41.2301 2181.54L42.8499 2095.4ZM40.9959 2193.99L69.8992 2192.86L-16.152 5703.22C-17.9293 5776.36 0.964772 5840.29 26.0051 5845.71L1400.17 6143.23C1410.23 6145.43 1419.98 6138.11 1428.39 6121.99C1440.35 6099.09 1447.8 6062.07 1448.82 6020.39L1543.77 2146.99C1544.6 2148.02 1545.41 2149.11 1546.22 2150.27L1470.36 6183.73C1469.62 6222.93 1462.46 6259.14 1451.22 6280.66C1443.59 6295.27 1434.71 6302.18 1425.58 6300.65L10.7924 6063.3C-0.525358 6061.44 -10.9489 6046.7 -18.5279 6021.94C-26.096 5997.23 -29.9309 5965.35 -29.3 5932.19L40.9959 2193.99ZM1546.47 2136.84C1545.69 2135.81 1544.89 2134.83 1544.09 2133.91L1544.66 2110.79C1545.41 2112.07 1546.15 2113.41 1546.88 2114.81L1546.47 2136.84ZM1547.15 2100.7C1546.44 2099.47 1545.72 2098.3 1544.99 2097.18L1545.48 2077.37C1546.17 2078.94 1546.84 2080.57 1547.5 2082.25L1547.15 2100.7ZM1547.78 2066.87C1547.15 2065.44 1546.5 2064.06 1545.84 2062.71L1546.22 2047.24C1546.85 2049.22 1547.46 2051.25 1548.04 2053.32L1547.78 2066.87ZM1548.1 2035.1C1547.62 2033.67 1547.12 2032.27 1546.62 2030.91L1546.81 2022.92C1547.2 2024.73 1547.56 2026.56 1547.91 2028.42C1547.99 2030.63 1548.06 2032.86 1548.1 2035.1ZM44.5106 1787.48C39.4132 1790.77 34.5469 1796.75 30.1022 1805.26C21.2968 1822.09 14.9582 1847.58 12.0737 1876.56C14.2012 1875.92 16.3545 1875.68 18.5236 1875.85L42.6955 1877.74L44.2122 1797.07C44.2726 1793.85 44.3725 1790.65 44.5106 1787.48ZM42.4623 1890.15L18.3941 1888.27C15.9138 1888.08 13.4546 1888.47 11.0354 1889.44C10.6757 1895.23 10.4511 1901.12 10.3687 1907.08L9.38297 1980.58L40.7404 1981.74L42.4623 1890.15ZM40.5072 1994.14L9.21661 1992.98L8.00839 2083.08L38.8364 2083.01L40.5072 1994.14ZM38.6033 2095.41L7.84201 2095.48L6.66952 2182.9L36.9807 2181.71L38.6033 2095.41ZM36.7467 2194.16L6.50255 2195.35L-46.674 6160.32C-47.1163 6194.44 -43.0012 6227.08 -35.0796 6252.19C-27.1469 6277.36 -16.3398 6291.96 -4.6628 6293.4L1450.71 6470.53C1459.88 6471.65 1468.77 6464.51 1476.42 6449.87L1476.42 6449.79C1488.23 6427.21 1495.6 6389.13 1496.15 6347.97L1552.32 2160.75C1551.67 2159.44 1551.01 2158.17 1550.34 2156.96L1474.6 6184.46C1473.81 6227.55 1465.92 6267.38 1453.57 6291.04C1445.17 6307.12 1435.42 6314.72 1425.37 6313.03L10.5996 6075.64C-1.87614 6073.58 -13.3327 6057.37 -21.6601 6030.14C-29.9988 6002.86 -34.221 5967.82 -33.5154 5931.39L36.7467 2194.16ZM1550.6 2142.96C1551.25 2144.02 1551.89 2145.12 1552.52 2146.26L1552.76 2128.11C1552.17 2126.56 1551.58 2125.05 1550.97 2123.59L1550.6 2142.96ZM1551.25 2108.58C1551.83 2109.82 1552.41 2111.1 1552.97 2112.41L1553.15 2099.45C1552.62 2097.55 1552.08 2095.69 1551.52 2093.88L1551.25 2108.58ZM1551.84 2077.02C1552.28 2078.24 1552.71 2079.48 1553.14 2080.75C1553.09 2078.7 1553.03 2076.66 1552.94 2074.62C1552.64 2072.95 1552.31 2071.3 1551.98 2069.66L1551.84 2077.02ZM-7.38709 1909.57C-3.06968 1901.3 1.64666 1895.36 6.5891 1891.88C6.34963 1896.69 6.19537 1901.56 6.12972 1906.47L5.13765 1980.42L-18.957 1979.53C-21.2255 1979.44 -23.4778 1979.79 -25.7018 1980.57C-22.6437 1951.75 -16.2338 1926.5 -7.38709 1909.57ZM-19.019 1991.94L4.97117 1992.83L3.76041 2083.09L-28.2577 2083.16L-27.7013 2016.25C-27.6376 2008.55 -27.3438 2000.97 -26.8341 1993.56C-24.2682 1992.38 -21.6557 1991.84 -19.019 1991.94ZM-28.3608 2095.56L3.59401 2095.49L2.41914 2183.07L-29.0988 2184.31L-28.3608 2095.56ZM-29.2023 2196.75L2.25215 2195.52L-50.9284 6159.75C-51.4344 6197.17 -46.9167 6232.94 -38.2053 6260.51C-29.5088 6288.12 -17.6534 6304.16 -4.84028 6305.72L1450.53 6482.85C1460.6 6484.03 1470.36 6476.21 1478.74 6460.16C1491.68 6435.41 1499.77 6393.67 1500.37 6348.49L1556.42 2169.99C1556.96 2171.33 1557.49 2172.71 1558 2174.12L1521.95 6512.28C1521.58 6555.42 1513.99 6595.31 1501.63 6618.97L1501.61 6618.95C1493.94 6633.58 1485.03 6640.95 1475.83 6640.25L-20.1624 6523.33C-44.9675 6521.4 -64.6536 6460.83 -64.0552 6388.34L-29.2023 2196.75ZM1558.14 2157.98C1557.64 2156.8 1557.14 2155.64 1556.63 2154.52L1556.82 2140.23C1557.31 2141.88 1557.78 2143.55 1558.24 2145.25L1558.14 2157.98ZM1557.43 2124.01C1557.31 2123.65 1557.18 2123.28 1557.05 2122.92L1557.14 2116.45C1557.42 2117.86 1557.7 2119.29 1557.96 2120.74C1558.03 2122.53 1558.1 2124.33 1558.15 2126.14C1557.91 2125.42 1557.67 2124.71 1557.43 2124.01ZM-31.3019 1996.27C-36.0999 1999.92 -40.6775 2005.83 -44.8757 2013.87C-53.7683 2030.88 -60.2415 2055.93 -63.4622 2084.61C-61.1481 2083.69 -58.8022 2083.22 -56.4382 2083.22L-32.4871 2083.17L-31.9272 2015.88C-31.8715 2009.26 -31.6607 2002.71 -31.3019 1996.27ZM-32.5905 2095.57L-56.4325 2095.62C-59.2205 2095.63 -61.9808 2096.34 -64.6878 2097.73C-65.3642 2106.74 -65.7294 2116.03 -65.7599 2125.46L-65.9705 2185.76L-33.3305 2184.47L-32.5905 2095.57ZM-33.4342 2196.92L-66.0138 2198.2L-81.4355 6616.35C-81.5616 6652.5 -76.8564 6686.6 -68.212 6712.49C-59.5676 6738.38 -47.9868 6752.85 -35.6243 6753.32L1500.96 6810.06C1510.19 6810.38 1519.12 6802.82 1526.82 6788.13C1539.74 6763.41 1547.57 6721.67 1547.73 6676.55L1563.36 2191.26C1562.96 2189.76 1562.55 2188.28 1562.13 2186.82L1526.16 6512.6C1525.77 6559.85 1517.45 6603.48 1503.93 6629.32C1495.54 6645.33 1485.8 6653.44 1475.71 6652.63L-20.2768 6535.72C-47.4215 6533.57 -68.9935 6467.31 -68.3222 6387.99L-33.4342 2196.92ZM1562.28 2168.94L1562.33 2162.99C1562.55 2164.15 1562.77 2165.33 1562.99 2166.51C1563.06 2168.22 1563.13 2169.93 1563.18 2171.66C1562.89 2170.75 1562.59 2169.84 1562.28 2168.94ZM-82.3496 2118.15C-78.2779 2110.38 -73.8552 2104.53 -69.2224 2100.75C-69.7133 2108.77 -69.9802 2116.97 -70.0095 2125.28L-70.2205 2185.92L-93.9299 2186.86C-96.38 2186.96 -98.8116 2187.55 -101.209 2188.61C-97.8283 2160.09 -91.2899 2135.23 -82.3496 2118.15ZM-93.8457 2199.3L-70.2638 2198.37L-85.6371 6616.27C-85.7703 6655.67 -80.6512 6692.95 -71.1977 6721.19C-61.759 6749.46 -49.1257 6765.29 -35.6225 6765.8L1500.96 6822.54C1511.04 6822.9 1520.8 6814.61 1529.18 6798.55C1543.29 6771.54 1551.83 6726.02 1551.99 6676.7L1567.56 2209.93C1567.72 2210.77 1567.87 2211.61 1568.03 2212.46C1568.31 2218.57 1568.46 2224.77 1568.46 2231.03L1573.52 6840.75C1573.57 6887.93 1565.54 6931.5 1552.03 6957.31L1552.02 6957.34C1544.33 6972.07 1535.36 6979.85 1526.1 6979.87L-51.1016 6983.34C-77.3085 6983.41 -98.6971 6921.08 -98.7948 6844.45L-103.819 2234.68C-103.834 2223.49 -103.394 2212.5 -102.533 2201.9C-99.6882 2200.29 -96.7826 2199.41 -93.8457 2199.3ZM-107.128 2205.19C-107.768 2214.81 -108.093 2224.7 -108.081 2234.73L-103.046 6844.54C-102.954 6928 -79.6333 6995.92 -51.074 6995.83L1526.13 6992.36C1536.22 6992.34 1545.98 6983.77 1554.38 6967.76C1569.07 6939.61 1577.82 6892.15 1577.76 6840.81L1572.74 2252.42C1573.24 2260.28 1573.51 2268.31 1573.56 2276.46L1599.27 7005C1599.55 7054.14 1591.3 7099.6 1577.23 7126.52L1577.24 7126.56C1569.53 7141.33 1560.54 7149.36 1551.25 7149.72L-66.5526 7213.37C-79.601 7213.87 -91.9406 7199.51 -101.312 7172.92C-110.694 7146.28 -115.959 7110.66 -116.165 7072.51L-141.908 2343.96C-142.159 2294.84 -133.922 2249.41 -119.838 2222.45C-115.889 2214.88 -111.61 2209.09 -107.128 2205.19Z" fill="url(#paint0_radial_157_1657)" fill-opacity="0.1"/>
<defs>
<radialGradient id="paint0_radial_157_1657" cx="0" cy="0" r="1" gradientTransform="matrix(-720.289 -2923.19 1021.01 -2144.52 728.75 4400.41)" gradientUnits="userSpaceOnUse">
<stop stop-color="#C4C4C4"/>
<stop offset="1" stop-color="#5E5E5E"/>
</radialGradient>
</defs>
</svg>
