<svg width="1440" height="3647" viewBox="0 0 1440 3647" fill="none" xmlns="http://www.w3.org/2000/svg">
<path fill-rule="evenodd" clip-rule="evenodd" d="M598.465 5.16994C588.95 -2.34495 577.423 -1.63216 568.395 7.08666C564.316 11.0359 560.929 16.498 558.611 22.8704L547.677 53.0099C541.878 53.0315 536.101 55.4805 531.127 60.2754C526.565 64.7025 522.899 70.8696 520.504 78.174L511.444 105.878C505.302 105.725 499.18 108.27 493.853 113.404L493.868 113.388C488.797 118.286 484.832 125.213 482.402 133.44L474.941 158.757C468.5 158.517 462.065 161.133 456.546 166.465L456.535 166.442C450.966 171.835 446.728 179.528 444.285 188.721L438.243 211.489C431.59 211.198 424.984 213.908 419.232 219.465C413.123 225.361 408.623 233.842 406.194 244.009L401.369 264.233C394.537 263.977 387.757 266.764 381.881 272.436C375.351 278.746 370.454 288.26 368.092 299.275L364.318 316.904C357.36 316.725 350.456 319.603 344.524 325.346C337.469 332.143 332.317 342.507 330.005 354.524L327.127 369.555C320.096 369.509 313.122 372.486 307.14 378.249C299.542 385.589 294.149 396.786 291.929 409.795L289.822 422.14C282.749 422.204 275.836 425.258 269.761 431.115L269.776 431.099C261.623 438.959 255.96 451.021 253.842 465.045L252.377 474.723C245.309 474.965 238.417 478.099 232.36 483.936C223.662 492.338 217.77 505.256 215.755 520.295L214.821 527.288C207.791 527.739 200.948 530.954 194.947 536.733C185.828 545.549 179.518 559.693 177.668 575.543L177.164 579.86C170.204 580.509 163.438 583.794 157.524 589.509C147.834 598.861 141.302 613.922 139.597 630.777L139.427 632.453C132.558 633.31 125.896 636.655 120.075 642.279L120.086 642.301C110.026 651.995 103.32 667.555 101.599 685.061C94.8682 686.126 88.35 689.517 82.6405 695.032C72.5308 704.792 65.7523 720.174 63.7889 737.624C57.1859 738.834 50.8739 742.238 45.1841 747.74C35.0098 757.581 28.1501 772.811 25.9492 790.227C19.4814 791.615 13.307 795.056 7.72875 800.448L7.73305 800.41C-2.52773 810.324 -9.46144 825.455 -11.8841 842.814C-18.2221 844.346 -24.2735 847.818 -29.7495 853.112L-29.7385 853.134C-39.9037 862.931 -47.0195 878.24 -49.6897 895.45C-55.9064 897.133 -61.8403 900.622 -67.2165 905.798L-67.2274 905.775C-77.44 915.66 -84.6462 930.875 -87.5208 948.071C-93.6153 949.868 -99.4252 953.368 -104.695 958.461C-114.999 968.399 -122.266 983.517 -125.326 1000.68C-131.305 1002.59 -137.007 1006.1 -142.183 1011.1L-142.194 1011.08C-152.565 1021.1 -159.919 1036.17 -163.16 1053.32C-169.015 1055.33 -174.596 1058.84 -179.672 1063.74C-190.118 1073.82 -197.559 1088.82 -200.977 1105.94C-206.719 1108.04 -212.2 1111.54 -217.198 1116.36L-217.183 1116.34C-232.487 1131.13 -241.441 1156.05 -241.148 1183L-215.42 3569.4C-215.196 3590.3 -209.475 3609.87 -199.28 3624.46C-189.099 3639.07 -175.687 3646.94 -161.505 3646.65L1456.29 3614.53C1466.38 3614.32 1476.16 3609.92 1484.56 3601.82C1499.86 3587.07 1508.83 3562.14 1508.54 3535.18L1482.81 1148.79C1482.68 1136.75 1480.73 1125.16 1477.14 1114.7C1476.32 1106.57 1474.62 1098.75 1472.11 1091.49C1471.29 1083.26 1469.55 1075.45 1467.06 1068.3C1466.28 1060.13 1464.58 1052.28 1462.03 1045.02C1461.28 1036.89 1459.59 1029.06 1457.02 1021.83C1456.29 1013.62 1454.58 1005.82 1452.04 998.73C1451.36 990.496 1449.66 982.556 1447 975.256C1446.35 967.19 1444.68 959.404 1442.07 952.237C1441.45 944.042 1439.76 936.124 1437.07 928.862C1436.48 920.749 1434.81 912.9 1432.12 905.698C1431.56 897.419 1429.84 889.532 1427.17 882.462C1426.66 874.184 1424.95 866.285 1422.26 859.226C1421.8 851.067 1420.14 843.132 1417.34 835.889C1416.91 827.64 1415.21 819.743 1412.48 812.732C1412.12 804.58 1410.49 796.607 1407.62 789.349C1407.31 781.633 1405.81 774.058 1403.18 767.11C1403.04 766.742 1402.9 766.377 1402.75 766.016C1402.46 757.752 1400.78 749.78 1397.95 742.787C1397.72 734.495 1396.05 726.471 1393.18 719.466C1393 711.172 1391.34 703.118 1388.44 696.119C1388.31 687.845 1386.67 679.779 1383.74 672.796C1383.67 664.536 1382.05 656.447 1379.09 649.473C1379.09 633.947 1373.44 618.89 1363.53 611.04L598.465 5.16994ZM1374.09 640.514C1372.44 630.623 1368.06 621.75 1361.51 616.554L596.465 10.7279C588.325 4.27595 578.46 4.89378 570.74 12.3628C567.25 15.7212 564.355 20.3906 562.379 25.8553L552.342 53.5201C555.291 54.1809 558.191 55.4853 560.936 57.4444L1366.6 632.944C1369.41 634.952 1371.92 637.52 1374.09 640.514ZM550.212 59.3911C553.237 59.8289 556.241 61.0616 559.1 63.1012L1364.76 638.539C1368.93 641.53 1372.33 645.951 1374.8 651.208C1374.72 653.584 1374.49 655.963 1374.1 658.315C1372.71 657.002 1371.24 655.834 1369.69 654.831L530.328 114.193L550.212 59.3911ZM545.371 59.3671C541.21 59.9285 537.132 61.9931 533.461 65.5291C529.534 69.317 526.379 74.6366 524.313 80.9113L515.952 106.478C518.488 107.093 520.996 108.179 523.418 109.742L526.4 111.663L545.371 59.3671ZM524.395 117.189L521.735 115.475C519.241 113.866 516.641 112.842 514.018 112.393L495.887 167.835L504.259 172.694L524.395 117.189ZM502.252 178.227L494.046 173.465L475.975 228.722L482.666 232.216L502.252 178.227ZM486.737 234.341L506.253 180.55L1367.05 680.139L1362.82 691.815L486.737 234.341ZM480.642 237.796L474.121 234.391L456.581 288.025L461.571 290.365L480.642 237.796ZM465.707 292.304L484.712 239.921L1360.79 697.408L1356.26 709.892L465.707 292.304ZM459.534 295.981L454.718 293.723L437.657 345.892L440.929 347.266L459.534 295.981ZM445.127 349.029L463.67 297.921L1354.22 715.509L1349.41 728.758L445.127 349.029ZM438.882 352.909L435.787 351.61L419.173 402.415L420.713 402.992L438.882 352.909ZM424.969 404.587L443.079 354.672L1347.37 734.401L1342.31 748.324L424.969 404.587ZM418.651 408.676L417.292 408.166L403.16 451.378L418.651 408.676ZM405.199 459.08L422.907 410.271L1340.25 754.022L1334.97 768.571L405.199 459.08ZM385.796 512.558L403.127 464.79L1332.9 774.265L1327.4 789.434L385.796 512.558ZM366.739 565.082L383.71 518.307L1325.3 795.213L1319.63 810.851L366.739 565.082ZM358.998 586.419L364.626 570.907L1317.51 816.692L1311.65 832.842L348.997 617.002L358.998 586.419ZM300.751 746.961L305.213 734.664L299.823 752.953L296.315 763.678L300.751 746.961ZM296.758 744.68L288.82 766.562L286.139 766.199L296.758 721.692L302.605 722.645L296.758 744.68ZM322.871 672.699L313.883 697.476L320.575 672.256L322.871 672.699ZM326.088 663.831L325.016 666.785L322.172 666.237L334.422 620.077L338.7 621.036L326.088 663.831ZM355.342 583.192L350.783 595.759L358.567 569.345L359.769 569.655L355.342 583.192ZM286.649 772.548L280.737 788.845L284.688 772.282L286.649 772.548ZM275.735 815.911L283.634 794.14L277.797 816.137L275.735 815.911ZM271.484 827.629L273.542 821.955L276.177 822.243L271.938 838.214L263.355 864.46L262.71 864.405L271.484 827.629ZM267.531 825.245L268.449 821.398L260.969 820.581L251.787 863.481L253.605 863.635L267.531 825.245ZM251.395 869.725L250.467 869.647L249.091 876.077L251.395 869.725ZM242.164 908.439L256.067 870.121L256.811 870.184L246.857 911.907L241.493 911.578L242.164 908.439ZM238.201 906.095L236.327 911.261L227.919 910.744L236.023 868.424L246.083 869.276L238.201 906.095ZM234.093 917.419L219.242 958.357L218.805 958.34L226.728 916.967L234.093 917.419ZM223.986 958.544L231.275 938.452L226.95 958.661L223.986 958.544ZM212.932 989.009L221.741 964.731L225.618 964.884L216.991 1005.19L209.86 1005.05L212.932 989.009ZM208.951 986.725L202.352 1004.91L194.744 1004.77L201.713 963.941L213.227 964.395L208.951 986.725ZM200.096 1011.14L187.938 1044.65L193.678 1011.02L200.096 1011.14ZM190.453 1050.97L203.575 1014.8L196.651 1050.96L190.453 1050.97ZM183.667 1069.67L188.182 1057.23L195.453 1057.22L188.586 1093.08L187.574 1096.18L179.115 1096.34L183.667 1069.67ZM179.682 1067.41L181.418 1057.23L168.524 1057.25L162.554 1096.67L169.112 1096.54L179.682 1067.41ZM173.953 1096.45L175.411 1092.43L174.728 1096.43L173.953 1096.45ZM166.817 1102.87L161.6 1102.97L157.89 1127.48L166.817 1102.87ZM154.449 1150.2L171.657 1102.77L173.652 1102.73L160.795 1178.06L155.839 1193.21C153.031 1187.87 151.271 1181.51 150.711 1174.88L154.449 1150.2ZM150.412 1148.09L149.76 1149.89C146.918 1157.7 145.875 1166.25 146.416 1174.48L133.009 1263.02L132.321 1265.12C130.01 1272.19 129.079 1279.72 129.369 1287.06L115.583 1378.1L114.903 1380.41C113.057 1386.66 112.234 1393.2 112.325 1399.62L98.18 1493.03L97.4948 1495.61C96.0561 1501.03 95.3447 1506.61 95.2903 1512.11L80.7286 1608.28L80.103 1610.9C79.0271 1615.4 78.4284 1619.98 78.2676 1624.53L63.3901 1722.78L62.6833 1726.08C61.9013 1729.74 61.4198 1733.44 61.2184 1737.12L45.918 1838.16L45.3074 1841.35C44.8039 1843.99 44.4489 1846.64 44.2351 1849.28L30.3215 1941.16L142.221 1103.36L157.231 1103.06L150.412 1148.09ZM148.759 1187.77C150.005 1191.98 151.702 1195.92 153.816 1199.4L141.122 1238.21L148.759 1187.77ZM160.179 1207.28L152.273 1253.6L164.812 1211.06L161.843 1208.71C161.274 1208.26 160.72 1207.78 160.179 1207.28ZM169.675 1214.91L163.698 1246.12L171.58 1216.42L169.675 1214.91ZM173.048 1210.48L170.856 1208.74L172.197 1201.74L182.143 1167.99L173.048 1210.48ZM177.592 1221.18L154.596 1317.57L153.459 1322.88L953.955 1894.67C962.287 1900.62 971.847 1899.71 979.594 1892.25L979.583 1892.22C983.51 1888.44 986.665 1883.12 988.716 1876.86L1248.87 1081.4L1226.16 1081.85L966.747 1796.89C964.429 1803.26 961.042 1808.73 956.979 1812.66C947.951 1821.38 936.419 1822.13 926.897 1814.55L177.592 1221.18ZM1221.27 1081.95L962.984 1793.87C961.008 1799.33 958.123 1804.03 954.634 1807.38L954.629 1807.42C946.898 1814.87 937.034 1815.49 928.878 1809.05L179.017 1215.21L201.472 1121.09L206.515 1102.08L1221.27 1081.95ZM1228.46 1075.51L1250.94 1075.07L1257.17 1056.04L1235.52 1056.06L1228.46 1075.51ZM1230.66 1056.07L1223.57 1075.61L208.191 1095.77L218.426 1057.19L1230.66 1056.07ZM1237.79 1049.8L1259.21 1049.78L1265.36 1030.99L1244.76 1030.6L1237.79 1049.8ZM1239.93 1030.51L1232.93 1049.81L220.088 1050.93L230.498 1011.7L1239.93 1030.51ZM1247.01 1024.38L1267.4 1024.76L1273.46 1006.23L1253.88 1005.46L1247.01 1024.38ZM1249.09 1005.27L1242.19 1024.29L232.152 1005.47L242.743 965.56L1249.09 1005.27ZM1256.13 999.251L1275.49 1000.01L1281.47 981.74L1262.9 980.599L1256.13 999.251ZM1258.15 980.308L1251.34 999.062L244.391 959.349L251.268 933.432L255.598 918.74L1258.15 980.308ZM1265.12 974.464L1283.48 975.591L1289.36 957.595L1271.78 956.107L1265.12 974.464ZM1267.07 955.708L1260.37 974.172L257.421 912.556L269.589 871.266L1267.07 955.708ZM1273.99 950.013L1291.36 951.483L1297.13 933.83L1280.52 932.014L1273.99 950.013ZM1275.86 931.504L1269.28 949.614L271.394 865.141L283.791 823.075L1275.86 931.504ZM1282.73 925.943L1299.13 927.735L1304.8 910.388L1289.14 908.267L1282.73 925.943ZM1284.51 907.641L1278.06 925.433L285.585 816.988L298.22 774.114L1284.51 907.641ZM1291.32 902.266L1306.77 904.359L1312.34 887.342L1297.6 884.938L1291.32 902.266ZM1293.02 884.191L1286.69 901.64L300 768.076L303.726 755.433L313.849 724.479L1293.02 884.191ZM1299.75 879.007L1314.29 881.378L1319.73 864.754L1305.89 862.089L1299.75 879.007ZM1301.36 861.215L1295.17 878.26L315.803 718.502L330.313 674.132L1301.36 861.215ZM1308.03 856.19L1321.67 858.818L1326.97 842.604L1314.01 839.7L1308.03 856.19ZM1309.53 838.693L1303.5 855.317L332.26 668.181L347.064 622.911L1309.53 838.693ZM1316.14 833.848L1328.9 836.71L1334.05 820.958L1321.95 817.836L1316.14 833.848ZM1324.07 811.996L1335.98 815.068L1340.96 799.819L1329.69 796.503L1324.07 811.996ZM1331.78 790.723L1342.87 793.983L1347.71 779.193L1337.23 775.706L1331.78 790.723ZM1339.3 770.012L1349.59 773.438L1354.23 759.261L1344.52 755.623L1339.3 770.012ZM1346.58 749.925L1356.11 753.495L1360.55 739.937L1351.58 736.169L1346.58 749.925ZM1353.62 730.526L1362.42 734.219L1366.63 721.329L1358.37 717.453L1353.62 730.526ZM1360.4 711.836L1368.5 715.632L1372.46 703.505L1364.86 699.538L1360.4 711.836ZM1366.89 693.944L1374.32 697.822L1376.91 689.892C1377.15 689.173 1377.37 688.448 1377.57 687.719C1375.66 685.647 1373.54 683.904 1371.24 682.567L1371.06 682.465L1366.89 693.944ZM1373.08 676.9C1375.16 678.142 1377.1 679.67 1378.9 681.442C1379.23 679.169 1379.43 676.878 1379.48 674.595C1378.49 672.447 1377.35 670.432 1376.07 668.589C1375.93 669.022 1375.78 669.453 1375.62 669.882L1373.08 676.9ZM1372.68 664.427C1371.23 662.941 1369.67 661.642 1368 660.564L528.324 119.719L508.261 175.016L1369.07 674.573L1371.86 666.897C1372.15 666.082 1372.43 665.259 1372.68 664.427ZM1377.76 662.379C1378.06 662.771 1378.36 663.171 1378.65 663.579C1378.49 662.629 1378.29 661.69 1378.08 660.763C1377.98 661.303 1377.87 661.842 1377.76 662.379ZM166.509 1205.3L163.839 1203.19C162.943 1202.48 162.089 1201.7 161.276 1200.86L164.788 1180.28L181.919 1127.9L168.191 1199.59L166.509 1205.3ZM496.176 118.635C500.193 114.753 504.746 112.587 509.378 112.194L491.932 165.54L485.9 162.039C483.778 160.805 481.595 159.92 479.386 159.38L486.289 135.958C488.381 128.838 491.797 122.868 496.176 118.635ZM484.37 167.849L490.091 171.169L471.955 226.623L461.221 221.017L477.635 165.321C479.919 165.742 482.182 166.581 484.37 167.849ZM459.526 226.769L470.101 232.291L452.5 286.111L443.308 281.801L459.526 226.769ZM441.606 287.575L450.636 291.809L433.517 344.154L425.878 340.946L441.606 287.575ZM424.172 346.732L431.648 349.871L414.978 400.843L408.897 398.565L424.172 346.732ZM407.184 404.379L413.097 406.594L396.841 456.298L392.326 454.795L407.184 404.379ZM390.608 460.623L394.954 462.07L379.087 510.585L376.139 509.718L390.608 460.623ZM374.414 515.574L377.189 516.39L361.69 563.78L360.312 563.424L374.414 515.574ZM250.424 918.422L248.201 925.22L244.579 940.401L247.025 932.101L250.651 918.436L250.424 918.422ZM232.476 958.879L244.213 922.991L245.377 918.112L240.162 917.792L231.378 958.836L232.476 958.879ZM260.921 871.902L261.357 870.569L261.242 870.559L260.921 871.902ZM229.271 968.679L230.45 965.075L230.046 965.059L229.271 968.679ZM231.493 976.311L222.019 1005.28L224.57 1005.33L231.493 976.311ZM208.665 1011.29L215.293 1011.42L202.364 1050.95L201.07 1050.96L208.665 1011.29ZM207.407 1049.96L207.084 1050.95L207.195 1050.95L207.407 1049.96ZM199.872 1057.21L200.316 1057.21L199.244 1060.49L199.872 1057.21ZM205.037 1057.21L192.577 1095.31L192.429 1096.08L197.557 1095.98L205.856 1057.21L205.037 1057.21ZM169.941 1150.09L185.506 1102.5L178.039 1102.65L169.941 1150.09ZM155.641 1208.25L137.05 1265.1L133.65 1287.56C133.974 1293.5 135.231 1299.27 137.308 1304.38L141.881 1288.87L155.641 1208.25ZM135.3 1311.2C133.772 1308.15 132.518 1304.84 131.56 1301.36L124.544 1347.69L135.3 1311.2ZM135.257 1353.3L140.975 1319.8C141.768 1320.71 142.597 1321.58 143.462 1322.38L135.257 1353.3ZM129.883 1433.03L152.168 1328.91L952.108 1900.31C961.636 1907.09 973.056 1906.02 981.917 1897.48C986.49 1893.07 990.156 1886.91 992.551 1879.6L1253.63 1081.3L1273.51 1080.91L1014.48 1959.82C1012.39 1966.93 1008.96 1972.92 1004.59 1977.14L1004.61 1977.12C996.962 1984.51 987.424 1985.7 979.059 1980.3L132.792 1435.22C131.781 1434.57 130.81 1433.83 129.883 1433.03ZM1275.38 1074.58L1255.7 1074.97L1261.89 1056.03L1280.85 1056.01L1275.38 1074.58ZM1282.69 1049.75L1263.94 1049.77L1270.06 1031.07L1288.1 1031.41L1282.69 1049.75ZM1289.93 1025.18L1272.09 1024.85L1278.12 1006.41L1295.27 1007.09L1289.93 1025.18ZM1297.1 1000.87L1280.15 1000.2L1286.1 982.024L1302.36 983.023L1297.1 1000.87ZM1304.17 976.863L1288.11 975.876L1293.96 957.984L1309.35 959.287L1304.17 976.863ZM1311.16 953.159L1295.96 951.872L1301.7 934.328L1316.24 935.918L1311.16 953.159ZM1318.04 929.802L1303.69 928.234L1309.33 911L1323.04 912.856L1318.04 929.802ZM1324.82 906.802L1311.3 904.971L1316.82 888.073L1329.72 890.177L1324.82 906.802ZM1331.49 884.184L1318.77 882.11L1324.17 865.61L1336.28 867.943L1331.49 884.184ZM1338.04 861.971L1326.11 859.674L1331.37 843.591L1342.7 846.132L1338.04 861.971ZM1344.45 840.197L1333.3 837.696L1338.41 822.081L1348.99 824.811L1344.45 840.197ZM1350.74 818.875L1340.33 816.191L1345.27 801.086L1355.13 803.984L1350.74 818.875ZM1356.86 798.097L1347.18 795.25L1351.97 780.611L1361.12 783.656L1356.86 798.097ZM1362.83 777.845L1353.85 774.856L1358.43 760.838L1366.91 764.012L1362.83 777.845ZM1368.62 758.183L1360.32 755.072L1364.7 741.681L1372.52 744.964L1368.62 758.183ZM1374.23 739.178L1366.57 735.963L1370.73 723.249L1377.67 726.505C1377.76 726.545 1377.84 726.585 1377.92 726.626L1374.23 739.178ZM1378.96 720.539L1372.59 717.552L1376.46 705.718C1378.65 707.137 1380.67 708.92 1382.49 711C1382.33 711.632 1382.16 712.262 1381.97 712.888L1379.62 720.86C1379.4 720.75 1379.18 720.643 1378.96 720.539ZM1383.72 704.561C1382.04 702.84 1380.23 701.33 1378.31 700.067L1380.73 692.652C1380.8 692.444 1380.87 692.235 1380.94 692.026C1382.15 693.85 1383.24 695.828 1384.19 697.929C1384.16 700.135 1384.01 702.354 1383.72 704.561ZM1383.23 686.578C1383.01 686.264 1382.79 685.955 1382.56 685.65C1382.64 685.239 1382.71 684.827 1382.79 684.414C1382.95 685.129 1383.1 685.851 1383.23 686.578ZM142.126 1313.05C143.033 1314.27 144.006 1315.4 145.041 1316.43L147.836 1305.9L159.588 1244.52L145.89 1291L142.126 1313.05ZM473.091 165.034C468.097 165.318 463.176 167.571 458.895 171.702C454.064 176.381 450.394 183.062 448.276 191.027L442.676 212.13C444.6 212.604 446.514 213.332 448.397 214.321L457.209 218.922L473.091 165.034ZM455.514 224.674L446.978 220.216C445.041 219.204 443.069 218.506 441.088 218.115L426.304 273.828L439.24 279.894L455.514 224.674ZM437.538 285.667L424.753 279.672L410.236 334.378L421.757 339.216L437.538 285.667ZM420.052 345.002L408.683 340.228L394.622 393.216L404.727 397.002L420.052 345.002ZM403.013 402.816L393.064 399.088L379.421 450.5L388.108 453.391L403.013 402.816ZM386.39 459.219L377.861 456.381L364.607 506.327L371.877 508.465L386.39 459.219ZM370.151 514.32L363.041 512.229L350.151 560.803L356.007 562.314L370.151 514.32ZM354.262 568.234L348.568 566.766L336.01 614.09L340.454 615.086L354.262 568.234ZM198.467 1112.6L201.156 1103.47L197.646 1118.19L195.705 1125.5L198.467 1112.6ZM220.858 1020.89L212.001 1050.94L211.663 1050.94L220.104 1011.51L223.083 1011.56L220.858 1020.89ZM194.449 1110.5L180.801 1156.81L191.222 1102.39L196.206 1102.29L194.449 1110.5ZM119.641 1380.07L135.497 1326.27L122.995 1399.51L118.917 1414.88C117.526 1410.26 116.729 1405.26 116.599 1400.16L119.641 1380.07ZM114.35 1415.01C115.028 1417.65 115.868 1420.2 116.862 1422.62L108.327 1454.79L114.35 1415.01ZM121.848 1431.86L119.419 1446.09L122.574 1432.87C122.438 1432.69 122.304 1432.5 122.17 1432.32C122.062 1432.17 121.955 1432.02 121.848 1431.86ZM128.569 1439.17L111.126 1520.67L107.198 1541.18C109.932 1545.46 113.332 1548.94 117.282 1551.23L1004.15 2065.95C1012.56 2070.82 1022.07 2069.39 1029.62 2062.1L1029.61 2062.11C1034.45 2057.46 1038.12 2050.78 1040.24 2042.77L1295.6 1080.47L1278.17 1080.82L1018.37 1962.33C1015.94 1970.56 1011.98 1977.51 1006.91 1982.41C998.08 1990.92 987.016 1992.3 977.346 1986.07L131.078 1440.98C130.216 1440.43 129.38 1439.82 128.569 1439.17ZM1280.03 1074.49L1297.28 1074.15L1302.1 1055.99L1285.48 1056.01L1280.03 1074.49ZM1287.32 1049.75L1303.76 1049.73L1308.52 1031.79L1292.7 1031.5L1287.32 1049.75ZM1294.54 1025.27L1310.17 1025.56L1314.87 1007.86L1299.84 1007.27L1294.54 1025.27ZM1301.68 1001.05L1316.52 1001.63L1321.16 984.177L1306.91 983.302L1301.68 1001.05ZM1308.72 977.142L1322.79 978.007L1327.36 960.811L1313.87 959.67L1308.72 977.142ZM1315.68 953.541L1328.99 954.668L1333.46 937.8L1320.73 936.408L1315.68 953.541ZM1322.53 930.292L1335.09 931.665L1339.49 915.084L1327.49 913.459L1322.53 930.292ZM1329.27 907.405L1341.1 909.006L1345.42 892.738L1334.14 890.898L1329.27 907.405ZM1335.91 884.904L1347.02 886.717L1351.23 870.825L1340.66 868.787L1335.91 884.904ZM1342.42 862.816L1352.83 864.822L1356.94 849.323L1347.05 847.105L1342.42 862.816ZM1348.79 841.171L1358.53 843.352L1362.52 828.301L1353.29 825.92L1348.79 841.171ZM1355.04 819.984L1364.11 822.323L1367.97 807.761L1359.39 805.237L1355.04 819.984ZM1361.12 799.349L1369.54 801.826L1373.29 787.708L1365.33 785.059L1361.12 799.349ZM1367.04 779.248L1374.85 781.845L1378.43 768.332L1371.07 765.574L1367.04 779.248ZM1372.79 759.745L1380 762.444L1383.38 749.688C1382.58 749.242 1381.75 748.842 1380.92 748.491L1376.64 746.694L1372.79 759.745ZM1378.34 740.908L1382.07 742.472C1383.04 742.879 1383.99 743.344 1384.93 743.864L1387.05 735.868C1387.19 735.339 1387.32 734.809 1387.44 734.277C1385.74 732.242 1383.88 730.462 1381.86 728.993L1378.34 740.908ZM1383.55 723.241C1385.33 724.518 1387.01 726.006 1388.58 727.677C1388.83 725.554 1388.95 723.427 1388.96 721.312C1388.04 719.246 1387 717.293 1385.84 715.48L1383.55 723.241ZM1387.39 708.937C1387.56 709.161 1387.72 709.387 1387.88 709.615C1387.78 709.09 1387.67 708.567 1387.55 708.048C1387.5 708.345 1387.45 708.641 1387.39 708.937ZM124.132 1426.34C123.771 1425.78 123.421 1425.21 123.083 1424.63L126.978 1401.81L135.932 1368.07L127.384 1412.71L124.132 1426.34ZM421.566 224.718C426.134 220.307 431.313 217.953 436.58 217.757L422.211 271.908L410.894 266.602C409.199 265.808 407.482 265.215 405.757 264.818L410.221 246.106C412.333 237.229 416.256 229.837 421.566 224.718ZM409.602 272.568L420.66 277.753L406.096 332.639L391.081 326.334L404.32 270.841C406.095 271.178 407.862 271.752 409.602 272.568ZM389.671 332.244L404.543 338.49L390.437 391.648L376.724 386.509L389.671 332.244ZM375.31 392.435L388.879 397.52L375.194 449.093L362.779 444.96L375.31 392.435ZM361.365 450.89L373.634 454.974L360.34 505.072L349.218 501.802L361.365 450.89ZM347.8 507.747L358.774 510.974L345.846 559.693L336.012 557.157L347.8 507.747ZM334.58 563.158L344.264 565.655L331.669 613.117L323.118 611.199L334.58 563.158ZM321.682 617.22L330.081 619.103L317.797 665.394L310.523 663.993L321.682 617.22ZM309.08 670.042L316.2 671.413L304.207 716.61L298.204 715.631L309.08 670.042ZM153.433 1302.12L151.79 1308.31L149.755 1318.93L150.514 1315.75L153.433 1302.12ZM114.715 1448.02L102.224 1495.09L99.5604 1512.68C99.5506 1516.72 99.9463 1520.7 100.711 1524.51L104.041 1510.56L114.715 1448.02ZM98.545 1533.59C98.0154 1531.99 97.5468 1530.34 97.142 1528.65L92.656 1558.28L98.545 1533.59ZM86.5713 1648.89L105.882 1548.05C108.686 1551.8 111.986 1554.89 115.71 1557.05L1002.59 2071.75C1012.27 2077.39 1023.25 2075.73 1031.95 2067.33C1037.53 2061.96 1041.75 2054.24 1044.2 2045.05L1300.18 1080.38L1315.48 1080.08L1066.02 2125.75C1063.91 2134.59 1059.97 2142 1054.66 2147.12L1054.67 2147.1C1047.08 2154.44 1037.81 2156.09 1029.25 2151.62L101.767 1667.29C95.1485 1663.83 89.9088 1657.16 86.5713 1648.89ZM1316.98 1073.75L1301.85 1074.05L1306.65 1055.98L1321.23 1055.97L1316.98 1073.75ZM1322.72 1049.71L1308.31 1049.72L1313.05 1031.87L1326.91 1032.13L1322.72 1049.71ZM1328.4 1025.9L1314.7 1025.64L1319.37 1008.04L1332.54 1008.56L1328.4 1025.9ZM1334.03 1002.32L1321.03 1001.81L1325.63 984.452L1338.11 985.218L1334.03 1002.32ZM1339.58 979.038L1327.27 978.282L1331.8 961.188L1343.6 962.186L1339.58 979.038ZM1345.07 956.03L1333.43 955.045L1337.88 938.283L1349.01 939.5L1345.07 956.03ZM1350.48 933.346L1339.51 932.148L1343.88 915.678L1354.36 917.096L1350.48 933.346ZM1355.81 910.997L1345.49 909.6L1349.78 893.449L1359.62 895.053L1355.81 910.997ZM1361.06 889.007L1351.38 887.428L1355.56 871.659L1364.77 873.433L1361.06 889.007ZM1366.21 867.401L1357.15 865.655L1361.23 850.286L1369.84 852.214L1366.21 867.401ZM1371.27 846.21L1362.82 844.315L1366.78 829.399L1374.79 831.465L1371.27 846.21ZM1376.22 825.448L1368.36 823.421L1372.19 809.002L1379.62 811.188L1376.22 825.448ZM1381.05 805.209L1373.76 803.067L1377.47 789.099L1384.35 791.388L1381.05 805.209ZM1385.76 785.477L1379.03 783.236L1382.57 769.881L1384.14 770.471C1385.74 771.07 1387.29 771.84 1388.79 772.771L1385.76 785.477ZM1385.17 764.381L1384.13 763.994L1387.24 752.286C1389.09 753.764 1390.82 755.511 1392.41 757.502C1392.32 757.957 1392.21 758.411 1392.11 758.864L1390.2 766.857C1388.58 765.864 1386.9 765.035 1385.17 764.381ZM1393.46 750.735C1391.99 749.122 1390.43 747.679 1388.79 746.42L1390.78 738.94C1391.87 740.725 1392.86 742.635 1393.74 744.645C1393.75 746.665 1393.66 748.7 1393.46 750.735ZM1392.53 732.591C1392.49 732.534 1392.45 732.477 1392.41 732.42C1392.36 732.352 1392.32 732.284 1392.27 732.216L1392.29 732.084L1392.31 731.951C1392.32 731.877 1392.34 731.803 1392.35 731.729C1392.39 731.915 1392.43 732.102 1392.47 732.289C1392.49 732.39 1392.51 732.49 1392.53 732.591ZM399.876 270.489C394.367 270.662 388.945 273.092 384.204 277.667C378.487 283.183 374.218 291.521 372.14 301.179L368.665 317.416C370.246 317.749 371.82 318.242 373.376 318.899L386.966 324.606L399.876 270.489ZM385.556 330.517L372.225 324.919C370.621 324.246 368.997 323.769 367.366 323.486L355.573 378.584L372.57 384.952L385.556 330.517ZM371.156 390.878L354.294 384.559L342.79 438.306L358.587 443.564L371.156 390.878ZM357.172 449.494L341.511 444.282L330.385 496.264L344.99 500.559L357.172 449.494ZM343.572 506.504L329.104 502.249L318.328 552.596L331.75 556.058L343.572 506.504ZM330.318 562.058L317.036 558.632L306.578 607.491L318.825 610.237L330.318 562.058ZM317.388 616.258L305.283 613.544L295.12 661.025L306.199 663.159L317.388 616.258ZM304.756 669.208L293.82 667.101L283.931 713.303L293.851 714.921L304.756 669.208ZM292.405 720.982L282.628 719.387L272.99 764.419L281.759 765.606L292.405 720.982ZM280.308 771.689L271.684 770.522L262.283 814.442L269.91 815.275L280.308 771.689ZM108.074 1512.57L109.032 1508.55L107.221 1518.01L106.845 1519.76L108.074 1512.57ZM84.8164 1610.05L92.6949 1577.03L85.2431 1620.69L82.7181 1632.48C82.5111 1630.12 82.4374 1627.73 82.5046 1625.32L84.8164 1610.05ZM79.9144 1642.42C80.0273 1642.93 80.1458 1643.42 80.2696 1643.92L78.281 1653.21L79.9144 1642.42ZM85.0593 1656.79L70.3237 1733.74L66.7637 1754.6C69.6147 1767.79 76.6171 1778.83 86.2266 1783.34L1054.32 2237.28C1062.92 2241.31 1072.17 2239.44 1079.71 2232.16L1079.72 2232.18C1085.44 2226.67 1089.72 2218.31 1091.79 2208.69L1333.41 1079.72L1320 1079.99L1070.02 2127.84C1067.59 2138.01 1063.09 2146.49 1056.99 2152.37C1048.28 2160.79 1037.65 2162.67 1027.82 2157.55L100.333 1673.2C94.0404 1669.91 88.8351 1664.09 85.0593 1656.79ZM1321.51 1073.66L1334.77 1073.4L1338.5 1055.95L1325.73 1055.96L1321.51 1073.66ZM1327.22 1049.7L1339.84 1049.69L1343.53 1032.44L1331.39 1032.22L1327.22 1049.7ZM1332.88 1025.98L1344.87 1026.21L1348.51 1009.19L1337 1008.74L1332.88 1025.98ZM1338.48 1002.5L1349.84 1002.95L1353.44 986.159L1342.54 985.49L1338.48 1002.5ZM1344.02 979.311L1354.76 979.971L1358.3 963.431L1348.01 962.56L1344.02 979.311ZM1349.48 956.403L1359.62 957.262L1363.09 941.039L1353.4 939.979L1349.48 956.403ZM1354.87 933.825L1364.41 934.869L1367.83 918.92L1358.72 917.687L1354.87 933.825ZM1360.17 911.587L1369.14 912.801L1372.49 897.152L1363.95 895.76L1360.17 911.587ZM1365.39 889.714L1373.78 891.083L1377.06 875.8L1369.08 874.262L1365.39 889.714ZM1370.52 868.23L1378.35 869.74L1381.54 854.839L1374.11 853.172L1370.52 868.23ZM1375.54 847.167L1382.83 848.803L1385.93 834.339L1379.02 832.558L1375.54 847.167ZM1380.46 826.541L1387.22 828.286L1390.22 814.304L1383.83 812.425L1380.46 826.541ZM1385.25 806.446L1391.38 808.247L1391.51 808.284L1394.17 795.843C1392.38 794.597 1390.49 793.575 1388.51 792.806L1385.25 806.446ZM1389.91 786.918C1391.83 787.693 1393.68 788.68 1395.45 789.858L1397.17 781.821C1397.25 781.459 1397.32 781.098 1397.39 780.736C1395.91 778.812 1394.31 777.098 1392.61 775.614L1389.91 786.918ZM1394.04 769.611C1395.54 770.855 1396.98 772.252 1398.35 773.794C1398.51 771.819 1398.57 769.848 1398.55 767.892C1397.71 765.941 1396.78 764.101 1395.77 762.383L1394.04 769.611ZM1397.18 755.451L1397.19 755.459L1397.18 755.441L1397.18 755.451ZM346.858 330.6C351.718 325.911 357.3 323.395 362.973 323.186L351.446 377.037L335.858 371.196C334.408 370.651 332.943 370.243 331.472 369.97L334.101 356.241C336.131 345.681 340.658 336.593 346.858 330.6ZM334.823 377.263L350.167 383.013L338.628 436.921L319.849 430.67L330.302 376.08C331.819 376.313 333.33 376.706 334.823 377.263ZM318.696 436.688L337.349 442.896L326.19 495.031L308.519 489.835L318.696 436.688ZM307.366 495.856L324.909 501.015L314.102 551.506L297.528 547.231L307.366 495.856ZM296.366 553.301L312.809 557.542L302.322 606.536L286.837 603.065L296.366 553.301ZM285.672 609.147L301.026 612.59L290.836 660.199L276.428 657.423L285.672 609.147ZM275.259 663.525L289.535 666.276L279.619 712.6L266.279 710.424L275.259 663.525ZM265.11 716.53L278.317 718.684L268.653 763.832L256.37 762.169L265.11 716.53ZM255.198 768.29L267.347 769.935L257.922 813.965L246.687 812.737L255.198 768.29ZM245.508 818.891L256.608 820.104L247.403 863.11L237.206 862.246L245.508 818.891ZM67.6233 1723.91L67.4583 1724.68L67.1957 1726.42L67.6233 1723.91ZM48.5109 1861.54L65.0544 1764.61C69.0974 1775.96 76.0453 1785.07 84.9537 1789.25L1053.03 2243.21C1062.86 2247.81 1073.42 2245.7 1082.05 2237.38C1088.57 2231.1 1093.47 2221.55 1095.82 2210.55L1337.88 1079.63L1349.66 1079.4L1117.55 2291.59C1115.54 2302.13 1110.99 2311.24 1104.79 2317.23L1104.8 2317.25C1097.31 2324.48 1088.07 2326.55 1079.44 2322.93L70.7426 1899.36C58.5423 1894.25 50.1263 1878.97 48.5109 1861.54ZM1350.87 1073.08L1339.23 1073.31L1342.95 1055.94L1354.16 1055.93L1350.87 1073.08ZM1355.35 1049.67L1344.29 1049.68L1347.96 1032.53L1358.6 1032.72L1355.35 1049.67ZM1359.79 1026.48L1349.3 1026.29L1352.92 1009.36L1363 1009.76L1359.79 1026.48ZM1364.19 1003.51L1354.26 1003.12L1357.83 986.429L1367.35 987.014L1364.19 1003.51ZM1368.54 980.817L1359.16 980.241L1362.67 963.801L1371.65 964.561L1368.54 980.817ZM1372.84 958.38L1363.99 957.632L1367.44 941.514L1375.89 942.437L1372.84 958.38ZM1377.07 936.252L1368.77 935.344L1372.16 919.506L1380.07 920.578L1377.07 936.252ZM1381.25 914.44L1373.46 913.387L1376.79 897.854L1384.19 899.062L1381.25 914.44ZM1385.36 892.972L1378.09 891.785L1381.33 876.624L1388.24 877.954L1385.36 892.972ZM1389.4 871.869L1382.63 870.564L1385.79 855.792L1392.2 857.229L1389.4 871.869ZM1393.37 851.164L1387.08 849.756L1390.15 835.428L1393.79 836.367C1394.56 836.564 1395.32 836.797 1396.06 837.065L1393.37 851.164ZM1394.5 830.163L1391.45 829.375L1394.34 815.841C1396.14 816.684 1397.87 817.737 1399.53 818.986L1397.22 831.01C1396.33 830.683 1395.42 830.4 1394.5 830.163ZM1400.7 812.855C1399.07 811.689 1397.37 810.69 1395.62 809.866L1397.96 798.944C1399.54 800.446 1401.02 802.135 1402.39 803.987C1402.34 804.258 1402.29 804.53 1402.24 804.8L1400.7 812.855ZM1403.26 796.898C1402 795.418 1400.67 794.053 1399.27 792.815L1400.77 785.837C1401.72 787.518 1402.6 789.309 1403.41 791.2C1403.44 793.095 1403.39 794.998 1403.26 796.898ZM325.92 375.855C320.118 376.142 314.407 378.747 309.474 383.503C302.765 389.968 298.002 399.851 296.032 411.336L294.131 422.47C295.547 422.7 296.964 423.051 298.377 423.522L315.689 429.285L325.92 375.855ZM314.537 435.303L297.447 429.615C295.996 429.132 294.54 428.794 293.085 428.599L283.87 482.587L304.331 488.603L314.537 435.303ZM303.178 494.625L282.837 488.642L273.878 541.131L293.313 546.144L303.178 494.625ZM292.151 552.214L272.837 547.232L264.175 597.983L282.596 602.114L292.151 552.214ZM281.432 608.196L263.132 604.094L254.743 653.245L272.163 656.601L281.432 608.196ZM270.995 662.704L253.697 659.371L245.56 707.044L261.991 709.724L270.995 662.704ZM260.822 715.83L244.515 713.17L236.608 759.494L252.061 761.586L260.822 715.83ZM250.889 767.706L235.561 765.631L227.871 810.681L242.357 812.264L250.889 767.706ZM241.179 818.418L226.819 816.848L219.329 860.733L232.857 861.878L241.179 818.418ZM231.674 868.056L218.272 866.921L210.97 909.703L223.551 910.476L231.674 868.056ZM222.36 916.699L209.907 915.934L202.777 957.708L214.419 958.167L222.36 916.699ZM46.3675 1874.1C50.2264 1888.8 58.5437 1900.76 69.577 1905.4L1078.3 2328.98C1088.09 2333.09 1098.61 2330.73 1107.14 2322.51C1114.19 2315.71 1119.35 2305.35 1121.64 2293.35L1354.1 1079.31L1364.43 1079.11L1143.31 2374.55C1141.36 2386.02 1136.58 2395.91 1129.87 2402.38L1129.85 2402.4C1122.4 2409.61 1113.16 2411.88 1104.51 2408.63L55.2133 2015.43C39.2141 2009.44 29.0746 1986.5 31.3817 1962.93L32.7664 1953.79L46.3675 1874.1ZM1355.31 1072.99L1365.51 1072.79L1368.39 1055.92L1358.58 1055.93L1355.31 1072.99ZM1359.78 1049.67L1369.46 1049.66L1372.3 1032.98L1363.01 1032.81L1359.78 1049.67ZM1364.2 1026.57L1373.37 1026.74L1376.18 1010.28L1367.39 1009.94L1364.2 1026.57ZM1368.59 1003.69L1377.25 1004.03L1380.02 987.792L1371.73 987.282L1368.59 1003.69ZM1372.91 981.086L1381.08 981.587L1383.81 965.59L1376.01 964.93L1372.91 981.086ZM1377.19 958.749L1384.86 959.398L1387.54 943.711L1380.22 942.911L1377.19 958.749ZM1381.41 936.726L1388.6 937.511L1391.23 922.089L1384.39 921.162L1381.41 936.726ZM1385.56 915.024L1392.28 915.934L1394.87 900.803L1388.48 899.762L1385.56 915.024ZM1389.65 893.672L1395.91 894.692L1398.43 879.918L1392.5 878.776L1389.65 893.672ZM1393.67 872.691L1399.47 873.809L1401.85 859.895C1400.28 859.211 1398.65 858.676 1396.99 858.302L1396.45 858.181L1393.67 872.691ZM1397.61 852.115L1397.62 852.118C1399.42 852.522 1401.18 853.096 1402.88 853.826L1404.88 842.143C1403.37 840.904 1401.78 839.821 1400.14 838.91L1397.61 852.115ZM1401.3 832.846C1402.9 833.712 1404.46 834.724 1405.95 835.87L1407.33 827.763C1407.34 827.695 1407.36 827.626 1407.37 827.557C1407.39 827.448 1407.4 827.339 1407.42 827.23C1406.14 825.432 1404.76 823.791 1403.31 822.318L1401.3 832.846ZM1404.52 815.996C1405.81 817.195 1407.04 818.506 1408.21 819.924C1408.31 818.128 1408.34 816.332 1408.29 814.543C1407.54 812.731 1406.71 810.99 1405.8 809.334L1404.52 815.996ZM272.095 436.369C277.161 431.478 282.877 428.793 288.747 428.438L279.713 481.364L260.859 475.82C259.475 475.413 258.087 475.118 256.701 474.935L257.988 466.438C259.874 454.021 264.888 443.328 272.095 436.369ZM260.06 481.944L278.679 487.42L269.696 540.052L247.7 534.379L255.77 481.086C257.199 481.238 258.631 481.524 260.06 481.944ZM246.772 540.509L268.654 546.153L259.968 597.04L238.926 592.322L246.772 540.509ZM237.997 598.458L258.925 603.151L250.514 652.43L230.41 648.557L237.997 598.458ZM229.479 654.706L249.468 658.557L241.31 706.351L222.133 703.222L229.479 654.706ZM221.202 709.368L240.265 712.477L232.338 758.916L214.074 756.444L221.202 709.368ZM213.142 762.596L231.29 765.053L223.582 810.213L206.219 808.316L213.142 762.596ZM205.283 814.495L222.529 816.38L215.021 860.368L198.548 858.974L205.283 814.495ZM197.61 865.172L213.965 866.557L206.646 909.437L191.052 908.479L197.61 865.172ZM190.107 914.718L205.582 915.669L198.435 957.537L183.711 956.956L190.107 914.718ZM182.767 963.194L197.372 963.77L190.387 1004.69L176.522 1004.43L182.767 963.194ZM175.576 1010.68L189.321 1010.93L182.486 1050.98L169.472 1050.99L175.576 1010.68ZM14.6835 2073.2L28.1824 1984.06C31.5977 2001.87 41.1811 2016.61 54.1936 2021.48L1103.49 2414.69C1113.29 2418.35 1123.78 2415.78 1132.22 2407.62C1139.8 2400.29 1145.21 2389.08 1147.43 2376.07L1368.82 1079.02L1377.87 1078.84L1169.11 2457.47C1167.23 2469.91 1162.22 2480.57 1155 2487.54L1155.01 2487.56C1147.48 2494.86 1138.46 2497.24 1129.66 2494.32L39.751 2131.5C21.9464 2125.56 10.7167 2099.44 14.6835 2073.2ZM1378.82 1072.53L1369.9 1072.7L1372.77 1055.91L1381.34 1055.9L1378.82 1072.53ZM1382.29 1049.64L1373.84 1049.65L1376.67 1033.06L1384.77 1033.21L1382.29 1049.64ZM1385.72 1026.97L1377.73 1026.82L1380.53 1010.45L1388.17 1010.76L1385.72 1026.97ZM1389.12 1004.5L1381.59 1004.2L1384.35 988.058L1391.54 988.499L1389.12 1004.5ZM1392.49 982.288L1385.41 981.854L1388.12 965.955L1394.87 966.527L1392.49 982.288ZM1395.81 960.325L1389.18 959.764L1391.84 944.181L1398.15 944.87L1395.81 960.325ZM1399.09 938.658L1392.9 937.981L1395.51 922.668L1401.39 923.464L1399.09 938.658ZM1402.33 917.294L1396.56 916.513L1399.12 901.498L1403.4 902.195C1403.8 902.26 1404.19 902.333 1404.58 902.414L1402.33 917.294ZM1403.86 895.99L1400.17 895.387L1402.65 880.852C1404.32 881.34 1405.96 881.988 1407.55 882.791L1405.51 896.303C1404.96 896.184 1404.41 896.079 1403.86 895.99ZM1408.48 876.646C1406.92 875.888 1405.32 875.263 1403.69 874.776L1405.86 862.027C1407.37 862.977 1408.82 864.07 1410.2 865.292L1408.48 876.646ZM1411.17 858.897C1409.8 857.781 1408.38 856.776 1406.91 855.892L1408.65 845.717C1409.99 847.178 1411.26 848.773 1412.44 850.487C1412.43 850.559 1412.42 850.632 1412.41 850.705L1411.17 858.897ZM1413.15 842.98C1412.07 841.638 1410.94 840.379 1409.76 839.208L1410.85 832.803C1411.37 833.79 1411.87 834.809 1412.35 835.86C1412.63 836.486 1412.91 837.12 1413.17 837.759C1413.23 839.486 1413.22 841.228 1413.15 842.98ZM251.421 481.032C245.511 481.518 239.775 484.285 234.694 489.19C226.973 496.659 221.712 508.125 219.933 521.517L219.153 527.361C220.562 527.498 221.974 527.746 223.382 528.107L243.507 533.298L251.421 481.032ZM242.579 539.427L222.657 534.289C221.214 533.916 219.767 533.677 218.324 533.569L211.304 586.129L234.712 591.377L242.579 539.427ZM233.783 597.514L210.481 592.289L203.654 643.401L226.177 647.741L233.783 597.514ZM225.246 653.89L202.83 649.571L196.229 698.997L217.881 702.529L225.246 653.89ZM216.951 708.674L195.405 705.16L189.009 753.051L209.804 755.866L216.951 708.674ZM208.873 762.018L188.185 759.218L181.981 805.667L201.933 807.847L208.873 762.018ZM200.998 814.026L181.155 811.858L175.126 856.991L194.247 858.61L200.998 814.026ZM193.308 864.808L174.297 863.199L168.435 907.09L186.735 908.214L193.308 864.808ZM185.79 914.453L167.601 913.336L161.89 956.095L179.38 956.785L185.79 914.453ZM178.436 963.023L161.056 962.337L155.486 1004.04L172.177 1004.35L178.436 963.023ZM171.232 1010.6L154.652 1010.29L149.212 1051.01L165.115 1051L171.232 1010.6ZM164.167 1057.25L148.376 1057.27L143.062 1097.06L158.185 1096.76L164.167 1057.25ZM10.1111 2092.48L-2.68196 2188.26C-6.31725 2215.5 5.76154 2242.09 24.252 2247.54L1154.77 2579.97C1163.6 2582.57 1172.6 2580 1180.12 2572.74L1180.1 2572.73C1187.83 2565.25 1193.08 2553.8 1194.87 2540.39L1390.12 1078.6L1382.23 1078.75L1173.25 2458.86C1171.12 2472.87 1165.49 2484.93 1157.33 2492.79C1148.82 2501 1138.66 2503.71 1128.73 2500.41L38.8056 2137.61C23.4854 2132.51 12.4692 2114.08 10.1111 2092.48ZM1383.19 1072.44L1390.96 1072.29L1393.15 1055.89L1385.7 1055.9L1383.19 1072.44ZM1386.64 1049.64L1393.98 1049.63L1396.15 1033.42L1389.12 1033.29L1386.64 1049.64ZM1390.06 1027.05L1396.98 1027.18L1399.12 1011.19L1392.51 1010.93L1390.06 1027.05ZM1393.45 1004.67L1399.96 1004.92L1402.06 989.145L1395.86 988.765L1393.45 1004.67ZM1396.8 982.554L1402.89 982.928L1404.97 967.382L1399.17 966.891L1396.8 982.554ZM1400.11 960.689L1405.8 961.171L1407.84 945.929L1402.44 945.339L1400.11 960.689ZM1403.38 939.126L1408.67 939.704L1410.63 925.012C1409.3 924.634 1407.96 924.352 1406.6 924.169L1405.66 924.042L1403.38 939.126ZM1406.6 917.872L1406.97 917.922C1408.48 918.128 1409.98 918.444 1411.45 918.867L1413.21 905.717C1411.76 904.892 1410.27 904.192 1408.75 903.625L1406.6 917.872ZM1409.68 897.525C1411.16 898.071 1412.61 898.731 1414.04 899.499L1415.52 888.43C1414.24 887.232 1412.91 886.151 1411.55 885.19L1409.68 897.525ZM1412.49 878.933C1413.83 879.814 1415.13 880.797 1416.39 881.879L1417.48 873.724C1416.38 872.084 1415.21 870.545 1413.98 869.118L1412.49 878.933ZM1414.99 862.43C1416.07 863.557 1417.11 864.758 1418.11 866.028C1418.16 864.37 1418.15 862.716 1418.09 861.071C1417.42 859.429 1416.7 857.841 1415.92 856.316L1414.99 862.43ZM197.281 541.987C202.333 537.114 208.065 534.277 213.973 533.64L207.088 585.184L185.875 580.427C184.42 580.101 182.961 579.891 181.504 579.798L181.874 576.634C183.536 562.481 189.154 549.853 197.281 541.987ZM185.255 586.634L206.265 591.344L199.421 642.585L174.718 637.826L180.774 586.04C182.267 586.101 183.763 586.298 185.255 586.634ZM173.994 644.016L198.597 648.756L191.979 698.303L168.101 694.408L173.994 644.016ZM167.378 700.589L191.155 704.467L184.743 752.474L161.675 749.351L167.378 700.589ZM160.952 755.531L183.919 758.64L177.7 805.199L155.428 802.766L160.952 755.531ZM154.703 808.966L176.873 811.39L170.831 856.628L149.342 854.808L154.703 808.966ZM148.615 861.025L170.002 862.835L164.126 906.825L143.407 905.552L148.615 861.025ZM142.676 911.805L163.292 913.071L157.568 955.925L137.608 955.138L142.676 911.805ZM136.878 961.383L156.734 962.166L151.152 1003.96L131.94 1003.6L136.878 961.383ZM131.21 1009.85L150.317 1010.21L144.866 1051.02L126.393 1051.04L131.21 1009.85ZM125.661 1057.3L144.03 1057.28L138.705 1097.15L120.959 1097.5L125.661 1057.3ZM120.223 1103.79L137.863 1103.44L-3.57145 2162.32L120.223 1103.79ZM-20.0628 2303.33L-7.59151 2196.7C-8.01695 2223.72 4.81744 2248.23 23.3962 2253.69L1153.92 2586.12C1163.85 2589.04 1173.96 2586.15 1182.43 2577.99C1191.13 2569.59 1197.03 2556.69 1199.04 2541.63L1394.47 1078.51L1401.34 1078.37L1220.67 2623.31C1219.01 2637.47 1213.4 2650.08 1205.25 2657.94L1205.26 2657.96C1197.75 2665.2 1188.74 2667.95 1179.88 2665.66L8.76352 2363.6C-10.4429 2358.67 -23.3708 2331.62 -20.0628 2303.33ZM1402.07 1072.07L1395.31 1072.2L1397.49 1055.88L1403.97 1055.88L1402.07 1072.07ZM1404.7 1049.62L1398.33 1049.62L1400.48 1033.5L1406.57 1033.62L1404.7 1049.62ZM1407.3 1027.37L1401.31 1027.26L1403.44 1011.36L1409.15 1011.58L1407.3 1027.37ZM1409.88 1005.31L1404.27 1005.09L1406.37 989.41L1411.7 989.737L1409.88 1005.31ZM1412.43 983.514L1407.2 983.192L1409.26 967.745L1413.01 968.062C1413.42 968.097 1413.82 968.139 1414.22 968.19L1412.43 983.514ZM1413.23 961.8L1410.09 961.534L1412.1 946.488C1413.63 946.779 1415.14 947.192 1416.61 947.722L1414.95 961.99C1414.38 961.912 1413.81 961.848 1413.23 961.8ZM1417.34 941.51C1415.89 941.003 1414.42 940.599 1412.93 940.299L1414.77 926.532C1416.15 927.158 1417.51 927.894 1418.83 928.735L1417.34 941.51ZM1419.57 922.414C1418.27 921.639 1416.94 920.954 1415.59 920.363L1417.19 908.381C1418.45 909.35 1419.66 910.421 1420.84 911.59L1419.57 922.414ZM1421.62 904.899C1420.46 903.852 1419.27 902.888 1418.04 902.01L1419.31 892.503C1420.44 893.885 1421.53 895.371 1422.55 896.954L1421.62 904.899ZM1423.09 889.034C1422.17 887.827 1421.22 886.684 1420.23 885.608L1421 879.836C1421.73 881.302 1422.41 882.821 1423.03 884.387C1423.1 885.924 1423.12 887.474 1423.09 889.034ZM176.417 586.245C170.548 587.042 164.86 589.938 159.858 594.763C151.176 603.149 145.333 616.594 143.804 631.729L143.752 632.244C145.298 632.287 146.848 632.456 148.394 632.754L170.481 637.009L176.417 586.245ZM169.757 643.199L147.853 638.979C146.275 638.673 144.693 638.517 143.117 638.507L137.945 689.489L163.85 693.715L169.757 643.199ZM163.127 699.895L137.317 695.685L132.277 745.371L157.412 748.774L163.127 699.895ZM156.689 754.954L131.649 751.563L126.773 799.635L151.153 802.299L156.689 754.954ZM150.428 808.499L126.143 805.845L121.416 852.444L145.055 854.446L150.428 808.499ZM144.328 860.662L120.784 858.669L116.198 903.881L139.11 905.288L144.328 860.662ZM138.379 911.542L115.563 910.14L111.105 954.092L133.301 954.968L138.379 911.542ZM132.57 961.213L110.471 960.341L106.132 1003.12L127.623 1003.52L132.57 961.213ZM126.892 1009.77L105.497 1009.37L101.268 1051.07L122.066 1051.04L126.892 1009.77ZM121.334 1057.3L100.633 1057.32L96.509 1097.98L116.624 1097.58L121.334 1057.3ZM115.888 1103.88L95.8706 1104.28L-37.4287 2418.39C-40.394 2447.71 -26.6279 2475.2 -6.75109 2479.66L1204.98 2751.33C1213.86 2753.32 1222.89 2750.43 1230.4 2743.18L1230.37 2743.18C1239.04 2734.81 1244.89 2721.35 1246.43 2706.23L1411.58 1078.17L1405.64 1078.29L1224.83 2624.42C1222.98 2640.27 1216.69 2654.39 1207.57 2663.21C1199.15 2671.34 1189.05 2674.4 1179.13 2671.84L8.01245 2369.78C-13.4781 2364.24 -27.9528 2333.93 -24.2428 2302.25L115.888 1103.88ZM1406.38 1071.98L1412.22 1071.86L1413.84 1055.86L1408.26 1055.87L1406.38 1071.98ZM1408.99 1049.61L1414.48 1049.61L1416.08 1033.79L1410.85 1033.7L1408.99 1049.61ZM1411.58 1027.45L1416.71 1027.54L1418.3 1011.94L1413.42 1011.75L1411.58 1027.45ZM1414.15 1005.48L1418.93 1005.67L1420.46 990.581C1419.06 990.293 1417.63 990.103 1416.2 990.013L1415.96 989.999L1414.15 1005.48ZM1416.69 983.777C1418.17 983.883 1419.64 984.086 1421.09 984.385L1422.5 970.47C1421.17 969.895 1419.8 969.413 1418.42 969.031L1416.69 983.777ZM1419.14 962.851C1420.49 963.223 1421.83 963.68 1423.14 964.219L1424.4 951.771C1423.19 950.932 1421.96 950.181 1420.7 949.519L1419.14 962.851ZM1421.43 943.242C1422.66 943.856 1423.87 944.546 1425.06 945.312L1426.12 934.779C1425.05 933.65 1423.93 932.602 1422.79 931.64L1421.43 943.242ZM1423.55 925.129C1424.67 925.993 1425.76 926.929 1426.82 927.933L1427.61 920.139C1426.66 918.636 1425.67 917.216 1424.63 915.883L1423.55 925.129ZM1425.46 908.797C1426.35 909.817 1427.22 910.892 1428.07 912.019C1428.08 910.522 1428.04 909.036 1427.96 907.562C1427.39 906.109 1426.77 904.687 1426.1 903.301L1425.46 908.797ZM122.409 647.532C127.36 642.755 132.974 639.808 138.778 638.851L133.711 688.799L110.913 685.08C109.255 684.81 107.592 684.684 105.935 684.699C107.675 669.48 113.623 656.032 122.409 647.532ZM110.439 691.301L133.083 694.995L128.032 744.797L101 741.138L105.361 690.97C107.05 690.917 108.747 691.026 110.439 691.301ZM100.461 747.341L127.403 750.989L122.517 799.17L96.2053 796.295L100.461 747.341ZM95.6647 802.514L121.887 805.38L117.149 852.083L91.5443 849.916L95.6647 802.514ZM91.0027 856.147L116.518 858.307L111.922 903.618L87.0094 902.087L91.0027 856.147ZM86.4647 908.354L111.287 909.878L106.82 953.923L82.5866 952.968L86.4647 908.354ZM82.0432 959.219L106.186 960.172L101.838 1003.04L78.2723 1002.6L82.0432 959.219ZM77.7288 1008.85L101.204 1009.29L96.9662 1051.07L74.0569 1051.1L77.7288 1008.85ZM73.5128 1057.35L96.3315 1057.33L92.1992 1098.07L69.9353 1098.51L73.5128 1057.35ZM69.3885 1104.8L91.5608 1104.36L-41.63 2417.5C-44.9605 2450.24 -29.5866 2480.92 -7.38666 2485.88L1204.35 2757.55C1214.26 2759.78 1224.35 2756.54 1232.71 2748.45C1242.4 2739.1 1248.92 2724.06 1250.64 2707.19L1415.88 1078.09L1420.97 1077.98L1272.23 2789.16C1270.82 2805.25 1264.73 2819.57 1255.54 2828.47C1248.03 2835.71 1239 2838.75 1230.09 2837.02L-22.2544 2595.74C-42.8323 2591.78 -57.4475 2563.83 -54.7983 2533.49L69.3885 1104.8ZM1421.52 1071.68L1416.52 1071.78L1418.13 1055.86L1422.89 1055.85L1421.52 1071.68ZM1423.44 1049.6L1418.77 1049.6L1420.36 1033.87L1422.57 1033.92C1423.31 1033.93 1424.05 1033.97 1424.79 1034.04L1423.44 1049.6ZM1422.63 1027.65L1421 1027.62L1422.56 1012.27C1423.92 1012.47 1425.27 1012.75 1426.61 1013.12L1425.33 1027.81C1424.44 1027.72 1423.54 1027.67 1422.63 1027.65ZM1427.15 1006.87C1425.84 1006.52 1424.52 1006.24 1423.19 1006.04L1424.64 991.741C1425.89 992.182 1427.12 992.701 1428.33 993.299L1427.15 1006.87ZM1428.88 986.975C1427.69 986.423 1426.49 985.939 1425.27 985.523L1426.58 972.567C1427.73 973.254 1428.85 974.011 1429.94 974.836L1428.88 986.975ZM1430.51 968.271C1429.44 967.525 1428.34 966.836 1427.23 966.208L1428.37 954.935C1429.41 955.876 1430.42 956.886 1431.4 957.965L1430.51 968.271ZM1432.01 950.926C1431.05 949.975 1430.06 949.081 1429.05 948.245L1429.95 939.337C1430.9 940.608 1431.8 941.951 1432.67 943.364L1432.01 950.926ZM1433.06 935.062C1432.29 934.013 1431.5 933.008 1430.69 932.047L1431.23 926.792C1431.83 928.091 1432.4 929.419 1432.93 930.773C1433.01 932.196 1433.05 933.626 1433.06 935.062ZM101.037 691.464C95.3285 692.591 89.8194 695.579 84.9636 700.263C76.1356 708.789 70.1316 722.051 68.141 737.147C69.8917 737.082 71.6575 737.168 73.4322 737.406L96.769 740.565L101.037 691.464ZM96.2298 746.768L73.0517 743.631C71.2004 743.383 69.3604 743.319 67.5397 743.437L63.9218 792.767L91.9651 795.831L96.2298 746.768ZM91.4244 802.05L63.4651 798.995L59.927 847.239L87.295 849.556L91.4244 802.05ZM86.7534 855.788L59.4694 853.478L56.0439 900.185L82.7516 901.826L86.7534 855.788ZM82.207 908.092L55.584 906.457L52.2607 951.772L78.3208 952.799L82.207 908.092ZM77.7774 959.051L51.8021 958.026L48.5733 1002.05L73.9986 1002.52L77.7774 959.051ZM73.4551 1008.78L48.1148 1008.3L44.9739 1051.13L69.7759 1051.1L73.4551 1008.78ZM69.232 1057.36L44.515 1057.39L41.4575 1099.08L65.6474 1098.6L69.232 1057.36ZM65.1005 1104.89L40.9962 1105.37L-72.1794 2648.56C-73.2847 2663.76 -70.3308 2678.7 -63.8215 2690.66C-57.3229 2702.6 -48.0637 2710.11 -37.7427 2711.8L1255.2 2922.71C1264.14 2924.17 1273.2 2921 1280.68 2913.75L1280.71 2913.76C1290.46 2904.34 1296.76 2889.15 1298.02 2872.08L1429.6 1077.82C1429.39 1077.82 1429.18 1077.82 1428.97 1077.83L1425.26 1077.9L1276.44 2789.97C1274.88 2807.89 1268.12 2823.81 1257.87 2833.72C1249.54 2841.77 1239.47 2845.16 1229.55 2843.25L-22.7809 2601.95C-45.6862 2597.53 -61.9437 2566.46 -59.0081 2532.67L65.1005 1104.89ZM1425.81 1071.59L1428.9 1071.53C1429.28 1071.52 1429.67 1071.52 1430.06 1071.53L1431.18 1056.29C1429.85 1056.07 1428.52 1055.94 1427.17 1055.88L1425.81 1071.59ZM1427.71 1049.64C1429.03 1049.71 1430.34 1049.86 1431.63 1050.07L1432.68 1035.76C1431.48 1035.33 1430.25 1034.98 1429.01 1034.7L1427.71 1049.64ZM1429.55 1028.48C1430.76 1028.75 1431.96 1029.08 1433.14 1029.48L1434.11 1016.22C1433.01 1015.6 1431.9 1015.06 1430.76 1014.57L1429.55 1028.48ZM1431.31 1008.27C1432.42 1008.72 1433.51 1009.23 1434.59 1009.79L1435.46 997.899C1434.46 997.091 1433.44 996.341 1432.41 995.652L1431.31 1008.27ZM1432.97 989.182C1433.98 989.806 1434.97 990.48 1435.95 991.205L1436.68 981.185C1435.79 980.159 1434.87 979.183 1433.92 978.261L1432.97 989.182ZM1434.51 971.425C1435.43 972.237 1436.33 973.094 1437.21 973.995L1437.75 966.599C1436.96 965.266 1436.13 963.992 1435.26 962.778L1434.51 971.425ZM1435.92 955.235C1436.65 956.137 1437.37 957.074 1438.06 958.047C1438.05 956.706 1438 955.37 1437.92 954.042C1437.43 952.771 1436.9 951.524 1436.35 950.301L1435.92 955.235ZM47.5182 752.994C52.3535 748.322 57.6762 745.317 63.2468 744.058L59.7077 792.307L35.9408 789.71C34.0693 789.51 32.2089 789.475 30.3661 789.603C32.5893 774.625 38.6551 761.54 47.5182 752.994ZM35.639 795.953L59.251 798.534L55.7045 846.882L26.7203 844.428L29.5906 797.053C29.6136 796.677 29.6388 796.302 29.6663 795.928C31.6367 795.729 33.6309 795.736 35.639 795.953ZM26.342 850.673L55.2469 853.12L51.8136 899.925L23.4634 898.184L26.342 850.673ZM23.083 904.461L51.3536 906.197L48.0228 951.605L20.2929 950.511L23.083 904.461ZM19.9139 956.768L47.5641 957.859L44.3284 1001.97L17.2058 1001.46L19.9139 956.768ZM16.8268 1007.72L43.8696 1008.22L40.7221 1051.13L14.1946 1051.16L16.8268 1007.72ZM13.8155 1057.42L40.2631 1057.39L37.1992 1099.16L11.2553 1099.68L13.8155 1057.42ZM10.8744 1105.96L36.7377 1105.45L-76.4019 2647.86C-77.6386 2664.73 -74.3429 2681.32 -67.1307 2694.58C-59.8924 2707.84 -49.6195 2716.15 -38.1906 2718.03L1254.76 2928.94C1264.67 2930.55 1274.71 2927.03 1283.03 2918.99C1293.85 2908.54 1300.85 2891.69 1302.23 2872.76L1433.86 1078.08C1435.07 1078.23 1436.27 1078.45 1437.46 1078.73L1323.79 2955C1322.69 2973.05 1316.16 2989.13 1305.86 2999.06L1305.83 2999.06C1298.25 3006.42 1289.4 3009.64 1280.32 3008.4L-53.2464 2827.88C-63.9005 2826.41 -73.5435 2818.96 -80.3956 2806.82C-87.2477 2794.68 -90.5077 2779.34 -89.5604 2763.63L10.8744 1105.96ZM1437.84 1072.45C1436.67 1072.18 1435.5 1071.97 1434.32 1071.82L1435.39 1057.27C1436.5 1057.6 1437.6 1057.99 1438.68 1058.44L1437.84 1072.45ZM1439.07 1052.11C1438 1051.69 1436.93 1051.33 1435.85 1051.02L1436.84 1037.52C1437.86 1038.03 1438.86 1038.59 1439.85 1039.2L1439.07 1052.11ZM1440.25 1032.68C1439.28 1032.12 1438.3 1031.61 1437.31 1031.15L1438.21 1018.84C1439.14 1019.52 1440.05 1020.25 1440.95 1021.03L1440.25 1032.68ZM1441.37 1014.18C1440.49 1013.49 1439.6 1012.84 1438.69 1012.23L1439.47 1001.59C1440.32 1002.46 1441.15 1003.39 1441.96 1004.36L1441.37 1014.18ZM1442.41 996.986C1441.62 996.144 1440.81 995.34 1439.99 994.575L1440.6 986.274C1441.38 987.417 1442.12 988.604 1442.84 989.832L1442.41 996.986ZM1443.07 981.101C1442.45 980.218 1441.82 979.359 1441.17 978.527L1441.51 973.883C1442 975.005 1442.47 976.147 1442.91 977.307C1442.99 978.565 1443.04 979.83 1443.07 981.101ZM25.3534 796.702C19.9388 798.109 14.77 801.12 10.0671 805.664C1.17859 814.249 -4.96317 827.189 -7.395 842.059C-5.4605 841.874 -3.50636 841.865 -1.54033 842.036L22.4832 844.07L25.3534 796.702ZM22.1048 850.315L-1.78973 848.292C-3.94538 848.11 -6.08613 848.165 -8.19913 848.451C-8.30807 849.676 -8.39271 850.911 -8.45233 852.154L-10.5868 896.092L19.22 897.923L22.1048 850.315ZM18.8396 904.201L-10.8921 902.375L-13.1665 949.191L16.0437 950.343L18.8396 904.201ZM15.6645 956.6L-13.4705 955.451L-15.676 1000.85L12.9508 1001.39L15.6645 956.6ZM12.5718 1007.64L-15.9801 1007.11L-18.1219 1051.2L9.9343 1051.17L12.5718 1007.64ZM9.55505 1057.43L-18.4259 1057.46L-20.5076 1100.31L6.98982 1099.76L9.55505 1057.43ZM6.60884 1106.05L-20.8129 1106.59L-106.903 2878.73C-108.529 2912.22 -91.3952 2941.44 -68.6927 2943.93L1305.47 3094.08C1314.58 3095.09 1323.43 3091.73 1331.06 3084.36L1331.04 3084.37C1341.89 3073.89 1348.64 3056.97 1349.57 3037.91L1444.62 1081.25C1443.63 1080.78 1442.63 1080.36 1441.61 1079.98L1327.99 2955.52C1326.78 2975.52 1319.55 2993.27 1308.17 3004.27C1299.75 3012.38 1290 3015.98 1279.93 3014.63L-53.6224 2834.07C-65.4084 2832.5 -76.0866 2824.21 -83.672 2810.8C-91.2423 2797.38 -94.8591 2780.41 -93.7957 2763.05L6.60884 1106.05ZM1442 1073.64C1442.98 1073.99 1443.97 1074.38 1444.94 1074.81L1445.55 1062.13C1444.65 1061.52 1443.73 1060.96 1442.8 1060.43L1442 1073.64ZM1443.19 1053.98C1444.09 1054.46 1444.99 1054.97 1445.87 1055.52L1446.42 1044.22C1445.6 1043.46 1444.76 1042.74 1443.91 1042.06L1443.19 1053.98ZM1444.32 1035.32C1445.15 1035.92 1445.96 1036.56 1446.76 1037.22L1447.23 1027.58C1446.49 1026.66 1445.73 1025.77 1444.95 1024.92L1444.32 1035.32ZM1445.38 1017.72C1446.13 1018.45 1446.87 1019.22 1447.6 1020.02L1447.94 1013.02C1447.51 1012.27 1447.07 1011.54 1446.61 1010.81C1446.37 1010.42 1446.12 1010.03 1445.87 1009.65L1445.38 1017.72ZM1446.36 1001.67C1446.94 1002.45 1447.52 1003.25 1448.09 1004.07C1448.05 1002.9 1447.99 1001.74 1447.91 1000.59C1447.5 999.49 1447.07 998.414 1446.62 997.358L1446.36 1001.67ZM-27.4155 858.366C-22.8431 853.947 -17.8274 850.93 -12.5762 849.387C-12.6313 850.156 -12.6779 850.928 -12.7157 851.703L-14.8591 895.829L-39.006 894.346C-41.0755 894.223 -43.1318 894.293 -45.1657 894.552C-42.4789 879.845 -36.1918 866.845 -27.4155 858.366ZM-39.1921 900.637L-15.1642 902.112L-17.4428 949.023L-48.0631 947.815L-46.5528 907.282C-46.4739 905.171 -46.3219 903.077 -46.0995 901.007C-43.8254 900.62 -41.5176 900.494 -39.1921 900.637ZM-48.2964 954.076L-17.7468 955.282L-19.9564 1000.77L-50.0155 1000.21L-48.2964 954.076ZM-50.2487 1006.47L-20.2603 1007.03L-22.4061 1051.2L-51.9167 1051.24L-50.2487 1006.47ZM-52.1499 1057.49L-22.7101 1057.46L-24.7953 1100.39L-53.7698 1100.97L-52.1499 1057.49ZM-54.004 1107.25L-25.1006 1106.68L-111.152 2878.27C-112.929 2915.18 -94.035 2947.44 -68.9947 2950.18L1305.17 3100.33C1315.23 3101.44 1324.98 3097.75 1333.39 3089.61C1345.35 3078.05 1352.8 3059.37 1353.82 3038.33L1448.77 1083.53C1449.6 1084.05 1450.41 1084.6 1451.22 1085.19L1375.36 3120.77C1374.62 3140.55 1367.46 3158.83 1356.22 3169.69C1348.59 3177.06 1339.71 3180.55 1330.58 3179.78L-84.2073 3059.99C-95.5251 3059.05 -105.949 3051.61 -113.528 3039.12C-121.096 3026.65 -124.931 3010.56 -124.3 2993.82L-54.004 1107.25ZM1451.47 1078.41C1450.69 1077.89 1449.89 1077.39 1449.09 1076.93L1449.66 1065.26C1450.41 1065.91 1451.15 1066.58 1451.88 1067.29L1451.47 1078.41ZM1452.15 1060.17C1451.44 1059.55 1450.72 1058.96 1449.99 1058.39L1450.48 1048.4C1451.17 1049.19 1451.84 1050.01 1452.5 1050.86L1452.15 1060.17ZM1452.78 1043.1C1452.15 1042.38 1451.5 1041.68 1450.84 1041L1451.22 1033.19C1451.85 1034.19 1452.46 1035.21 1453.04 1036.26L1452.78 1043.1ZM1453.1 1027.06C1452.62 1026.34 1452.12 1025.64 1451.62 1024.95L1451.81 1020.92C1452.2 1021.83 1452.56 1022.75 1452.91 1023.69C1452.99 1024.81 1453.06 1025.93 1453.1 1027.06ZM-50.4893 902.093C-55.5866 903.755 -60.4529 906.772 -64.8976 911.068C-73.7031 919.563 -80.0417 932.425 -82.9262 947.049C-80.7986 946.727 -78.6453 946.607 -76.4764 946.694L-52.3043 947.648L-50.7877 906.937C-50.7272 905.312 -50.6273 903.697 -50.4893 902.093ZM-52.5375 953.909L-76.6057 952.959C-79.0859 952.864 -81.5453 953.064 -83.9645 953.55C-84.3242 956.472 -84.5487 959.447 -84.6311 962.454L-85.6169 999.548L-54.2594 1000.13L-52.5375 953.909ZM-54.4927 1006.39L-85.7832 1005.81L-86.9915 1051.28L-56.1634 1051.24L-54.4927 1006.39ZM-56.3966 1057.5L-87.1578 1057.53L-88.3303 1101.65L-58.019 1101.05L-56.3966 1057.5ZM-58.2531 1107.34L-88.4972 1107.94L-141.674 3108.95C-142.116 3126.17 -138.001 3142.65 -130.079 3155.32C-122.147 3168.02 -111.34 3175.39 -99.6625 3176.12L1355.71 3265.51C1364.88 3266.07 1373.77 3262.47 1381.42 3255.08L1381.42 3255.04C1393.23 3243.65 1400.6 3224.43 1401.15 3203.66L1457.32 1090.48C1456.67 1089.81 1456.01 1089.17 1455.34 1088.56L1379.6 3121.14C1378.81 3142.88 1370.92 3162.98 1358.57 3174.92C1350.17 3183.04 1340.42 3186.87 1330.37 3186.02L-84.4003 3066.22C-96.8759 3065.18 -108.332 3057 -116.66 3043.26C-124.998 3029.49 -129.221 3011.8 -128.515 2993.42L-58.2531 1107.34ZM1455.6 1081.49C1456.25 1082.03 1456.89 1082.59 1457.52 1083.16L1457.76 1074C1457.17 1073.22 1456.58 1072.46 1455.97 1071.72L1455.6 1081.49ZM1456.25 1064.15C1456.83 1064.77 1457.41 1065.42 1457.97 1066.08L1458.15 1059.54C1457.62 1058.58 1457.08 1057.64 1456.52 1056.73L1456.25 1064.15ZM1456.84 1048.22C1457.28 1048.83 1457.71 1049.46 1458.14 1050.1C1458.09 1049.07 1458.03 1048.04 1457.94 1047.01C1457.64 1046.17 1457.31 1045.33 1456.98 1044.5L1456.84 1048.22ZM-102.387 963.709C-98.0695 959.535 -93.3531 956.539 -88.4108 954.783C-88.6502 957.211 -88.8045 959.669 -88.8702 962.147L-89.8622 999.469L-113.957 999.02C-116.225 998.974 -118.478 999.149 -120.702 999.542C-117.644 984.996 -111.234 972.257 -102.387 963.709ZM-114.019 1005.28L-90.0287 1005.73L-91.2395 1051.28L-123.258 1051.32L-122.701 1017.55C-122.637 1013.67 -122.344 1009.84 -121.834 1006.1C-119.268 1005.5 -116.655 1005.23 -114.019 1005.28ZM-123.361 1057.57L-91.4058 1057.54L-92.5807 1101.74L-124.099 1102.36L-123.361 1057.57ZM-124.202 1108.64L-92.7477 1108.02L-145.928 3108.66C-146.434 3127.55 -141.917 3145.6 -133.205 3159.52C-124.508 3173.45 -112.653 3181.55 -99.8401 3182.33L1355.53 3271.72C1365.6 3272.32 1375.36 3268.37 1383.74 3260.27C1396.68 3247.78 1404.77 3226.72 1405.37 3203.92L1461.42 1095.14C1461.96 1095.81 1462.49 1096.51 1463 1097.22L1426.95 3286.58C1426.58 3308.35 1418.99 3328.48 1406.63 3340.42L1406.61 3340.41C1398.94 3347.8 1390.03 3351.52 1380.83 3351.16L-115.162 3292.16C-139.967 3291.18 -159.653 3260.61 -159.055 3224.03L-124.202 1108.64ZM1463.14 1089.08C1462.64 1088.48 1462.14 1087.9 1461.63 1087.33L1461.82 1080.12C1462.31 1080.95 1462.78 1081.79 1463.24 1082.65L1463.14 1089.08ZM1462.43 1071.93C1462.31 1071.75 1462.18 1071.57 1462.05 1071.38L1462.14 1068.12C1462.42 1068.83 1462.7 1069.55 1462.96 1070.28C1463.03 1071.19 1463.1 1072.09 1463.15 1073.01C1462.91 1072.65 1462.67 1072.29 1462.43 1071.93ZM-126.302 1007.46C-131.1 1009.31 -135.677 1012.29 -139.875 1016.35C-148.768 1024.93 -155.241 1037.57 -158.462 1052.05C-156.148 1051.59 -153.802 1051.35 -151.438 1051.35L-127.487 1051.32L-126.927 1017.36C-126.871 1014.02 -126.661 1010.72 -126.302 1007.46ZM-127.59 1057.58L-151.432 1057.6C-154.22 1057.61 -156.981 1057.97 -159.688 1058.67C-160.364 1063.22 -160.729 1067.9 -160.76 1072.67L-160.97 1103.1L-128.33 1102.45L-127.59 1057.58ZM-128.434 1108.73L-161.014 1109.38L-176.435 3339.1C-176.561 3357.34 -171.856 3374.55 -163.212 3387.62C-154.567 3400.69 -142.986 3407.99 -130.624 3408.23L1405.96 3436.86C1415.19 3437.02 1424.12 3433.21 1431.82 3425.79C1444.74 3413.32 1452.57 3392.25 1452.73 3369.48L1468.36 1105.87C1467.96 1105.11 1467.55 1104.37 1467.13 1103.63L1431.16 3286.74C1430.77 3310.58 1422.45 3332.6 1408.93 3345.65C1400.54 3353.73 1390.8 3357.82 1380.71 3357.41L-115.277 3298.41C-142.421 3297.33 -163.993 3263.88 -163.322 3223.85L-128.434 1108.73ZM1467.28 1094.61L1467.33 1091.61C1467.55 1092.19 1467.77 1092.78 1467.99 1093.38C1468.06 1094.24 1468.13 1095.11 1468.18 1095.98C1467.89 1095.52 1467.59 1095.06 1467.28 1094.61ZM-177.349 1068.97C-173.278 1065.05 -168.855 1062.1 -164.222 1060.19C-164.713 1064.24 -164.98 1068.38 -165.009 1072.57L-165.22 1103.18L-188.93 1103.65C-191.38 1103.7 -193.811 1104 -196.209 1104.54C-192.828 1090.14 -186.29 1077.6 -177.349 1068.97ZM-188.846 1109.93L-165.264 1109.46L-180.637 3339.06C-180.77 3358.95 -175.651 3377.76 -166.197 3392.01C-156.759 3406.28 -144.125 3414.27 -130.622 3414.52L1405.96 3443.16C1416.04 3443.34 1425.8 3439.16 1434.18 3431.05C1448.29 3417.42 1456.83 3394.45 1456.99 3369.56L1472.56 1115.3C1472.72 1115.72 1472.87 1116.14 1473.03 1116.57C1473.31 1119.66 1473.46 1122.78 1473.46 1125.95L1478.52 3452.35C1478.57 3476.16 1470.54 3498.15 1457.03 3511.17L1457.02 3511.19C1449.33 3518.63 1440.36 3522.55 1431.1 3522.56L-146.101 3524.31C-172.308 3524.35 -193.697 3492.89 -193.794 3454.22L-198.819 1127.78C-198.834 1122.14 -198.394 1116.59 -197.533 1111.24C-194.688 1110.43 -191.782 1109.98 -188.846 1109.93ZM-202.128 1112.9C-202.768 1117.76 -203.093 1122.75 -203.081 1127.81L-198.046 3454.26C-197.954 3496.38 -174.633 3530.66 -146.074 3530.61L1431.13 3528.86C1441.22 3528.85 1450.98 3524.53 1459.38 3516.45C1474.07 3502.24 1482.82 3478.29 1482.76 3452.38L1477.74 1136.74C1478.24 1140.7 1478.51 1144.76 1478.56 1148.87L1504.27 3535.24C1504.55 3560.04 1496.3 3582.98 1482.23 3596.57L1482.24 3596.59C1474.54 3604.04 1465.54 3608.1 1456.25 3608.28L-161.552 3640.4C-174.601 3640.65 -186.94 3633.41 -196.311 3619.99C-205.693 3606.54 -210.959 3588.57 -211.164 3569.31L-236.908 1182.93C-237.159 1158.14 -228.922 1135.22 -214.838 1121.62C-210.889 1117.8 -206.61 1114.87 -202.128 1112.9Z" fill="url(#paint0_radial_151_203)" fill-opacity="0.1"/>
<defs>
<radialGradient id="paint0_radial_151_203" cx="0" cy="0" r="1" gradientTransform="matrix(-720.289 -1475.26 1021.01 -1082.28 633.75 2220.77)" gradientUnits="userSpaceOnUse">
<stop stop-color="#C4C4C4"/>
<stop offset="1" stop-color="#5E5E5E"/>
</radialGradient>
</defs>
</svg>
