<svg width="500" height="400" viewBox="0 0 500 400" fill="none" xmlns="http://www.w3.org/2000/svg">
<rect x="0.5" y="0.5" width="499" height="399" rx="29.5" stroke="white"/>
<path d="M58.696 46V64H57.352V47.2H43.672V64H42.328V46H58.696ZM65.2262 50.56H66.5222V55.072C66.7782 54.56 67.0662 54.072 67.3862 53.608C68.1382 52.568 69.0342 51.752 70.0742 51.16C71.1142 50.568 72.2502 50.272 73.4823 50.272C74.7943 50.272 75.9623 50.568 76.9863 51.16C78.0103 51.752 78.8182 52.576 79.4102 53.632C80.0022 54.672 80.2982 55.888 80.2982 57.28C80.2982 58.656 80.0022 59.872 79.4102 60.928C78.8182 61.984 78.0103 62.808 76.9863 63.4C75.9623 63.992 74.7943 64.288 73.4823 64.288C72.2502 64.288 71.1142 64 70.0742 63.424C69.0342 62.832 68.1382 62.008 67.3862 60.952C67.0662 60.504 66.7782 60.024 66.5222 59.512V67.96H65.2262V50.56ZM78.9542 57.28C78.9542 56.128 78.7143 55.12 78.2343 54.256C77.7703 53.392 77.1223 52.72 76.2902 52.24C75.4742 51.744 74.5382 51.496 73.4823 51.496C72.4262 51.496 71.4582 51.744 70.5782 52.24C69.6982 52.72 68.9142 53.392 68.2262 54.256C67.5382 55.12 66.9622 56.128 66.4982 57.28C66.9622 58.416 67.5382 59.424 68.2262 60.304C68.9142 61.168 69.6982 61.848 70.5782 62.344C71.4582 62.824 72.4262 63.064 73.4823 63.064C74.5382 63.064 75.4742 62.824 76.2902 62.344C77.1223 61.848 77.7703 61.168 78.2343 60.304C78.7143 59.424 78.9542 58.416 78.9542 57.28ZM92.6086 64.288C91.0726 64.288 89.7206 63.992 88.5526 63.4C87.3846 62.808 86.4726 61.984 85.8166 60.928C85.1606 59.872 84.8326 58.656 84.8326 57.28C84.8326 55.888 85.1606 54.672 85.8166 53.632C86.4726 52.576 87.3846 51.752 88.5526 51.16C89.7206 50.568 91.0726 50.272 92.6086 50.272C94.1446 50.272 95.4966 50.568 96.6646 51.16C97.8326 51.752 98.7446 52.576 99.4006 53.632C100.057 54.672 100.385 55.888 100.385 57.28C100.385 58.656 100.057 59.872 99.4006 60.928C98.7446 61.984 97.8326 62.808 96.6646 63.4C95.4966 63.992 94.1446 64.288 92.6086 64.288ZM92.6086 63.064C93.9206 63.064 95.0566 62.824 96.0166 62.344C96.9766 61.864 97.7206 61.192 98.2486 60.328C98.7766 59.464 99.0406 58.448 99.0406 57.28C99.0406 56.112 98.7766 55.096 98.2486 54.232C97.7206 53.368 96.9766 52.696 96.0166 52.216C95.0566 51.736 93.9206 51.496 92.6086 51.496C91.3126 51.496 90.1766 51.736 89.2006 52.216C88.2406 52.696 87.4966 53.368 86.9686 54.232C86.4406 55.096 86.1766 56.112 86.1766 57.28C86.1766 58.448 86.4406 59.464 86.9686 60.328C87.4966 61.192 88.2406 61.864 89.2006 62.344C90.1766 62.824 91.3126 63.064 92.6086 63.064ZM112.632 64.288C111.112 64.288 109.768 63.992 108.6 63.4C107.448 62.808 106.544 61.984 105.888 60.928C105.248 59.872 104.928 58.656 104.928 57.28C104.928 55.888 105.232 54.672 105.84 53.632C106.464 52.576 107.32 51.752 108.408 51.16C109.496 50.568 110.76 50.272 112.2 50.272C113.592 50.272 114.816 50.576 115.872 51.184C116.928 51.792 117.752 52.64 118.344 53.728C118.936 54.8 119.232 56.048 119.232 57.472H106.272C106.304 58.56 106.568 59.512 107.064 60.328C107.592 61.192 108.328 61.864 109.272 62.344C110.232 62.824 111.352 63.064 112.632 63.064C113.816 63.064 114.928 62.856 115.968 62.44C117.008 62.024 117.96 61.472 118.824 60.784V62.008C117.992 62.712 117.016 63.272 115.896 63.688C114.776 64.088 113.688 64.288 112.632 64.288ZM117.816 56.32C117.704 55.504 117.464 54.768 117.096 54.112C116.616 53.28 115.952 52.64 115.104 52.192C114.272 51.728 113.304 51.496 112.2 51.496C111 51.496 109.952 51.736 109.056 52.216C108.176 52.696 107.496 53.368 107.016 54.232C106.664 54.856 106.44 55.552 106.344 56.32H117.816ZM124.528 64V50.56H125.824V56.656H130.12L135.472 50.56H137.128L131.296 57.184L137.608 64H135.904L130.216 57.832H125.824V64H124.528ZM140.343 50.56H153.783V51.736H147.711V64H146.415V51.736H140.343V50.56ZM158.39 64V50.56H159.686V62.68L170.366 50.56H172.046V64H170.75V51.88L160.07 64H158.39ZM178.275 50.56H179.571V55.072C179.827 54.56 180.115 54.072 180.435 53.608C181.187 52.568 182.083 51.752 183.123 51.16C184.163 50.568 185.299 50.272 186.531 50.272C187.843 50.272 189.011 50.568 190.035 51.16C191.059 51.752 191.867 52.576 192.459 53.632C193.051 54.672 193.347 55.888 193.347 57.28C193.347 58.656 193.051 59.872 192.459 60.928C191.867 61.984 191.059 62.808 190.035 63.4C189.011 63.992 187.843 64.288 186.531 64.288C185.299 64.288 184.163 64 183.123 63.424C182.083 62.832 181.187 62.008 180.435 60.952C180.115 60.504 179.827 60.024 179.571 59.512V67.96H178.275V50.56ZM192.003 57.28C192.003 56.128 191.763 55.12 191.283 54.256C190.819 53.392 190.171 52.72 189.339 52.24C188.523 51.744 187.587 51.496 186.531 51.496C185.475 51.496 184.507 51.744 183.627 52.24C182.747 52.72 181.963 53.392 181.275 54.256C180.587 55.12 180.011 56.128 179.547 57.28C180.011 58.416 180.587 59.424 181.275 60.304C181.963 61.168 182.747 61.848 183.627 62.344C184.507 62.824 185.475 63.064 186.531 63.064C187.587 63.064 188.523 62.824 189.339 62.344C190.171 61.848 190.819 61.168 191.283 60.304C191.763 59.424 192.003 58.416 192.003 57.28ZM205.657 64.288C204.121 64.288 202.769 63.992 201.601 63.4C200.433 62.808 199.521 61.984 198.865 60.928C198.209 59.872 197.881 58.656 197.881 57.28C197.881 55.888 198.209 54.672 198.865 53.632C199.521 52.576 200.433 51.752 201.601 51.16C202.769 50.568 204.121 50.272 205.657 50.272C207.193 50.272 208.545 50.568 209.713 51.16C210.881 51.752 211.793 52.576 212.449 53.632C213.105 54.672 213.433 55.888 213.433 57.28C213.433 58.656 213.105 59.872 212.449 60.928C211.793 61.984 210.881 62.808 209.713 63.4C208.545 63.992 207.193 64.288 205.657 64.288ZM205.657 63.064C206.969 63.064 208.105 62.824 209.065 62.344C210.025 61.864 210.769 61.192 211.297 60.328C211.825 59.464 212.089 58.448 212.089 57.28C212.089 56.112 211.825 55.096 211.297 54.232C210.769 53.368 210.025 52.696 209.065 52.216C208.105 51.736 206.969 51.496 205.657 51.496C204.361 51.496 203.225 51.736 202.249 52.216C201.289 52.696 200.545 53.368 200.017 54.232C199.489 55.096 199.225 56.112 199.225 57.28C199.225 58.448 199.489 59.464 200.017 60.328C200.545 61.192 201.289 61.864 202.249 62.344C203.225 62.824 204.361 63.064 205.657 63.064ZM218.553 64V50.56H227.073C228.385 50.56 229.393 50.864 230.097 51.472C230.801 52.064 231.153 52.904 231.153 53.992C231.153 54.984 230.801 55.768 230.097 56.344C229.713 56.664 229.249 56.904 228.705 57.064C229.585 57.208 230.297 57.472 230.841 57.856C231.625 58.448 232.017 59.296 232.017 60.4C232.017 61.552 231.617 62.44 230.817 63.064C230.017 63.688 228.881 64 227.409 64H218.553ZM219.873 56.608H226.785C227.729 56.608 228.465 56.376 228.993 55.912C229.537 55.432 229.809 54.792 229.809 53.992C229.809 53.256 229.561 52.696 229.065 52.312C228.585 51.928 227.881 51.736 226.953 51.736H219.873V56.608ZM219.873 62.824H227.505C228.545 62.824 229.329 62.616 229.857 62.2C230.401 61.784 230.673 61.184 230.673 60.4C230.673 59.536 230.329 58.88 229.641 58.432C228.953 57.984 227.945 57.76 226.617 57.76H219.873V62.824ZM242.453 55.36C242.757 55.36 243.045 55.36 243.317 55.36C244.917 55.36 246.205 55.472 247.181 55.696C247.837 55.856 248.325 56 248.645 56.128C248.645 54.704 248.165 53.568 247.205 52.72C246.229 51.872 244.837 51.448 243.029 51.448C242.181 51.448 241.317 51.568 240.437 51.808C239.557 52.032 238.693 52.448 237.845 53.056V51.856C238.613 51.296 239.429 50.896 240.293 50.656C241.173 50.4 242.117 50.272 243.125 50.272C244.389 50.272 245.533 50.496 246.557 50.944C247.597 51.376 248.421 52.04 249.029 52.936C249.637 53.832 249.941 54.984 249.941 56.392V64H248.645V61.336C248.325 61.8 247.901 62.24 247.373 62.656C246.781 63.12 246.069 63.512 245.237 63.832C244.405 64.136 243.477 64.288 242.453 64.288C241.333 64.288 240.325 64.112 239.429 63.76C238.549 63.408 237.853 62.904 237.341 62.248C236.829 61.576 236.573 60.776 236.573 59.848C236.573 58.936 236.829 58.16 237.341 57.52C237.869 56.864 238.573 56.352 239.453 55.984C240.349 55.6 241.349 55.392 242.453 55.36ZM248.645 57.352C247.749 56.824 246.717 56.552 245.549 56.536C244.397 56.52 243.781 56.512 243.701 56.512C241.589 56.512 240.125 56.824 239.309 57.448C238.493 58.056 238.085 58.84 238.085 59.8C238.085 60.824 238.477 61.64 239.261 62.248C240.061 62.84 241.125 63.136 242.453 63.136C242.549 63.136 242.653 63.136 242.765 63.136C244.461 63.072 245.861 62.552 246.965 61.576C248.085 60.584 248.645 59.176 248.645 57.352ZM255.937 50.56H257.233V56.656H267.649V50.56H268.945V64H267.649V57.832H257.233V64H255.937V50.56ZM275.189 64V50.56H276.485V62.68L287.165 50.56H288.845V64H287.549V51.88L276.869 64H275.189ZM301.937 64.288C300.417 64.288 299.073 63.992 297.905 63.4C296.753 62.808 295.849 61.984 295.193 60.928C294.553 59.872 294.233 58.656 294.233 57.28C294.233 55.888 294.537 54.672 295.145 53.632C295.769 52.576 296.625 51.752 297.713 51.16C298.801 50.568 300.065 50.272 301.505 50.272C302.897 50.272 304.121 50.576 305.177 51.184C306.233 51.792 307.057 52.64 307.649 53.728C308.241 54.8 308.537 56.048 308.537 57.472H295.577C295.609 58.56 295.873 59.512 296.369 60.328C296.897 61.192 297.633 61.864 298.577 62.344C299.537 62.824 300.657 63.064 301.937 63.064C303.121 63.064 304.233 62.856 305.273 62.44C306.313 62.024 307.265 61.472 308.129 60.784V62.008C307.297 62.712 306.321 63.272 305.201 63.688C304.081 64.088 302.993 64.288 301.937 64.288ZM307.121 56.32C307.009 55.504 306.769 54.768 306.401 54.112C305.921 53.28 305.257 52.64 304.409 52.192C303.577 51.728 302.609 51.496 301.505 51.496C300.305 51.496 299.257 51.736 298.361 52.216C297.481 52.696 296.801 53.368 296.321 54.232C295.969 54.856 295.745 55.552 295.649 56.32H307.121ZM323.1 64V50.56H324.396V62.68L335.076 50.56H336.756V64H335.46V51.88L324.78 64H323.1ZM41.92 94V80.56H43.816L50.44 92.704L57.064 80.56H58.96V94H57.712V82L51.088 94H49.792L43.168 82.024V94H41.92ZM72.1148 94.288C70.5788 94.288 69.2268 93.992 68.0588 93.4C66.8908 92.808 65.9788 91.984 65.3228 90.928C64.6668 89.872 64.3388 88.656 64.3388 87.28C64.3388 85.888 64.6668 84.672 65.3228 83.632C65.9788 82.576 66.8908 81.752 68.0588 81.16C69.2268 80.568 70.5788 80.272 72.1148 80.272C73.6508 80.272 75.0028 80.568 76.1708 81.16C77.3388 81.752 78.2508 82.576 78.9068 83.632C79.5628 84.672 79.8908 85.888 79.8908 87.28C79.8908 88.656 79.5628 89.872 78.9068 90.928C78.2508 91.984 77.3388 92.808 76.1708 93.4C75.0028 93.992 73.6508 94.288 72.1148 94.288ZM72.1148 93.064C73.4268 93.064 74.5628 92.824 75.5228 92.344C76.4828 91.864 77.2268 91.192 77.7548 90.328C78.2828 89.464 78.5468 88.448 78.5468 87.28C78.5468 86.112 78.2828 85.096 77.7548 84.232C77.2268 83.368 76.4828 82.696 75.5228 82.216C74.5628 81.736 73.4268 81.496 72.1148 81.496C70.8188 81.496 69.6828 81.736 68.7068 82.216C67.7468 82.696 67.0028 83.368 66.4748 84.232C65.9468 85.096 65.6828 86.112 65.6828 87.28C65.6828 88.448 65.9468 89.464 66.4748 90.328C67.0028 91.192 67.7468 91.864 68.7068 92.344C69.6828 92.824 70.8188 93.064 72.1148 93.064ZM85.2747 80.56H86.5707V86.656H96.9867V80.56H98.2827V94H96.9867V87.832H86.5707V94H85.2747V80.56ZM102.894 80.56H116.334V81.736H110.262V94H108.966V81.736H102.894V80.56ZM125.232 85.36C125.536 85.36 125.824 85.36 126.096 85.36C127.696 85.36 128.984 85.472 129.96 85.696C130.616 85.856 131.104 86 131.424 86.128C131.424 84.704 130.944 83.568 129.984 82.72C129.008 81.872 127.616 81.448 125.808 81.448C124.96 81.448 124.096 81.568 123.216 81.808C122.336 82.032 121.472 82.448 120.624 83.056V81.856C121.392 81.296 122.208 80.896 123.072 80.656C123.952 80.4 124.896 80.272 125.904 80.272C127.168 80.272 128.312 80.496 129.336 80.944C130.376 81.376 131.2 82.04 131.808 82.936C132.416 83.832 132.72 84.984 132.72 86.392V94H131.424V91.336C131.104 91.8 130.68 92.24 130.152 92.656C129.56 93.12 128.848 93.512 128.016 93.832C127.184 94.136 126.256 94.288 125.232 94.288C124.112 94.288 123.104 94.112 122.208 93.76C121.328 93.408 120.632 92.904 120.12 92.248C119.608 91.576 119.352 90.776 119.352 89.848C119.352 88.936 119.608 88.16 120.12 87.52C120.648 86.864 121.352 86.352 122.232 85.984C123.128 85.6 124.128 85.392 125.232 85.36ZM131.424 87.352C130.528 86.824 129.496 86.552 128.328 86.536C127.176 86.52 126.56 86.512 126.48 86.512C124.368 86.512 122.904 86.824 122.088 87.448C121.272 88.056 120.864 88.84 120.864 89.8C120.864 90.824 121.256 91.64 122.04 92.248C122.84 92.84 123.904 93.136 125.232 93.136C125.328 93.136 125.432 93.136 125.544 93.136C127.24 93.072 128.64 92.552 129.744 91.576C130.864 90.584 131.424 89.176 131.424 87.352ZM148.629 94V87.832H143.373L138.549 94H136.845L142.197 87.184L137.325 80.56H138.981L143.445 86.656H148.629V80.56H149.925V86.656H155.109L159.573 80.56H161.229L156.357 87.184L161.709 94H160.005L155.181 87.832H149.925V94H148.629ZM181.513 94.288C180.281 94.288 179.161 94.072 178.153 93.64C177.161 93.208 176.329 92.616 175.657 91.864C174.985 91.096 174.537 90.232 174.313 89.272H175.705C176.025 90.392 176.697 91.304 177.721 92.008C178.745 92.712 180.009 93.064 181.513 93.064C182.745 93.064 183.809 92.824 184.705 92.344C185.617 91.864 186.321 91.192 186.817 90.328C187.233 89.608 187.473 88.784 187.537 87.856H179.161V86.704H187.537C187.473 85.776 187.233 84.952 186.817 84.232C186.321 83.368 185.617 82.696 184.705 82.216C183.809 81.736 182.745 81.496 181.513 81.496C180.025 81.496 178.761 81.848 177.721 82.552C176.697 83.256 176.025 84.168 175.705 85.288H174.313C174.537 84.312 174.985 83.448 175.657 82.696C176.329 81.944 177.161 81.352 178.153 80.92C179.161 80.488 180.281 80.272 181.513 80.272C182.969 80.272 184.249 80.568 185.353 81.16C186.473 81.752 187.345 82.576 187.969 83.632C188.593 84.672 188.905 85.888 188.905 87.28C188.905 88.656 188.593 89.872 187.969 90.928C187.345 91.984 186.473 92.808 185.353 93.4C184.249 93.992 182.969 94.288 181.513 94.288ZM195.989 80.56H207.845V94H206.549V81.736H197.309C197.373 82.616 197.437 83.504 197.501 84.4C197.549 85.44 197.573 86.36 197.573 87.16C197.573 89.624 197.261 91.416 196.637 92.536C196.013 93.656 195.029 94.216 193.685 94.216C193.365 94.216 193.045 94.176 192.725 94.096C192.405 94.032 192.109 93.92 191.837 93.76V92.608C192.109 92.72 192.389 92.816 192.677 92.896C192.965 92.96 193.237 92.992 193.493 92.992C194.485 92.992 195.205 92.52 195.653 91.576C196.101 90.632 196.325 89.096 196.325 86.968C196.325 86.136 196.293 85.168 196.229 84.064C196.181 82.96 196.101 81.792 195.989 80.56ZM220.947 94.288C219.427 94.288 218.083 93.992 216.915 93.4C215.763 92.808 214.859 91.984 214.203 90.928C213.563 89.872 213.243 88.656 213.243 87.28C213.243 85.888 213.547 84.672 214.155 83.632C214.779 82.576 215.635 81.752 216.723 81.16C217.811 80.568 219.075 80.272 220.515 80.272C221.907 80.272 223.131 80.576 224.187 81.184C225.243 81.792 226.067 82.64 226.659 83.728C227.251 84.8 227.547 86.048 227.547 87.472H214.587C214.619 88.56 214.883 89.512 215.379 90.328C215.907 91.192 216.643 91.864 217.587 92.344C218.547 92.824 219.667 93.064 220.947 93.064C222.131 93.064 223.243 92.856 224.283 92.44C225.323 92.024 226.275 91.472 227.139 90.784V92.008C226.307 92.712 225.331 93.272 224.211 93.688C223.091 94.088 222.003 94.288 220.947 94.288ZM226.131 86.32C226.019 85.504 225.779 84.768 225.411 84.112C224.931 83.28 224.267 82.64 223.419 82.192C222.587 81.728 221.619 81.496 220.515 81.496C219.315 81.496 218.267 81.736 217.371 82.216C216.491 82.696 215.811 83.368 215.331 84.232C214.979 84.856 214.755 85.552 214.659 86.32H226.131ZM232.842 94V80.56H234.138V86.656H238.434L243.786 80.56H245.442L239.61 87.184L245.922 94H244.218L238.53 87.832H234.138V94H232.842ZM248.657 80.56H262.097V81.736H256.025V94H254.729V81.736H248.657V80.56ZM266.704 80.56H268V85.072C268.256 84.56 268.544 84.072 268.864 83.608C269.616 82.568 270.512 81.752 271.552 81.16C272.592 80.568 273.728 80.272 274.96 80.272C276.272 80.272 277.44 80.568 278.464 81.16C279.488 81.752 280.296 82.576 280.888 83.632C281.48 84.672 281.776 85.888 281.776 87.28C281.776 88.656 281.48 89.872 280.888 90.928C280.296 91.984 279.488 92.808 278.464 93.4C277.44 93.992 276.272 94.288 274.96 94.288C273.728 94.288 272.592 94 271.552 93.424C270.512 92.832 269.616 92.008 268.864 90.952C268.544 90.504 268.256 90.024 268 89.512V97.96H266.704V80.56ZM280.432 87.28C280.432 86.128 280.192 85.12 279.712 84.256C279.248 83.392 278.6 82.72 277.768 82.24C276.952 81.744 276.016 81.496 274.96 81.496C273.904 81.496 272.936 81.744 272.056 82.24C271.176 82.72 270.392 83.392 269.704 84.256C269.016 85.12 268.44 86.128 267.976 87.28C268.44 88.416 269.016 89.424 269.704 90.304C270.392 91.168 271.176 91.848 272.056 92.344C272.936 92.824 273.904 93.064 274.96 93.064C276.016 93.064 276.952 92.824 277.768 92.344C278.6 91.848 279.248 91.168 279.712 90.304C280.192 89.424 280.432 88.416 280.432 87.28ZM294.087 94.288C292.551 94.288 291.199 93.992 290.031 93.4C288.863 92.808 287.951 91.984 287.295 90.928C286.639 89.872 286.311 88.656 286.311 87.28C286.311 85.888 286.639 84.672 287.295 83.632C287.951 82.576 288.863 81.752 290.031 81.16C291.199 80.568 292.551 80.272 294.087 80.272C295.623 80.272 296.975 80.568 298.143 81.16C299.311 81.752 300.223 82.576 300.879 83.632C301.535 84.672 301.863 85.888 301.863 87.28C301.863 88.656 301.535 89.872 300.879 90.928C300.223 91.984 299.311 92.808 298.143 93.4C296.975 93.992 295.623 94.288 294.087 94.288ZM294.087 93.064C295.399 93.064 296.535 92.824 297.495 92.344C298.455 91.864 299.199 91.192 299.727 90.328C300.255 89.464 300.519 88.448 300.519 87.28C300.519 86.112 300.255 85.096 299.727 84.232C299.199 83.368 298.455 82.696 297.495 82.216C296.535 81.736 295.399 81.496 294.087 81.496C292.791 81.496 291.655 81.736 290.679 82.216C289.719 82.696 288.975 83.368 288.447 84.232C287.919 85.096 287.655 86.112 287.655 87.28C287.655 88.448 287.919 89.464 288.447 90.328C288.975 91.192 289.719 91.864 290.679 92.344C291.655 92.824 292.791 93.064 294.087 93.064ZM320.951 89.08C320.759 90.104 320.327 91.008 319.655 91.792C318.983 92.576 318.135 93.192 317.111 93.64C316.103 94.072 314.983 94.288 313.751 94.288C312.311 94.288 311.039 93.992 309.935 93.4C308.831 92.808 307.967 91.984 307.343 90.928C306.719 89.872 306.407 88.656 306.407 87.28C306.407 85.888 306.719 84.672 307.343 83.632C307.967 82.576 308.831 81.752 309.935 81.16C311.039 80.568 312.311 80.272 313.751 80.272C314.983 80.272 316.103 80.496 317.111 80.944C318.135 81.376 318.983 81.984 319.655 82.768C320.327 83.536 320.759 84.44 320.951 85.48H319.559C319.287 84.264 318.623 83.296 317.567 82.576C316.511 81.856 315.239 81.496 313.751 81.496C312.535 81.496 311.479 81.736 310.583 82.216C309.687 82.696 308.991 83.368 308.495 84.232C307.999 85.096 307.751 86.112 307.751 87.28C307.751 88.448 307.999 89.464 308.495 90.328C308.991 91.192 309.687 91.864 310.583 92.344C311.479 92.824 312.535 93.064 313.751 93.064C315.255 93.064 316.535 92.704 317.591 91.984C318.647 91.264 319.303 90.296 319.559 89.08H320.951ZM333.057 94.288C331.537 94.288 330.193 93.992 329.025 93.4C327.873 92.808 326.969 91.984 326.313 90.928C325.673 89.872 325.353 88.656 325.353 87.28C325.353 85.888 325.657 84.672 326.265 83.632C326.889 82.576 327.745 81.752 328.833 81.16C329.921 80.568 331.185 80.272 332.625 80.272C334.017 80.272 335.241 80.576 336.297 81.184C337.353 81.792 338.177 82.64 338.769 83.728C339.361 84.8 339.657 86.048 339.657 87.472H326.697C326.729 88.56 326.993 89.512 327.489 90.328C328.017 91.192 328.753 91.864 329.697 92.344C330.657 92.824 331.777 93.064 333.057 93.064C334.241 93.064 335.353 92.856 336.393 92.44C337.433 92.024 338.385 91.472 339.249 90.784V92.008C338.417 92.712 337.441 93.272 336.321 93.688C335.201 94.088 334.113 94.288 333.057 94.288ZM338.241 86.32C338.129 85.504 337.889 84.768 337.521 84.112C337.041 83.28 336.377 82.64 335.529 82.192C334.697 81.728 333.729 81.496 332.625 81.496C331.425 81.496 330.377 81.736 329.481 82.216C328.601 82.696 327.921 83.368 327.441 84.232C327.089 84.856 326.865 85.552 326.769 86.32H338.241ZM342.594 80.56H356.034V81.736H349.962V94H348.666V81.736H342.594V80.56ZM366.592 94.288C365.072 94.288 363.728 93.992 362.56 93.4C361.408 92.808 360.504 91.984 359.848 90.928C359.208 89.872 358.888 88.656 358.888 87.28C358.888 85.888 359.192 84.672 359.8 83.632C360.424 82.576 361.28 81.752 362.368 81.16C363.456 80.568 364.72 80.272 366.16 80.272C367.552 80.272 368.776 80.576 369.832 81.184C370.888 81.792 371.712 82.64 372.304 83.728C372.896 84.8 373.192 86.048 373.192 87.472H360.232C360.264 88.56 360.528 89.512 361.024 90.328C361.552 91.192 362.288 91.864 363.232 92.344C364.192 92.824 365.312 93.064 366.592 93.064C367.776 93.064 368.888 92.856 369.928 92.44C370.968 92.024 371.92 91.472 372.784 90.784V92.008C371.952 92.712 370.976 93.272 369.856 93.688C368.736 94.088 367.648 94.288 366.592 94.288ZM371.776 86.32C371.664 85.504 371.424 84.768 371.056 84.112C370.576 83.28 369.912 82.64 369.064 82.192C368.232 81.728 367.264 81.496 366.16 81.496C364.96 81.496 363.912 81.736 363.016 82.216C362.136 82.696 361.456 83.368 360.976 84.232C360.624 84.856 360.4 85.552 360.304 86.32H371.776ZM378.487 94V80.56H379.783V92.68L390.463 80.56H392.143V94H390.847V81.88L380.167 94H378.487ZM385.087 78.976C383.887 78.976 382.911 78.656 382.159 78.016C381.423 77.36 380.983 76.448 380.839 75.28H382.087C382.247 76.112 382.591 76.76 383.119 77.224C383.647 77.672 384.303 77.896 385.087 77.896C385.887 77.896 386.543 77.672 387.055 77.224C387.583 76.76 387.927 76.112 388.087 75.28H389.335C389.191 76.448 388.743 77.36 387.991 78.016C387.255 78.656 386.287 78.976 385.087 78.976ZM407.639 94V80.56H408.935V92.68L419.615 80.56H421.295V94H419.999V81.88L409.319 94H407.639ZM55.624 119.08C55.432 120.104 55 121.008 54.328 121.792C53.656 122.576 52.808 123.192 51.784 123.64C50.776 124.072 49.656 124.288 48.424 124.288C46.984 124.288 45.712 123.992 44.608 123.4C43.504 122.808 42.64 121.984 42.016 120.928C41.392 119.872 41.08 118.656 41.08 117.28C41.08 115.888 41.392 114.672 42.016 113.632C42.64 112.576 43.504 111.752 44.608 111.16C45.712 110.568 46.984 110.272 48.424 110.272C49.656 110.272 50.776 110.496 51.784 110.944C52.808 111.376 53.656 111.984 54.328 112.768C55 113.536 55.432 114.44 55.624 115.48H54.232C53.96 114.264 53.296 113.296 52.24 112.576C51.184 111.856 49.912 111.496 48.424 111.496C47.208 111.496 46.152 111.736 45.256 112.216C44.36 112.696 43.664 113.368 43.168 114.232C42.672 115.096 42.424 116.112 42.424 117.28C42.424 118.448 42.672 119.464 43.168 120.328C43.664 121.192 44.36 121.864 45.256 122.344C46.152 122.824 47.208 123.064 48.424 123.064C49.928 123.064 51.208 122.704 52.264 121.984C53.32 121.264 53.976 120.296 54.232 119.08H55.624ZM62.7512 110.56H74.6073V124H73.3112V111.736H64.0712C64.1352 112.616 64.1992 113.504 64.2632 114.4C64.3112 115.44 64.3352 116.36 64.3352 117.16C64.3352 119.624 64.0232 121.416 63.3993 122.536C62.7752 123.656 61.7912 124.216 60.4472 124.216C60.1272 124.216 59.8072 124.176 59.4872 124.096C59.1672 124.032 58.8712 123.92 58.5992 123.76V122.608C58.8712 122.72 59.1512 122.816 59.4392 122.896C59.7272 122.96 59.9992 122.992 60.2552 122.992C61.2472 122.992 61.9672 122.52 62.4152 121.576C62.8632 120.632 63.0872 119.096 63.0872 116.968C63.0872 116.136 63.0552 115.168 62.9912 114.064C62.9432 112.96 62.8632 111.792 62.7512 110.56ZM85.909 115.36C86.213 115.36 86.501 115.36 86.773 115.36C88.373 115.36 89.661 115.472 90.637 115.696C91.293 115.856 91.781 116 92.101 116.128C92.101 114.704 91.621 113.568 90.661 112.72C89.685 111.872 88.293 111.448 86.485 111.448C85.637 111.448 84.773 111.568 83.893 111.808C83.013 112.032 82.149 112.448 81.301 113.056V111.856C82.069 111.296 82.885 110.896 83.749 110.656C84.629 110.4 85.573 110.272 86.581 110.272C87.845 110.272 88.989 110.496 90.013 110.944C91.053 111.376 91.877 112.04 92.485 112.936C93.093 113.832 93.397 114.984 93.397 116.392V124H92.101V121.336C91.781 121.8 91.357 122.24 90.829 122.656C90.237 123.12 89.525 123.512 88.693 123.832C87.861 124.136 86.933 124.288 85.909 124.288C84.789 124.288 83.781 124.112 82.885 123.76C82.005 123.408 81.309 122.904 80.797 122.248C80.285 121.576 80.029 120.776 80.029 119.848C80.029 118.936 80.285 118.16 80.797 117.52C81.325 116.864 82.029 116.352 82.909 115.984C83.805 115.6 84.805 115.392 85.909 115.36ZM92.101 117.352C91.205 116.824 90.173 116.552 89.005 116.536C87.853 116.52 87.237 116.512 87.157 116.512C85.045 116.512 83.581 116.824 82.765 117.448C81.949 118.056 81.541 118.84 81.541 119.8C81.541 120.824 81.933 121.64 82.717 122.248C83.517 122.84 84.581 123.136 85.909 123.136C86.005 123.136 86.109 123.136 86.221 123.136C87.917 123.072 89.317 122.552 90.421 121.576C91.541 120.584 92.101 119.176 92.101 117.352ZM106.881 124.288C105.201 124.288 103.761 123.936 102.561 123.232C101.361 122.512 100.433 121.488 99.7774 120.16C99.1374 118.816 98.8174 117.208 98.8174 115.336C98.8174 112.536 99.5054 110.328 100.881 108.712C102.273 107.096 104.249 106.184 106.809 105.976C107.817 105.896 108.649 105.824 109.305 105.76C109.977 105.68 110.529 105.608 110.961 105.544C111.393 105.48 111.753 105.408 112.041 105.328C112.345 105.248 112.641 105.152 112.929 105.04V106.384C112.673 106.512 112.297 106.624 111.801 106.72C111.321 106.816 110.697 106.904 109.929 106.984C109.161 107.064 108.225 107.136 107.121 107.2C104.849 107.328 103.105 108.088 101.889 109.48C100.673 110.872 100.065 112.824 100.065 115.336V115.84C100.449 114.976 100.937 114.232 101.529 113.608C102.233 112.872 103.057 112.312 104.001 111.928C104.945 111.528 105.985 111.328 107.121 111.328C108.513 111.328 109.729 111.6 110.769 112.144C111.809 112.688 112.617 113.448 113.193 114.424C113.785 115.384 114.081 116.504 114.081 117.784C114.081 119.096 113.777 120.24 113.169 121.216C112.577 122.192 111.745 122.952 110.673 123.496C109.601 124.024 108.337 124.288 106.881 124.288ZM106.929 123.064C108.097 123.064 109.113 122.848 109.977 122.416C110.857 121.968 111.537 121.352 112.017 120.568C112.497 119.784 112.737 118.864 112.737 117.808C112.737 116.752 112.497 115.832 112.017 115.048C111.537 114.248 110.857 113.632 109.977 113.2C109.113 112.768 108.097 112.552 106.929 112.552C105.361 112.552 104.001 112.984 102.849 113.848C101.713 114.712 100.865 115.952 100.305 117.568C100.625 119.312 101.369 120.664 102.537 121.624C103.705 122.584 105.169 123.064 106.929 123.064ZM126.424 124.288C124.888 124.288 123.536 123.992 122.368 123.4C121.2 122.808 120.288 121.984 119.632 120.928C118.976 119.872 118.648 118.656 118.648 117.28C118.648 115.888 118.976 114.672 119.632 113.632C120.288 112.576 121.2 111.752 122.368 111.16C123.536 110.568 124.888 110.272 126.424 110.272C127.96 110.272 129.312 110.568 130.48 111.16C131.648 111.752 132.56 112.576 133.216 113.632C133.872 114.672 134.2 115.888 134.2 117.28C134.2 118.656 133.872 119.872 133.216 120.928C132.56 121.984 131.648 122.808 130.48 123.4C129.312 123.992 127.96 124.288 126.424 124.288ZM126.424 123.064C127.736 123.064 128.872 122.824 129.832 122.344C130.792 121.864 131.536 121.192 132.064 120.328C132.592 119.464 132.856 118.448 132.856 117.28C132.856 116.112 132.592 115.096 132.064 114.232C131.536 113.368 130.792 112.696 129.832 112.216C128.872 111.736 127.736 111.496 126.424 111.496C125.128 111.496 123.992 111.736 123.016 112.216C122.056 112.696 121.312 113.368 120.784 114.232C120.256 115.096 119.992 116.112 119.992 117.28C119.992 118.448 120.256 119.464 120.784 120.328C121.312 121.192 122.056 121.864 123.016 122.344C123.992 122.824 125.128 123.064 126.424 123.064ZM137.038 110.56H150.478V111.736H144.406V124H143.11V111.736H137.038V110.56ZM161.084 124.288C159.548 124.288 158.196 123.992 157.028 123.4C155.86 122.808 154.948 121.984 154.292 120.928C153.636 119.872 153.308 118.656 153.308 117.28C153.308 115.888 153.636 114.672 154.292 113.632C154.948 112.576 155.86 111.752 157.028 111.16C158.196 110.568 159.548 110.272 161.084 110.272C162.62 110.272 163.972 110.568 165.14 111.16C166.308 111.752 167.22 112.576 167.876 113.632C168.532 114.672 168.86 115.888 168.86 117.28C168.86 118.656 168.532 119.872 167.876 120.928C167.22 121.984 166.308 122.808 165.14 123.4C163.972 123.992 162.62 124.288 161.084 124.288ZM161.084 123.064C162.396 123.064 163.532 122.824 164.492 122.344C165.452 121.864 166.196 121.192 166.724 120.328C167.252 119.464 167.516 118.448 167.516 117.28C167.516 116.112 167.252 115.096 166.724 114.232C166.196 113.368 165.452 112.696 164.492 112.216C163.532 111.736 162.396 111.496 161.084 111.496C159.788 111.496 158.652 111.736 157.676 112.216C156.716 112.696 155.972 113.368 155.444 114.232C154.916 115.096 154.652 116.112 154.652 117.28C154.652 118.448 154.916 119.464 155.444 120.328C155.972 121.192 156.716 121.864 157.676 122.344C158.652 122.824 159.788 123.064 161.084 123.064ZM178.59 119.32C176.798 119.32 175.446 118.848 174.534 117.904C173.622 116.944 173.166 115.528 173.166 113.656V110.56H174.462V113.608C174.462 116.6 175.854 118.096 178.638 118.096C179.742 118.096 180.774 117.872 181.734 117.424C182.614 117.024 183.454 116.416 184.254 115.6V110.56H185.55V124H184.254V117.04C183.614 117.712 182.854 118.24 181.974 118.624C180.934 119.088 179.806 119.32 178.59 119.32ZM191.784 110.56H193.08V116.656H203.496V110.56H204.792V124H203.496V117.832H193.08V124H191.784V110.56ZM225.292 110.56H226.588V124H225.292V110.56ZM211.036 124V110.56H212.332V115.504H218.452C219.444 115.504 220.308 115.68 221.044 116.032C221.78 116.384 222.348 116.88 222.748 117.52C223.164 118.16 223.372 118.904 223.372 119.752C223.372 120.6 223.164 121.344 222.748 121.984C222.348 122.624 221.78 123.12 221.044 123.472C220.308 123.824 219.444 124 218.452 124H211.036ZM212.332 122.824H218.476C219.564 122.824 220.428 122.544 221.068 121.984C221.708 121.424 222.028 120.68 222.028 119.752C222.028 118.808 221.708 118.064 221.068 117.52C220.428 116.96 219.564 116.68 218.476 116.68H212.332V122.824ZM230.97 124L236.994 117.016L231.354 110.56H233.034L237.882 116.128L242.73 110.56H244.314L238.674 116.992L244.698 124H243.138L237.81 117.88L232.482 124H230.97ZM271.69 119.08C271.498 120.104 271.066 121.008 270.394 121.792C269.722 122.576 268.874 123.192 267.85 123.64C266.842 124.072 265.722 124.288 264.49 124.288C263.05 124.288 261.778 123.992 260.674 123.4C259.57 122.808 258.706 121.984 258.082 120.928C257.458 119.872 257.146 118.656 257.146 117.28C257.146 115.888 257.458 114.672 258.082 113.632C258.706 112.576 259.57 111.752 260.674 111.16C261.778 110.568 263.05 110.272 264.49 110.272C265.722 110.272 266.842 110.496 267.85 110.944C268.874 111.376 269.722 111.984 270.394 112.768C271.066 113.536 271.498 114.44 271.69 115.48H270.298C270.026 114.264 269.362 113.296 268.306 112.576C267.25 111.856 265.978 111.496 264.49 111.496C263.274 111.496 262.218 111.736 261.322 112.216C260.426 112.696 259.73 113.368 259.234 114.232C258.738 115.096 258.49 116.112 258.49 117.28C258.49 118.448 258.738 119.464 259.234 120.328C259.73 121.192 260.426 121.864 261.322 122.344C262.218 122.824 263.274 123.064 264.49 123.064C265.994 123.064 267.274 122.704 268.33 121.984C269.386 121.264 270.042 120.296 270.298 119.08H271.69ZM276.932 124V110.56H278.228V122.68L288.908 110.56H290.588V124H289.292V111.88L278.612 124H276.932ZM310.521 119.08C310.329 120.104 309.897 121.008 309.225 121.792C308.553 122.576 307.705 123.192 306.681 123.64C305.673 124.072 304.553 124.288 303.321 124.288C301.881 124.288 300.609 123.992 299.505 123.4C298.401 122.808 297.537 121.984 296.913 120.928C296.289 119.872 295.977 118.656 295.977 117.28C295.977 115.888 296.289 114.672 296.913 113.632C297.537 112.576 298.401 111.752 299.505 111.16C300.609 110.568 301.881 110.272 303.321 110.272C304.553 110.272 305.673 110.496 306.681 110.944C307.705 111.376 308.553 111.984 309.225 112.768C309.897 113.536 310.329 114.44 310.521 115.48H309.129C308.857 114.264 308.193 113.296 307.137 112.576C306.081 111.856 304.809 111.496 303.321 111.496C302.105 111.496 301.049 111.736 300.153 112.216C299.257 112.696 298.561 113.368 298.065 114.232C297.569 115.096 297.321 116.112 297.321 117.28C297.321 118.448 297.569 119.464 298.065 120.328C298.561 121.192 299.257 121.864 300.153 122.344C301.049 122.824 302.105 123.064 303.321 123.064C304.825 123.064 306.105 122.704 307.161 121.984C308.217 121.264 308.873 120.296 309.129 119.08H310.521ZM313.405 110.56H326.845V111.736H320.773V124H319.477V111.736H313.405V110.56ZM337.403 124.288C335.883 124.288 334.539 123.992 333.371 123.4C332.219 122.808 331.315 121.984 330.659 120.928C330.019 119.872 329.699 118.656 329.699 117.28C329.699 115.888 330.003 114.672 330.611 113.632C331.235 112.576 332.091 111.752 333.179 111.16C334.267 110.568 335.531 110.272 336.971 110.272C338.363 110.272 339.587 110.576 340.643 111.184C341.699 111.792 342.523 112.64 343.115 113.728C343.707 114.8 344.003 116.048 344.003 117.472H331.043C331.075 118.56 331.339 119.512 331.835 120.328C332.363 121.192 333.099 121.864 334.043 122.344C335.003 122.824 336.123 123.064 337.403 123.064C338.587 123.064 339.699 122.856 340.739 122.44C341.779 122.024 342.731 121.472 343.595 120.784V122.008C342.763 122.712 341.787 123.272 340.667 123.688C339.547 124.088 338.459 124.288 337.403 124.288ZM342.587 116.32C342.475 115.504 342.235 114.768 341.867 114.112C341.387 113.28 340.723 112.64 339.875 112.192C339.043 111.728 338.075 111.496 336.971 111.496C335.771 111.496 334.723 111.736 333.827 112.216C332.947 112.696 332.267 113.368 331.787 114.232C331.435 114.856 331.211 115.552 331.115 116.32H342.587ZM349.298 124V110.56H351.194L357.818 122.704L364.442 110.56H366.338V124H365.09V112L358.466 124H357.17L350.546 112.024V124H349.298Z" fill="white"/>
<path d="M392.416 190C393.082 190 393.623 190.545 393.623 191.215V262.251H377.934V283.502H393.623V330.858C393.623 331.18 393.496 331.489 393.27 331.717C393.043 331.945 392.736 332.073 392.416 332.073C392.096 332.073 391.789 331.945 391.562 331.717C391.336 331.489 391.209 331.18 391.209 330.858V285.931H377.934V358.785C377.934 359.108 377.807 359.416 377.58 359.644C377.354 359.872 377.047 360 376.727 360C376.406 360 376.099 359.872 375.873 359.644C375.647 359.416 375.52 359.108 375.52 358.785V237.36C375.52 237.038 375.647 236.729 375.873 236.501C376.099 236.273 376.406 236.145 376.727 236.145C377.047 236.145 377.354 236.273 377.58 236.501C377.807 236.729 377.934 237.038 377.934 237.36V259.825H391.209V191.218C391.209 190.548 391.75 190.003 392.416 190.003V190Z" fill="white"/>
<path fill-rule="evenodd" clip-rule="evenodd" d="M408.103 200.931C408.766 200.931 409.307 201.473 409.307 202.145V245.858H426.203V228.774C424.089 228.467 422.169 227.365 420.829 225.691C419.489 224.017 418.829 221.895 418.982 219.751C419.135 217.607 420.09 215.601 421.653 214.137C423.217 212.672 425.274 211.858 427.41 211.858C429.547 211.858 431.604 212.672 433.167 214.137C434.731 215.601 435.685 217.607 435.838 219.751C435.991 221.895 435.332 224.017 433.992 225.691C432.652 227.365 430.732 228.467 428.617 228.774V248.287H409.307V295.647H447.928V330.858C447.928 330.887 447.927 330.915 447.925 330.943C450.04 331.249 451.961 332.35 453.301 334.024C454.642 335.698 455.302 337.821 455.149 339.965C454.997 342.109 454.042 344.116 452.479 345.58C450.915 347.045 448.858 347.859 446.721 347.859C444.585 347.859 442.527 347.045 440.963 345.58C439.4 344.116 438.445 342.109 438.293 339.965C438.14 337.821 438.801 335.698 440.141 334.024C441.481 332.35 443.402 331.249 445.517 330.943L445.514 330.855V298.07H428.617V324.786C428.617 325.108 428.49 325.417 428.264 325.645C428.038 325.872 427.731 326 427.41 326C427.09 326 426.783 325.872 426.557 325.645C426.33 325.417 426.203 325.108 426.203 324.786V298.07H409.307V346.641C409.307 346.963 409.18 347.272 408.953 347.5C408.727 347.727 408.42 347.855 408.1 347.855C407.78 347.855 407.473 347.727 407.246 347.5C407.02 347.272 406.893 346.963 406.893 346.641V202.145C406.893 201.473 407.434 200.931 408.1 200.931H408.103ZM427.41 226.429C429.011 226.429 430.546 225.79 431.678 224.651C432.81 223.512 433.446 221.967 433.446 220.357C433.446 218.746 432.81 217.202 431.678 216.063C430.546 214.924 429.011 214.284 427.41 214.284C425.81 214.284 424.274 214.924 423.143 216.063C422.011 217.202 421.375 218.746 421.375 220.357C421.375 221.967 422.011 223.512 423.143 224.651C424.274 225.79 425.81 226.429 427.41 226.429ZM440.685 339.36C440.685 337.749 441.321 336.205 442.453 335.066C443.585 333.927 445.12 333.287 446.721 333.287C448.322 333.287 449.857 333.927 450.989 335.066C452.121 336.205 452.757 337.749 452.757 339.36C452.757 340.971 452.121 342.515 450.989 343.654C449.857 344.793 448.322 345.433 446.721 345.433C445.12 345.433 443.585 344.793 442.453 343.654C441.321 342.515 440.685 340.971 440.685 339.36ZM346.549 216.629V261.644H359.825V220.357C359.825 220.035 359.952 219.726 360.178 219.498C360.405 219.27 360.712 219.142 361.032 219.142C361.352 219.142 361.659 219.27 361.885 219.498C362.112 219.726 362.239 220.035 362.239 220.357V330.946C364.353 331.253 366.273 332.355 367.613 334.029C368.953 335.703 369.613 337.825 369.46 339.969C369.307 342.113 368.352 344.119 366.789 345.584C365.225 347.048 363.168 347.862 361.032 347.862C358.895 347.862 356.838 347.048 355.275 345.584C353.711 344.119 352.757 342.113 352.604 339.969C352.451 337.825 353.11 335.703 354.45 334.029C355.79 332.355 357.71 331.253 359.825 330.946V305.967H346.549V324.786C346.549 325.108 346.422 325.417 346.196 325.645C345.97 325.872 345.663 326 345.342 326C345.022 326 344.715 325.872 344.489 325.645C344.262 325.417 344.135 325.108 344.135 324.786V303.538H359.825V264.073H344.135V216.629C342.021 216.322 340.101 215.22 338.761 213.546C337.421 211.872 336.761 209.749 336.914 207.606C337.067 205.462 338.022 203.456 339.585 201.991C341.149 200.527 343.206 199.713 345.342 199.713C347.479 199.713 349.536 200.527 351.099 201.991C352.663 203.456 353.617 205.462 353.77 207.606C353.923 209.749 353.264 211.872 351.924 213.546C350.584 215.22 348.664 216.322 346.549 216.629ZM351.375 208.215C351.393 209.024 351.25 209.828 350.955 210.581C350.66 211.333 350.219 212.019 349.657 212.598C349.095 213.176 348.423 213.636 347.682 213.95C346.941 214.264 346.145 214.425 345.341 214.425C344.537 214.425 343.741 214.264 343 213.95C342.258 213.636 341.587 213.176 341.025 212.598C340.463 212.019 340.021 211.333 339.726 210.581C339.431 209.828 339.289 209.024 339.307 208.215C339.307 206.604 339.943 205.06 341.075 203.921C342.206 202.782 343.742 202.142 345.342 202.142C346.943 202.142 348.478 202.782 349.61 203.921C350.742 205.06 351.378 206.604 351.378 208.215H351.375ZM361.032 333.287C359.431 333.287 357.896 333.927 356.764 335.066C355.632 336.205 354.996 337.749 354.996 339.36C354.996 340.971 355.632 342.515 356.764 343.654C357.896 344.793 359.431 345.433 361.032 345.433C362.632 345.433 364.168 344.793 365.299 343.654C366.431 342.515 367.067 340.971 367.067 339.36C367.067 337.749 366.431 336.205 365.299 335.066C364.168 333.927 362.632 333.287 361.032 333.287Z" fill="white"/>
<path fill-rule="evenodd" clip-rule="evenodd" d="M458.793 245.858C459.459 245.858 460 246.403 460 247.072V272.574H435.777C435.472 274.701 434.377 276.633 432.713 277.981C431.049 279.329 428.939 279.993 426.809 279.839C424.678 279.685 422.684 278.725 421.229 277.152C419.773 275.578 418.964 273.509 418.964 271.36C418.964 269.21 419.773 267.141 421.229 265.567C422.684 263.994 424.678 263.034 426.809 262.88C428.939 262.726 431.049 263.39 432.713 264.738C434.377 266.086 435.472 268.018 435.777 270.145H457.586V247.076C457.586 246.403 458.127 245.858 458.793 245.858ZM427.414 265.287C429.015 265.287 430.55 265.927 431.682 267.066C432.814 268.204 433.45 269.749 433.45 271.36C433.45 272.97 432.814 274.515 431.682 275.653C430.55 276.792 429.015 277.432 427.414 277.432C425.813 277.432 424.278 276.792 423.146 275.653C422.015 274.515 421.379 272.97 421.379 271.36C421.379 269.749 422.015 268.204 423.146 267.066C424.278 265.927 425.813 265.287 427.414 265.287ZM320 245.858C320 250.14 323.148 253.683 327.243 254.272V285.93H345.346C345.666 285.93 345.973 285.803 346.2 285.575C346.426 285.347 346.553 285.038 346.553 284.716C346.553 284.394 346.426 284.085 346.2 283.857C345.973 283.629 345.666 283.501 345.346 283.501H329.654V254.272C331.257 254.04 332.76 253.349 333.984 252.281C335.208 251.214 336.102 249.815 336.558 248.251C337.014 246.687 337.014 245.024 336.557 243.461C336.1 241.897 335.207 240.498 333.982 239.431C332.758 238.364 331.255 237.674 329.651 237.442C328.048 237.21 326.412 237.447 324.939 238.124C323.465 238.801 322.216 239.89 321.341 241.262C320.465 242.633 320 244.228 320 245.858ZM328.45 239.785C326.849 239.785 325.314 240.425 324.182 241.564C323.05 242.703 322.414 244.247 322.414 245.858C322.414 247.468 323.05 249.013 324.182 250.152C325.314 251.291 326.849 251.93 328.45 251.93C330.051 251.93 331.586 251.291 332.718 250.152C333.849 249.013 334.485 247.468 334.485 245.858C334.485 244.247 333.849 242.703 332.718 241.564C331.586 240.425 330.051 239.785 328.45 239.785Z" fill="white"/>
</svg>
