<svg width="500" height="400" viewBox="0 0 500 400" fill="none" xmlns="http://www.w3.org/2000/svg">
<rect x="0.5" y="0.5" width="499" height="399" rx="29.5" stroke="white"/>
<path d="M58.696 46V64H57.352V47.2H43.672V64H42.328V46H58.696ZM72.0914 64.288C70.5554 64.288 69.2034 63.992 68.0354 63.4C66.8674 62.808 65.9554 61.984 65.2994 60.928C64.6434 59.872 64.3154 58.656 64.3154 57.28C64.3154 55.888 64.6434 54.672 65.2994 53.632C65.9554 52.576 66.8674 51.752 68.0354 51.16C69.2034 50.568 70.5554 50.272 72.0914 50.272C73.6274 50.272 74.9794 50.568 76.1474 51.16C77.3154 51.752 78.2274 52.576 78.8834 53.632C79.5394 54.672 79.8674 55.888 79.8674 57.28C79.8674 58.656 79.5394 59.872 78.8834 60.928C78.2274 61.984 77.3154 62.808 76.1474 63.4C74.9794 63.992 73.6274 64.288 72.0914 64.288ZM72.0914 63.064C73.4034 63.064 74.5394 62.824 75.4994 62.344C76.4594 61.864 77.2034 61.192 77.7314 60.328C78.2594 59.464 78.5234 58.448 78.5234 57.28C78.5234 56.112 78.2594 55.096 77.7314 54.232C77.2034 53.368 76.4594 52.696 75.4994 52.216C74.5394 51.736 73.4034 51.496 72.0914 51.496C70.7954 51.496 69.6594 51.736 68.6834 52.216C67.7234 52.696 66.9794 53.368 66.4514 54.232C65.9234 55.096 65.6594 56.112 65.6594 57.28C65.6594 58.448 65.9234 59.464 66.4514 60.328C66.9794 61.192 67.7234 61.864 68.6834 62.344C69.6594 62.824 70.7954 63.064 72.0914 63.064ZM98.9552 59.08C98.7633 60.104 98.3313 61.008 97.6592 61.792C96.9872 62.576 96.1392 63.192 95.1152 63.64C94.1072 64.072 92.9872 64.288 91.7552 64.288C90.3152 64.288 89.0432 63.992 87.9392 63.4C86.8352 62.808 85.9712 61.984 85.3472 60.928C84.7232 59.872 84.4112 58.656 84.4112 57.28C84.4112 55.888 84.7232 54.672 85.3472 53.632C85.9712 52.576 86.8352 51.752 87.9392 51.16C89.0432 50.568 90.3152 50.272 91.7552 50.272C92.9872 50.272 94.1072 50.496 95.1152 50.944C96.1392 51.376 96.9872 51.984 97.6592 52.768C98.3313 53.536 98.7633 54.44 98.9552 55.48H97.5633C97.2913 54.264 96.6273 53.296 95.5713 52.576C94.5153 51.856 93.2432 51.496 91.7552 51.496C90.5392 51.496 89.4832 51.736 88.5872 52.216C87.6912 52.696 86.9952 53.368 86.4992 54.232C86.0032 55.096 85.7552 56.112 85.7552 57.28C85.7552 58.448 86.0032 59.464 86.4992 60.328C86.9952 61.192 87.6912 61.864 88.5872 62.344C89.4832 62.824 90.5392 63.064 91.7552 63.064C93.2592 63.064 94.5392 62.704 95.5953 61.984C96.6512 61.264 97.3073 60.296 97.5633 59.08H98.9552ZM101.84 50.56H115.28V51.736H109.208V64H107.912V51.736H101.84V50.56ZM124.178 55.36C124.482 55.36 124.77 55.36 125.042 55.36C126.642 55.36 127.93 55.472 128.906 55.696C129.562 55.856 130.05 56 130.37 56.128C130.37 54.704 129.89 53.568 128.93 52.72C127.954 51.872 126.562 51.448 124.754 51.448C123.906 51.448 123.042 51.568 122.162 51.808C121.282 52.032 120.418 52.448 119.57 53.056V51.856C120.338 51.296 121.154 50.896 122.018 50.656C122.898 50.4 123.842 50.272 124.85 50.272C126.114 50.272 127.258 50.496 128.282 50.944C129.322 51.376 130.146 52.04 130.754 52.936C131.362 53.832 131.666 54.984 131.666 56.392V64H130.37V61.336C130.05 61.8 129.626 62.24 129.098 62.656C128.506 63.12 127.794 63.512 126.962 63.832C126.13 64.136 125.202 64.288 124.178 64.288C123.058 64.288 122.05 64.112 121.154 63.76C120.274 63.408 119.578 62.904 119.066 62.248C118.554 61.576 118.298 60.776 118.298 59.848C118.298 58.936 118.554 58.16 119.066 57.52C119.594 56.864 120.298 56.352 121.178 55.984C122.074 55.6 123.074 55.392 124.178 55.36ZM130.37 57.352C129.474 56.824 128.442 56.552 127.274 56.536C126.122 56.52 125.506 56.512 125.426 56.512C123.314 56.512 121.85 56.824 121.034 57.448C120.218 58.056 119.81 58.84 119.81 59.8C119.81 60.824 120.202 61.64 120.986 62.248C121.786 62.84 122.85 63.136 124.178 63.136C124.274 63.136 124.378 63.136 124.49 63.136C126.186 63.072 127.586 62.552 128.69 61.576C129.81 60.584 130.37 59.176 130.37 57.352ZM137.398 64V50.56H145.918C147.23 50.56 148.238 50.864 148.942 51.472C149.646 52.064 149.998 52.904 149.998 53.992C149.998 54.984 149.646 55.768 148.942 56.344C148.558 56.664 148.094 56.904 147.55 57.064C148.43 57.208 149.142 57.472 149.686 57.856C150.47 58.448 150.862 59.296 150.862 60.4C150.862 61.552 150.462 62.44 149.662 63.064C148.862 63.688 147.726 64 146.254 64H137.398ZM138.718 56.608H145.63C146.574 56.608 147.31 56.376 147.838 55.912C148.382 55.432 148.654 54.792 148.654 53.992C148.654 53.256 148.406 52.696 147.91 52.312C147.43 51.928 146.726 51.736 145.798 51.736H138.718V56.608ZM138.718 62.824H146.35C147.39 62.824 148.174 62.616 148.702 62.2C149.246 61.784 149.518 61.184 149.518 60.4C149.518 59.536 149.174 58.88 148.486 58.432C147.798 57.984 146.79 57.76 145.462 57.76H138.718V62.824ZM156.234 64V50.56H157.53V56.656H161.826L167.178 50.56H168.834L163.002 57.184L169.314 64H167.61L161.922 57.832H157.53V64H156.234ZM178.3 55.36C178.604 55.36 178.892 55.36 179.164 55.36C180.764 55.36 182.052 55.472 183.028 55.696C183.684 55.856 184.172 56 184.492 56.128C184.492 54.704 184.012 53.568 183.052 52.72C182.076 51.872 180.684 51.448 178.876 51.448C178.028 51.448 177.164 51.568 176.284 51.808C175.404 52.032 174.54 52.448 173.692 53.056V51.856C174.46 51.296 175.276 50.896 176.14 50.656C177.02 50.4 177.964 50.272 178.972 50.272C180.236 50.272 181.38 50.496 182.404 50.944C183.444 51.376 184.268 52.04 184.876 52.936C185.484 53.832 185.788 54.984 185.788 56.392V64H184.492V61.336C184.172 61.8 183.748 62.24 183.22 62.656C182.628 63.12 181.916 63.512 181.084 63.832C180.252 64.136 179.324 64.288 178.3 64.288C177.18 64.288 176.172 64.112 175.276 63.76C174.396 63.408 173.7 62.904 173.188 62.248C172.676 61.576 172.42 60.776 172.42 59.848C172.42 58.936 172.676 58.16 173.188 57.52C173.716 56.864 174.42 56.352 175.3 55.984C176.196 55.6 177.196 55.392 178.3 55.36ZM184.492 57.352C183.596 56.824 182.564 56.552 181.396 56.536C180.244 56.52 179.628 56.512 179.548 56.512C177.436 56.512 175.972 56.824 175.156 57.448C174.34 58.056 173.932 58.84 173.932 59.8C173.932 60.824 174.324 61.64 175.108 62.248C175.908 62.84 176.972 63.136 178.3 63.136C178.396 63.136 178.5 63.136 178.612 63.136C180.308 63.072 181.708 62.552 182.812 61.576C183.932 60.584 184.492 59.176 184.492 57.352ZM207.963 64.288C206.427 64.288 205.075 63.992 203.907 63.4C202.739 62.808 201.827 61.984 201.171 60.928C200.515 59.872 200.187 58.656 200.187 57.28C200.187 55.888 200.515 54.672 201.171 53.632C201.827 52.576 202.739 51.752 203.907 51.16C205.075 50.568 206.427 50.272 207.963 50.272C209.499 50.272 210.851 50.568 212.019 51.16C213.187 51.752 214.099 52.576 214.755 53.632C215.411 54.672 215.739 55.888 215.739 57.28C215.739 58.656 215.411 59.872 214.755 60.928C214.099 61.984 213.187 62.808 212.019 63.4C210.851 63.992 209.499 64.288 207.963 64.288ZM207.963 63.064C209.275 63.064 210.411 62.824 211.371 62.344C212.331 61.864 213.075 61.192 213.603 60.328C214.131 59.464 214.395 58.448 214.395 57.28C214.395 56.112 214.131 55.096 213.603 54.232C213.075 53.368 212.331 52.696 211.371 52.216C210.411 51.736 209.275 51.496 207.963 51.496C206.667 51.496 205.531 51.736 204.555 52.216C203.595 52.696 202.851 53.368 202.323 54.232C201.795 55.096 201.531 56.112 201.531 57.28C201.531 58.448 201.795 59.464 202.323 60.328C202.851 61.192 203.595 61.864 204.555 62.344C205.531 62.824 206.667 63.064 207.963 63.064ZM228.611 64.288C226.931 64.288 225.491 63.936 224.291 63.232C223.091 62.512 222.163 61.488 221.507 60.16C220.867 58.816 220.547 57.208 220.547 55.336C220.547 52.536 221.235 50.328 222.611 48.712C224.003 47.096 225.979 46.184 228.539 45.976C229.547 45.896 230.379 45.824 231.035 45.76C231.707 45.68 232.259 45.608 232.691 45.544C233.123 45.48 233.483 45.408 233.771 45.328C234.075 45.248 234.371 45.152 234.659 45.04V46.384C234.403 46.512 234.027 46.624 233.531 46.72C233.051 46.816 232.427 46.904 231.659 46.984C230.891 47.064 229.955 47.136 228.851 47.2C226.579 47.328 224.835 48.088 223.619 49.48C222.403 50.872 221.795 52.824 221.795 55.336V55.84C222.179 54.976 222.667 54.232 223.259 53.608C223.963 52.872 224.787 52.312 225.731 51.928C226.675 51.528 227.715 51.328 228.851 51.328C230.243 51.328 231.459 51.6 232.499 52.144C233.539 52.688 234.347 53.448 234.923 54.424C235.515 55.384 235.811 56.504 235.811 57.784C235.811 59.096 235.507 60.24 234.899 61.216C234.307 62.192 233.475 62.952 232.403 63.496C231.331 64.024 230.067 64.288 228.611 64.288ZM228.659 63.064C229.827 63.064 230.843 62.848 231.707 62.416C232.587 61.968 233.267 61.352 233.747 60.568C234.227 59.784 234.467 58.864 234.467 57.808C234.467 56.752 234.227 55.832 233.747 55.048C233.267 54.248 232.587 53.632 231.707 53.2C230.843 52.768 229.827 52.552 228.659 52.552C227.091 52.552 225.731 52.984 224.579 53.848C223.443 54.712 222.595 55.952 222.035 57.568C222.355 59.312 223.099 60.664 224.267 61.624C225.435 62.584 226.899 63.064 228.659 63.064ZM248.154 64.288C246.618 64.288 245.266 63.992 244.098 63.4C242.93 62.808 242.018 61.984 241.362 60.928C240.706 59.872 240.378 58.656 240.378 57.28C240.378 55.888 240.706 54.672 241.362 53.632C242.018 52.576 242.93 51.752 244.098 51.16C245.266 50.568 246.618 50.272 248.154 50.272C249.69 50.272 251.042 50.568 252.21 51.16C253.378 51.752 254.29 52.576 254.946 53.632C255.602 54.672 255.93 55.888 255.93 57.28C255.93 58.656 255.602 59.872 254.946 60.928C254.29 61.984 253.378 62.808 252.21 63.4C251.042 63.992 249.69 64.288 248.154 64.288ZM248.154 63.064C249.466 63.064 250.602 62.824 251.562 62.344C252.522 61.864 253.266 61.192 253.794 60.328C254.322 59.464 254.586 58.448 254.586 57.28C254.586 56.112 254.322 55.096 253.794 54.232C253.266 53.368 252.522 52.696 251.562 52.216C250.602 51.736 249.466 51.496 248.154 51.496C246.858 51.496 245.722 51.736 244.746 52.216C243.786 52.696 243.042 53.368 242.514 54.232C241.986 55.096 241.722 56.112 241.722 57.28C241.722 58.448 241.986 59.464 242.514 60.328C243.042 61.192 243.786 61.864 244.746 62.344C245.722 62.824 246.858 63.064 248.154 63.064ZM261.314 50.56H262.61V55.072C262.866 54.56 263.154 54.072 263.474 53.608C264.226 52.568 265.122 51.752 266.162 51.16C267.202 50.568 268.338 50.272 269.57 50.272C270.882 50.272 272.05 50.568 273.074 51.16C274.098 51.752 274.906 52.576 275.498 53.632C276.09 54.672 276.386 55.888 276.386 57.28C276.386 58.656 276.09 59.872 275.498 60.928C274.906 61.984 274.098 62.808 273.074 63.4C272.05 63.992 270.882 64.288 269.57 64.288C268.338 64.288 267.202 64 266.162 63.424C265.122 62.832 264.226 62.008 263.474 60.952C263.154 60.504 262.866 60.024 262.61 59.512V67.96H261.314V50.56ZM275.042 57.28C275.042 56.128 274.802 55.12 274.322 54.256C273.858 53.392 273.21 52.72 272.378 52.24C271.562 51.744 270.626 51.496 269.57 51.496C268.514 51.496 267.546 51.744 266.666 52.24C265.786 52.72 265.002 53.392 264.314 54.256C263.626 55.12 263.05 56.128 262.586 57.28C263.05 58.416 263.626 59.424 264.314 60.304C265.002 61.168 265.786 61.848 266.666 62.344C267.546 62.824 268.514 63.064 269.57 63.064C270.626 63.064 271.562 62.824 272.378 62.344C273.21 61.848 273.858 61.168 274.322 60.304C274.802 59.424 275.042 58.416 275.042 57.28ZM283.311 68.248C282.735 68.248 282.223 68.176 281.775 68.032C281.327 67.888 280.855 67.656 280.359 67.336V66.208C280.823 66.496 281.271 66.704 281.703 66.832C282.151 66.976 282.671 67.048 283.263 67.048C283.967 67.048 284.559 66.888 285.039 66.568C285.535 66.248 285.951 65.752 286.287 65.08L287.055 63.568H286.263L279.663 50.56H281.103L287.343 62.992L293.631 50.56H295.023L287.295 65.656C286.991 66.232 286.647 66.712 286.263 67.096C285.879 67.48 285.439 67.768 284.943 67.96C284.463 68.152 283.919 68.248 283.311 68.248ZM314.483 62.824V67.576H313.283V64H298.067V67.576H296.867V62.824H298.619C299.755 61.624 300.323 59.16 300.323 55.432C300.323 54.664 300.299 53.856 300.251 53.008C300.219 52.16 300.163 51.344 300.083 50.56H311.939V62.824H314.483ZM310.643 62.824V51.736H301.403C301.451 52.344 301.491 52.952 301.523 53.56C301.555 54.312 301.571 55.016 301.571 55.672C301.571 58.136 301.323 60.08 300.827 61.504C300.635 62.048 300.427 62.488 300.203 62.824H310.643ZM325.793 64.288C324.257 64.288 322.905 63.992 321.737 63.4C320.569 62.808 319.657 61.984 319.001 60.928C318.345 59.872 318.017 58.656 318.017 57.28C318.017 55.888 318.345 54.672 319.001 53.632C319.657 52.576 320.569 51.752 321.737 51.16C322.905 50.568 324.257 50.272 325.793 50.272C327.329 50.272 328.681 50.568 329.849 51.16C331.017 51.752 331.929 52.576 332.585 53.632C333.241 54.672 333.569 55.888 333.569 57.28C333.569 58.656 333.241 59.872 332.585 60.928C331.929 61.984 331.017 62.808 329.849 63.4C328.681 63.992 327.329 64.288 325.793 64.288ZM325.793 63.064C327.105 63.064 328.241 62.824 329.201 62.344C330.161 61.864 330.905 61.192 331.433 60.328C331.961 59.464 332.225 58.448 332.225 57.28C332.225 56.112 331.961 55.096 331.433 54.232C330.905 53.368 330.161 52.696 329.201 52.216C328.241 51.736 327.105 51.496 325.793 51.496C324.497 51.496 323.361 51.736 322.385 52.216C321.425 52.696 320.681 53.368 320.153 54.232C319.625 55.096 319.361 56.112 319.361 57.28C319.361 58.448 319.625 59.464 320.153 60.328C320.681 61.192 321.425 61.864 322.385 62.344C323.361 62.824 324.497 63.064 325.793 63.064ZM338.689 64V50.56H347.209C348.521 50.56 349.529 50.864 350.233 51.472C350.937 52.064 351.289 52.904 351.289 53.992C351.289 54.984 350.937 55.768 350.233 56.344C349.849 56.664 349.385 56.904 348.841 57.064C349.721 57.208 350.433 57.472 350.977 57.856C351.761 58.448 352.153 59.296 352.153 60.4C352.153 61.552 351.753 62.44 350.953 63.064C350.153 63.688 349.017 64 347.545 64H338.689ZM340.009 56.608H346.921C347.865 56.608 348.601 56.376 349.129 55.912C349.673 55.432 349.945 54.792 349.945 53.992C349.945 53.256 349.697 52.696 349.201 52.312C348.721 51.928 348.017 51.736 347.089 51.736H340.009V56.608ZM340.009 62.824H347.641C348.681 62.824 349.465 62.616 349.993 62.2C350.537 61.784 350.809 61.184 350.809 60.4C350.809 59.536 350.465 58.88 349.777 58.432C349.089 57.984 348.081 57.76 346.753 57.76H340.009V62.824ZM362.589 55.36C362.893 55.36 363.181 55.36 363.453 55.36C365.053 55.36 366.341 55.472 367.317 55.696C367.973 55.856 368.461 56 368.781 56.128C368.781 54.704 368.301 53.568 367.341 52.72C366.365 51.872 364.973 51.448 363.165 51.448C362.317 51.448 361.453 51.568 360.573 51.808C359.693 52.032 358.829 52.448 357.981 53.056V51.856C358.749 51.296 359.565 50.896 360.429 50.656C361.309 50.4 362.253 50.272 363.261 50.272C364.525 50.272 365.669 50.496 366.693 50.944C367.733 51.376 368.557 52.04 369.165 52.936C369.773 53.832 370.077 54.984 370.077 56.392V64H368.781V61.336C368.461 61.8 368.037 62.24 367.509 62.656C366.917 63.12 366.205 63.512 365.373 63.832C364.541 64.136 363.613 64.288 362.589 64.288C361.469 64.288 360.461 64.112 359.565 63.76C358.685 63.408 357.989 62.904 357.477 62.248C356.965 61.576 356.709 60.776 356.709 59.848C356.709 58.936 356.965 58.16 357.477 57.52C358.005 56.864 358.709 56.352 359.589 55.984C360.485 55.6 361.485 55.392 362.589 55.36ZM368.781 57.352C367.885 56.824 366.853 56.552 365.685 56.536C364.533 56.52 363.917 56.512 363.837 56.512C361.725 56.512 360.261 56.824 359.445 57.448C358.629 58.056 358.221 58.84 358.221 59.8C358.221 60.824 358.613 61.64 359.397 62.248C360.197 62.84 361.261 63.136 362.589 63.136C362.685 63.136 362.789 63.136 362.901 63.136C364.597 63.072 365.997 62.552 367.101 61.576C368.221 60.584 368.781 59.176 368.781 57.352ZM376.073 50.56H377.369V56.656H387.785V50.56H389.081V64H387.785V57.832H377.369V64H376.073V50.56ZM395.325 64V50.56H396.621V62.68L407.301 50.56H408.981V64H407.685V51.88L397.005 64H395.325ZM414.249 64L419.313 58.384H418.977C418.081 58.384 417.289 58.224 416.601 57.904C415.913 57.568 415.377 57.104 414.993 56.512C414.625 55.92 414.441 55.24 414.441 54.472C414.441 53.688 414.625 53.008 414.993 52.432C415.377 51.84 415.913 51.384 416.601 51.064C417.289 50.728 418.081 50.56 418.977 50.56H427.065V64H425.769V58.384H420.993L415.929 64H414.249ZM425.769 57.208V51.736H418.977C417.969 51.736 417.177 51.984 416.601 52.48C416.025 52.976 415.737 53.632 415.737 54.448C415.737 55.28 416.025 55.952 416.601 56.464C417.177 56.96 417.969 57.208 418.977 57.208H425.769ZM442.579 64V50.56H443.875V62.68L454.555 50.56H456.235V64H454.939V51.88L444.259 64H442.579ZM41.92 94V80.56H43.816L50.44 92.704L57.064 80.56H58.96V94H57.712V82L51.088 94H49.792L43.168 82.024V94H41.92ZM70.2668 85.36C70.5708 85.36 70.8588 85.36 71.1308 85.36C72.7308 85.36 74.0188 85.472 74.9948 85.696C75.6508 85.856 76.1388 86 76.4588 86.128C76.4588 84.704 75.9788 83.568 75.0188 82.72C74.0428 81.872 72.6508 81.448 70.8428 81.448C69.9948 81.448 69.1308 81.568 68.2508 81.808C67.3708 82.032 66.5068 82.448 65.6588 83.056V81.856C66.4268 81.296 67.2428 80.896 68.1068 80.656C68.9868 80.4 69.9308 80.272 70.9388 80.272C72.2028 80.272 73.3468 80.496 74.3708 80.944C75.4108 81.376 76.2348 82.04 76.8428 82.936C77.4508 83.832 77.7548 84.984 77.7548 86.392V94H76.4588V91.336C76.1388 91.8 75.7148 92.24 75.1868 92.656C74.5948 93.12 73.8828 93.512 73.0508 93.832C72.2188 94.136 71.2908 94.288 70.2668 94.288C69.1468 94.288 68.1388 94.112 67.2428 93.76C66.3628 93.408 65.6668 92.904 65.1548 92.248C64.6428 91.576 64.3868 90.776 64.3868 89.848C64.3868 88.936 64.6428 88.16 65.1548 87.52C65.6828 86.864 66.3868 86.352 67.2668 85.984C68.1628 85.6 69.1628 85.392 70.2668 85.36ZM76.4588 87.352C75.5628 86.824 74.5308 86.552 73.3628 86.536C72.2108 86.52 71.5948 86.512 71.5148 86.512C69.4028 86.512 67.9388 86.824 67.1228 87.448C66.3068 88.056 65.8988 88.84 65.8988 89.8C65.8988 90.824 66.2908 91.64 67.0748 92.248C67.8748 92.84 68.9388 93.136 70.2668 93.136C70.3628 93.136 70.4668 93.136 70.5788 93.136C72.2748 93.072 73.6748 92.552 74.7788 91.576C75.8988 90.584 76.4588 89.176 76.4588 87.352ZM82.1192 80.56H95.5592V81.736H89.4872V94H88.1912V81.736H82.1192V80.56ZM106.117 94.288C104.597 94.288 103.253 93.992 102.085 93.4C100.933 92.808 100.029 91.984 99.3728 90.928C98.7328 89.872 98.4128 88.656 98.4128 87.28C98.4128 85.888 98.7168 84.672 99.3248 83.632C99.9488 82.576 100.805 81.752 101.893 81.16C102.981 80.568 104.245 80.272 105.685 80.272C107.077 80.272 108.301 80.576 109.357 81.184C110.413 81.792 111.237 82.64 111.829 83.728C112.421 84.8 112.717 86.048 112.717 87.472H99.7568C99.7888 88.56 100.053 89.512 100.549 90.328C101.077 91.192 101.813 91.864 102.757 92.344C103.717 92.824 104.837 93.064 106.117 93.064C107.301 93.064 108.413 92.856 109.453 92.44C110.493 92.024 111.445 91.472 112.309 90.784V92.008C111.477 92.712 110.501 93.272 109.381 93.688C108.261 94.088 107.173 94.288 106.117 94.288ZM111.301 86.32C111.189 85.504 110.949 84.768 110.581 84.112C110.101 83.28 109.437 82.64 108.589 82.192C107.757 81.728 106.789 81.496 105.685 81.496C104.485 81.496 103.437 81.736 102.541 82.216C101.661 82.696 100.981 83.368 100.501 84.232C100.149 84.856 99.9248 85.552 99.8288 86.32H111.301ZM118.012 80.56H119.308V85.072C119.564 84.56 119.852 84.072 120.172 83.608C120.924 82.568 121.82 81.752 122.86 81.16C123.9 80.568 125.036 80.272 126.268 80.272C127.58 80.272 128.748 80.568 129.772 81.16C130.796 81.752 131.604 82.576 132.196 83.632C132.788 84.672 133.084 85.888 133.084 87.28C133.084 88.656 132.788 89.872 132.196 90.928C131.604 91.984 130.796 92.808 129.772 93.4C128.748 93.992 127.58 94.288 126.268 94.288C125.036 94.288 123.9 94 122.86 93.424C121.82 92.832 120.924 92.008 120.172 90.952C119.852 90.504 119.564 90.024 119.308 89.512V97.96H118.012V80.56ZM131.74 87.28C131.74 86.128 131.5 85.12 131.02 84.256C130.556 83.392 129.908 82.72 129.076 82.24C128.26 81.744 127.324 81.496 126.268 81.496C125.212 81.496 124.244 81.744 123.364 82.24C122.484 82.72 121.7 83.392 121.012 84.256C120.324 85.12 119.748 86.128 119.284 87.28C119.748 88.416 120.324 89.424 121.012 90.304C121.7 91.168 122.484 91.848 123.364 92.344C124.244 92.824 125.212 93.064 126.268 93.064C127.324 93.064 128.26 92.824 129.076 92.344C129.908 91.848 130.556 91.168 131.02 90.304C131.5 89.424 131.74 88.416 131.74 87.28ZM138.483 94V80.56H139.779V92.68L150.459 80.56H152.139V94H150.843V81.88L140.163 94H138.483ZM163.431 85.36C163.735 85.36 164.023 85.36 164.295 85.36C165.895 85.36 167.183 85.472 168.159 85.696C168.815 85.856 169.303 86 169.623 86.128C169.623 84.704 169.143 83.568 168.183 82.72C167.207 81.872 165.815 81.448 164.007 81.448C163.159 81.448 162.295 81.568 161.415 81.808C160.535 82.032 159.671 82.448 158.823 83.056V81.856C159.591 81.296 160.407 80.896 161.271 80.656C162.151 80.4 163.095 80.272 164.103 80.272C165.367 80.272 166.511 80.496 167.535 80.944C168.575 81.376 169.399 82.04 170.007 82.936C170.615 83.832 170.919 84.984 170.919 86.392V94H169.623V91.336C169.303 91.8 168.879 92.24 168.351 92.656C167.759 93.12 167.047 93.512 166.215 93.832C165.383 94.136 164.455 94.288 163.431 94.288C162.311 94.288 161.303 94.112 160.407 93.76C159.527 93.408 158.831 92.904 158.319 92.248C157.807 91.576 157.551 90.776 157.551 89.848C157.551 88.936 157.807 88.16 158.319 87.52C158.847 86.864 159.551 86.352 160.431 85.984C161.327 85.6 162.327 85.392 163.431 85.36ZM169.623 87.352C168.727 86.824 167.695 86.552 166.527 86.536C165.375 86.52 164.759 86.512 164.679 86.512C162.567 86.512 161.103 86.824 160.287 87.448C159.471 88.056 159.063 88.84 159.063 89.8C159.063 90.824 159.455 91.64 160.239 92.248C161.039 92.84 162.103 93.136 163.431 93.136C163.527 93.136 163.631 93.136 163.743 93.136C165.439 93.072 166.839 92.552 167.943 91.576C169.063 90.584 169.623 89.176 169.623 87.352ZM179.315 80.56H191.171V94H189.875V81.736H180.635C180.699 82.616 180.763 83.504 180.827 84.4C180.875 85.44 180.899 86.36 180.899 87.16C180.899 89.624 180.587 91.416 179.963 92.536C179.339 93.656 178.355 94.216 177.011 94.216C176.691 94.216 176.371 94.176 176.051 94.096C175.731 94.032 175.435 93.92 175.163 93.76V92.608C175.435 92.72 175.715 92.816 176.003 92.896C176.291 92.96 176.563 92.992 176.819 92.992C177.811 92.992 178.531 92.52 178.979 91.576C179.427 90.632 179.651 89.096 179.651 86.968C179.651 86.136 179.619 85.168 179.555 84.064C179.507 82.96 179.427 81.792 179.315 80.56ZM204.321 94.288C202.785 94.288 201.433 93.992 200.265 93.4C199.097 92.808 198.185 91.984 197.529 90.928C196.873 89.872 196.545 88.656 196.545 87.28C196.545 85.888 196.873 84.672 197.529 83.632C198.185 82.576 199.097 81.752 200.265 81.16C201.433 80.568 202.785 80.272 204.321 80.272C205.857 80.272 207.209 80.568 208.377 81.16C209.545 81.752 210.457 82.576 211.113 83.632C211.769 84.672 212.097 85.888 212.097 87.28C212.097 88.656 211.769 89.872 211.113 90.928C210.457 91.984 209.545 92.808 208.377 93.4C207.209 93.992 205.857 94.288 204.321 94.288ZM204.321 93.064C205.633 93.064 206.769 92.824 207.729 92.344C208.689 91.864 209.433 91.192 209.961 90.328C210.489 89.464 210.753 88.448 210.753 87.28C210.753 86.112 210.489 85.096 209.961 84.232C209.433 83.368 208.689 82.696 207.729 82.216C206.769 81.736 205.633 81.496 204.321 81.496C203.025 81.496 201.889 81.736 200.913 82.216C199.953 82.696 199.209 83.368 198.681 84.232C198.153 85.096 197.889 86.112 197.889 87.28C197.889 88.448 198.153 89.464 198.681 90.328C199.209 91.192 199.953 91.864 200.913 92.344C201.889 92.824 203.025 93.064 204.321 93.064ZM217.217 94V80.56H225.737C227.049 80.56 228.057 80.864 228.761 81.472C229.465 82.064 229.817 82.904 229.817 83.992C229.817 84.984 229.465 85.768 228.761 86.344C228.377 86.664 227.913 86.904 227.369 87.064C228.249 87.208 228.961 87.472 229.505 87.856C230.289 88.448 230.681 89.296 230.681 90.4C230.681 91.552 230.281 92.44 229.481 93.064C228.681 93.688 227.545 94 226.073 94H217.217ZM218.537 86.608H225.449C226.393 86.608 227.129 86.376 227.657 85.912C228.201 85.432 228.473 84.792 228.473 83.992C228.473 83.256 228.225 82.696 227.729 82.312C227.249 81.928 226.545 81.736 225.617 81.736H218.537V86.608ZM218.537 92.824H226.169C227.209 92.824 227.993 92.616 228.521 92.2C229.065 91.784 229.337 91.184 229.337 90.4C229.337 89.536 228.993 88.88 228.305 88.432C227.617 87.984 226.609 87.76 225.281 87.76H218.537V92.824Z" fill="white"/>
<path d="M459.947 273.492C459.925 273.195 459.881 272.605 459.671 272.38C459.375 272.051 372.283 230.924 369.788 230C274.627 274.893 281.261 271.741 280.68 272.085C280.464 272.209 280.337 272.279 280.257 272.519C279.914 273.483 279.906 282.009 280.285 282.89C280.376 283.092 280.464 283.121 280.666 283.184C281.499 283.415 284.745 281.575 285.743 281.177C285.743 281.217 285.707 359.286 285.862 359.682C286.222 359.899 286.584 359.939 286.988 359.953C287.024 359.953 453.269 360.173 453.783 359.659C453.938 359.277 453.819 281.13 453.819 281.093C454.878 281.512 458.637 283.635 459.488 283.124C459.604 283.055 459.704 282.961 459.781 282.848C459.858 282.735 459.91 282.605 459.934 282.468C460 282.113 460.036 274.656 459.947 273.492ZM293.077 358.243C291.15 358.249 289.219 358.243 287.292 358.211L287.239 358.157C287.179 358.001 287.165 280.57 287.165 280.532C288.713 279.631 291.305 278.496 292.989 277.834C293.116 277.979 293.144 278.259 293.077 358.243ZM302.548 357.512C302.513 349.577 302.43 341.618 302.543 333.685C307.078 333.552 311.655 333.676 316.198 333.685C316.063 341.618 316.176 349.568 316.207 357.512H302.548ZM332.392 357.495L317.562 357.518C317.501 349.577 317.664 341.626 317.553 333.685C322.481 333.552 327.47 333.639 332.409 333.699L332.392 357.495ZM347.873 357.55L333.794 357.527L333.839 333.708C338.506 333.667 343.174 333.662 347.845 333.685C347.956 341.626 347.859 349.603 347.873 357.55ZM349.073 356.345C348.984 353.659 349.294 333.133 348.915 332.33C348.26 332.09 328.396 332.183 328.366 332.183L328.322 292.628L368.843 292.634V356.319C362.253 356.342 355.654 356.406 349.07 356.345H349.073ZM388.584 333.965L388.607 356.313C382.694 356.438 376.76 356.308 370.847 356.29C370.825 355.785 370.847 292.668 370.847 292.619L411.241 292.628L411.219 333.225L389.035 333.179C388.67 333.353 388.598 333.621 388.584 333.965ZM400.484 356.328L389.834 356.351L389.848 334.557L400.52 334.54C400.669 341.782 400.556 349.08 400.484 356.328ZM412.546 356.351H401.681L401.69 334.523L412.552 334.554L412.546 356.351ZM412.895 291.328C412.859 291.097 412.837 290.955 412.643 290.817C412.217 290.776 327.415 290.551 326.906 290.996C326.804 291.097 326.728 291.222 326.682 291.36C326.533 291.773 326.629 332.09 326.629 332.131C326.021 332.168 325.401 332.145 324.782 332.145C324.694 328.069 324.693 289.13 324.693 289.081C324.732 289.081 412.029 289.052 414.557 289.098C414.584 290.404 414.615 331.524 414.438 333.174L412.956 333.197C412.969 333.156 412.956 291.701 412.895 291.328ZM424.75 356.368C421.094 356.383 417.438 356.374 413.782 356.345C413.722 353.846 413.766 337.692 413.788 334.557C417.416 334.499 421.077 334.485 424.706 334.58C424.899 341.837 424.742 349.111 424.75 356.368ZM436.901 356.195H425.875C425.875 356.157 425.867 334.953 425.881 334.531C429.581 334.508 433.276 334.531 436.976 334.554C436.799 355.161 437.147 353.621 436.901 356.195ZM445.114 358.235H438.057C438.018 331.443 438.109 334.199 437.996 333.381C437.111 333.165 416.418 333.179 416.379 333.179C416.387 284.398 416.448 288.575 416.269 287.636C415.948 287.333 415.762 287.307 415.337 287.269C413.65 287.136 411.905 287.24 410.207 287.232C318.112 287.246 324.978 287.2 324.038 287.301C323.681 287.339 323.482 287.486 323.214 287.72C322.965 288.942 323.043 285.339 323.065 332.131C320.443 332.185 302.178 331.957 301.495 332.223C301.434 332.246 301.39 332.31 301.343 332.356C301.066 333.251 301.18 358.203 301.18 358.243H294.57L294.532 277.173C296.714 275.959 361.232 245.597 369.783 241.622C369.822 241.631 443.239 276.092 445.103 277.086C445.111 277.149 445.2 344.7 445.117 358.235H445.114ZM452.384 358.211C450.515 358.391 448.504 358.226 446.618 358.211L446.591 277.739C448.496 278.657 450.567 279.38 452.398 280.44L452.384 358.211ZM458.332 281.153C458.297 281.139 370.07 239.669 370.034 239.663C369.766 239.577 369.597 239.686 369.351 239.788C369.343 239.793 282.395 280.752 281.662 281.13C281.67 278.597 281.626 276.06 281.648 273.524C285.243 271.461 369.559 231.892 369.597 231.875C370.438 231.736 457.464 272.972 458.335 273.478C458.357 276.037 458.363 278.597 458.335 281.156L458.332 281.153Z" fill="white"/>
<path d="M371.573 325.776C371.535 326.709 371.352 331.493 371.781 332.021C371.952 332.229 373.1 332.715 373.18 330.993C373.235 329.982 373.382 325.417 373.061 324.779C372.295 324.109 371.631 324.328 371.573 325.776ZM367.024 324.49C366.784 324.692 366.56 324.848 366.516 325.183C366.383 326.085 366.33 331.568 366.726 332.099C367.002 332.475 367.268 332.403 367.694 332.388C368.086 332.013 368.108 331.724 368.139 331.189C368.178 330.473 368.258 325.146 367.998 324.834C367.738 324.522 367.395 324.507 367.022 324.49H367.024ZM389.252 266.319C389.103 266.065 388.522 266.016 388.237 265.987C387.651 265.915 351.306 265.979 351.265 265.987C350.999 266.08 350.836 266.126 350.634 266.345C350.413 266.903 350.454 279.21 350.515 280.712C350.529 281.03 350.568 281.365 350.67 281.668C350.717 281.784 350.775 281.87 350.858 281.963C352.116 282.408 385.937 282.266 388.677 282.214C388.959 282.099 389.147 282.026 389.333 281.752C389.601 280.749 389.443 267.357 389.438 267.316C389.416 267.036 389.399 266.571 389.252 266.319ZM387.823 280.423C379.928 280.409 369.176 280.336 352.252 280.432C352.252 276.223 352.116 271.985 352.288 267.784C369.295 267.66 370.724 267.744 387.823 267.721V280.423Z" fill="white"/>
</svg>
