<svg width="610" height="200" viewBox="0 0 610 200" fill="none" xmlns="http://www.w3.org/2000/svg">
<rect x="0.5" y="0.5" width="609" height="199" rx="29.5" stroke="white"/>
<path d="M42.328 65V47H43.672V63.608L57.688 47H59.44V65H58.096V48.392L44.08 65H42.328ZM65.9762 51.56H67.2722V57.656H77.6883V51.56H78.9843V65H77.6883V58.832H67.2722V65H65.9762V51.56ZM95.1398 65V58.832H89.8838L85.0598 65H83.3558L88.7078 58.184L83.8358 51.56H85.4918L89.9558 57.656H95.1398V51.56H96.4358V57.656H101.62L106.084 51.56H107.74L102.868 58.184L108.22 65H106.516L101.692 58.832H96.4358V65H95.1398ZM118.89 65.288C117.37 65.288 116.026 64.992 114.858 64.4C113.706 63.808 112.802 62.984 112.146 61.928C111.506 60.872 111.186 59.656 111.186 58.28C111.186 56.888 111.49 55.672 112.098 54.632C112.722 53.576 113.578 52.752 114.666 52.16C115.754 51.568 117.018 51.272 118.458 51.272C119.85 51.272 121.074 51.576 122.13 52.184C123.186 52.792 124.01 53.64 124.602 54.728C125.194 55.8 125.49 57.048 125.49 58.472H112.53C112.562 59.56 112.826 60.512 113.322 61.328C113.85 62.192 114.586 62.864 115.53 63.344C116.49 63.824 117.61 64.064 118.89 64.064C120.074 64.064 121.186 63.856 122.226 63.44C123.266 63.024 124.218 62.472 125.082 61.784V63.008C124.25 63.712 123.274 64.272 122.154 64.688C121.034 65.088 119.946 65.288 118.89 65.288ZM124.074 57.32C123.962 56.504 123.722 55.768 123.354 55.112C122.874 54.28 122.21 53.64 121.362 53.192C120.53 52.728 119.562 52.496 118.458 52.496C117.258 52.496 116.21 52.736 115.314 53.216C114.434 53.696 113.754 54.368 113.274 55.232C112.922 55.856 112.698 56.552 112.602 57.32H124.074ZM130.786 51.56H132.082V57.656H142.498V51.56H143.794V65H142.498V58.832H132.082V65H130.786V51.56ZM156.901 65.288C155.381 65.288 154.037 64.992 152.869 64.4C151.717 63.808 150.813 62.984 150.157 61.928C149.517 60.872 149.197 59.656 149.197 58.28C149.197 56.888 149.501 55.672 150.109 54.632C150.733 53.576 151.589 52.752 152.677 52.16C153.765 51.568 155.029 51.272 156.469 51.272C157.861 51.272 159.085 51.576 160.141 52.184C161.197 52.792 162.021 53.64 162.613 54.728C163.205 55.8 163.501 57.048 163.501 58.472H150.541C150.573 59.56 150.837 60.512 151.333 61.328C151.861 62.192 152.597 62.864 153.541 63.344C154.501 63.824 155.621 64.064 156.901 64.064C158.085 64.064 159.197 63.856 160.237 63.44C161.277 63.024 162.229 62.472 163.093 61.784V63.008C162.261 63.712 161.285 64.272 160.165 64.688C159.045 65.088 157.957 65.288 156.901 65.288ZM162.085 57.32C161.973 56.504 161.733 55.768 161.365 55.112C160.885 54.28 160.221 53.64 159.373 53.192C158.541 52.728 157.573 52.496 156.469 52.496C155.269 52.496 154.221 52.736 153.325 53.216C152.445 53.696 151.765 54.368 151.285 55.232C150.933 55.856 150.709 56.552 150.613 57.32H162.085ZM168.797 51.56H170.093V56.072C170.349 55.56 170.637 55.072 170.957 54.608C171.709 53.568 172.605 52.752 173.645 52.16C174.685 51.568 175.821 51.272 177.053 51.272C178.365 51.272 179.533 51.568 180.557 52.16C181.581 52.752 182.389 53.576 182.981 54.632C183.573 55.672 183.869 56.888 183.869 58.28C183.869 59.656 183.573 60.872 182.981 61.928C182.389 62.984 181.581 63.808 180.557 64.4C179.533 64.992 178.365 65.288 177.053 65.288C175.821 65.288 174.685 65 173.645 64.424C172.605 63.832 171.709 63.008 170.957 61.952C170.637 61.504 170.349 61.024 170.093 60.512V68.96H168.797V51.56ZM182.525 58.28C182.525 57.128 182.285 56.12 181.805 55.256C181.341 54.392 180.693 53.72 179.861 53.24C179.045 52.744 178.109 52.496 177.053 52.496C175.997 52.496 175.029 52.744 174.149 53.24C173.269 53.72 172.485 54.392 171.797 55.256C171.109 56.12 170.533 57.128 170.069 58.28C170.533 59.416 171.109 60.424 171.797 61.304C172.485 62.168 173.269 62.848 174.149 63.344C175.029 63.824 175.997 64.064 177.053 64.064C178.109 64.064 179.045 63.824 179.861 63.344C180.693 62.848 181.341 62.168 181.805 61.304C182.285 60.424 182.525 59.416 182.525 58.28ZM203.523 51.56H204.819V65H203.523V51.56ZM189.267 65V51.56H190.563V56.504H196.683C197.675 56.504 198.539 56.68 199.275 57.032C200.011 57.384 200.579 57.88 200.979 58.52C201.395 59.16 201.603 59.904 201.603 60.752C201.603 61.6 201.395 62.344 200.979 62.984C200.579 63.624 200.011 64.12 199.275 64.472C198.539 64.824 197.675 65 196.683 65H189.267ZM190.563 63.824H196.707C197.795 63.824 198.659 63.544 199.299 62.984C199.939 62.424 200.259 61.68 200.259 60.752C200.259 59.808 199.939 59.064 199.299 58.52C198.659 57.96 197.795 57.68 196.707 57.68H190.563V63.824ZM210.042 68.048L211.362 65.072C211.25 65.056 211.138 65.008 211.026 64.928C210.85 64.832 210.706 64.704 210.594 64.544C210.498 64.368 210.45 64.176 210.45 63.968C210.45 63.76 210.498 63.576 210.594 63.416C210.706 63.24 210.85 63.104 211.026 63.008C211.202 62.896 211.394 62.84 211.602 62.84C211.826 62.84 212.026 62.896 212.202 63.008C212.378 63.12 212.514 63.272 212.61 63.464C212.706 63.64 212.754 63.848 212.754 64.088C212.754 64.344 212.714 64.608 212.634 64.88C212.554 65.136 212.394 65.496 212.154 65.96L211.074 68.048H210.042ZM239.613 51.56V65H238.317V52.736H227.997V65H226.701V51.56H239.613ZM245.859 51.56H247.155V56.072C247.411 55.56 247.699 55.072 248.019 54.608C248.771 53.568 249.667 52.752 250.707 52.16C251.747 51.568 252.883 51.272 254.115 51.272C255.427 51.272 256.595 51.568 257.619 52.16C258.643 52.752 259.451 53.576 260.043 54.632C260.635 55.672 260.931 56.888 260.931 58.28C260.931 59.656 260.635 60.872 260.043 61.928C259.451 62.984 258.643 63.808 257.619 64.4C256.595 64.992 255.427 65.288 254.115 65.288C252.883 65.288 251.747 65 250.707 64.424C249.667 63.832 248.771 63.008 248.019 61.952C247.699 61.504 247.411 61.024 247.155 60.512V68.96H245.859V51.56ZM259.587 58.28C259.587 57.128 259.347 56.12 258.867 55.256C258.403 54.392 257.755 53.72 256.923 53.24C256.107 52.744 255.171 52.496 254.115 52.496C253.059 52.496 252.091 52.744 251.211 53.24C250.331 53.72 249.547 54.392 248.859 55.256C248.171 56.12 247.595 57.128 247.131 58.28C247.595 59.416 248.171 60.424 248.859 61.304C249.547 62.168 250.331 62.848 251.211 63.344C252.091 63.824 253.059 64.064 254.115 64.064C255.171 64.064 256.107 63.824 256.923 63.344C257.755 62.848 258.403 62.168 258.867 61.304C259.347 60.424 259.587 59.416 259.587 58.28ZM273.241 65.288C271.705 65.288 270.353 64.992 269.185 64.4C268.017 63.808 267.105 62.984 266.449 61.928C265.793 60.872 265.465 59.656 265.465 58.28C265.465 56.888 265.793 55.672 266.449 54.632C267.105 53.576 268.017 52.752 269.185 52.16C270.353 51.568 271.705 51.272 273.241 51.272C274.777 51.272 276.129 51.568 277.297 52.16C278.465 52.752 279.377 53.576 280.033 54.632C280.689 55.672 281.017 56.888 281.017 58.28C281.017 59.656 280.689 60.872 280.033 61.928C279.377 62.984 278.465 63.808 277.297 64.4C276.129 64.992 274.777 65.288 273.241 65.288ZM273.241 64.064C274.553 64.064 275.689 63.824 276.649 63.344C277.609 62.864 278.353 62.192 278.881 61.328C279.409 60.464 279.673 59.448 279.673 58.28C279.673 57.112 279.409 56.096 278.881 55.232C278.353 54.368 277.609 53.696 276.649 53.216C275.689 52.736 274.553 52.496 273.241 52.496C271.945 52.496 270.809 52.736 269.833 53.216C268.873 53.696 268.129 54.368 267.601 55.232C267.073 56.096 266.809 57.112 266.809 58.28C266.809 59.448 267.073 60.464 267.601 61.328C268.129 62.192 268.873 62.864 269.833 63.344C270.809 63.824 271.945 64.064 273.241 64.064ZM286.401 51.56H287.697V56.072C287.953 55.56 288.241 55.072 288.561 54.608C289.313 53.568 290.209 52.752 291.249 52.16C292.289 51.568 293.425 51.272 294.657 51.272C295.969 51.272 297.137 51.568 298.161 52.16C299.185 52.752 299.993 53.576 300.585 54.632C301.177 55.672 301.473 56.888 301.473 58.28C301.473 59.656 301.177 60.872 300.585 61.928C299.993 62.984 299.185 63.808 298.161 64.4C297.137 64.992 295.969 65.288 294.657 65.288C293.425 65.288 292.289 65 291.249 64.424C290.209 63.832 289.313 63.008 288.561 61.952C288.241 61.504 287.953 61.024 287.697 60.512V68.96H286.401V51.56ZM300.129 58.28C300.129 57.128 299.889 56.12 299.409 55.256C298.945 54.392 298.297 53.72 297.465 53.24C296.649 52.744 295.713 52.496 294.657 52.496C293.601 52.496 292.633 52.744 291.753 53.24C290.873 53.72 290.089 54.392 289.401 55.256C288.713 56.12 288.137 57.128 287.673 58.28C288.137 59.416 288.713 60.424 289.401 61.304C290.089 62.168 290.873 62.848 291.753 63.344C292.633 63.824 293.601 64.064 294.657 64.064C295.713 64.064 296.649 63.824 297.465 63.344C298.297 62.848 298.945 62.168 299.409 61.304C299.889 60.424 300.129 59.416 300.129 58.28ZM311.326 56.36C311.63 56.36 311.918 56.36 312.19 56.36C313.79 56.36 315.078 56.472 316.054 56.696C316.71 56.856 317.198 57 317.518 57.128C317.518 55.704 317.038 54.568 316.078 53.72C315.102 52.872 313.71 52.448 311.902 52.448C311.054 52.448 310.19 52.568 309.31 52.808C308.43 53.032 307.566 53.448 306.718 54.056V52.856C307.486 52.296 308.302 51.896 309.166 51.656C310.046 51.4 310.99 51.272 311.998 51.272C313.262 51.272 314.406 51.496 315.43 51.944C316.47 52.376 317.294 53.04 317.902 53.936C318.51 54.832 318.814 55.984 318.814 57.392V65H317.518V62.336C317.198 62.8 316.774 63.24 316.246 63.656C315.654 64.12 314.942 64.512 314.11 64.832C313.278 65.136 312.35 65.288 311.326 65.288C310.206 65.288 309.198 65.112 308.302 64.76C307.422 64.408 306.726 63.904 306.214 63.248C305.702 62.576 305.446 61.776 305.446 60.848C305.446 59.936 305.702 59.16 306.214 58.52C306.742 57.864 307.446 57.352 308.326 56.984C309.222 56.6 310.222 56.392 311.326 56.36ZM317.518 58.352C316.622 57.824 315.59 57.552 314.422 57.536C313.27 57.52 312.654 57.512 312.574 57.512C310.462 57.512 308.998 57.824 308.182 58.448C307.366 59.056 306.958 59.84 306.958 60.8C306.958 61.824 307.35 62.64 308.134 63.248C308.934 63.84 309.998 64.136 311.326 64.136C311.422 64.136 311.526 64.136 311.638 64.136C313.334 64.072 314.734 63.552 315.838 62.576C316.958 61.584 317.518 60.176 317.518 58.352ZM332.299 65.288C330.619 65.288 329.179 64.936 327.979 64.232C326.779 63.512 325.851 62.488 325.195 61.16C324.555 59.816 324.235 58.208 324.235 56.336C324.235 53.536 324.923 51.328 326.299 49.712C327.691 48.096 329.667 47.184 332.227 46.976C333.235 46.896 334.067 46.824 334.723 46.76C335.395 46.68 335.947 46.608 336.379 46.544C336.811 46.48 337.171 46.408 337.459 46.328C337.763 46.248 338.059 46.152 338.347 46.04V47.384C338.091 47.512 337.715 47.624 337.219 47.72C336.739 47.816 336.115 47.904 335.347 47.984C334.579 48.064 333.643 48.136 332.539 48.2C330.267 48.328 328.523 49.088 327.307 50.48C326.091 51.872 325.483 53.824 325.483 56.336V56.84C325.867 55.976 326.355 55.232 326.947 54.608C327.651 53.872 328.475 53.312 329.419 52.928C330.363 52.528 331.403 52.328 332.539 52.328C333.931 52.328 335.147 52.6 336.187 53.144C337.227 53.688 338.035 54.448 338.611 55.424C339.203 56.384 339.499 57.504 339.499 58.784C339.499 60.096 339.195 61.24 338.587 62.216C337.995 63.192 337.163 63.952 336.091 64.496C335.019 65.024 333.755 65.288 332.299 65.288ZM332.347 64.064C333.515 64.064 334.531 63.848 335.395 63.416C336.275 62.968 336.955 62.352 337.435 61.568C337.915 60.784 338.155 59.864 338.155 58.808C338.155 57.752 337.915 56.832 337.435 56.048C336.955 55.248 336.275 54.632 335.395 54.2C334.531 53.768 333.515 53.552 332.347 53.552C330.779 53.552 329.419 53.984 328.267 54.848C327.131 55.712 326.283 56.952 325.723 58.568C326.043 60.312 326.787 61.664 327.955 62.624C329.123 63.584 330.587 64.064 332.347 64.064ZM359.185 51.56H360.481V65H359.185V51.56ZM344.929 65V51.56H346.225V56.504H352.345C353.337 56.504 354.201 56.68 354.937 57.032C355.673 57.384 356.241 57.88 356.641 58.52C357.057 59.16 357.265 59.904 357.265 60.752C357.265 61.6 357.057 62.344 356.641 62.984C356.241 63.624 355.673 64.12 354.937 64.472C354.201 64.824 353.337 65 352.345 65H344.929ZM346.225 63.824H352.369C353.457 63.824 354.321 63.544 354.961 62.984C355.601 62.424 355.921 61.68 355.921 60.752C355.921 59.808 355.601 59.064 354.961 58.52C354.321 57.96 353.457 57.68 352.369 57.68H346.225V63.824ZM375.979 65V51.56H377.275V63.68L387.955 51.56H389.635V65H388.339V52.88L377.659 65H375.979ZM405.131 51.56H406.427V56.072C406.683 55.56 406.971 55.072 407.291 54.608C408.043 53.568 408.939 52.752 409.979 52.16C411.019 51.568 412.155 51.272 413.387 51.272C414.699 51.272 415.867 51.568 416.891 52.16C417.915 52.752 418.723 53.576 419.315 54.632C419.907 55.672 420.203 56.888 420.203 58.28C420.203 59.656 419.907 60.872 419.315 61.928C418.723 62.984 417.915 63.808 416.891 64.4C415.867 64.992 414.699 65.288 413.387 65.288C412.155 65.288 411.019 65 409.979 64.424C408.939 63.832 408.043 63.008 407.291 61.952C406.971 61.504 406.683 61.024 406.427 60.512V68.96H405.131V51.56ZM418.859 58.28C418.859 57.128 418.619 56.12 418.139 55.256C417.675 54.392 417.027 53.72 416.195 53.24C415.379 52.744 414.443 52.496 413.387 52.496C412.331 52.496 411.363 52.744 410.483 53.24C409.603 53.72 408.819 54.392 408.131 55.256C407.443 56.12 406.867 57.128 406.403 58.28C406.867 59.416 407.443 60.424 408.131 61.304C408.819 62.168 409.603 62.848 410.483 63.344C411.363 63.824 412.331 64.064 413.387 64.064C414.443 64.064 415.379 63.824 416.195 63.344C417.027 62.848 417.675 62.168 418.139 61.304C418.619 60.424 418.859 59.416 418.859 58.28ZM430.056 56.36C430.36 56.36 430.648 56.36 430.92 56.36C432.52 56.36 433.808 56.472 434.784 56.696C435.44 56.856 435.928 57 436.248 57.128C436.248 55.704 435.768 54.568 434.808 53.72C433.832 52.872 432.44 52.448 430.632 52.448C429.784 52.448 428.92 52.568 428.04 52.808C427.16 53.032 426.296 53.448 425.448 54.056V52.856C426.216 52.296 427.032 51.896 427.896 51.656C428.776 51.4 429.72 51.272 430.728 51.272C431.992 51.272 433.136 51.496 434.16 51.944C435.2 52.376 436.024 53.04 436.632 53.936C437.24 54.832 437.544 55.984 437.544 57.392V65H436.248V62.336C435.928 62.8 435.504 63.24 434.976 63.656C434.384 64.12 433.672 64.512 432.84 64.832C432.008 65.136 431.08 65.288 430.056 65.288C428.936 65.288 427.928 65.112 427.032 64.76C426.152 64.408 425.456 63.904 424.944 63.248C424.432 62.576 424.176 61.776 424.176 60.848C424.176 59.936 424.432 59.16 424.944 58.52C425.472 57.864 426.176 57.352 427.056 56.984C427.952 56.6 428.952 56.392 430.056 56.36ZM436.248 58.352C435.352 57.824 434.32 57.552 433.152 57.536C432 57.52 431.384 57.512 431.304 57.512C429.192 57.512 427.728 57.824 426.912 58.448C426.096 59.056 425.688 59.84 425.688 60.8C425.688 61.824 426.08 62.64 426.864 63.248C427.664 63.84 428.728 64.136 430.056 64.136C430.152 64.136 430.256 64.136 430.368 64.136C432.064 64.072 433.464 63.552 434.568 62.576C435.688 61.584 436.248 60.176 436.248 58.352ZM451.028 65.288C449.348 65.288 447.908 64.936 446.708 64.232C445.508 63.512 444.58 62.488 443.924 61.16C443.284 59.816 442.964 58.208 442.964 56.336C442.964 53.536 443.652 51.328 445.028 49.712C446.42 48.096 448.396 47.184 450.956 46.976C451.964 46.896 452.796 46.824 453.452 46.76C454.124 46.68 454.676 46.608 455.108 46.544C455.54 46.48 455.9 46.408 456.188 46.328C456.492 46.248 456.788 46.152 457.076 46.04V47.384C456.82 47.512 456.444 47.624 455.948 47.72C455.468 47.816 454.844 47.904 454.076 47.984C453.308 48.064 452.372 48.136 451.268 48.2C448.996 48.328 447.252 49.088 446.036 50.48C444.82 51.872 444.212 53.824 444.212 56.336V56.84C444.596 55.976 445.084 55.232 445.676 54.608C446.38 53.872 447.204 53.312 448.148 52.928C449.092 52.528 450.132 52.328 451.268 52.328C452.66 52.328 453.876 52.6 454.916 53.144C455.956 53.688 456.764 54.448 457.34 55.424C457.932 56.384 458.228 57.504 458.228 58.784C458.228 60.096 457.924 61.24 457.316 62.216C456.724 63.192 455.892 63.952 454.82 64.496C453.748 65.024 452.484 65.288 451.028 65.288ZM451.076 64.064C452.244 64.064 453.26 63.848 454.124 63.416C455.004 62.968 455.684 62.352 456.164 61.568C456.644 60.784 456.884 59.864 456.884 58.808C456.884 57.752 456.644 56.832 456.164 56.048C455.684 55.248 455.004 54.632 454.124 54.2C453.26 53.768 452.244 53.552 451.076 53.552C449.508 53.552 448.148 53.984 446.996 54.848C445.86 55.712 445.012 56.952 444.452 58.568C444.772 60.312 445.516 61.664 446.684 62.624C447.852 63.584 449.316 64.064 451.076 64.064ZM470.571 65.288C469.035 65.288 467.683 64.992 466.515 64.4C465.347 63.808 464.435 62.984 463.779 61.928C463.123 60.872 462.795 59.656 462.795 58.28C462.795 56.888 463.123 55.672 463.779 54.632C464.435 53.576 465.347 52.752 466.515 52.16C467.683 51.568 469.035 51.272 470.571 51.272C472.107 51.272 473.459 51.568 474.627 52.16C475.795 52.752 476.707 53.576 477.363 54.632C478.019 55.672 478.347 56.888 478.347 58.28C478.347 59.656 478.019 60.872 477.363 61.928C476.707 62.984 475.795 63.808 474.627 64.4C473.459 64.992 472.107 65.288 470.571 65.288ZM470.571 64.064C471.883 64.064 473.019 63.824 473.979 63.344C474.939 62.864 475.683 62.192 476.211 61.328C476.739 60.464 477.003 59.448 477.003 58.28C477.003 57.112 476.739 56.096 476.211 55.232C475.683 54.368 474.939 53.696 473.979 53.216C473.019 52.736 471.883 52.496 470.571 52.496C469.275 52.496 468.139 52.736 467.163 53.216C466.203 53.696 465.459 54.368 464.931 55.232C464.403 56.096 464.139 57.112 464.139 58.28C464.139 59.448 464.403 60.464 464.931 61.328C465.459 62.192 466.203 62.864 467.163 63.344C468.139 63.824 469.275 64.064 470.571 64.064ZM488.078 60.32C486.286 60.32 484.934 59.848 484.022 58.904C483.11 57.944 482.654 56.528 482.654 54.656V51.56H483.95V54.608C483.95 57.6 485.342 59.096 488.126 59.096C489.23 59.096 490.262 58.872 491.222 58.424C492.102 58.024 492.942 57.416 493.742 56.6V51.56H495.038V65H493.742V58.04C493.102 58.712 492.342 59.24 491.462 59.624C490.422 60.088 489.294 60.32 488.078 60.32ZM501.272 65V51.56H502.568V63.68L513.248 51.56H514.928V65H513.632V52.88L502.952 65H501.272ZM528.02 65.288C526.5 65.288 525.156 64.992 523.988 64.4C522.836 63.808 521.932 62.984 521.276 61.928C520.636 60.872 520.316 59.656 520.316 58.28C520.316 56.888 520.62 55.672 521.228 54.632C521.852 53.576 522.708 52.752 523.796 52.16C524.884 51.568 526.148 51.272 527.588 51.272C528.98 51.272 530.204 51.576 531.26 52.184C532.316 52.792 533.14 53.64 533.732 54.728C534.324 55.8 534.62 57.048 534.62 58.472H521.66C521.692 59.56 521.956 60.512 522.452 61.328C522.98 62.192 523.716 62.864 524.66 63.344C525.62 63.824 526.74 64.064 528.02 64.064C529.204 64.064 530.316 63.856 531.356 63.44C532.396 63.024 533.348 62.472 534.212 61.784V63.008C533.38 63.712 532.404 64.272 531.284 64.688C530.164 65.088 529.076 65.288 528.02 65.288ZM533.204 57.32C533.092 56.504 532.852 55.768 532.484 55.112C532.004 54.28 531.34 53.64 530.492 53.192C529.66 52.728 528.692 52.496 527.588 52.496C526.388 52.496 525.34 52.736 524.444 53.216C523.564 53.696 522.884 54.368 522.404 55.232C522.052 55.856 521.828 56.552 521.732 57.32H533.204ZM41.656 95V81.56H50.176C51.488 81.56 52.496 81.864 53.2 82.472C53.904 83.064 54.256 83.904 54.256 84.992C54.256 85.984 53.904 86.768 53.2 87.344C52.816 87.664 52.352 87.904 51.808 88.064C52.688 88.208 53.4 88.472 53.944 88.856C54.728 89.448 55.12 90.296 55.12 91.4C55.12 92.552 54.72 93.44 53.92 94.064C53.12 94.688 51.984 95 50.512 95H41.656ZM42.976 87.608H49.888C50.832 87.608 51.568 87.376 52.096 86.912C52.64 86.432 52.912 85.792 52.912 84.992C52.912 84.256 52.664 83.696 52.168 83.312C51.688 82.928 50.984 82.736 50.056 82.736H42.976V87.608ZM42.976 93.824H50.608C51.648 93.824 52.432 93.616 52.96 93.2C53.504 92.784 53.776 92.184 53.776 91.4C53.776 90.536 53.432 89.88 52.744 89.432C52.056 88.984 51.048 88.76 49.72 88.76H42.976V93.824ZM69.7591 95V81.56H71.0551V93.824H80.0311V81.56H81.3271V93.824H90.3031V81.56H91.5991V95H69.7591ZM96.2146 81.56H109.655V82.736H103.583V95H102.287V82.736H96.2146V81.56ZM118.553 86.36C118.857 86.36 119.145 86.36 119.417 86.36C121.017 86.36 122.305 86.472 123.281 86.696C123.937 86.856 124.425 87 124.745 87.128C124.745 85.704 124.265 84.568 123.305 83.72C122.329 82.872 120.937 82.448 119.129 82.448C118.281 82.448 117.417 82.568 116.537 82.808C115.657 83.032 114.793 83.448 113.945 84.056V82.856C114.713 82.296 115.529 81.896 116.393 81.656C117.273 81.4 118.217 81.272 119.225 81.272C120.489 81.272 121.633 81.496 122.657 81.944C123.697 82.376 124.521 83.04 125.129 83.936C125.737 84.832 126.041 85.984 126.041 87.392V95H124.745V92.336C124.425 92.8 124.001 93.24 123.473 93.656C122.881 94.12 122.169 94.512 121.337 94.832C120.505 95.136 119.577 95.288 118.553 95.288C117.433 95.288 116.425 95.112 115.529 94.76C114.649 94.408 113.953 93.904 113.441 93.248C112.929 92.576 112.673 91.776 112.673 90.848C112.673 89.936 112.929 89.16 113.441 88.52C113.969 87.864 114.673 87.352 115.553 86.984C116.449 86.6 117.449 86.392 118.553 86.36ZM124.745 88.352C123.849 87.824 122.817 87.552 121.649 87.536C120.497 87.52 119.881 87.512 119.801 87.512C117.689 87.512 116.225 87.824 115.409 88.448C114.593 89.056 114.185 89.84 114.185 90.8C114.185 91.824 114.577 92.64 115.361 93.248C116.161 93.84 117.225 94.136 118.553 94.136C118.649 94.136 118.753 94.136 118.865 94.136C120.561 94.072 121.961 93.552 123.065 92.576C124.185 91.584 124.745 90.176 124.745 88.352ZM130.405 81.56H143.845V82.736H137.773V95H136.477V82.736H130.405V81.56ZM154.403 95.288C152.883 95.288 151.539 94.992 150.371 94.4C149.219 93.808 148.315 92.984 147.659 91.928C147.019 90.872 146.699 89.656 146.699 88.28C146.699 86.888 147.003 85.672 147.611 84.632C148.235 83.576 149.091 82.752 150.179 82.16C151.267 81.568 152.531 81.272 153.971 81.272C155.363 81.272 156.587 81.576 157.643 82.184C158.699 82.792 159.523 83.64 160.115 84.728C160.707 85.8 161.003 87.048 161.003 88.472H148.043C148.075 89.56 148.339 90.512 148.835 91.328C149.363 92.192 150.099 92.864 151.043 93.344C152.003 93.824 153.123 94.064 154.403 94.064C155.587 94.064 156.699 93.856 157.739 93.44C158.779 93.024 159.731 92.472 160.595 91.784V93.008C159.763 93.712 158.787 94.272 157.667 94.688C156.547 95.088 155.459 95.288 154.403 95.288ZM159.587 87.32C159.475 86.504 159.235 85.768 158.867 85.112C158.387 84.28 157.723 83.64 156.875 83.192C156.043 82.728 155.075 82.496 153.971 82.496C152.771 82.496 151.723 82.736 150.827 83.216C149.947 83.696 149.267 84.368 148.787 85.232C148.435 85.856 148.211 86.552 148.115 87.32H159.587ZM174.965 85.952H186.989V87.056H174.965V85.952ZM186.749 85.952H198.773V87.056H186.749V85.952ZM213.67 81.56H214.966V87.656H225.382V81.56H226.678V95H225.382V88.832H214.966V95H213.67V81.56ZM232.922 95V81.56H234.218V93.68L244.898 81.56H246.578V95H245.282V82.88L234.602 95H232.922ZM252.806 95V81.56H254.102V87.656H258.398L263.75 81.56H265.406L259.574 88.184L265.886 95H264.182L258.494 88.832H254.102V95H252.806ZM274.871 86.36C275.175 86.36 275.463 86.36 275.735 86.36C277.335 86.36 278.623 86.472 279.599 86.696C280.255 86.856 280.743 87 281.063 87.128C281.063 85.704 280.583 84.568 279.623 83.72C278.647 82.872 277.255 82.448 275.447 82.448C274.599 82.448 273.735 82.568 272.855 82.808C271.975 83.032 271.111 83.448 270.263 84.056V82.856C271.031 82.296 271.847 81.896 272.711 81.656C273.591 81.4 274.535 81.272 275.543 81.272C276.807 81.272 277.951 81.496 278.975 81.944C280.015 82.376 280.839 83.04 281.447 83.936C282.055 84.832 282.359 85.984 282.359 87.392V95H281.063V92.336C280.743 92.8 280.319 93.24 279.791 93.656C279.199 94.12 278.487 94.512 277.655 94.832C276.823 95.136 275.895 95.288 274.871 95.288C273.751 95.288 272.743 95.112 271.847 94.76C270.967 94.408 270.271 93.904 269.759 93.248C269.247 92.576 268.991 91.776 268.991 90.848C268.991 89.936 269.247 89.16 269.759 88.52C270.287 87.864 270.991 87.352 271.871 86.984C272.767 86.6 273.767 86.392 274.871 86.36ZM281.063 88.352C280.167 87.824 279.135 87.552 277.967 87.536C276.815 87.52 276.199 87.512 276.119 87.512C274.007 87.512 272.543 87.824 271.727 88.448C270.911 89.056 270.503 89.84 270.503 90.8C270.503 91.824 270.895 92.64 271.679 93.248C272.479 93.84 273.543 94.136 274.871 94.136C274.967 94.136 275.071 94.136 275.183 94.136C276.879 94.072 278.279 93.552 279.383 92.576C280.503 91.584 281.063 90.176 281.063 88.352ZM288.356 95V81.56H289.652V87.656H293.948L299.3 81.56H300.956L295.124 88.184L301.436 95H299.732L294.044 88.832H289.652V95H288.356ZM305.803 95V81.56H307.099V93.68L317.779 81.56H319.459V95H318.163V82.88L307.483 95H305.803ZM323.839 95L329.863 88.016L324.223 81.56H325.903L330.751 87.128L335.599 81.56H337.183L331.543 87.992L337.567 95H336.007L330.679 88.88L325.351 95H323.839ZM363.766 81.56V95H362.47V82.736H352.15V95H350.854V81.56H363.766ZM376.924 95.288C375.388 95.288 374.036 94.992 372.868 94.4C371.7 93.808 370.788 92.984 370.132 91.928C369.476 90.872 369.148 89.656 369.148 88.28C369.148 86.888 369.476 85.672 370.132 84.632C370.788 83.576 371.7 82.752 372.868 82.16C374.036 81.568 375.388 81.272 376.924 81.272C378.46 81.272 379.812 81.568 380.98 82.16C382.148 82.752 383.06 83.576 383.716 84.632C384.372 85.672 384.7 86.888 384.7 88.28C384.7 89.656 384.372 90.872 383.716 91.928C383.06 92.984 382.148 93.808 380.98 94.4C379.812 94.992 378.46 95.288 376.924 95.288ZM376.924 94.064C378.236 94.064 379.372 93.824 380.332 93.344C381.292 92.864 382.036 92.192 382.564 91.328C383.092 90.464 383.356 89.448 383.356 88.28C383.356 87.112 383.092 86.096 382.564 85.232C382.036 84.368 381.292 83.696 380.332 83.216C379.372 82.736 378.236 82.496 376.924 82.496C375.628 82.496 374.492 82.736 373.516 83.216C372.556 83.696 371.812 84.368 371.284 85.232C370.756 86.096 370.492 87.112 370.492 88.28C370.492 89.448 370.756 90.464 371.284 91.328C371.812 92.192 372.556 92.864 373.516 93.344C374.492 93.824 375.628 94.064 376.924 94.064ZM405.266 93.824V98.576H404.066V95H388.85V98.576H387.65V93.824H389.402C390.538 92.624 391.106 90.16 391.106 86.432C391.106 85.664 391.082 84.856 391.034 84.008C391.002 83.16 390.946 82.344 390.866 81.56H402.722V93.824H405.266ZM401.426 93.824V82.736H392.186C392.234 83.344 392.274 83.952 392.306 84.56C392.338 85.312 392.354 86.016 392.354 86.672C392.354 89.136 392.106 91.08 391.61 92.504C391.418 93.048 391.21 93.488 390.986 93.824H401.426ZM409.992 81.56H411.288V86.072C411.544 85.56 411.832 85.072 412.152 84.608C412.904 83.568 413.8 82.752 414.84 82.16C415.88 81.568 417.016 81.272 418.248 81.272C419.56 81.272 420.728 81.568 421.752 82.16C422.776 82.752 423.584 83.576 424.176 84.632C424.768 85.672 425.064 86.888 425.064 88.28C425.064 89.656 424.768 90.872 424.176 91.928C423.584 92.984 422.776 93.808 421.752 94.4C420.728 94.992 419.56 95.288 418.248 95.288C417.016 95.288 415.88 95 414.84 94.424C413.8 93.832 412.904 93.008 412.152 91.952C411.832 91.504 411.544 91.024 411.288 90.512V98.96H409.992V81.56ZM423.72 88.28C423.72 87.128 423.48 86.12 423 85.256C422.536 84.392 421.888 83.72 421.056 83.24C420.24 82.744 419.304 82.496 418.248 82.496C417.192 82.496 416.224 82.744 415.344 83.24C414.464 83.72 413.68 84.392 412.992 85.256C412.304 86.12 411.728 87.128 411.264 88.28C411.728 89.416 412.304 90.424 412.992 91.304C413.68 92.168 414.464 92.848 415.344 93.344C416.224 93.824 417.192 94.064 418.248 94.064C419.304 94.064 420.24 93.824 421.056 93.344C421.888 92.848 422.536 92.168 423 91.304C423.48 90.424 423.72 89.416 423.72 88.28ZM429.502 95L434.566 89.384H434.23C433.334 89.384 432.542 89.224 431.854 88.904C431.166 88.568 430.63 88.104 430.246 87.512C429.878 86.92 429.694 86.24 429.694 85.472C429.694 84.688 429.878 84.008 430.246 83.432C430.63 82.84 431.166 82.384 431.854 82.064C432.542 81.728 433.334 81.56 434.23 81.56H442.318V95H441.022V89.384H436.246L431.182 95H429.502ZM441.022 88.208V82.736H434.23C433.222 82.736 432.43 82.984 431.854 83.48C431.278 83.976 430.99 84.632 430.99 85.448C430.99 86.28 431.278 86.952 431.854 87.464C432.43 87.96 433.222 88.208 434.23 88.208H441.022ZM464.333 93.824V98.576H463.133V95H447.917V98.576H446.717V93.824H448.469C449.605 92.624 450.173 90.16 450.173 86.432C450.173 85.664 450.149 84.856 450.101 84.008C450.069 83.16 450.013 82.344 449.933 81.56H461.789V93.824H464.333ZM460.493 93.824V82.736H451.253C451.301 83.344 451.341 83.952 451.373 84.56C451.405 85.312 451.421 86.016 451.421 86.672C451.421 89.136 451.173 91.08 450.677 92.504C450.485 93.048 450.277 93.488 450.053 93.824H460.493ZM472.961 90.32C471.169 90.32 469.817 89.848 468.905 88.904C467.993 87.944 467.537 86.528 467.537 84.656V81.56H468.833V84.608C468.833 87.6 470.225 89.096 473.009 89.096C474.113 89.096 475.145 88.872 476.105 88.424C476.985 88.024 477.825 87.416 478.625 86.6V81.56H479.921V95H478.625V88.04C477.985 88.712 477.225 89.24 476.345 89.624C475.305 90.088 474.177 90.32 472.961 90.32ZM486.154 95V81.56H487.45V93.68L498.13 81.56H499.81V95H498.514V82.88L487.834 95H486.154ZM506.039 95V81.56H507.335V87.656H511.631L516.983 81.56H518.639L512.807 88.184L519.119 95H517.415L511.727 88.832H507.335V95H506.039ZM529.859 95.288C528.323 95.288 526.971 94.992 525.803 94.4C524.635 93.808 523.723 92.984 523.067 91.928C522.411 90.872 522.083 89.656 522.083 88.28C522.083 86.888 522.411 85.672 523.067 84.632C523.723 83.576 524.635 82.752 525.803 82.16C526.971 81.568 528.323 81.272 529.859 81.272C531.395 81.272 532.747 81.568 533.915 82.16C535.083 82.752 535.995 83.576 536.651 84.632C537.307 85.672 537.635 86.888 537.635 88.28C537.635 89.656 537.307 90.872 536.651 91.928C535.995 92.984 535.083 93.808 533.915 94.4C532.747 94.992 531.395 95.288 529.859 95.288ZM529.859 94.064C531.171 94.064 532.307 93.824 533.267 93.344C534.227 92.864 534.971 92.192 535.499 91.328C536.027 90.464 536.291 89.448 536.291 88.28C536.291 87.112 536.027 86.096 535.499 85.232C534.971 84.368 534.227 83.696 533.267 83.216C532.307 82.736 531.171 82.496 529.859 82.496C528.563 82.496 527.427 82.736 526.451 83.216C525.491 83.696 524.747 84.368 524.219 85.232C523.691 86.096 523.427 87.112 523.427 88.28C523.427 89.448 523.691 90.464 524.219 91.328C524.747 92.192 525.491 92.864 526.451 93.344C527.427 93.824 528.563 94.064 529.859 94.064ZM542.754 95V81.56H551.274C552.586 81.56 553.594 81.864 554.298 82.472C555.002 83.064 555.354 83.904 555.354 84.992C555.354 85.984 555.002 86.768 554.298 87.344C553.914 87.664 553.45 87.904 552.906 88.064C553.786 88.208 554.498 88.472 555.042 88.856C555.826 89.448 556.218 90.296 556.218 91.4C556.218 92.552 555.818 93.44 555.018 94.064C554.218 94.688 553.082 95 551.61 95H542.754ZM544.074 87.608H550.986C551.93 87.608 552.666 87.376 553.194 86.912C553.738 86.432 554.01 85.792 554.01 84.992C554.01 84.256 553.762 83.696 553.266 83.312C552.786 82.928 552.082 82.736 551.154 82.736H544.074V87.608ZM544.074 93.824H551.706C552.746 93.824 553.53 93.616 554.058 93.2C554.602 92.784 554.874 92.184 554.874 91.4C554.874 90.536 554.53 89.88 553.842 89.432C553.154 88.984 552.146 88.76 550.818 88.76H544.074V93.824Z" fill="white"/>
</svg>
