<svg width="610" height="200" viewBox="0 0 610 200" fill="none" xmlns="http://www.w3.org/2000/svg">
<rect x="0.5" y="0.5" width="609" height="199" rx="29.5" stroke="white"/>
<path d="M51.16 64.288C49.208 64.288 47.48 63.896 45.976 63.112C44.488 62.328 43.328 61.24 42.496 59.848C41.664 58.44 41.248 56.816 41.248 54.976C41.248 53.152 41.664 51.544 42.496 50.152C43.328 48.76 44.488 47.672 45.976 46.888C47.48 46.104 49.216 45.712 51.184 45.712C53.136 45.712 54.856 46.104 56.344 46.888C57.832 47.672 58.992 48.76 59.824 50.152C60.656 51.544 61.072 53.152 61.072 54.976C61.072 56.816 60.656 58.44 59.824 59.848C58.992 61.24 57.832 62.328 56.344 63.112C54.856 63.896 53.128 64.288 51.16 64.288ZM51.16 63.04C52.888 63.04 54.392 62.712 55.672 62.056C56.952 61.384 57.936 60.448 58.624 59.248C59.328 58.032 59.68 56.608 59.68 54.976C59.68 53.36 59.328 51.952 58.624 50.752C57.936 49.552 56.952 48.624 55.672 47.968C54.392 47.296 52.888 46.96 51.16 46.96C49.432 46.96 47.928 47.296 46.648 47.968C45.384 48.624 44.4 49.552 43.696 50.752C42.992 51.952 42.64 53.368 42.64 55C42.64 56.616 42.992 58.032 43.696 59.248C44.4 60.448 45.384 61.384 46.648 62.056C47.928 62.712 49.432 63.04 51.16 63.04ZM79.5445 50.56V64H78.2485V51.736H67.9285V64H66.6325V50.56H79.5445ZM100.046 50.56H101.342V64H100.046V50.56ZM85.7903 64V50.56H87.0863V55.504H93.2063C94.1983 55.504 95.0623 55.68 95.7983 56.032C96.5343 56.384 97.1023 56.88 97.5023 57.52C97.9183 58.16 98.1263 58.904 98.1263 59.752C98.1263 60.6 97.9183 61.344 97.5023 61.984C97.1023 62.624 96.5343 63.12 95.7983 63.472C95.0623 63.824 94.1983 64 93.2063 64H85.7903ZM87.0863 62.824H93.2303C94.3183 62.824 95.1823 62.544 95.8223 61.984C96.4623 61.424 96.7823 60.68 96.7823 59.752C96.7823 58.808 96.4623 58.064 95.8223 57.52C95.1823 56.96 94.3183 56.68 93.2303 56.68H87.0863V62.824ZM105.941 50.56H119.381V51.736H113.309V64H112.013V51.736H105.941V50.56ZM139.418 64.288C137.882 64.288 136.53 63.992 135.362 63.4C134.194 62.808 133.282 61.984 132.626 60.928C131.97 59.872 131.642 58.656 131.642 57.28C131.642 55.888 131.97 54.672 132.626 53.632C133.282 52.576 134.194 51.752 135.362 51.16C136.53 50.568 137.882 50.272 139.418 50.272C140.954 50.272 142.306 50.568 143.474 51.16C144.642 51.752 145.554 52.576 146.21 53.632C146.866 54.672 147.194 55.888 147.194 57.28C147.194 58.656 146.866 59.872 146.21 60.928C145.554 61.984 144.642 62.808 143.474 63.4C142.306 63.992 140.954 64.288 139.418 64.288ZM139.418 63.064C140.73 63.064 141.866 62.824 142.826 62.344C143.786 61.864 144.53 61.192 145.058 60.328C145.586 59.464 145.85 58.448 145.85 57.28C145.85 56.112 145.586 55.096 145.058 54.232C144.53 53.368 143.786 52.696 142.826 52.216C141.866 51.736 140.73 51.496 139.418 51.496C138.122 51.496 136.986 51.736 136.01 52.216C135.05 52.696 134.306 53.368 133.778 54.232C133.25 55.096 132.986 56.112 132.986 57.28C132.986 58.448 133.25 59.464 133.778 60.328C134.306 61.192 135.05 61.864 136.01 62.344C136.986 62.824 138.122 63.064 139.418 63.064ZM150.032 50.56H163.472V51.736H157.4V64H156.104V51.736H150.032V50.56ZM176.141 46H190.661V47.2L183.197 53.464H184.061C185.757 53.464 187.133 53.688 188.189 54.136C189.261 54.584 190.045 55.2 190.541 55.984C191.053 56.752 191.309 57.632 191.309 58.624C191.309 59.744 190.997 60.728 190.373 61.576C189.749 62.424 188.861 63.088 187.709 63.568C186.557 64.048 185.189 64.288 183.605 64.288C181.989 64.288 180.581 64.048 179.381 63.568C178.181 63.072 177.237 62.392 176.549 61.528C175.861 60.648 175.469 59.624 175.373 58.456H176.717C176.893 59.912 177.573 61.048 178.757 61.864C179.957 62.68 181.573 63.088 183.605 63.088C185.589 63.088 187.133 62.704 188.237 61.936C189.357 61.168 189.917 60.056 189.917 58.6C189.917 57.784 189.717 57.072 189.317 56.464C188.917 55.856 188.253 55.384 187.325 55.048C186.413 54.696 185.173 54.52 183.605 54.52H181.589V53.344L188.861 47.2H176.141V46ZM207.609 50.56H219.465V64H218.169V51.736H208.929C208.993 52.616 209.057 53.504 209.121 54.4C209.169 55.44 209.193 56.36 209.193 57.16C209.193 59.624 208.881 61.416 208.257 62.536C207.633 63.656 206.649 64.216 205.305 64.216C204.985 64.216 204.665 64.176 204.345 64.096C204.025 64.032 203.729 63.92 203.457 63.76V62.608C203.729 62.72 204.009 62.816 204.297 62.896C204.585 62.96 204.857 62.992 205.113 62.992C206.105 62.992 206.825 62.52 207.273 61.576C207.721 60.632 207.945 59.096 207.945 56.968C207.945 56.136 207.913 55.168 207.849 54.064C207.801 52.96 207.721 51.792 207.609 50.56ZM232.567 64.288C231.047 64.288 229.703 63.992 228.535 63.4C227.383 62.808 226.479 61.984 225.823 60.928C225.183 59.872 224.863 58.656 224.863 57.28C224.863 55.888 225.167 54.672 225.775 53.632C226.399 52.576 227.255 51.752 228.343 51.16C229.431 50.568 230.695 50.272 232.135 50.272C233.527 50.272 234.751 50.576 235.807 51.184C236.863 51.792 237.687 52.64 238.279 53.728C238.871 54.8 239.167 56.048 239.167 57.472H226.207C226.239 58.56 226.503 59.512 226.999 60.328C227.527 61.192 228.263 61.864 229.207 62.344C230.167 62.824 231.287 63.064 232.567 63.064C233.751 63.064 234.863 62.856 235.903 62.44C236.943 62.024 237.895 61.472 238.759 60.784V62.008C237.927 62.712 236.951 63.272 235.831 63.688C234.711 64.088 233.623 64.288 232.567 64.288ZM237.751 56.32C237.639 55.504 237.399 54.768 237.031 54.112C236.551 53.28 235.887 52.64 235.039 52.192C234.207 51.728 233.239 51.496 232.135 51.496C230.935 51.496 229.887 51.736 228.991 52.216C228.111 52.696 227.431 53.368 226.951 54.232C226.599 54.856 226.375 55.552 226.279 56.32H237.751ZM242.104 50.56H255.544V51.736H249.472V64H248.176V51.736H242.104V50.56ZM256.87 67.048L258.19 64.072C258.078 64.056 257.966 64.008 257.854 63.928C257.678 63.832 257.534 63.704 257.422 63.544C257.326 63.368 257.278 63.176 257.278 62.968C257.278 62.76 257.326 62.576 257.422 62.416C257.534 62.24 257.678 62.104 257.854 62.008C258.03 61.896 258.222 61.84 258.43 61.84C258.654 61.84 258.854 61.896 259.03 62.008C259.206 62.12 259.342 62.272 259.438 62.464C259.534 62.64 259.582 62.848 259.582 63.088C259.582 63.344 259.542 63.608 259.462 63.88C259.382 64.136 259.222 64.496 258.982 64.96L257.902 67.048H256.87ZM286.441 50.56V64H285.145V51.736H274.825V64H273.529V50.56H286.441ZM292.687 50.56H293.983V55.072C294.239 54.56 294.527 54.072 294.847 53.608C295.599 52.568 296.495 51.752 297.535 51.16C298.575 50.568 299.711 50.272 300.943 50.272C302.255 50.272 303.423 50.568 304.447 51.16C305.471 51.752 306.279 52.576 306.871 53.632C307.463 54.672 307.759 55.888 307.759 57.28C307.759 58.656 307.463 59.872 306.871 60.928C306.279 61.984 305.471 62.808 304.447 63.4C303.423 63.992 302.255 64.288 300.943 64.288C299.711 64.288 298.575 64 297.535 63.424C296.495 62.832 295.599 62.008 294.847 60.952C294.527 60.504 294.239 60.024 293.983 59.512V67.96H292.687V50.56ZM306.415 57.28C306.415 56.128 306.175 55.12 305.695 54.256C305.231 53.392 304.583 52.72 303.751 52.24C302.935 51.744 301.999 51.496 300.943 51.496C299.887 51.496 298.919 51.744 298.039 52.24C297.159 52.72 296.375 53.392 295.687 54.256C294.999 55.12 294.423 56.128 293.959 57.28C294.423 58.416 294.999 59.424 295.687 60.304C296.375 61.168 297.159 61.848 298.039 62.344C298.919 62.824 299.887 63.064 300.943 63.064C301.999 63.064 302.935 62.824 303.751 62.344C304.583 61.848 305.231 61.168 305.695 60.304C306.175 59.424 306.415 58.416 306.415 57.28ZM320.069 64.288C318.533 64.288 317.181 63.992 316.013 63.4C314.845 62.808 313.933 61.984 313.277 60.928C312.621 59.872 312.293 58.656 312.293 57.28C312.293 55.888 312.621 54.672 313.277 53.632C313.933 52.576 314.845 51.752 316.013 51.16C317.181 50.568 318.533 50.272 320.069 50.272C321.605 50.272 322.957 50.568 324.125 51.16C325.293 51.752 326.205 52.576 326.861 53.632C327.517 54.672 327.845 55.888 327.845 57.28C327.845 58.656 327.517 59.872 326.861 60.928C326.205 61.984 325.293 62.808 324.125 63.4C322.957 63.992 321.605 64.288 320.069 64.288ZM320.069 63.064C321.381 63.064 322.517 62.824 323.477 62.344C324.437 61.864 325.181 61.192 325.709 60.328C326.237 59.464 326.501 58.448 326.501 57.28C326.501 56.112 326.237 55.096 325.709 54.232C325.181 53.368 324.437 52.696 323.477 52.216C322.517 51.736 321.381 51.496 320.069 51.496C318.773 51.496 317.637 51.736 316.661 52.216C315.701 52.696 314.957 53.368 314.429 54.232C313.901 55.096 313.637 56.112 313.637 57.28C313.637 58.448 313.901 59.464 314.429 60.328C314.957 61.192 315.701 61.864 316.661 62.344C317.637 62.824 318.773 63.064 320.069 63.064ZM345.733 67.96V59.632C345.509 60.096 345.253 60.536 344.965 60.952C344.245 62.008 343.381 62.832 342.373 63.424C341.381 64 340.269 64.288 339.037 64.288C337.741 64.288 336.597 63.992 335.605 63.4C334.613 62.808 333.829 61.984 333.253 60.928C332.693 59.872 332.413 58.656 332.413 57.28C332.413 55.888 332.693 54.672 333.253 53.632C333.829 52.576 334.613 51.752 335.605 51.16C336.597 50.568 337.741 50.272 339.037 50.272C340.269 50.272 341.381 50.568 342.373 51.16C343.381 51.752 344.245 52.568 344.965 53.608C345.253 54.024 345.509 54.464 345.733 54.928V45.52H347.029V54.976C347.269 54.496 347.533 54.04 347.821 53.608C348.525 52.568 349.381 51.752 350.389 51.16C351.397 50.568 352.509 50.272 353.725 50.272C355.021 50.272 356.165 50.568 357.157 51.16C358.149 51.752 358.925 52.576 359.485 53.632C360.061 54.672 360.349 55.888 360.349 57.28C360.349 58.656 360.061 59.872 359.485 60.928C358.925 61.984 358.149 62.808 357.157 63.4C356.165 63.992 355.021 64.288 353.725 64.288C352.509 64.288 351.397 64 350.389 63.424C349.381 62.832 348.525 62.008 347.821 60.952C347.533 60.52 347.269 60.064 347.029 59.584V67.96H345.733ZM359.005 57.28C359.005 56.128 358.781 55.12 358.333 54.256C357.885 53.392 357.261 52.72 356.461 52.24C355.677 51.744 354.765 51.496 353.725 51.496C352.173 51.496 350.829 52.032 349.693 53.104C348.557 54.176 347.637 55.568 346.933 57.28C347.637 58.992 348.557 60.384 349.693 61.456C350.829 62.528 352.173 63.064 353.725 63.064C354.765 63.064 355.677 62.824 356.461 62.344C357.261 61.848 357.885 61.168 358.333 60.304C358.781 59.424 359.005 58.416 359.005 57.28ZM333.757 57.28C333.757 58.416 333.981 59.424 334.429 60.304C334.877 61.168 335.493 61.848 336.277 62.344C337.077 62.824 337.997 63.064 339.037 63.064C340.605 63.064 341.957 62.528 343.093 61.456C344.229 60.384 345.141 58.992 345.829 57.28C345.141 55.568 344.229 54.176 343.093 53.104C341.957 52.032 340.605 51.496 339.037 51.496C337.997 51.496 337.077 51.744 336.277 52.24C335.493 52.72 334.877 53.392 334.429 54.256C333.981 55.12 333.757 56.128 333.757 57.28ZM365.77 64V50.56H367.066V62.68L377.746 50.56H379.426V64H378.13V51.88L367.45 64H365.77ZM388.054 50.56H399.91V64H398.614V51.736H389.374C389.438 52.616 389.502 53.504 389.566 54.4C389.614 55.44 389.638 56.36 389.638 57.16C389.638 59.624 389.326 61.416 388.702 62.536C388.078 63.656 387.094 64.216 385.75 64.216C385.43 64.216 385.11 64.176 384.79 64.096C384.47 64.032 384.174 63.92 383.902 63.76V62.608C384.174 62.72 384.454 62.816 384.742 62.896C385.03 62.96 385.302 62.992 385.558 62.992C386.55 62.992 387.27 62.52 387.718 61.576C388.166 60.632 388.39 59.096 388.39 56.968C388.39 56.136 388.358 55.168 388.294 54.064C388.246 52.96 388.166 51.792 388.054 50.56ZM406.148 64V50.56H407.444V55.504H413.564C414.556 55.504 415.42 55.68 416.156 56.032C416.892 56.384 417.46 56.88 417.86 57.52C418.276 58.16 418.484 58.904 418.484 59.752C418.484 60.6 418.276 61.344 417.86 61.984C417.46 62.624 416.892 63.12 416.156 63.472C415.42 63.824 414.556 64 413.564 64H406.148ZM407.444 62.824H413.588C414.676 62.824 415.54 62.544 416.18 61.984C416.82 61.424 417.14 60.68 417.14 59.752C417.14 58.808 416.82 58.064 416.18 57.52C415.54 56.96 414.676 56.68 413.588 56.68H407.444V62.824ZM423.478 50.56H424.774V56.656H435.19V50.56H436.486V64H435.19V57.832H424.774V64H423.478V50.56ZM449.641 64.288C448.105 64.288 446.753 63.992 445.585 63.4C444.417 62.808 443.505 61.984 442.849 60.928C442.193 59.872 441.865 58.656 441.865 57.28C441.865 55.888 442.193 54.672 442.849 53.632C443.505 52.576 444.417 51.752 445.585 51.16C446.753 50.568 448.105 50.272 449.641 50.272C451.177 50.272 452.529 50.568 453.697 51.16C454.865 51.752 455.777 52.576 456.433 53.632C457.089 54.672 457.417 55.888 457.417 57.28C457.417 58.656 457.089 59.872 456.433 60.928C455.777 61.984 454.865 62.808 453.697 63.4C452.529 63.992 451.177 64.288 449.641 64.288ZM449.641 63.064C450.953 63.064 452.089 62.824 453.049 62.344C454.009 61.864 454.753 61.192 455.281 60.328C455.809 59.464 456.073 58.448 456.073 57.28C456.073 56.112 455.809 55.096 455.281 54.232C454.753 53.368 454.009 52.696 453.049 52.216C452.089 51.736 450.953 51.496 449.641 51.496C448.345 51.496 447.209 51.736 446.233 52.216C445.273 52.696 444.529 53.368 444.001 54.232C443.473 55.096 443.209 56.112 443.209 57.28C443.209 58.448 443.473 59.464 444.001 60.328C444.529 61.192 445.273 61.864 446.233 62.344C447.209 62.824 448.345 63.064 449.641 63.064ZM469.665 64.288C468.145 64.288 466.801 63.992 465.633 63.4C464.481 62.808 463.577 61.984 462.921 60.928C462.281 59.872 461.961 58.656 461.961 57.28C461.961 55.888 462.265 54.672 462.873 53.632C463.497 52.576 464.353 51.752 465.441 51.16C466.529 50.568 467.793 50.272 469.233 50.272C470.625 50.272 471.849 50.576 472.905 51.184C473.961 51.792 474.785 52.64 475.377 53.728C475.969 54.8 476.265 56.048 476.265 57.472H463.305C463.337 58.56 463.601 59.512 464.097 60.328C464.625 61.192 465.361 61.864 466.305 62.344C467.265 62.824 468.385 63.064 469.665 63.064C470.849 63.064 471.961 62.856 473.001 62.44C474.041 62.024 474.993 61.472 475.857 60.784V62.008C475.025 62.712 474.049 63.272 472.929 63.688C471.809 64.088 470.721 64.288 469.665 64.288ZM474.849 56.32C474.737 55.504 474.497 54.768 474.129 54.112C473.649 53.28 472.985 52.64 472.137 52.192C471.305 51.728 470.337 51.496 469.233 51.496C468.033 51.496 466.985 51.736 466.089 52.216C465.209 52.696 464.529 53.368 464.049 54.232C463.697 54.856 463.473 55.552 463.377 56.32H474.849ZM48.832 94.288C47.296 94.288 45.944 93.992 44.776 93.4C43.608 92.808 42.696 91.984 42.04 90.928C41.384 89.872 41.056 88.656 41.056 87.28C41.056 85.888 41.384 84.672 42.04 83.632C42.696 82.576 43.608 81.752 44.776 81.16C45.944 80.568 47.296 80.272 48.832 80.272C50.368 80.272 51.72 80.568 52.888 81.16C54.056 81.752 54.968 82.576 55.624 83.632C56.28 84.672 56.608 85.888 56.608 87.28C56.608 88.656 56.28 89.872 55.624 90.928C54.968 91.984 54.056 92.808 52.888 93.4C51.72 93.992 50.368 94.288 48.832 94.288ZM48.832 93.064C50.144 93.064 51.28 92.824 52.24 92.344C53.2 91.864 53.944 91.192 54.472 90.328C55 89.464 55.264 88.448 55.264 87.28C55.264 86.112 55 85.096 54.472 84.232C53.944 83.368 53.2 82.696 52.24 82.216C51.28 81.736 50.144 81.496 48.832 81.496C47.536 81.496 46.4 81.736 45.424 82.216C44.464 82.696 43.72 83.368 43.192 84.232C42.664 85.096 42.4 86.112 42.4 87.28C42.4 88.448 42.664 89.464 43.192 90.328C43.72 91.192 44.464 91.864 45.424 92.344C46.4 92.824 47.536 93.064 48.832 93.064ZM69.4799 94.288C67.7999 94.288 66.3599 93.936 65.1599 93.232C63.9599 92.512 63.0319 91.488 62.3759 90.16C61.7359 88.816 61.4159 87.208 61.4159 85.336C61.4159 82.536 62.1039 80.328 63.4799 78.712C64.8719 77.096 66.8479 76.184 69.4079 75.976C70.4159 75.896 71.2479 75.824 71.9039 75.76C72.5759 75.68 73.1279 75.608 73.5599 75.544C73.9919 75.48 74.3519 75.408 74.6399 75.328C74.9439 75.248 75.2399 75.152 75.5279 75.04V76.384C75.2719 76.512 74.8959 76.624 74.3999 76.72C73.9199 76.816 73.2959 76.904 72.5279 76.984C71.7599 77.064 70.8239 77.136 69.7199 77.2C67.4479 77.328 65.7039 78.088 64.4879 79.48C63.2719 80.872 62.6639 82.824 62.6639 85.336V85.84C63.0479 84.976 63.5359 84.232 64.1279 83.608C64.8319 82.872 65.6559 82.312 66.5999 81.928C67.5439 81.528 68.5839 81.328 69.7199 81.328C71.1119 81.328 72.3279 81.6 73.3679 82.144C74.4079 82.688 75.2159 83.448 75.7919 84.424C76.3839 85.384 76.6799 86.504 76.6799 87.784C76.6799 89.096 76.3759 90.24 75.7679 91.216C75.1759 92.192 74.3439 92.952 73.2719 93.496C72.1999 94.024 70.9359 94.288 69.4799 94.288ZM69.5279 93.064C70.6959 93.064 71.7119 92.848 72.5759 92.416C73.4559 91.968 74.1359 91.352 74.6159 90.568C75.0959 89.784 75.3359 88.864 75.3359 87.808C75.3359 86.752 75.0959 85.832 74.6159 85.048C74.1359 84.248 73.4559 83.632 72.5759 83.2C71.7119 82.768 70.6959 82.552 69.5279 82.552C67.9599 82.552 66.5999 82.984 65.4479 83.848C64.3119 84.712 63.4639 85.952 62.9039 87.568C63.2239 89.312 63.9679 90.664 65.1359 91.624C66.3039 92.584 67.7679 93.064 69.5279 93.064ZM82.1106 80.56H83.4066V85.072C83.6626 84.56 83.9506 84.072 84.2706 83.608C85.0226 82.568 85.9186 81.752 86.9586 81.16C87.9986 80.568 89.1346 80.272 90.3666 80.272C91.6786 80.272 92.8466 80.568 93.8706 81.16C94.8946 81.752 95.7026 82.576 96.2946 83.632C96.8866 84.672 97.1826 85.888 97.1826 87.28C97.1826 88.656 96.8866 89.872 96.2946 90.928C95.7026 91.984 94.8946 92.808 93.8706 93.4C92.8466 93.992 91.6786 94.288 90.3666 94.288C89.1346 94.288 87.9986 94 86.9586 93.424C85.9186 92.832 85.0226 92.008 84.2706 90.952C83.9506 90.504 83.6626 90.024 83.4066 89.512V97.96H82.1106V80.56ZM95.8386 87.28C95.8386 86.128 95.5986 85.12 95.1186 84.256C94.6546 83.392 94.0066 82.72 93.1746 82.24C92.3586 81.744 91.4226 81.496 90.3666 81.496C89.3106 81.496 88.3426 81.744 87.4626 82.24C86.5826 82.72 85.7986 83.392 85.1106 84.256C84.4226 85.12 83.8466 86.128 83.3826 87.28C83.8466 88.416 84.4226 89.424 85.1106 90.304C85.7986 91.168 86.5826 91.848 87.4626 92.344C88.3426 92.824 89.3106 93.064 90.3666 93.064C91.4226 93.064 92.3586 92.824 93.1746 92.344C94.0066 91.848 94.6546 91.168 95.1186 90.304C95.5986 89.424 95.8386 88.416 95.8386 87.28ZM107.036 85.36C107.34 85.36 107.628 85.36 107.9 85.36C109.5 85.36 110.788 85.472 111.764 85.696C112.42 85.856 112.908 86 113.228 86.128C113.228 84.704 112.748 83.568 111.788 82.72C110.812 81.872 109.42 81.448 107.612 81.448C106.764 81.448 105.9 81.568 105.02 81.808C104.14 82.032 103.276 82.448 102.428 83.056V81.856C103.196 81.296 104.012 80.896 104.876 80.656C105.756 80.4 106.7 80.272 107.708 80.272C108.972 80.272 110.116 80.496 111.14 80.944C112.18 81.376 113.004 82.04 113.612 82.936C114.22 83.832 114.524 84.984 114.524 86.392V94H113.228V91.336C112.908 91.8 112.484 92.24 111.956 92.656C111.364 93.12 110.652 93.512 109.82 93.832C108.988 94.136 108.06 94.288 107.036 94.288C105.916 94.288 104.908 94.112 104.012 93.76C103.132 93.408 102.436 92.904 101.924 92.248C101.412 91.576 101.156 90.776 101.156 89.848C101.156 88.936 101.412 88.16 101.924 87.52C102.452 86.864 103.156 86.352 104.036 85.984C104.932 85.6 105.932 85.392 107.036 85.36ZM113.228 87.352C112.332 86.824 111.3 86.552 110.132 86.536C108.98 86.52 108.364 86.512 108.284 86.512C106.172 86.512 104.708 86.824 103.892 87.448C103.076 88.056 102.668 88.84 102.668 89.8C102.668 90.824 103.06 91.64 103.844 92.248C104.644 92.84 105.708 93.136 107.036 93.136C107.132 93.136 107.236 93.136 107.348 93.136C109.044 93.072 110.444 92.552 111.548 91.576C112.668 90.584 113.228 89.176 113.228 87.352ZM126.064 94.288C124.8 94.288 123.68 94.104 122.704 93.736C121.728 93.368 120.952 92.848 120.376 92.176C119.816 91.488 119.496 90.68 119.416 89.752H120.712C120.856 90.824 121.392 91.648 122.32 92.224C123.248 92.784 124.496 93.064 126.064 93.064C127.584 93.064 128.776 92.832 129.64 92.368C130.52 91.904 130.96 91.184 130.96 90.208C130.96 89.408 130.608 88.816 129.904 88.432C129.216 88.032 128.112 87.832 126.592 87.832H123.64V86.68H126.52C127.88 86.68 128.888 86.432 129.544 85.936C130.2 85.44 130.528 84.848 130.528 84.16C130.528 83.296 130.12 82.64 129.304 82.192C128.504 81.728 127.456 81.496 126.16 81.496C124.752 81.496 123.592 81.752 122.68 82.264C121.768 82.776 121.224 83.536 121.048 84.544H119.752C119.864 83.712 120.184 82.976 120.712 82.336C121.256 81.696 121.992 81.192 122.92 80.824C123.864 80.456 124.96 80.272 126.208 80.272C127.376 80.272 128.384 80.44 129.232 80.776C130.08 81.096 130.728 81.544 131.176 82.12C131.64 82.68 131.872 83.32 131.872 84.04C131.872 84.664 131.68 85.24 131.296 85.768C130.928 86.28 130.384 86.688 129.664 86.992C129.472 87.072 129.28 87.136 129.088 87.184C129.776 87.312 130.368 87.52 130.864 87.808C131.824 88.384 132.304 89.192 132.304 90.232C132.304 91.032 132.056 91.744 131.56 92.368C131.08 92.976 130.376 93.448 129.448 93.784C128.52 94.12 127.392 94.288 126.064 94.288ZM144.645 94.288C143.109 94.288 141.757 93.992 140.589 93.4C139.421 92.808 138.509 91.984 137.853 90.928C137.197 89.872 136.869 88.656 136.869 87.28C136.869 85.888 137.197 84.672 137.853 83.632C138.509 82.576 139.421 81.752 140.589 81.16C141.757 80.568 143.109 80.272 144.645 80.272C146.181 80.272 147.533 80.568 148.701 81.16C149.869 81.752 150.781 82.576 151.437 83.632C152.093 84.672 152.421 85.888 152.421 87.28C152.421 88.656 152.093 89.872 151.437 90.928C150.781 91.984 149.869 92.808 148.701 93.4C147.533 93.992 146.181 94.288 144.645 94.288ZM144.645 93.064C145.957 93.064 147.093 92.824 148.053 92.344C149.013 91.864 149.757 91.192 150.285 90.328C150.813 89.464 151.077 88.448 151.077 87.28C151.077 86.112 150.813 85.096 150.285 84.232C149.757 83.368 149.013 82.696 148.053 82.216C147.093 81.736 145.957 81.496 144.645 81.496C143.349 81.496 142.213 81.736 141.237 82.216C140.277 82.696 139.533 83.368 139.005 84.232C138.477 85.096 138.213 86.112 138.213 87.28C138.213 88.448 138.477 89.464 139.005 90.328C139.533 91.192 140.277 91.864 141.237 92.344C142.213 92.824 143.349 93.064 144.645 93.064ZM157.54 94V80.56H166.06C167.372 80.56 168.38 80.864 169.084 81.472C169.788 82.064 170.14 82.904 170.14 83.992C170.14 84.984 169.788 85.768 169.084 86.344C168.7 86.664 168.236 86.904 167.692 87.064C168.572 87.208 169.284 87.472 169.828 87.856C170.612 88.448 171.004 89.296 171.004 90.4C171.004 91.552 170.604 92.44 169.804 93.064C169.004 93.688 167.868 94 166.396 94H157.54ZM158.86 86.608H165.772C166.716 86.608 167.452 86.376 167.98 85.912C168.524 85.432 168.796 84.792 168.796 83.992C168.796 83.256 168.548 82.696 168.052 82.312C167.572 81.928 166.868 81.736 165.94 81.736H158.86V86.608ZM158.86 92.824H166.492C167.532 92.824 168.316 92.616 168.844 92.2C169.388 91.784 169.66 91.184 169.66 90.4C169.66 89.536 169.316 88.88 168.628 88.432C167.94 87.984 166.932 87.76 165.604 87.76H158.86V92.824ZM181.44 85.36C181.744 85.36 182.032 85.36 182.304 85.36C183.904 85.36 185.192 85.472 186.168 85.696C186.824 85.856 187.312 86 187.632 86.128C187.632 84.704 187.152 83.568 186.192 82.72C185.216 81.872 183.824 81.448 182.016 81.448C181.168 81.448 180.304 81.568 179.424 81.808C178.544 82.032 177.68 82.448 176.832 83.056V81.856C177.6 81.296 178.416 80.896 179.28 80.656C180.16 80.4 181.104 80.272 182.112 80.272C183.376 80.272 184.52 80.496 185.544 80.944C186.584 81.376 187.408 82.04 188.016 82.936C188.624 83.832 188.928 84.984 188.928 86.392V94H187.632V91.336C187.312 91.8 186.888 92.24 186.36 92.656C185.768 93.12 185.056 93.512 184.224 93.832C183.392 94.136 182.464 94.288 181.44 94.288C180.32 94.288 179.312 94.112 178.416 93.76C177.536 93.408 176.84 92.904 176.328 92.248C175.816 91.576 175.56 90.776 175.56 89.848C175.56 88.936 175.816 88.16 176.328 87.52C176.856 86.864 177.56 86.352 178.44 85.984C179.336 85.6 180.336 85.392 181.44 85.36ZM187.632 87.352C186.736 86.824 185.704 86.552 184.536 86.536C183.384 86.52 182.768 86.512 182.688 86.512C180.576 86.512 179.112 86.824 178.296 87.448C177.48 88.056 177.072 88.84 177.072 89.8C177.072 90.824 177.464 91.64 178.248 92.248C179.048 92.84 180.112 93.136 181.44 93.136C181.536 93.136 181.64 93.136 181.752 93.136C183.448 93.072 184.848 92.552 185.952 91.576C187.072 90.584 187.632 89.176 187.632 87.352ZM194.925 80.56H196.221V86.656H206.637V80.56H207.933V94H206.637V87.832H196.221V94H194.925V80.56ZM214.176 94V80.56H215.472V92.68L226.152 80.56H227.832V94H226.536V81.88L215.856 94H214.176ZM240.925 94.288C239.405 94.288 238.061 93.992 236.893 93.4C235.741 92.808 234.837 91.984 234.181 90.928C233.541 89.872 233.221 88.656 233.221 87.28C233.221 85.888 233.525 84.672 234.133 83.632C234.757 82.576 235.613 81.752 236.701 81.16C237.789 80.568 239.053 80.272 240.493 80.272C241.885 80.272 243.109 80.576 244.165 81.184C245.221 81.792 246.045 82.64 246.637 83.728C247.229 84.8 247.525 86.048 247.525 87.472H234.565C234.597 88.56 234.861 89.512 235.357 90.328C235.885 91.192 236.621 91.864 237.565 92.344C238.525 92.824 239.645 93.064 240.925 93.064C242.109 93.064 243.221 92.856 244.261 92.44C245.301 92.024 246.253 91.472 247.117 90.784V92.008C246.285 92.712 245.309 93.272 244.189 93.688C243.069 94.088 241.981 94.288 240.925 94.288ZM246.109 86.32C245.997 85.504 245.757 84.768 245.389 84.112C244.909 83.28 244.245 82.64 243.397 82.192C242.565 81.728 241.597 81.496 240.493 81.496C239.293 81.496 238.245 81.736 237.349 82.216C236.469 82.696 235.789 83.368 235.309 84.232C234.957 84.856 234.733 85.552 234.637 86.32H246.109Z" fill="white"/>
</svg>
