<svg width="128" height="152" viewBox="0 0 128 152" fill="none" xmlns="http://www.w3.org/2000/svg">
<path d="M62.5002 93.0634V125.391M75.4312 103.839V125.391M-66.8102 71.5117V125.391M-79.7412 82.2876V125.391" stroke="#1D1D1D" stroke-width="6.46552" stroke-linecap="round"/>
<path d="M2.15479 116.77L21.5513 125.391L40.9479 134.011M4.30996 99.5287L23.7065 108.149L43.1031 116.77M4.30996 80.1321L23.7065 88.7528L43.1031 97.3735M4.30996 60.7356L23.7065 69.3563L43.1031 77.977M4.30996 43.4942L23.7065 52.1149L43.1031 60.7356M4.30996 24.0977L23.7065 32.7183L43.1031 41.339" stroke="#1D1D1D" stroke-width="6.46552" stroke-linecap="square"/>
<path d="M-125 136.168L125 136.168" stroke="#1D1D1D" stroke-width="4.31035" stroke-linecap="round"/>
<path d="M-73.2764 149.098H73.2754" stroke="#1D1D1D" stroke-width="4.31035" stroke-linecap="round"/>
<path d="M1.32227 0.601562L48.7363 21.9209L50.6436 22.7783V73.6904L93.8232 92.2461L95.7793 93.0869V137.242H89.3145V97.3457L50.6436 80.7275V137.242H44.1777V26.959L3.22949 8.54688V137.242H-52.8047V56.8906L-89.4434 71.5469V137.242H-95.9082V67.1699L-93.876 66.3564L-52.8047 49.9277V24.1758L-50.918 23.3115L-1.34961 0.610352L-0.015625 0L1.32227 0.601562ZM-34.4795 118.279C-36.0268 118.279 -37.2812 119.534 -37.2812 121.081C-37.2812 122.628 -36.0268 123.883 -34.4795 123.883H-19.3936C-17.8465 123.883 -16.5919 122.628 -16.5918 121.081C-16.5918 119.534 -17.8464 118.28 -19.3936 118.279H-34.4795ZM-34.4795 105.349C-36.0267 105.349 -37.281 106.602 -37.2812 108.149C-37.2812 109.697 -36.0268 110.951 -34.4795 110.951H-19.3936C-17.8464 110.951 -16.5918 109.697 -16.5918 108.149C-16.5921 106.602 -17.8466 105.349 -19.3936 105.349H-34.4795ZM-34.4795 92.417C-36.0268 92.417 -37.2812 93.6714 -37.2812 95.2188C-37.2812 96.7661 -36.0268 98.0205 -34.4795 98.0205H-19.3936C-17.8464 98.0202 -16.5918 96.7659 -16.5918 95.2188C-16.5919 93.6716 -17.8465 92.4173 -19.3936 92.417H-34.4795ZM-34.4795 81.6416C-36.0268 81.6416 -37.2812 82.896 -37.2812 84.4434C-37.2811 85.9905 -36.0267 87.2451 -34.4795 87.2451H-19.3936C-17.8465 87.2449 -16.592 85.9904 -16.5918 84.4434C-16.5918 82.8962 -17.8464 81.6419 -19.3936 81.6416H-34.4795ZM-34.4795 68.71C-36.0268 68.71 -37.2811 69.9645 -37.2812 71.5117C-37.2812 73.0591 -36.0268 74.3135 -34.4795 74.3135H-19.3936C-17.8464 74.3132 -16.5918 73.0589 -16.5918 71.5117C-16.5919 69.9646 -17.8465 68.7102 -19.3936 68.71H-34.4795ZM-34.4795 55.7793C-36.0268 55.7793 -37.2812 57.0337 -37.2812 58.5811C-37.2812 60.1283 -36.0268 61.3828 -34.4795 61.3828H-19.3936C-17.8465 61.3825 -16.5919 60.1282 -16.5918 58.5811C-16.5918 57.0339 -17.8464 55.7796 -19.3936 55.7793H-34.4795ZM-34.4795 42.8486C-36.0267 42.8486 -37.281 44.1023 -37.2812 45.6494C-37.2812 47.1968 -36.0268 48.4512 -34.4795 48.4512H-19.3936C-17.8464 48.4509 -16.5918 47.1966 -16.5918 45.6494C-16.592 44.1024 -17.8466 42.8489 -19.3936 42.8486H-34.4795ZM-34.4795 32.0723C-36.0268 32.0723 -37.2812 33.3267 -37.2812 34.874C-37.2812 36.4214 -36.0268 37.6758 -34.4795 37.6758H-19.3936C-17.8464 37.6755 -16.5918 36.4212 -16.5918 34.874C-16.5918 33.3268 -17.8464 32.0725 -19.3936 32.0723H-34.4795Z" fill="#1D1D1D"/>
</svg>
