<svg width="103" height="61" viewBox="0 0 103 61" fill="none" xmlns="http://www.w3.org/2000/svg">
<path d="M76.4536 37.4502V50.4594M81.6573 41.7866V50.4594M24.4166 28.7773V50.4594M19.2129 33.1138V50.4594" stroke="white" stroke-width="2.60185" stroke-linecap="round"/>
<path d="M52.1699 46.9924L59.9755 50.4615L67.781 53.9307M53.0372 40.0541L60.8428 43.5233L68.6483 46.9924M53.0372 32.2486L60.8428 35.7177L68.6483 39.1869M53.0372 24.443L60.8428 27.9122L68.6483 31.3813M53.0372 17.5048L60.8428 20.9739L68.6483 24.443M53.0372 9.69922L60.8428 13.1684L68.6483 16.6375" stroke="white" stroke-width="2.60185" stroke-linecap="square"/>
<path d="M1 54.7969L101.605 54.7969" stroke="white" stroke-width="1.73457" stroke-linecap="round"/>
<path d="M21.8145 60H80.7897" stroke="white" stroke-width="1.73457" stroke-linecap="round"/>
<path d="M51.835 0.242188L70.915 8.82129L71.6826 9.16699V29.6543L89.0586 37.1221L89.8457 37.46V55.2295H87.2441V39.1738L71.6826 32.4863V55.2295H69.0801V10.8486L52.6016 3.43945V55.2295H30.0527V22.8936L15.3086 28.792V55.2295H12.707V27.0303L13.5244 26.7031L30.0527 20.0918V9.72949L30.8115 9.38184L50.7598 0.246094L51.2959 0L51.835 0.242188ZM37.4258 47.5977C36.8031 47.5977 36.2979 48.1029 36.2979 48.7256C36.2979 49.3482 36.8031 49.8525 37.4258 49.8525H43.4971C44.1196 49.8524 44.624 49.3481 44.624 48.7256C44.624 48.103 44.1196 47.5978 43.4971 47.5977H37.4258ZM37.4258 42.3945C36.8032 42.3945 36.298 42.899 36.2979 43.5215C36.2979 44.1442 36.8031 44.6494 37.4258 44.6494H43.4971C44.1196 44.6493 44.624 44.1441 44.624 43.5215C44.6238 42.8991 44.1195 42.3947 43.4971 42.3945H37.4258ZM37.4258 37.1904C36.8031 37.1904 36.2979 37.6957 36.2979 38.3184C36.298 38.9409 36.8032 39.4453 37.4258 39.4453H43.4971C44.1195 39.4451 44.6239 38.9408 44.624 38.3184C44.624 37.6958 44.1196 37.1906 43.4971 37.1904H37.4258ZM37.4258 32.8545C36.8032 32.8545 36.298 33.3589 36.2979 33.9814C36.2979 34.6041 36.8031 35.1094 37.4258 35.1094H43.4971C44.1196 35.1092 44.624 34.604 44.624 33.9814C44.6239 33.359 44.1195 32.8547 43.4971 32.8545H37.4258ZM37.4258 27.6504C36.8031 27.6504 36.2979 28.1556 36.2979 28.7783C36.298 29.4009 36.8032 29.9053 37.4258 29.9053H43.4971C44.1195 29.9051 44.6238 29.4008 44.624 28.7783C44.624 28.1557 44.1196 27.6506 43.4971 27.6504H37.4258ZM37.4258 22.4473C36.8031 22.4473 36.2979 22.9516 36.2979 23.5742C36.2979 24.1969 36.8031 24.7021 37.4258 24.7021H43.4971C44.1196 24.702 44.624 24.1968 44.624 23.5742C44.624 22.9517 44.1196 22.4474 43.4971 22.4473H37.4258ZM37.4258 17.2432C36.8033 17.2432 36.2981 17.7477 36.2979 18.3701C36.2979 18.9928 36.8031 19.498 37.4258 19.498H43.4971C44.1196 19.4979 44.624 18.9927 44.624 18.3701C44.6238 17.7478 44.1195 17.2433 43.4971 17.2432H37.4258ZM37.4258 12.9062C36.8031 12.9062 36.2979 13.4115 36.2979 14.0342C36.2979 14.6569 36.8031 15.1621 37.4258 15.1621H43.4971C44.1196 15.1619 44.624 14.6568 44.624 14.0342C44.624 13.4116 44.1196 12.9064 43.4971 12.9062H37.4258Z" fill="white"/>
</svg>
