<svg width="1194" height="402" viewBox="0 0 1194 402" fill="none" xmlns="http://www.w3.org/2000/svg">
<path d="M129.374 203.412C131.817 250.579 180.09 283.847 243.456 255.946C247.736 254.061 252.837 255.401 255.37 259.333L306.718 339.054C308.397 341.662 311.286 343.238 314.388 343.238H756.912M239.483 105.744L261.71 69.0279C264.495 64.4259 262.715 58.4249 257.871 56.0863L221.96 38.7507C218.807 37.2284 216.803 34.0356 216.803 30.534V10.0361C216.803 4.99708 212.718 0.912109 207.679 0.912109L160.34 0.912109C155.301 0.912109 151.216 4.99708 151.216 10.0361V31.1715C151.216 34.335 149.577 37.2728 146.885 38.9348L117.534 57.0584C114.244 59.0894 110.032 58.8271 107.021 56.4039L88.3692 41.3975C84.7378 38.4758 79.4881 38.7608 76.1943 42.0584L41.4803 76.8128C38.1186 80.1785 37.9068 85.5622 40.9937 89.1816L56.2057 107.017C58.5807 109.802 59.0619 113.736 57.4281 117.011L38.0473 155.861C36.5032 158.956 33.3417 160.912 29.8828 160.912H10.0361C4.99708 160.912 0.912109 164.997 0.912109 170.036L0.912109 230.858C0.912109 235.897 4.99709 239.982 10.0361 239.982H30.3656C33.5683 239.982 36.5366 241.661 38.1862 244.406L57.0385 275.78C58.911 278.896 58.755 282.826 56.6413 285.784L39.8885 309.228C37.3544 312.774 37.6824 317.618 40.6716 320.79L76.532 358.846C79.6572 362.163 84.7503 362.665 88.4631 360.022L107.393 346.549C110.239 344.524 113.992 344.301 117.058 345.975L146.465 362.038C149.394 363.638 151.216 366.709 151.216 370.046V391.788C151.216 396.827 155.301 400.912 160.34 400.912H207.679C212.718 400.912 216.803 396.827 216.803 391.788V370.658C216.803 367.004 218.983 363.702 222.344 362.267L257.16 347.399C262.29 345.208 264.271 338.967 261.344 334.219L239.484 298.765C237.375 295.344 233.106 293.771 229.188 294.665C47.8232 336.013 47.7959 67.757 229.106 109.898C233.062 110.818 237.38 109.218 239.483 105.744Z" stroke="white" stroke-opacity="0.5" stroke-width="1.82481"/>
<path d="M336.652 187.344C333.724 187.344 331.132 186.756 328.876 185.58C326.644 184.404 324.904 182.772 323.656 180.684C322.408 178.572 321.784 176.136 321.784 173.376C321.784 170.64 322.408 168.228 323.656 166.14C324.904 164.052 326.644 162.42 328.876 161.244C331.132 160.068 333.736 159.48 336.688 159.48C339.616 159.48 342.196 160.068 344.428 161.244C346.66 162.42 348.4 164.052 349.648 166.14C350.896 168.228 351.52 170.64 351.52 173.376C351.52 176.136 350.896 178.572 349.648 180.684C348.4 182.772 346.66 184.404 344.428 185.58C342.196 186.756 339.604 187.344 336.652 187.344ZM336.652 185.472C339.244 185.472 341.5 184.98 343.42 183.996C345.34 182.988 346.816 181.584 347.848 179.784C348.904 177.96 349.432 175.824 349.432 173.376C349.432 170.952 348.904 168.84 347.848 167.04C346.816 165.24 345.34 163.848 343.42 162.864C341.5 161.856 339.244 161.352 336.652 161.352C334.06 161.352 331.804 161.856 329.884 162.864C327.988 163.848 326.512 165.24 325.456 167.04C324.4 168.84 323.872 170.964 323.872 173.412C323.872 175.836 324.4 177.96 325.456 179.784C326.512 181.584 327.988 182.988 329.884 183.996C331.804 184.98 334.06 185.472 336.652 185.472ZM374.153 166.752V168.516H361.805V186.912H359.861V166.752H374.153ZM381.074 166.752H383.018V175.896H398.642V166.752H400.586V186.912H398.642V177.66H383.018V186.912H381.074V166.752ZM420.247 187.344C417.967 187.344 415.951 186.9 414.199 186.012C412.471 185.124 411.115 183.888 410.131 182.304C409.171 180.72 408.691 178.896 408.691 176.832C408.691 174.744 409.147 172.92 410.059 171.36C410.995 169.776 412.279 168.54 413.911 167.652C415.543 166.764 417.439 166.32 419.599 166.32C421.687 166.32 423.523 166.776 425.107 167.688C426.691 168.6 427.927 169.872 428.815 171.504C429.703 173.112 430.147 174.984 430.147 177.12H410.707C410.755 178.752 411.151 180.18 411.895 181.404C412.687 182.7 413.791 183.708 415.207 184.428C416.647 185.148 418.327 185.508 420.247 185.508C422.023 185.508 423.691 185.196 425.251 184.572C426.811 183.948 428.239 183.12 429.535 182.088V183.924C428.287 184.98 426.823 185.82 425.143 186.444C423.463 187.044 421.831 187.344 420.247 187.344ZM428.023 175.392C427.855 174.168 427.495 173.064 426.943 172.08C426.223 170.832 425.227 169.872 423.955 169.2C422.707 168.504 421.255 168.156 419.599 168.156C417.799 168.156 416.227 168.516 414.883 169.236C413.563 169.956 412.543 170.964 411.823 172.26C411.295 173.196 410.959 174.24 410.815 175.392H428.023ZM458.647 179.532C458.359 181.068 457.711 182.424 456.703 183.6C455.695 184.776 454.423 185.7 452.887 186.372C451.375 187.02 449.695 187.344 447.847 187.344C445.687 187.344 443.779 186.9 442.123 186.012C440.467 185.124 439.171 183.888 438.235 182.304C437.299 180.72 436.831 178.896 436.831 176.832C436.831 174.744 437.299 172.92 438.235 171.36C439.171 169.776 440.467 168.54 442.123 167.652C443.779 166.764 445.687 166.32 447.847 166.32C449.695 166.32 451.375 166.656 452.887 167.328C454.423 167.976 455.695 168.888 456.703 170.064C457.711 171.216 458.359 172.572 458.647 174.132H456.559C456.151 172.308 455.155 170.856 453.571 169.776C451.987 168.696 450.079 168.156 447.847 168.156C446.023 168.156 444.439 168.516 443.095 169.236C441.751 169.956 440.707 170.964 439.963 172.26C439.219 173.556 438.847 175.08 438.847 176.832C438.847 178.584 439.219 180.108 439.963 181.404C440.707 182.7 441.751 183.708 443.095 184.428C444.439 185.148 446.023 185.508 447.847 185.508C450.103 185.508 452.023 184.968 453.607 183.888C455.191 182.808 456.175 181.356 456.559 179.532H458.647ZM462.973 166.752H483.133V168.516H474.025V186.912H472.081V168.516H462.973V166.752ZM499.041 187.344C496.737 187.344 494.709 186.9 492.957 186.012C491.205 185.124 489.837 183.888 488.853 182.304C487.869 180.72 487.377 178.896 487.377 176.832C487.377 174.744 487.869 172.92 488.853 171.36C489.837 169.776 491.205 168.54 492.957 167.652C494.709 166.764 496.737 166.32 499.041 166.32C501.345 166.32 503.373 166.764 505.125 167.652C506.877 168.54 508.245 169.776 509.229 171.36C510.213 172.92 510.705 174.744 510.705 176.832C510.705 178.896 510.213 180.72 509.229 182.304C508.245 183.888 506.877 185.124 505.125 186.012C503.373 186.9 501.345 187.344 499.041 187.344ZM499.041 185.508C501.009 185.508 502.713 185.148 504.153 184.428C505.593 183.708 506.709 182.7 507.501 181.404C508.293 180.108 508.689 178.584 508.689 176.832C508.689 175.08 508.293 173.556 507.501 172.26C506.709 170.964 505.593 169.956 504.153 169.236C502.713 168.516 501.009 168.156 499.041 168.156C497.097 168.156 495.393 168.516 493.929 169.236C492.489 169.956 491.373 170.964 490.581 172.26C489.789 173.556 489.393 175.08 489.393 176.832C489.393 178.584 489.789 180.108 490.581 181.404C491.373 182.7 492.489 183.708 493.929 184.428C495.393 185.148 497.097 185.508 499.041 185.508ZM518.781 186.912V166.752H520.725V184.932L536.745 166.752H539.265V186.912H537.321V168.732L521.301 186.912H518.781ZM528.681 164.376C526.881 164.376 525.417 163.896 524.289 162.936C523.185 161.952 522.525 160.584 522.309 158.832H524.181C524.421 160.08 524.937 161.052 525.729 161.748C526.521 162.42 527.505 162.756 528.681 162.756C529.881 162.756 530.865 162.42 531.633 161.748C532.425 161.052 532.941 160.08 533.181 158.832H535.053C534.837 160.584 534.165 161.952 533.037 162.936C531.933 163.896 530.481 164.376 528.681 164.376ZM548.608 186.912V166.752H550.552V175.896H556.996L565.024 166.752H567.508L558.76 176.688L568.228 186.912H565.672L557.14 177.66H550.552V186.912H548.608ZM581.706 173.952C582.162 173.952 582.594 173.952 583.002 173.952C585.402 173.952 587.334 174.12 588.798 174.456C589.782 174.696 590.514 174.912 590.994 175.104C590.994 172.968 590.274 171.264 588.834 169.992C587.37 168.72 585.282 168.084 582.57 168.084C581.298 168.084 580.002 168.264 578.682 168.624C577.362 168.96 576.066 169.584 574.794 170.496V168.696C575.946 167.856 577.17 167.256 578.466 166.896C579.786 166.512 581.202 166.32 582.714 166.32C584.61 166.32 586.326 166.656 587.862 167.328C589.422 167.976 590.658 168.972 591.57 170.316C592.482 171.66 592.938 173.388 592.938 175.5V186.912H590.994V182.916C590.514 183.612 589.878 184.272 589.086 184.896C588.198 185.592 587.13 186.18 585.882 186.66C584.634 187.116 583.242 187.344 581.706 187.344C580.026 187.344 578.514 187.08 577.17 186.552C575.85 186.024 574.806 185.268 574.038 184.284C573.27 183.276 572.886 182.076 572.886 180.684C572.886 179.316 573.27 178.152 574.038 177.192C574.83 176.208 575.886 175.44 577.206 174.888C578.55 174.312 580.05 174 581.706 173.952ZM590.994 176.94C589.65 176.148 588.102 175.74 586.35 175.716C584.622 175.692 583.698 175.68 583.578 175.68C580.41 175.68 578.214 176.148 576.99 177.084C575.766 177.996 575.154 179.172 575.154 180.612C575.154 182.148 575.742 183.372 576.918 184.284C578.118 185.172 579.714 185.616 581.706 185.616C581.85 185.616 582.006 185.616 582.174 185.616C584.718 185.52 586.818 184.74 588.474 183.276C590.154 181.788 590.994 179.676 590.994 176.94ZM600.493 186.912L608.089 178.488H607.585C606.241 178.488 605.053 178.248 604.021 177.768C602.989 177.264 602.185 176.568 601.609 175.68C601.057 174.792 600.781 173.772 600.781 172.62C600.781 171.444 601.057 170.424 601.609 169.56C602.185 168.672 602.989 167.988 604.021 167.508C605.053 167.004 606.241 166.752 607.585 166.752H619.717V186.912H617.773V178.488H610.609L603.013 186.912H600.493ZM617.773 176.724V168.516H607.585C606.073 168.516 604.885 168.888 604.021 169.632C603.157 170.376 602.725 171.36 602.725 172.584C602.725 173.832 603.157 174.84 604.021 175.608C604.885 176.352 606.073 176.724 607.585 176.724H617.773ZM642.988 186.912V166.752H644.932V175.896H651.376L659.404 166.752H661.888L653.14 176.688L662.608 186.912H660.052L651.52 177.66H644.932V186.912H642.988ZM676.087 173.952C676.543 173.952 676.975 173.952 677.383 173.952C679.783 173.952 681.715 174.12 683.179 174.456C684.163 174.696 684.895 174.912 685.375 175.104C685.375 172.968 684.655 171.264 683.215 169.992C681.751 168.72 679.663 168.084 676.951 168.084C675.679 168.084 674.383 168.264 673.063 168.624C671.743 168.96 670.447 169.584 669.175 170.496V168.696C670.327 167.856 671.551 167.256 672.847 166.896C674.167 166.512 675.583 166.32 677.095 166.32C678.991 166.32 680.707 166.656 682.243 167.328C683.803 167.976 685.039 168.972 685.951 170.316C686.863 171.66 687.319 173.388 687.319 175.5V186.912H685.375V182.916C684.895 183.612 684.259 184.272 683.467 184.896C682.579 185.592 681.511 186.18 680.263 186.66C679.015 187.116 677.623 187.344 676.087 187.344C674.407 187.344 672.895 187.08 671.551 186.552C670.231 186.024 669.187 185.268 668.419 184.284C667.651 183.276 667.267 182.076 667.267 180.684C667.267 179.316 667.651 178.152 668.419 177.192C669.211 176.208 670.267 175.44 671.587 174.888C672.931 174.312 674.431 174 676.087 173.952ZM685.375 176.94C684.031 176.148 682.483 175.74 680.731 175.716C679.003 175.692 678.079 175.68 677.959 175.68C674.791 175.68 672.595 176.148 671.371 177.084C670.147 177.996 669.535 179.172 669.535 180.612C669.535 182.148 670.123 183.372 671.299 184.284C672.499 185.172 674.095 185.616 676.087 185.616C676.231 185.616 676.387 185.616 676.555 185.616C679.099 185.52 681.199 184.74 682.855 183.276C684.535 181.788 685.375 179.676 685.375 176.94ZM707.545 187.344C705.025 187.344 702.865 186.816 701.065 185.76C699.265 184.68 697.873 183.144 696.889 181.152C695.929 179.136 695.449 176.724 695.449 173.916C695.449 169.716 696.481 166.404 698.545 163.98C700.633 161.556 703.597 160.188 707.437 159.876C708.949 159.756 710.197 159.648 711.181 159.552C712.189 159.432 713.017 159.324 713.665 159.228C714.313 159.132 714.853 159.024 715.285 158.904C715.741 158.784 716.185 158.64 716.617 158.472V160.488C716.233 160.68 715.669 160.848 714.925 160.992C714.205 161.136 713.269 161.268 712.117 161.388C710.965 161.508 709.561 161.616 707.905 161.712C704.497 161.904 701.881 163.044 700.057 165.132C698.233 167.22 697.321 170.148 697.321 173.916V174.672C697.897 173.376 698.629 172.26 699.517 171.324C700.573 170.22 701.809 169.38 703.225 168.804C704.641 168.204 706.201 167.904 707.905 167.904C709.993 167.904 711.817 168.312 713.377 169.128C714.937 169.944 716.149 171.084 717.013 172.548C717.901 173.988 718.345 175.668 718.345 177.588C718.345 179.556 717.889 181.272 716.977 182.736C716.089 184.2 714.841 185.34 713.233 186.156C711.625 186.948 709.729 187.344 707.545 187.344ZM707.617 185.508C709.369 185.508 710.893 185.184 712.189 184.536C713.509 183.864 714.529 182.94 715.249 181.764C715.969 180.588 716.329 179.208 716.329 177.624C716.329 176.04 715.969 174.66 715.249 173.484C714.529 172.284 713.509 171.36 712.189 170.712C710.893 170.064 709.369 169.74 707.617 169.74C705.265 169.74 703.225 170.388 701.497 171.684C699.793 172.98 698.521 174.84 697.681 177.264C698.161 179.88 699.277 181.908 701.029 183.348C702.781 184.788 704.977 185.508 707.617 185.508ZM736.787 187.344C734.507 187.344 732.491 186.9 730.739 186.012C729.011 185.124 727.655 183.888 726.671 182.304C725.711 180.72 725.231 178.896 725.231 176.832C725.231 174.744 725.687 172.92 726.599 171.36C727.535 169.776 728.819 168.54 730.451 167.652C732.083 166.764 733.979 166.32 736.139 166.32C738.227 166.32 740.063 166.776 741.647 167.688C743.231 168.6 744.467 169.872 745.355 171.504C746.243 173.112 746.687 174.984 746.687 177.12H727.247C727.295 178.752 727.691 180.18 728.435 181.404C729.227 182.7 730.331 183.708 731.747 184.428C733.187 185.148 734.867 185.508 736.787 185.508C738.563 185.508 740.231 185.196 741.791 184.572C743.351 183.948 744.779 183.12 746.075 182.088V183.924C744.827 184.98 743.363 185.82 741.683 186.444C740.003 187.044 738.371 187.344 736.787 187.344ZM744.563 175.392C744.395 174.168 744.035 173.064 743.483 172.08C742.763 170.832 741.767 169.872 740.495 169.2C739.247 168.504 737.795 168.156 736.139 168.156C734.339 168.156 732.767 168.516 731.423 169.236C730.103 169.956 729.083 170.964 728.363 172.26C727.835 173.196 727.499 174.24 727.355 175.392H744.563ZM757.668 166.752H775.452V186.912H773.508V168.516H759.648C759.744 169.836 759.84 171.168 759.936 172.512C760.008 174.072 760.044 175.452 760.044 176.652C760.044 180.348 759.576 183.036 758.64 184.716C757.704 186.396 756.228 187.236 754.212 187.236C753.732 187.236 753.252 187.176 752.772 187.056C752.292 186.96 751.848 186.792 751.44 186.552V184.824C751.848 184.992 752.268 185.136 752.7 185.256C753.132 185.352 753.54 185.4 753.924 185.4C755.412 185.4 756.492 184.692 757.164 183.276C757.836 181.86 758.172 179.556 758.172 176.364C758.172 175.116 758.124 173.664 758.028 172.008C757.956 170.352 757.836 168.6 757.668 166.752ZM784.809 186.912V166.752H786.753V174.168H795.933C797.421 174.168 798.717 174.432 799.821 174.96C800.925 175.488 801.777 176.232 802.377 177.192C803.001 178.152 803.313 179.268 803.313 180.54C803.313 181.812 803.001 182.928 802.377 183.888C801.777 184.848 800.925 185.592 799.821 186.12C798.717 186.648 797.421 186.912 795.933 186.912H784.809ZM786.753 185.148H795.969C797.601 185.148 798.897 184.728 799.857 183.888C800.817 183.048 801.297 181.932 801.297 180.54C801.297 179.124 800.817 178.008 799.857 177.192C798.897 176.352 797.601 175.932 795.969 175.932H786.753V185.148ZM810.803 166.752H812.747V175.896H828.371V166.752H830.315V186.912H828.371V177.66H812.747V186.912H810.803V166.752ZM847.276 173.952C847.732 173.952 848.164 173.952 848.572 173.952C850.972 173.952 852.904 174.12 854.368 174.456C855.352 174.696 856.084 174.912 856.564 175.104C856.564 172.968 855.844 171.264 854.404 169.992C852.94 168.72 850.852 168.084 848.14 168.084C846.868 168.084 845.572 168.264 844.252 168.624C842.932 168.96 841.636 169.584 840.364 170.496V168.696C841.516 167.856 842.74 167.256 844.036 166.896C845.356 166.512 846.772 166.32 848.284 166.32C850.18 166.32 851.896 166.656 853.432 167.328C854.992 167.976 856.228 168.972 857.14 170.316C858.052 171.66 858.508 173.388 858.508 175.5V186.912H856.564V182.916C856.084 183.612 855.448 184.272 854.656 184.896C853.768 185.592 852.7 186.18 851.452 186.66C850.204 187.116 848.812 187.344 847.276 187.344C845.596 187.344 844.084 187.08 842.74 186.552C841.42 186.024 840.376 185.268 839.608 184.284C838.84 183.276 838.456 182.076 838.456 180.684C838.456 179.316 838.84 178.152 839.608 177.192C840.4 176.208 841.456 175.44 842.776 174.888C844.12 174.312 845.62 174 847.276 173.952ZM856.564 176.94C855.22 176.148 853.672 175.74 851.92 175.716C850.192 175.692 849.268 175.68 849.148 175.68C845.98 175.68 843.784 176.148 842.56 177.084C841.336 177.996 840.724 179.172 840.724 180.612C840.724 182.148 841.312 183.372 842.488 184.284C843.688 185.172 845.284 185.616 847.276 185.616C847.42 185.616 847.576 185.616 847.744 185.616C850.288 185.52 852.388 184.74 854.044 183.276C855.724 181.788 856.564 179.676 856.564 176.94ZM866.063 186.912L873.659 178.488H873.155C871.811 178.488 870.623 178.248 869.591 177.768C868.559 177.264 867.755 176.568 867.179 175.68C866.627 174.792 866.351 173.772 866.351 172.62C866.351 171.444 866.627 170.424 867.179 169.56C867.755 168.672 868.559 167.988 869.591 167.508C870.623 167.004 871.811 166.752 873.155 166.752H885.287V186.912H883.343V178.488H876.179L868.583 186.912H866.063ZM883.343 176.724V168.516H873.155C871.643 168.516 870.455 168.888 869.591 169.632C868.727 170.376 868.295 171.36 868.295 172.584C868.295 173.832 868.727 174.84 869.591 175.608C870.455 176.352 871.643 176.724 873.155 176.724H883.343ZM910.963 166.752H928.747V186.912H926.803V168.516H912.943C913.039 169.836 913.135 171.168 913.231 172.512C913.303 174.072 913.339 175.452 913.339 176.652C913.339 180.348 912.871 183.036 911.935 184.716C910.999 186.396 909.523 187.236 907.507 187.236C907.027 187.236 906.547 187.176 906.067 187.056C905.587 186.96 905.143 186.792 904.735 186.552V184.824C905.143 184.992 905.563 185.136 905.995 185.256C906.427 185.352 906.835 185.4 907.219 185.4C908.707 185.4 909.787 184.692 910.459 183.276C911.131 181.86 911.467 179.556 911.467 176.364C911.467 175.116 911.419 173.664 911.323 172.008C911.251 170.352 911.131 168.6 910.963 166.752ZM938.104 186.912V166.752H940.048V184.932L956.068 166.752H958.588V186.912H956.644V168.732L940.624 186.912H938.104ZM967.93 166.752H969.874V175.896H985.498V166.752H987.442V186.912H985.498V177.66H969.874V186.912H967.93V166.752ZM996.808 186.912V166.752H998.752V184.932L1014.77 166.752H1017.29V186.912H1015.35V168.732L999.328 186.912H996.808ZM1025.19 186.912L1032.79 178.488H1032.29C1030.94 178.488 1029.75 178.248 1028.72 177.768C1027.69 177.264 1026.89 176.568 1026.31 175.68C1025.76 174.792 1025.48 173.772 1025.48 172.62C1025.48 171.444 1025.76 170.424 1026.31 169.56C1026.89 168.672 1027.69 167.988 1028.72 167.508C1029.75 167.004 1030.94 166.752 1032.29 166.752H1044.42V186.912H1042.47V178.488H1035.31L1027.71 186.912H1025.19ZM1042.47 176.724V168.516H1032.29C1030.77 168.516 1029.59 168.888 1028.72 169.632C1027.86 170.376 1027.43 171.36 1027.43 172.584C1027.43 173.832 1027.86 174.84 1028.72 175.608C1029.59 176.352 1030.77 176.724 1032.29 176.724H1042.47ZM1071.61 159.912H1073.49C1071.83 162.384 1070.61 164.868 1069.81 167.364C1069.05 169.836 1068.66 172.404 1068.66 175.068C1068.66 177.684 1069.05 180.24 1069.81 182.736C1070.61 185.208 1071.83 187.704 1073.49 190.224H1071.61C1069.93 187.704 1068.69 185.208 1067.87 182.736C1067.05 180.24 1066.65 177.684 1066.65 175.068C1066.65 172.428 1067.05 169.872 1067.87 167.4C1068.69 164.928 1069.93 162.432 1071.61 159.912ZM1093.76 187.344C1090.84 187.344 1088.24 186.756 1085.99 185.58C1083.76 184.404 1082.02 182.772 1080.77 180.684C1079.52 178.572 1078.9 176.136 1078.9 173.376C1078.9 170.64 1079.52 168.228 1080.77 166.14C1082.02 164.052 1083.76 162.42 1085.99 161.244C1088.24 160.068 1090.85 159.48 1093.8 159.48C1096.73 159.48 1099.31 160.068 1101.54 161.244C1103.77 162.42 1105.51 164.052 1106.76 166.14C1108.01 168.228 1108.63 170.64 1108.63 173.376C1108.63 176.136 1108.01 178.572 1106.76 180.684C1105.51 182.772 1103.77 184.404 1101.54 185.58C1099.31 186.756 1096.72 187.344 1093.76 187.344ZM1093.76 185.472C1096.36 185.472 1098.61 184.98 1100.53 183.996C1102.45 182.988 1103.93 181.584 1104.96 179.784C1106.02 177.96 1106.54 175.824 1106.54 173.376C1106.54 170.952 1106.02 168.84 1104.96 167.04C1103.93 165.24 1102.45 163.848 1100.53 162.864C1098.61 161.856 1096.36 161.352 1093.76 161.352C1091.17 161.352 1088.92 161.856 1087 162.864C1085.1 163.848 1083.62 165.24 1082.57 167.04C1081.51 168.84 1080.98 170.964 1080.98 173.412C1080.98 175.836 1081.51 177.96 1082.57 179.784C1083.62 181.584 1085.1 182.988 1087 183.996C1088.92 184.98 1091.17 185.472 1093.76 185.472ZM1117.58 186.912V159.912H1119.6V172.512H1128.71L1139.62 159.912H1142.17L1130.58 173.376L1142.6 186.912H1140.05L1128.71 174.312H1119.6V186.912H1117.58ZM1154.2 159.912H1176.52V186.912H1174.5V161.712H1156.28C1156.45 163.848 1156.6 165.828 1156.72 167.652C1156.81 169.692 1156.86 171.588 1156.86 173.34C1156.86 176.58 1156.6 179.232 1156.07 181.296C1155.56 183.336 1154.76 184.848 1153.66 185.832C1152.58 186.792 1151.17 187.272 1149.44 187.272C1148.87 187.272 1148.32 187.212 1147.79 187.092C1147.26 186.996 1146.78 186.828 1146.35 186.588V184.752C1147.31 185.16 1148.23 185.364 1149.12 185.364C1151.11 185.364 1152.58 184.392 1153.51 182.448C1154.45 180.504 1154.92 177.36 1154.92 173.016C1154.92 171.312 1154.86 169.344 1154.74 167.112C1154.62 164.856 1154.44 162.456 1154.2 159.912ZM1186.65 159.912C1188.33 162.432 1189.58 164.928 1190.39 167.4C1191.21 169.872 1191.62 172.428 1191.62 175.068C1191.62 177.684 1191.21 180.24 1190.39 182.736C1189.58 185.208 1188.33 187.704 1186.65 190.224H1184.78C1186.43 187.704 1187.64 185.208 1188.41 182.736C1189.2 180.24 1189.6 177.684 1189.6 175.068C1189.6 172.404 1189.2 169.836 1188.41 167.364C1187.64 164.868 1186.43 162.384 1184.78 159.912H1186.65Z" fill="white"/>
<path d="M322.24 221.912H323.584V230.312H337.36V221.912H338.704V239.912H337.36V231.512H323.584V239.912H322.24V221.912ZM350.249 231.272C350.553 231.272 350.841 231.272 351.113 231.272C352.713 231.272 354.001 231.384 354.977 231.608C355.633 231.768 356.121 231.912 356.441 232.04C356.441 230.616 355.961 229.48 355.001 228.632C354.025 227.784 352.633 227.36 350.825 227.36C349.977 227.36 349.113 227.48 348.233 227.72C347.353 227.944 346.489 228.36 345.641 228.968V227.768C346.409 227.208 347.225 226.808 348.089 226.568C348.969 226.312 349.913 226.184 350.921 226.184C352.185 226.184 353.329 226.408 354.353 226.856C355.393 227.288 356.217 227.952 356.825 228.848C357.433 229.744 357.737 230.896 357.737 232.304V239.912H356.441V237.248C356.121 237.712 355.697 238.152 355.169 238.568C354.577 239.032 353.865 239.424 353.033 239.744C352.201 240.048 351.273 240.2 350.249 240.2C349.129 240.2 348.121 240.024 347.225 239.672C346.345 239.32 345.649 238.816 345.137 238.16C344.625 237.488 344.369 236.688 344.369 235.76C344.369 234.848 344.625 234.072 345.137 233.432C345.665 232.776 346.369 232.264 347.249 231.896C348.145 231.512 349.145 231.304 350.249 231.272ZM356.441 233.264C355.545 232.736 354.513 232.464 353.345 232.448C352.193 232.432 351.577 232.424 351.497 232.424C349.385 232.424 347.921 232.736 347.105 233.36C346.289 233.968 345.881 234.752 345.881 235.712C345.881 236.736 346.273 237.552 347.057 238.16C347.857 238.752 348.921 239.048 350.249 239.048C350.345 239.048 350.449 239.048 350.561 239.048C352.257 238.984 353.657 238.464 354.761 237.488C355.881 236.496 356.441 235.088 356.441 233.264ZM379.502 238.736V243.488H378.302V239.912H363.086V243.488H361.886V238.736H363.638C364.774 237.536 365.342 235.072 365.342 231.344C365.342 230.576 365.318 229.768 365.27 228.92C365.238 228.072 365.182 227.256 365.102 226.472H376.958V238.736H379.502ZM375.662 238.736V227.648H366.422C366.47 228.256 366.51 228.864 366.542 229.472C366.574 230.224 366.59 230.928 366.59 231.584C366.59 234.048 366.342 235.992 365.846 237.416C365.654 237.96 365.446 238.4 365.222 238.736H375.662ZM390.763 240.2C389.243 240.2 387.899 239.904 386.731 239.312C385.579 238.72 384.675 237.896 384.019 236.84C383.379 235.784 383.059 234.568 383.059 233.192C383.059 231.8 383.363 230.584 383.971 229.544C384.595 228.488 385.451 227.664 386.539 227.072C387.627 226.48 388.891 226.184 390.331 226.184C391.723 226.184 392.947 226.488 394.003 227.096C395.059 227.704 395.883 228.552 396.475 229.64C397.067 230.712 397.363 231.96 397.363 233.384H384.403C384.435 234.472 384.699 235.424 385.195 236.24C385.723 237.104 386.459 237.776 387.403 238.256C388.363 238.736 389.483 238.976 390.763 238.976C391.947 238.976 393.059 238.768 394.099 238.352C395.139 237.936 396.091 237.384 396.955 236.696V237.92C396.123 238.624 395.147 239.184 394.027 239.6C392.907 240 391.819 240.2 390.763 240.2ZM395.947 232.232C395.835 231.416 395.595 230.68 395.227 230.024C394.747 229.192 394.083 228.552 393.235 228.104C392.403 227.64 391.435 227.408 390.331 227.408C389.131 227.408 388.083 227.648 387.187 228.128C386.307 228.608 385.627 229.28 385.147 230.144C384.795 230.768 384.571 231.464 384.475 232.232H395.947ZM386.635 224.192C386.299 224.192 386.011 224.08 385.771 223.856C385.547 223.616 385.435 223.336 385.435 223.016C385.435 222.696 385.547 222.424 385.771 222.2C386.011 221.96 386.299 221.84 386.635 221.84C386.971 221.84 387.251 221.96 387.475 222.2C387.715 222.424 387.835 222.696 387.835 223.016C387.835 223.336 387.715 223.616 387.475 223.856C387.251 224.08 386.971 224.192 386.635 224.192ZM393.787 224.192C393.451 224.192 393.163 224.08 392.923 223.856C392.699 223.616 392.587 223.336 392.587 223.016C392.587 222.696 392.699 222.424 392.923 222.2C393.163 221.96 393.451 221.84 393.787 221.84C394.123 221.84 394.403 221.96 394.627 222.2C394.867 222.424 394.987 222.696 394.987 223.016C394.987 223.336 394.867 223.616 394.627 223.856C394.403 224.08 394.123 224.192 393.787 224.192ZM412.336 239.912V233.744H407.08L402.256 239.912H400.552L405.904 233.096L401.032 226.472H402.688L407.152 232.568H412.336V226.472H413.632V232.568H418.816L423.28 226.472H424.936L420.064 233.096L425.416 239.912H423.712L418.888 233.744H413.632V239.912H412.336ZM429.785 226.472H431.081V232.568H441.497V226.472H442.793V239.912H441.497V233.744H431.081V239.912H429.785V226.472ZM455.949 240.2C454.413 240.2 453.061 239.904 451.893 239.312C450.725 238.72 449.813 237.896 449.157 236.84C448.501 235.784 448.173 234.568 448.173 233.192C448.173 231.8 448.501 230.584 449.157 229.544C449.813 228.488 450.725 227.664 451.893 227.072C453.061 226.48 454.413 226.184 455.949 226.184C457.485 226.184 458.837 226.48 460.005 227.072C461.173 227.664 462.085 228.488 462.741 229.544C463.397 230.584 463.725 231.8 463.725 233.192C463.725 234.568 463.397 235.784 462.741 236.84C462.085 237.896 461.173 238.72 460.005 239.312C458.837 239.904 457.485 240.2 455.949 240.2ZM455.949 238.976C457.261 238.976 458.397 238.736 459.357 238.256C460.317 237.776 461.061 237.104 461.589 236.24C462.117 235.376 462.381 234.36 462.381 233.192C462.381 232.024 462.117 231.008 461.589 230.144C461.061 229.28 460.317 228.608 459.357 228.128C458.397 227.648 457.261 227.408 455.949 227.408C454.653 227.408 453.517 227.648 452.541 228.128C451.581 228.608 450.837 229.28 450.309 230.144C449.781 231.008 449.517 232.024 449.517 233.192C449.517 234.36 449.781 235.376 450.309 236.24C450.837 237.104 451.581 237.776 452.541 238.256C453.517 238.736 454.653 238.976 455.949 238.976ZM482.813 234.992C482.621 236.016 482.189 236.92 481.517 237.704C480.845 238.488 479.997 239.104 478.973 239.552C477.965 239.984 476.845 240.2 475.613 240.2C474.173 240.2 472.901 239.904 471.797 239.312C470.693 238.72 469.829 237.896 469.205 236.84C468.581 235.784 468.269 234.568 468.269 233.192C468.269 231.8 468.581 230.584 469.205 229.544C469.829 228.488 470.693 227.664 471.797 227.072C472.901 226.48 474.173 226.184 475.613 226.184C476.845 226.184 477.965 226.408 478.973 226.856C479.997 227.288 480.845 227.896 481.517 228.68C482.189 229.448 482.621 230.352 482.813 231.392H481.421C481.149 230.176 480.485 229.208 479.429 228.488C478.373 227.768 477.101 227.408 475.613 227.408C474.397 227.408 473.341 227.648 472.445 228.128C471.549 228.608 470.853 229.28 470.357 230.144C469.861 231.008 469.613 232.024 469.613 233.192C469.613 234.36 469.861 235.376 470.357 236.24C470.853 237.104 471.549 237.776 472.445 238.256C473.341 238.736 474.397 238.976 475.613 238.976C477.117 238.976 478.397 238.616 479.453 237.896C480.509 237.176 481.165 236.208 481.421 234.992H482.813ZM485.697 226.472H499.137V227.648H493.065V239.912H491.769V227.648H485.697V226.472ZM503.745 239.912V226.472H505.041V231.416H511.161C512.153 231.416 513.017 231.592 513.753 231.944C514.489 232.296 515.057 232.792 515.457 233.432C515.873 234.072 516.081 234.816 516.081 235.664C516.081 236.512 515.873 237.256 515.457 237.896C515.057 238.536 514.489 239.032 513.753 239.384C513.017 239.736 512.153 239.912 511.161 239.912H503.745ZM505.041 238.736H511.185C512.273 238.736 513.137 238.456 513.777 237.896C514.417 237.336 514.737 236.592 514.737 235.664C514.737 234.72 514.417 233.976 513.777 233.432C513.137 232.872 512.273 232.592 511.185 232.592H505.041V238.736ZM529.038 230.864H541.062V231.968H529.038V230.864ZM540.822 230.864H552.846V231.968H540.822V230.864ZM574.655 240.2C573.119 240.2 571.767 239.904 570.599 239.312C569.431 238.72 568.519 237.896 567.863 236.84C567.207 235.784 566.879 234.568 566.879 233.192C566.879 231.8 567.207 230.584 567.863 229.544C568.519 228.488 569.431 227.664 570.599 227.072C571.767 226.48 573.119 226.184 574.655 226.184C576.191 226.184 577.543 226.48 578.711 227.072C579.879 227.664 580.791 228.488 581.447 229.544C582.103 230.584 582.431 231.8 582.431 233.192C582.431 234.568 582.103 235.784 581.447 236.84C580.791 237.896 579.879 238.72 578.711 239.312C577.543 239.904 576.191 240.2 574.655 240.2ZM574.655 238.976C575.967 238.976 577.103 238.736 578.063 238.256C579.023 237.776 579.767 237.104 580.295 236.24C580.823 235.376 581.087 234.36 581.087 233.192C581.087 232.024 580.823 231.008 580.295 230.144C579.767 229.28 579.023 228.608 578.063 228.128C577.103 227.648 575.967 227.408 574.655 227.408C573.359 227.408 572.223 227.648 571.247 228.128C570.287 228.608 569.543 229.28 569.015 230.144C568.487 231.008 568.223 232.024 568.223 233.192C568.223 234.36 568.487 235.376 569.015 236.24C569.543 237.104 570.287 237.776 571.247 238.256C572.223 238.736 573.359 238.976 574.655 238.976ZM597.343 226.472V227.648H589.111V239.912H587.815V226.472H597.343ZM601.957 226.472H603.253V232.568H613.669V226.472H614.965V239.912H613.669V233.744H603.253V239.912H601.957V226.472ZM628.073 240.2C626.553 240.2 625.209 239.904 624.041 239.312C622.889 238.72 621.985 237.896 621.329 236.84C620.689 235.784 620.369 234.568 620.369 233.192C620.369 231.8 620.673 230.584 621.281 229.544C621.905 228.488 622.761 227.664 623.849 227.072C624.937 226.48 626.201 226.184 627.641 226.184C629.033 226.184 630.257 226.488 631.313 227.096C632.369 227.704 633.193 228.552 633.785 229.64C634.377 230.712 634.673 231.96 634.673 233.384H621.713C621.745 234.472 622.009 235.424 622.505 236.24C623.033 237.104 623.769 237.776 624.713 238.256C625.673 238.736 626.793 238.976 628.073 238.976C629.257 238.976 630.369 238.768 631.409 238.352C632.449 237.936 633.401 237.384 634.265 236.696V237.92C633.433 238.624 632.457 239.184 631.337 239.6C630.217 240 629.129 240.2 628.073 240.2ZM633.257 232.232C633.145 231.416 632.905 230.68 632.537 230.024C632.057 229.192 631.393 228.552 630.545 228.104C629.713 227.64 628.745 227.408 627.641 227.408C626.441 227.408 625.393 227.648 624.497 228.128C623.617 228.608 622.937 229.28 622.457 230.144C622.105 230.768 621.881 231.464 621.785 232.232H633.257ZM653.672 234.992C653.48 236.016 653.048 236.92 652.376 237.704C651.704 238.488 650.856 239.104 649.832 239.552C648.824 239.984 647.704 240.2 646.472 240.2C645.032 240.2 643.76 239.904 642.656 239.312C641.552 238.72 640.688 237.896 640.064 236.84C639.44 235.784 639.128 234.568 639.128 233.192C639.128 231.8 639.44 230.584 640.064 229.544C640.688 228.488 641.552 227.664 642.656 227.072C643.76 226.48 645.032 226.184 646.472 226.184C647.704 226.184 648.824 226.408 649.832 226.856C650.856 227.288 651.704 227.896 652.376 228.68C653.048 229.448 653.48 230.352 653.672 231.392H652.28C652.008 230.176 651.344 229.208 650.288 228.488C649.232 227.768 647.96 227.408 646.472 227.408C645.256 227.408 644.2 227.648 643.304 228.128C642.408 228.608 641.712 229.28 641.216 230.144C640.72 231.008 640.472 232.024 640.472 233.192C640.472 234.36 640.72 235.376 641.216 236.24C641.712 237.104 642.408 237.776 643.304 238.256C644.2 238.736 645.256 238.976 646.472 238.976C647.976 238.976 649.256 238.616 650.312 237.896C651.368 237.176 652.024 236.208 652.28 234.992H653.672ZM656.556 226.472H669.996V227.648H663.924V239.912H662.628V227.648H656.556V226.472ZM680.602 240.2C679.066 240.2 677.714 239.904 676.546 239.312C675.378 238.72 674.466 237.896 673.81 236.84C673.154 235.784 672.826 234.568 672.826 233.192C672.826 231.8 673.154 230.584 673.81 229.544C674.466 228.488 675.378 227.664 676.546 227.072C677.714 226.48 679.066 226.184 680.602 226.184C682.138 226.184 683.49 226.48 684.658 227.072C685.826 227.664 686.738 228.488 687.394 229.544C688.05 230.584 688.378 231.8 688.378 233.192C688.378 234.568 688.05 235.784 687.394 236.84C686.738 237.896 685.826 238.72 684.658 239.312C683.49 239.904 682.138 240.2 680.602 240.2ZM680.602 238.976C681.914 238.976 683.05 238.736 684.01 238.256C684.97 237.776 685.714 237.104 686.242 236.24C686.77 235.376 687.034 234.36 687.034 233.192C687.034 232.024 686.77 231.008 686.242 230.144C685.714 229.28 684.97 228.608 684.01 228.128C683.05 227.648 681.914 227.408 680.602 227.408C679.306 227.408 678.17 227.648 677.194 228.128C676.234 228.608 675.49 229.28 674.962 230.144C674.434 231.008 674.17 232.024 674.17 233.192C674.17 234.36 674.434 235.376 674.962 236.24C675.49 237.104 676.234 237.776 677.194 238.256C678.17 238.736 679.306 238.976 680.602 238.976ZM693.762 239.912V226.472H695.058V238.592L705.738 226.472H707.418V239.912H706.122V227.792L695.442 239.912H693.762ZM700.362 224.888C699.162 224.888 698.186 224.568 697.434 223.928C696.698 223.272 696.258 222.36 696.114 221.192H697.362C697.522 222.024 697.866 222.672 698.394 223.136C698.922 223.584 699.578 223.808 700.362 223.808C701.162 223.808 701.818 223.584 702.33 223.136C702.858 222.672 703.202 222.024 703.362 221.192H704.61C704.466 222.36 704.018 223.272 703.266 223.928C702.53 224.568 701.562 224.888 700.362 224.888ZM713.646 239.912V226.472H714.942V232.568H719.238L724.59 226.472H726.246L720.414 233.096L726.726 239.912H725.022L719.334 233.744H714.942V239.912H713.646ZM737.466 240.2C735.93 240.2 734.578 239.904 733.41 239.312C732.242 238.72 731.33 237.896 730.674 236.84C730.018 235.784 729.69 234.568 729.69 233.192C729.69 231.8 730.018 230.584 730.674 229.544C731.33 228.488 732.242 227.664 733.41 227.072C734.578 226.48 735.93 226.184 737.466 226.184C739.002 226.184 740.354 226.48 741.522 227.072C742.69 227.664 743.602 228.488 744.258 229.544C744.914 230.584 745.242 231.8 745.242 233.192C745.242 234.568 744.914 235.784 744.258 236.84C743.602 237.896 742.69 238.72 741.522 239.312C740.354 239.904 739.002 240.2 737.466 240.2ZM737.466 238.976C738.778 238.976 739.914 238.736 740.874 238.256C741.834 237.776 742.578 237.104 743.106 236.24C743.634 235.376 743.898 234.36 743.898 233.192C743.898 232.024 743.634 231.008 743.106 230.144C742.578 229.28 741.834 228.608 740.874 228.128C739.914 227.648 738.778 227.408 737.466 227.408C736.17 227.408 735.034 227.648 734.058 228.128C733.098 228.608 732.354 229.28 731.826 230.144C731.298 231.008 731.034 232.024 731.034 233.192C731.034 234.36 731.298 235.376 731.826 236.24C732.354 237.104 733.098 237.776 734.058 238.256C735.034 238.736 736.17 238.976 737.466 238.976ZM764.33 234.992C764.138 236.016 763.706 236.92 763.034 237.704C762.362 238.488 761.514 239.104 760.49 239.552C759.482 239.984 758.362 240.2 757.13 240.2C755.69 240.2 754.418 239.904 753.314 239.312C752.21 238.72 751.346 237.896 750.722 236.84C750.098 235.784 749.786 234.568 749.786 233.192C749.786 231.8 750.098 230.584 750.722 229.544C751.346 228.488 752.21 227.664 753.314 227.072C754.418 226.48 755.69 226.184 757.13 226.184C758.362 226.184 759.482 226.408 760.49 226.856C761.514 227.288 762.362 227.896 763.034 228.68C763.706 229.448 764.138 230.352 764.33 231.392H762.938C762.666 230.176 762.002 229.208 760.946 228.488C759.89 227.768 758.618 227.408 757.13 227.408C755.914 227.408 754.858 227.648 753.962 228.128C753.066 228.608 752.37 229.28 751.874 230.144C751.378 231.008 751.13 232.024 751.13 233.192C751.13 234.36 751.378 235.376 751.874 236.24C752.37 237.104 753.066 237.776 753.962 238.256C754.858 238.736 755.914 238.976 757.13 238.976C758.634 238.976 759.914 238.616 760.97 237.896C762.026 237.176 762.682 236.208 762.938 234.992H764.33ZM767.214 226.472H780.654V227.648H774.582V239.912H773.286V227.648H767.214V226.472ZM785.262 239.912V226.472H786.558V231.416H792.678C793.67 231.416 794.534 231.592 795.27 231.944C796.006 232.296 796.574 232.792 796.974 233.432C797.39 234.072 797.598 234.816 797.598 235.664C797.598 236.512 797.39 237.256 796.974 237.896C796.574 238.536 796.006 239.032 795.27 239.384C794.534 239.736 793.67 239.912 792.678 239.912H785.262ZM786.558 238.736H792.702C793.79 238.736 794.654 238.456 795.294 237.896C795.934 237.336 796.254 236.592 796.254 235.664C796.254 234.72 795.934 233.976 795.294 233.432C794.654 232.872 793.79 232.592 792.702 232.592H786.558V238.736ZM826.384 238.736V243.488H825.184V239.912H809.968V243.488H808.768V238.736H810.52C811.656 237.536 812.224 235.072 812.224 231.344C812.224 230.576 812.2 229.768 812.152 228.92C812.12 228.072 812.064 227.256 811.984 226.472H823.84V238.736H826.384ZM822.544 238.736V227.648H813.304C813.352 228.256 813.392 228.864 813.424 229.472C813.456 230.224 813.472 230.928 813.472 231.584C813.472 234.048 813.224 235.992 812.728 237.416C812.536 237.96 812.328 238.4 812.104 238.736H822.544ZM837.694 240.2C836.158 240.2 834.806 239.904 833.638 239.312C832.47 238.72 831.558 237.896 830.902 236.84C830.246 235.784 829.918 234.568 829.918 233.192C829.918 231.8 830.246 230.584 830.902 229.544C831.558 228.488 832.47 227.664 833.638 227.072C834.806 226.48 836.158 226.184 837.694 226.184C839.23 226.184 840.582 226.48 841.75 227.072C842.918 227.664 843.83 228.488 844.486 229.544C845.142 230.584 845.47 231.8 845.47 233.192C845.47 234.568 845.142 235.784 844.486 236.84C843.83 237.896 842.918 238.72 841.75 239.312C840.582 239.904 839.23 240.2 837.694 240.2ZM837.694 238.976C839.006 238.976 840.142 238.736 841.102 238.256C842.062 237.776 842.806 237.104 843.334 236.24C843.862 235.376 844.126 234.36 844.126 233.192C844.126 232.024 843.862 231.008 843.334 230.144C842.806 229.28 842.062 228.608 841.102 228.128C840.142 227.648 839.006 227.408 837.694 227.408C836.398 227.408 835.262 227.648 834.286 228.128C833.326 228.608 832.582 229.28 832.054 230.144C831.526 231.008 831.262 232.024 831.262 233.192C831.262 234.36 831.526 235.376 832.054 236.24C832.582 237.104 833.326 237.776 834.286 238.256C835.262 238.736 836.398 238.976 837.694 238.976ZM867.129 221.912V238.712H873.681V239.912H858.681V238.712H865.785V223.184L859.473 224.192V223.04L866.049 221.912H867.129ZM884.036 221.624C886.42 221.624 888.284 222.04 889.628 222.872C890.972 223.688 891.644 224.832 891.644 226.304C891.644 227.712 890.996 228.816 889.7 229.616C889.108 230 888.396 230.288 887.564 230.48C888.652 230.672 889.572 230.984 890.324 231.416C891.748 232.248 892.46 233.448 892.46 235.016C892.46 236.632 891.716 237.904 890.228 238.832C888.756 239.744 886.692 240.2 884.036 240.2C881.38 240.2 879.308 239.744 877.82 238.832C876.348 237.904 875.612 236.632 875.612 235.016C875.612 233.448 876.332 232.24 877.772 231.392C878.508 230.96 879.412 230.656 880.484 230.48C879.684 230.272 878.988 229.984 878.396 229.616C877.084 228.816 876.428 227.712 876.428 226.304C876.428 224.832 877.1 223.688 878.444 222.872C879.804 222.04 881.668 221.624 884.036 221.624ZM884.036 229.976C885.284 229.976 886.38 229.832 887.324 229.544C888.268 229.256 888.996 228.84 889.508 228.296C890.036 227.752 890.3 227.088 890.3 226.304C890.3 225.216 889.74 224.36 888.62 223.736C887.516 223.112 885.988 222.8 884.036 222.8C882.084 222.8 880.548 223.112 879.428 223.736C878.324 224.36 877.772 225.216 877.772 226.304C877.772 227.088 878.036 227.752 878.564 228.296C879.092 228.84 879.82 229.256 880.748 229.544C881.692 229.832 882.788 229.976 884.036 229.976ZM884.036 239.024C886.26 239.024 887.996 238.672 889.244 237.968C890.492 237.248 891.116 236.264 891.116 235.016C891.116 233.72 890.508 232.752 889.292 232.112C888.092 231.472 886.34 231.152 884.036 231.152C881.732 231.152 879.972 231.48 878.756 232.136C877.556 232.792 876.956 233.752 876.956 235.016C876.956 236.264 877.58 237.248 878.828 237.968C880.076 238.672 881.812 239.024 884.036 239.024ZM905.017 240.2C903.129 240.2 901.513 239.816 900.169 239.048C898.841 238.264 897.825 237.176 897.121 235.784C896.417 234.392 896.065 232.768 896.065 230.912C896.065 229.056 896.417 227.432 897.121 226.04C897.825 224.648 898.841 223.568 900.169 222.8C901.513 222.016 903.129 221.624 905.017 221.624C906.889 221.624 908.489 222.016 909.817 222.8C911.145 223.568 912.161 224.648 912.865 226.04C913.569 227.432 913.921 229.056 913.921 230.912C913.921 232.768 913.569 234.4 912.865 235.808C912.161 237.2 911.145 238.28 909.817 239.048C908.489 239.816 906.889 240.2 905.017 240.2ZM904.993 239C907.361 239 909.209 238.288 910.537 236.864C911.865 235.44 912.529 233.456 912.529 230.912C912.529 228.368 911.865 226.384 910.537 224.96C909.209 223.536 907.361 222.824 904.993 222.824C902.625 222.824 900.777 223.536 899.449 224.96C898.121 226.384 897.457 228.368 897.457 230.912C897.457 233.456 898.121 235.44 899.449 236.864C900.777 238.288 902.625 239 904.993 239ZM928.221 239.912V226.472H930.117L936.741 238.616L943.365 226.472H945.261V239.912H944.013V227.912L937.389 239.912H936.093L929.469 227.936V239.912H928.221ZM951.504 239.912V226.472H952.8V238.592L963.48 226.472H965.16V239.912H963.864V227.792L953.184 239.912H951.504ZM971.388 226.472H972.684V232.568H983.1V226.472H984.396V239.912H983.1V233.744H972.684V239.912H971.388V226.472ZM992.776 244.16C992.2 244.16 991.688 244.088 991.24 243.944C990.792 243.8 990.32 243.568 989.824 243.248V242.12C990.288 242.408 990.736 242.616 991.168 242.744C991.616 242.888 992.136 242.96 992.728 242.96C993.432 242.96 994.024 242.8 994.504 242.48C995 242.16 995.416 241.664 995.752 240.992L996.52 239.48H995.728L989.128 226.472H990.568L996.808 238.904L1003.1 226.472H1004.49L996.76 241.568C996.456 242.144 996.112 242.624 995.728 243.008C995.344 243.392 994.904 243.68 994.408 243.872C993.928 244.064 993.384 244.16 992.776 244.16ZM1007.53 226.472H1020.97V227.648H1014.9V239.912H1013.6V227.648H1007.53V226.472Z" fill="white"/>
</svg>
