<svg width="426" height="254" viewBox="0 0 426 254" fill="none" xmlns="http://www.w3.org/2000/svg">
<path d="M317.562 155.831V209.961M339.214 173.874V209.961M101.043 119.744V209.961M79.3906 137.787V209.961" stroke="#9B8B69" stroke-width="10.826" stroke-linecap="round"/>
<path d="M216.521 195.526L248.998 209.961L281.476 224.395M220.129 166.657L252.607 181.091L285.085 195.526M220.129 134.179L252.607 148.613L285.085 163.048M220.129 101.701L252.607 116.135L285.085 130.57M220.129 72.8315L252.607 87.2661L285.085 101.701M220.129 40.3535L252.607 54.7882L285.085 69.2228" stroke="#454545" stroke-width="10.826" stroke-linecap="square"/>
<path d="M3.6084 228L422.213 228" stroke="#454545" stroke-width="7.21732" stroke-linecap="round"/>
<path d="M90.2148 249.658H335.604" stroke="#9C896A" stroke-width="7.21732" stroke-linecap="round"/>
<path d="M215.125 1.00781L294.516 36.7051L297.708 38.1406V123.389L370.01 154.46L373.286 155.867V229.802H362.46V162.998L297.708 135.173V229.802H286.883V45.1426L218.318 14.3125V229.802H124.492V95.2607L63.1455 119.8V229.802H52.3193V112.471L55.7217 111.109L124.492 83.6006V40.4814L127.651 39.0342L210.651 1.02246L212.885 0L215.125 1.00781ZM155.176 198.05C152.585 198.05 150.485 200.151 150.484 202.741C150.484 205.332 152.585 207.433 155.176 207.433H180.437C183.027 207.433 185.128 205.332 185.128 202.741C185.128 200.151 183.027 198.05 180.437 198.05H155.176ZM155.176 176.397C152.585 176.398 150.485 178.498 150.484 181.089C150.484 183.68 152.585 185.78 155.176 185.78H180.437C183.027 185.78 185.128 183.68 185.128 181.089C185.128 178.498 183.027 176.398 180.437 176.397H155.176ZM155.176 154.746C152.585 154.746 150.485 156.847 150.484 159.438C150.485 162.028 152.585 164.128 155.176 164.128H180.437C183.027 164.128 185.128 162.028 185.128 159.438C185.128 156.847 183.027 154.746 180.437 154.746H155.176ZM155.176 136.702C152.585 136.702 150.485 138.803 150.484 141.394C150.484 143.984 152.585 146.085 155.176 146.085H180.437C183.027 146.085 185.128 143.984 185.128 141.394C185.128 138.803 183.027 136.702 180.437 136.702H155.176ZM155.176 115.051C152.585 115.051 150.485 117.152 150.484 119.742C150.485 122.333 152.585 124.433 155.176 124.433H180.437C183.027 124.433 185.128 122.333 185.128 119.742C185.128 117.151 183.027 115.051 180.437 115.051H155.176ZM155.176 93.3984C152.585 93.3985 150.485 95.4992 150.484 98.0898C150.484 100.681 152.585 102.781 155.176 102.781H180.437C183.027 102.781 185.128 100.681 185.128 98.0898C185.128 95.4991 183.027 93.3985 180.437 93.3984H155.176ZM155.176 71.7461C152.585 71.7462 150.485 73.847 150.484 76.4375C150.484 79.0284 152.585 81.1288 155.176 81.1289H180.437C183.027 81.1288 185.128 79.0284 185.128 76.4375C185.128 73.847 183.027 71.7462 180.437 71.7461H155.176ZM155.176 53.7031C152.585 53.7032 150.485 55.8039 150.484 58.3945C150.484 60.9854 152.585 63.0858 155.176 63.0859H180.437C183.027 63.0859 185.128 60.9854 185.128 58.3945C185.128 55.8038 183.027 53.7032 180.437 53.7031H155.176Z" fill="#454545"/>
</svg>
